<svg width="49" height="49" viewBox="0 0 49 49" fill="none" xmlns="http://www.w3.org/2000/svg">
<rect width="49" height="49" rx="5" fill="white"/>
<path d="M23.6094 26.712C22.5451 26.712 21.9465 26.1564 21.9465 25.2675V25.2231C22.146 25.2231 22.5229 25.2453 22.7447 25.2453C24.6736 25.2453 25.6491 24.6453 25.6491 23.3342C25.6713 22.2231 24.851 21.4675 23.0772 21.4675C20.9266 21.4675 20.0841 22.4231 19.8845 24.1342C19.5741 24.112 19.2194 24.112 18.7759 24.112C18.7759 24.0231 18.7759 23.9342 18.7759 23.8231C18.7759 22.0898 18.0664 21.4453 16.1375 21.4453C15.2063 21.4453 14.3859 21.5786 13.876 21.7786L13.9425 23.1564C14.3859 22.9342 15.0289 22.6898 15.6497 22.6898C16.5366 22.6898 16.7805 23.0453 16.7805 23.912V24.0453C16.714 24.0453 16.5588 24.0453 16.4701 24.0453C14.2972 24.0453 13.2773 24.712 13.2773 25.9342C13.2773 27.2009 13.8982 27.9342 15.6941 27.9342C16.6253 27.9342 17.5787 27.8009 18.7759 27.8009C18.6872 27.2898 18.6872 26.5564 18.6872 26.0675C18.6872 25.8009 18.7094 25.4898 18.7094 25.1342C19.2194 25.1342 19.5963 25.1564 19.8402 25.1564C20.0619 27.2453 21.1261 28.0009 23.2989 28.0009C24.0971 28.0009 24.9175 27.8675 25.3609 27.6675L25.2944 26.2675C24.851 26.512 24.2745 26.712 23.6094 26.712ZM16.204 26.7786C15.5389 26.7786 15.2506 26.5564 15.2506 26.0009C15.2506 25.4675 15.6054 25.1564 16.5144 25.1564C16.6031 25.1564 16.6918 25.1564 16.7805 25.1564C16.7805 25.6675 16.7583 26.2898 16.8026 26.712C16.6253 26.7564 16.4036 26.7786 16.204 26.7786ZM21.9465 24.1342C21.9465 23.2675 22.2125 22.6231 23.0107 22.6231C23.4541 22.6231 23.7424 22.8675 23.7424 23.2898C23.7424 23.8898 23.3433 24.1786 22.5008 24.1786C22.3012 24.1786 22.0795 24.1786 21.9243 24.1564V24.1342H21.9465Z" fill="#7D3F98"/>
<path d="M29.5969 26.6C28.9539 26.6 28.7544 26.3556 28.7544 25.4V23H30.0181V21.6667H28.7765C28.7765 21.2 28.8209 20.4889 28.843 20H27.6679C27.5127 21.1778 27.1802 21.7778 26.0938 21.9556C26.0938 22.2667 26.1159 22.7111 26.0938 23H26.8032C26.7811 23.6667 26.7811 24.8889 26.7811 26C26.7811 27.4222 27.5127 28 28.8874 28C29.5525 28 30.0403 27.9111 30.2177 27.8444L30.129 26.4667C30.0403 26.5556 29.7964 26.6 29.5969 26.6Z" fill="#7D3F98"/>
<path d="M42.9216 26.1335C42.9216 25.5779 42.9881 24.7779 42.9881 23.8446C42.9881 22.1112 42.2786 21.4668 40.3497 21.4668C39.4185 21.4668 38.5981 21.6001 38.0882 21.8001L38.1547 23.1779C38.5981 22.9557 39.2411 22.7112 39.8619 22.7112C40.7488 22.7112 41.0148 23.0668 41.0148 23.9335V24.0668C40.9483 24.0668 40.7931 24.0668 40.7044 24.0668C38.5316 24.0668 37.5117 24.7335 37.5117 25.9557C37.5117 27.2224 38.1325 27.9557 39.9284 27.9557C40.8596 27.9557 41.813 27.8224 43.0103 27.8224C42.9216 27.3557 42.9216 26.6224 42.9216 26.1335ZM40.394 26.7779C39.7289 26.7779 39.4407 26.5557 39.4407 26.0001C39.4407 25.4668 39.7954 25.1557 40.7044 25.1557C40.7931 25.1557 40.8818 25.1557 40.9705 25.1557C40.9705 25.6668 40.9483 26.289 40.9927 26.7112C40.8375 26.7557 40.5936 26.7779 40.394 26.7779Z" fill="#7D3F98"/>
<path d="M36.7137 24.9772C36.7137 24.4438 36.7359 23.7549 36.7359 23.7549C36.7359 22.1772 36.0486 21.4883 34.0975 21.4883C33.0111 21.4883 32.2351 21.6883 31.0156 21.6883C31.0821 22.7994 31.0821 24.1549 31.0821 24.9994C31.0821 25.8661 31.06 27.3994 31.0156 27.8883H33.0998C33.0554 27.3994 33.0111 25.9549 33.0111 24.9994C33.0111 24.4438 33.0111 23.7772 33.0332 22.8883C33.2328 22.8216 33.4989 22.7549 33.7871 22.7549C34.5188 22.7549 34.7626 23.1105 34.7626 24.0438C34.7626 24.0438 34.7848 24.6438 34.7848 24.9772C34.7848 25.8438 34.7626 27.3772 34.7183 27.8661H36.8024C36.7581 27.3549 36.7137 25.9327 36.7137 24.9772Z" fill="#7D3F98"/>
<path d="M10.8621 21.1776C10.6626 20.9998 10.3965 20.8887 10.1526 20.8887C9.90875 20.8887 9.64269 20.9776 9.44315 21.1776L8.29022 22.3331L7.11512 21.1998C6.93775 20.9998 6.67169 20.8887 6.4278 20.8887C6.18391 20.8887 5.91785 20.9998 5.71831 21.1776L4.29932 22.5998C3.90023 22.9998 3.90023 23.622 4.29932 24.022L8.29022 27.9998L12.259 24.022C12.658 23.622 12.658 22.9998 12.259 22.5998L10.8621 21.1776Z" fill="#7D3F98"/>
</svg>
