<svg width="49" height="49" viewBox="0 0 49 49" fill="none" xmlns="http://www.w3.org/2000/svg">
<rect width="49" height="49" rx="5" fill="white"/>
<path d="M25.561 29.6209C25.3776 29.6209 25.2682 29.7159 25.1921 29.8264V29.1992H24.9219V30.8117H25.1921V30.1535C25.1921 29.9723 25.3015 29.8642 25.458 29.8642C25.6189 29.8642 25.7106 29.9679 25.7106 30.1492V30.8117H25.9809V30.0692C25.9814 29.7973 25.8269 29.6209 25.561 29.6209Z" fill="#0033FF"/>
<path d="M26.819 29.6211C26.4816 29.6211 26.2422 29.8949 26.2422 30.2289V30.2332C26.2422 30.5934 26.5061 30.8386 26.848 30.8386C27.0648 30.8386 27.2193 30.7523 27.3311 30.62L27.1722 30.4809C27.0785 30.5715 26.9843 30.62 26.8524 30.62C26.6783 30.62 26.5414 30.5139 26.5125 30.3239H27.3802C27.3821 30.2972 27.3846 30.273 27.3846 30.2487C27.3846 29.9129 27.1948 29.6211 26.819 29.6211ZM26.5105 30.147C26.535 29.9657 26.6513 29.8397 26.8166 29.8397C26.9956 29.8397 27.0981 29.9744 27.1163 30.147H26.5105Z" fill="#0033FF"/>
<path d="M27.3017 28.1349C27.3017 27.912 27.2198 27.8989 27.2198 27.8989H27.0967C26.8917 27.8989 26.6866 27.6963 26.6866 27.4937V25.4367C26.6866 24.6065 27.1884 24.1102 27.8339 24.1102C28.3872 24.1102 28.7973 24.4136 28.7973 25.082V27.4937C28.7973 27.6963 28.5922 27.8989 28.3872 27.8989H28.2641C28.2641 27.8989 28.1822 27.9202 28.1822 28.1267C28.1822 28.3331 28.2641 28.4441 28.2641 28.4441H30.6822C30.6822 28.4441 30.7642 28.3545 30.7642 28.148C30.7642 27.9415 30.6822 27.8994 30.6822 27.8994H30.5591C30.3541 27.8994 30.1491 27.6968 30.1491 27.4942V25.0321C30.1491 23.8674 29.4114 23.3008 28.3455 23.3008C27.5568 23.3008 26.952 23.6653 26.5831 24.2018C26.5831 24.2018 26.5812 23.6706 26.5812 23.6066C26.5812 23.4331 26.4125 23.3725 26.2104 23.453C26.074 23.5073 25.3854 23.7467 24.8016 23.7467C24.7693 23.7893 24.7188 23.8756 24.7188 24.0167C24.7188 24.1407 24.7482 24.2057 24.8007 24.2905H24.9238C25.1288 24.2905 25.3338 24.4931 25.3338 24.6957V27.4937C25.3338 27.6963 25.1288 27.8989 24.9238 27.8989H24.8007C24.8007 27.8989 24.7188 27.912 24.7188 28.1306C24.7188 28.3496 24.8007 28.4437 24.8007 28.4437H27.2188C27.2203 28.4441 27.3017 28.3583 27.3017 28.1349Z" fill="#0033FF"/>
<path d="M22.8324 23.671C22.4665 23.4345 22.0079 23.2949 21.5042 23.2949C20.2387 23.2949 19.3096 24.132 19.3096 25.1813C19.3096 25.8269 19.6667 26.3513 20.1567 26.6741L19.2969 27.7297C19.2969 27.7297 19.1875 27.9255 19.1875 28.1203C19.1875 28.3147 19.3126 28.4461 19.3126 28.4461H19.9223C19.4735 28.7082 19.2689 29.1449 19.2689 29.5181C19.2689 30.2442 19.912 30.8394 21.3516 30.8394C22.801 30.8394 24.1484 30.0828 24.1484 28.8924C24.1484 28.0452 23.6383 27.4709 22.362 27.4709H20.4329L20.8106 26.9659C21.0249 27.0366 21.1986 27.0667 21.5046 27.0667C22.7603 27.0667 23.6991 26.2194 23.6991 25.1803C23.6991 24.8575 23.6079 24.5556 23.447 24.2914H24.1931C24.2323 24.224 24.275 24.1305 24.275 23.9744C24.275 23.8523 24.2289 23.72 24.194 23.6701H22.8324V23.671ZM20.8101 28.4461H21.9534C22.6372 28.4461 22.8721 28.8226 22.8721 29.2055C22.8721 29.6897 22.4027 30.1836 21.5556 30.1836C20.7596 30.1836 20.3103 29.8308 20.3103 29.3063C20.3098 28.9535 20.5143 28.5973 20.8101 28.4461ZM21.5042 26.4419C20.9327 26.4419 20.5648 25.9679 20.5648 25.1813C20.5648 24.3947 20.9322 23.9206 21.5042 23.9206C22.0658 23.9206 22.4331 24.3947 22.4331 25.1813C22.4331 25.9679 22.0658 26.4419 21.5042 26.4419Z" fill="#0033FF"/>
<path d="M15.5268 26.7502C15.3625 26.6935 15.2281 26.7434 15.2281 26.7434C14.8485 27.3948 14.5051 27.6948 13.9714 27.6948C13.0081 27.6948 12.3935 26.8345 12.3935 25.8119C12.3935 24.86 12.8237 23.9284 13.8179 23.9284C14.4428 23.9284 14.923 24.3133 14.923 24.9002L14.9372 25.0824C14.9372 25.0824 14.9181 25.1634 15.1781 25.1634C15.4381 25.1634 15.5087 25.0824 15.5087 25.0824L15.4572 23.7564C15.4572 23.7564 15.4518 23.7215 15.4331 23.6972C15.415 23.6735 15.3851 23.6551 15.3851 23.6551C14.9853 23.4326 14.4526 23.3008 13.8277 23.3008C12.3626 23.3008 11 24.2725 11 26.0247C11 27.594 12.1988 28.5862 13.5722 28.5862C14.8632 28.5862 15.4626 27.7859 15.7289 26.8951C15.7284 26.8942 15.6563 26.7948 15.5268 26.7502Z" fill="#0033FF"/>
<path d="M17.3632 22.9389C17.8311 22.9389 18.2108 22.554 18.2108 22.08C18.2108 21.605 17.8311 21.2207 17.3632 21.2207C16.8953 21.2207 16.5156 21.605 16.5156 22.08C16.5156 22.554 16.8953 22.9389 17.3632 22.9389Z" fill="#0033FF"/>
<path d="M18.0411 24.5125C18.0411 24.3099 18.2462 24.1073 18.4512 24.1073H18.5743C18.5743 24.1073 18.6562 24.0564 18.6562 23.8601C18.6562 23.6633 18.5743 23.5625 18.5743 23.5625H16.1562C16.1562 23.5625 16.0742 23.6861 16.0742 23.8771C16.0742 24.068 16.1562 24.1073 16.1562 24.1073H16.2793C16.4843 24.1073 16.6893 24.3099 16.6893 24.5125V26.5369V27.4937C16.6893 27.6963 16.4843 27.8989 16.2793 27.8989H16.1562C16.1562 27.8989 16.0742 27.9386 16.0742 28.1296C16.0742 28.3205 16.1562 28.4441 16.1562 28.4441H18.5743C18.5743 28.4441 18.6562 28.3433 18.6562 28.1465C18.6562 27.9503 18.5743 27.8994 18.5743 27.8994H18.4512C18.2462 27.8994 18.0411 27.6968 18.0411 27.4942V26.7962V24.5125Z" fill="#0033FF"/>
<path d="M33.6617 29.627C33.4694 29.627 33.3419 29.6667 33.2124 29.7244L33.286 29.9386C33.3934 29.8945 33.4915 29.8659 33.6234 29.8659C33.8113 29.8659 33.9143 29.9541 33.9143 30.1155V30.1378C33.8226 30.1092 33.7308 30.0893 33.5881 30.0893C33.3129 30.0893 33.1094 30.2129 33.1094 30.4717V30.4761C33.1094 30.7102 33.3061 30.8362 33.5297 30.8362C33.7083 30.8362 33.8314 30.7635 33.9118 30.6685V30.812H34.1802V30.1203C34.1802 29.8087 34.0099 29.627 33.6617 29.627ZM33.9187 30.3893C33.9187 30.5352 33.7843 30.6346 33.6058 30.6346C33.4782 30.6346 33.3777 30.573 33.3777 30.4625V30.4582C33.3777 30.3452 33.4782 30.2769 33.648 30.2769C33.7529 30.2769 33.849 30.2968 33.9182 30.3234V30.3893H33.9187Z" fill="#0033FF"/>
<path d="M34.7703 29.908V29.6453H34.5V30.812H34.7703V30.368C34.7703 30.0588 34.9356 29.9066 35.173 29.9066H35.1887V29.6235C34.9802 29.6143 34.8439 29.734 34.7703 29.908Z" fill="#0033FF"/>
<path d="M36.7945 27.7157C36.7945 27.5586 36.7126 27.5111 36.7126 27.5111H36.5894C36.3844 27.5111 36.1799 27.3085 36.1799 27.1059V23.5455C36.1799 23.5455 36.172 23.4408 36.0587 23.4408H35.7468C35.6854 23.4408 35.6384 23.4917 35.6384 23.4917L35.2038 24.0525C35.1528 24.1184 35.0944 24.053 35.0944 24.053V24.0535C34.8035 23.7147 34.315 23.2988 33.4336 23.2988C32.1117 23.2988 30.8516 24.2507 30.8516 25.9922C30.8516 27.6221 31.9376 28.5842 33.2697 28.5842C34.028 28.5842 34.5097 28.2701 34.8889 27.784V28.386C34.8889 28.386 34.8938 28.5236 35.0502 28.5575C35.191 28.5881 35.2989 28.5435 35.2989 28.5435L36.713 27.9464C36.7121 27.9469 36.7945 27.8732 36.7945 27.7157ZM33.5356 27.9163C32.6238 27.9163 32.2446 27.0255 32.2446 25.9418C32.2446 24.8585 32.6238 23.9677 33.5356 23.9677C34.4474 23.9677 34.8266 24.8585 34.8266 25.9418C34.8271 27.0255 34.4479 27.9163 33.5356 27.9163Z" fill="#0033FF"/>
<path d="M28.1309 29.627C27.9386 29.627 27.8111 29.6667 27.6816 29.7244L27.7552 29.9386C27.8626 29.8945 27.9607 29.8659 28.0926 29.8659C28.2805 29.8659 28.3835 29.9541 28.3835 30.1155V30.1378C28.2918 30.1092 28.2001 30.0893 28.0569 30.0893C27.7817 30.0893 27.5781 30.2129 27.5781 30.4717V30.4761C27.5781 30.7102 27.7748 30.8362 27.9985 30.8362C28.177 30.8362 28.3001 30.7635 28.3806 30.6685V30.812H28.6489V30.1203C28.6494 29.8087 28.4797 29.627 28.1309 29.627ZM28.3879 30.3893C28.3879 30.5352 28.2536 30.6346 28.075 30.6346C27.9475 30.6346 27.8469 30.573 27.8469 30.4625V30.4582C27.8469 30.3452 27.9475 30.2769 28.1172 30.2769C28.2221 30.2769 28.3183 30.2968 28.3875 30.3234V30.3893H28.3879Z" fill="#0033FF"/>
<path d="M35.8971 29.6211C35.5597 29.6211 35.3203 29.8949 35.3203 30.2289V30.2332C35.3203 30.5934 35.5842 30.8386 35.9261 30.8386C36.1429 30.8386 36.2974 30.7523 36.4092 30.62L36.2503 30.4809C36.1566 30.5715 36.0624 30.62 35.9305 30.62C35.7564 30.62 35.6195 30.5139 35.5906 30.3239H36.4583C36.4602 30.2972 36.4627 30.273 36.4627 30.2487C36.4627 29.9129 36.2729 29.6211 35.8971 29.6211ZM35.5886 30.147C35.6131 29.9657 35.7294 29.8397 35.8947 29.8397C36.0737 29.8397 36.1762 29.9744 36.1944 30.147H35.5886Z" fill="#0033FF"/>
<path d="M32.4716 30.6064C32.2636 30.6064 32.1184 30.4387 32.1184 30.2308V30.2264C32.1184 30.0234 32.2616 29.8552 32.4583 29.8552C32.5947 29.8552 32.682 29.9148 32.7644 30.0011L32.9321 29.8222C32.8228 29.703 32.684 29.6211 32.4603 29.6211C32.1071 29.6211 31.8477 29.8993 31.8477 30.2308V30.2352C31.8477 30.5667 32.1071 30.8381 32.4578 30.8381C32.6879 30.8381 32.8242 30.7475 32.941 30.6195L32.7776 30.4605C32.6928 30.5468 32.5991 30.6064 32.4716 30.6064Z" fill="#0033FF"/>
<path d="M29.2546 29.1992H28.9844V30.8117H29.2546V29.1992Z" fill="#0033FF"/>
<path d="M29.9355 29.3262H29.6652V29.6465H29.5156V29.8763H29.6652V30.4904C29.6652 30.7467 29.806 30.8325 30.0052 30.8325C30.1057 30.8325 30.1817 30.8103 30.2489 30.7729V30.5543C30.195 30.581 30.1415 30.5941 30.0812 30.5941C29.9894 30.5941 29.936 30.5519 29.936 30.4482V29.8758H30.2533V29.6461H29.936V29.3262H29.9355Z" fill="#0033FF"/>
<path d="M31.1665 29.6209C30.983 29.6209 30.8736 29.7159 30.7976 29.8264V29.1992H30.5273V30.8117H30.7976V30.1535C30.7976 29.9723 30.907 29.8642 31.064 29.8642C31.2249 29.8642 31.3166 29.9679 31.3166 30.1492V30.8117H31.5868V30.0692C31.5868 29.7973 31.4323 29.6209 31.1665 29.6209Z" fill="#0033FF"/>
<path fill-rule="evenodd" clip-rule="evenodd" d="M16.7362 19.1495C16.7372 18.6096 16.9844 18.1278 17.3709 17.8046C17.7565 18.1293 18.0012 18.612 18.0002 19.1519C17.9992 19.6919 17.7525 20.1736 17.3655 20.4969C16.98 20.1722 16.7352 19.6895 16.7362 19.1495ZM18.6575 17.7701C18.4981 18.1482 18.528 18.5573 18.7031 18.8956C19.0695 18.7797 19.3839 18.5127 19.5434 18.1346C19.7028 17.7566 19.6728 17.3475 19.4977 17.0092C19.1318 17.1246 18.8169 17.3921 18.6575 17.7701ZM15.1926 18.1254C15.3505 18.5039 15.664 18.7725 16.0299 18.8893C16.2065 18.5514 16.2379 18.1429 16.0799 17.7638C15.922 17.3853 15.6086 17.1168 15.2427 17C15.0661 17.3378 15.0347 17.7464 15.1926 18.1254ZM12.9966 20.7974C13.3792 20.9549 13.7932 20.9254 14.1356 20.7523C14.0184 20.3903 13.7481 20.0796 13.3655 19.9221C12.9829 19.7646 12.5689 19.7941 12.2266 19.9667C12.3438 20.3287 12.6141 20.6399 12.9966 20.7974ZM21.3621 19.94C20.979 20.0961 20.7073 20.4058 20.5891 20.7674C20.931 20.9418 21.3445 20.9729 21.728 20.8168C22.1111 20.6607 22.3828 20.351 22.5011 19.9895C22.1592 19.815 21.7452 19.784 21.3621 19.94ZM20.3252 21.4653C19.7788 21.4643 19.2902 21.7062 18.9616 22.0876C19.2888 22.47 19.7763 22.7138 20.3227 22.7148C20.8692 22.7158 21.3577 22.4739 21.6864 22.0925C21.3597 21.71 20.8716 21.4663 20.3252 21.4653ZM19.0161 19.5731C18.6291 19.9541 18.4564 20.4669 18.4971 20.9656C19.0018 21.0073 19.5213 20.8391 19.9088 20.4581C20.2958 20.0772 20.4684 19.5644 20.4277 19.0657C19.9225 19.0235 19.4036 19.1922 19.0161 19.5731ZM14.4064 21.4653C13.8599 21.4663 13.3724 21.71 13.0452 22.0925C13.3734 22.4739 13.8624 22.7158 14.4088 22.7148C14.9552 22.7138 15.4428 22.47 15.7699 22.0876C15.4413 21.7062 14.9528 21.4643 14.4064 21.4653ZM15.7155 19.5731C15.3285 19.1922 14.8091 19.024 14.3038 19.0657C14.2631 19.5644 14.4358 20.0772 14.8228 20.4581C15.2098 20.8391 15.7297 21.0073 16.2344 20.9656C16.2752 20.4664 16.1025 19.9541 15.7155 19.5731Z" fill="#03CC54"/>
</svg>
