<svg width="49" height="49" viewBox="0 0 49 49" fill="none" xmlns="http://www.w3.org/2000/svg">
<rect width="49" height="49" rx="5" fill="white"/>
<path d="M24.5357 17.272L24.5141 17.2866C22.5794 18.5603 20.7458 20.1634 18.9844 22.1251C20.9046 23.245 22.7526 24.5919 24.4491 26.2242C26.1455 24.5919 27.9936 23.245 29.9138 22.1251L31.899 14C29.2858 14.6808 26.8386 15.7495 24.5357 17.272Z" fill="#EFAF2D"/>
<path d="M17 14C17.2021 14.8271 17.3465 15.3908 17.5486 16.2106C17.6858 16.7596 17.9096 17.6966 18.0467 18.2529C18.1839 18.8165 18.3788 19.6436 18.516 20.2073C18.7037 20.9759 18.8047 21.3565 18.9924 22.1251C19.5194 21.5395 20.0608 20.9759 20.6239 20.4269C21.3097 19.7681 22.0171 19.1459 22.7607 18.553C22.9339 18.4212 23.1 18.2895 23.2732 18.1577C23.4393 18.0333 23.6125 17.9088 23.7785 17.7917C24.0312 17.616 24.2911 17.4477 24.5437 17.2647C24.0023 16.906 23.9734 16.8987 23.4176 16.5839C23.0639 16.3863 22.9917 16.2984 21.1148 15.4054C19.7793 14.7686 18.3788 14.3514 17 14Z" fill="#522380"/>
<path d="M37.6185 35.5811V35.2013C37.4333 35.1372 37.1512 35.0519 36.684 35.0519C35.9894 35.0519 35.6064 35.3635 35.6064 35.8244V35.8372C35.6064 36.3196 36.0568 36.6013 36.5577 36.6013C37.1807 36.6013 37.6185 36.2171 37.6185 35.5811ZM35.2696 35.8586V35.8458C35.2696 35.1543 35.8547 34.7659 36.7008 34.7659C37.1554 34.7659 37.3954 34.8427 37.6101 34.9067V34.7659C37.6101 34.0958 37.206 33.75 36.5324 33.75C36.2546 33.75 35.981 33.8226 35.6779 33.9805L35.5643 33.7031C35.9263 33.5323 36.2083 33.4555 36.5493 33.4555C36.9913 33.4555 37.3449 33.5793 37.5848 33.8183C37.8037 34.0403 37.9174 34.3433 37.9174 34.7573V36.8232H37.6101V36.3196C37.4838 36.5372 37.1428 36.9001 36.5324 36.9001C35.9263 36.9043 35.2696 36.5501 35.2696 35.8586ZM34.5582 35.0092C34.5119 34.3391 34.1331 33.7201 33.3838 33.7201C32.7355 33.7201 32.2346 34.275 32.1757 35.0092H34.5582ZM31.8431 35.1714V35.1586C31.8431 34.1939 32.5124 33.4256 33.3964 33.4256C34.3141 33.4256 34.8992 34.1811 34.8992 35.1628C34.8992 35.2226 34.8992 35.2397 34.8908 35.2952H32.1757C32.2346 36.1232 32.8155 36.6055 33.4595 36.6055C33.9647 36.6055 34.3141 36.3793 34.5835 36.0848L34.8024 36.2811C34.4698 36.6482 34.0783 36.9043 33.4469 36.9043C32.5882 36.9001 31.8431 36.2043 31.8431 35.1714ZM3 32.2646H6.33388V32.9817H3.79138V34.1683H6.04343V34.8854H3.79138V36.1104H6.36756V36.8232H3V32.2646ZM6.89795 33.3872H7.67248V33.9079C7.89138 33.6006 8.18604 33.3146 8.70801 33.3146C9.1963 33.3146 9.53727 33.5537 9.71828 33.9208C9.9961 33.5579 10.3539 33.3146 10.8675 33.3146C11.6041 33.3146 12.0545 33.7884 12.0545 34.6293V36.8232H11.2758V34.8683C11.2758 34.322 11.0232 34.0275 10.5896 34.0275C10.1645 34.0275 9.86561 34.3262 9.86561 34.8811V36.8232H9.08686V34.8641C9.08686 34.3305 8.83008 34.0317 8.40072 34.0317C7.97135 34.0317 7.67669 34.3561 7.67669 34.8897V36.8232H6.89795V33.3872ZM15.4558 35.1116V35.0988C15.4558 34.433 15.0138 33.9976 14.4876 33.9976C13.9614 33.9976 13.4984 34.4415 13.4984 35.0988V35.1116C13.4984 35.7775 13.9614 36.2129 14.4876 36.2129C15.018 36.2129 15.4558 35.7903 15.4558 35.1116ZM13.5152 36.2897V36.8232H12.7364V32.0726H13.5152V33.9592C13.7636 33.6006 14.1171 33.3146 14.6644 33.3146C15.4684 33.3146 16.2429 33.9592 16.2429 35.0988V35.1116C16.2429 36.2513 15.4726 36.8958 14.6644 36.8958C14.1087 36.8958 13.7551 36.6098 13.5152 36.2897ZM16.7691 36.8232V32.0726H17.5478V36.8232H16.7691ZM20.625 34.8641C20.5744 34.3561 20.2798 33.9592 19.7662 33.9592C19.2906 33.9592 18.958 34.3305 18.8864 34.8641H20.625ZM18.1161 35.1202V35.1074C18.1161 34.1256 18.8023 33.3146 19.7746 33.3146C20.8523 33.3146 21.3995 34.1726 21.3995 35.1628C21.3995 35.2354 21.3911 35.3037 21.3869 35.3848H18.8949C18.9791 35.9439 19.3705 36.2598 19.8715 36.2598C20.2503 36.2598 20.5197 36.1147 20.7891 35.85L21.2437 36.2598C20.9238 36.6482 20.4818 36.9043 19.8546 36.9043C18.8738 36.9043 18.1161 36.1787 18.1161 35.1202ZM21.9257 33.3872H22.7002V33.9079C22.9191 33.6006 23.2138 33.3146 23.7357 33.3146C24.224 33.3146 24.565 33.5537 24.7418 33.9208C25.0196 33.5579 25.3774 33.3146 25.891 33.3146C26.6318 33.3146 27.0822 33.7884 27.0822 34.6293V36.8232H26.3035V34.8683C26.3035 34.322 26.0551 34.0275 25.6174 34.0275C25.1922 34.0275 24.8933 34.3262 24.8933 34.8811V36.8232H24.1188V34.8641C24.1188 34.3305 23.862 34.0317 23.4327 34.0317C23.0033 34.0317 22.7086 34.3561 22.7086 34.8897V36.8232H21.9341L21.9257 33.3872ZM27.7894 32.2646H28.122V34.3732H30.997V32.2646H31.3296V36.8232H30.997V34.6891H28.1178V36.8232H27.7852V32.2646H27.7894ZM38.6161 36.8232V32.0726H38.9318V36.8232H38.6161ZM39.98 35.9696V33.7927H39.5043V33.4982H39.98V32.4396H40.2957V33.5025H41.4449V33.797H40.2957V35.9397C40.2957 36.4135 40.5735 36.5842 40.9482 36.5842C41.1081 36.5842 41.2428 36.5501 41.428 36.469V36.7677C41.2597 36.8488 41.0786 36.8873 40.8934 36.8873C40.3925 36.883 39.98 36.6013 39.98 35.9696ZM42.0384 32.0726H42.3541V34.1256C42.573 33.7329 42.9392 33.4299 43.537 33.4299C44.3662 33.4299 44.8461 34.0019 44.8461 34.7958V36.8232H44.5304V34.8513C44.5304 34.1683 44.1515 33.7159 43.4907 33.7159C42.8466 33.7159 42.3541 34.211 42.3541 34.9025V36.8232H42.0384V32.0726ZM45.4691 32.3713H45.2839V32.5976H45.4649C45.5533 32.5976 45.6122 32.5592 45.6122 32.4823C45.6164 32.414 45.5617 32.3713 45.4691 32.3713ZM45.5491 32.6701L45.7427 32.9262H45.6248L45.4438 32.6872H45.2839V32.9262H45.1913V32.286H45.4733C45.6122 32.286 45.709 32.3585 45.709 32.4781C45.7132 32.5848 45.6459 32.6445 45.5491 32.6701ZM45.4354 32.0555C45.1155 32.0555 44.8756 32.3116 44.8756 32.6232C44.8756 32.9348 45.1113 33.1866 45.4312 33.1866C45.7469 33.1866 45.9911 32.9305 45.9911 32.6189C45.9911 32.3116 45.7511 32.0555 45.4354 32.0555ZM45.4354 33.2421C45.0987 33.2421 44.8251 32.9689 44.8251 32.6274V32.6232C44.8251 32.2817 45.0987 32 45.4396 32C45.7764 32 46.05 32.2774 46.05 32.6146C46.05 32.6146 46.05 32.6146 46.05 32.6189C46.0458 32.9646 45.7722 33.2421 45.4354 33.2421Z" fill="#522380"/>
</svg>
