<svg width="49" height="49" viewBox="0 0 49 49" fill="none" xmlns="http://www.w3.org/2000/svg">
<rect width="49" height="49" rx="5" fill="white"/>
<g clip-path="url(#clip0_879_151)">
<path d="M26.7488 30.3118H24.107C24.1266 30.1577 24.1379 30.034 24.1584 29.9118C24.1742 29.8146 24.2007 29.7197 24.2362 29.5672C23.7706 29.8131 23.3956 30.0264 23.0064 30.2093C22.8438 30.286 22.6518 30.3316 22.4727 30.3331C21.4651 30.3445 20.4567 30.3308 19.4491 30.3422C18.988 30.3475 18.6251 30.1494 18.4414 29.7607C18.2313 29.3167 18.0378 28.8248 18.4498 28.3427H20.7485C20.8913 28.6153 21.0206 28.862 21.1234 29.0586C21.6079 29.1436 21.9179 28.9963 22.1635 28.6927C22.3805 28.424 22.351 28.1993 22.0297 28.0687C21.583 27.8873 21.1181 27.7506 20.6578 27.6026C20.1022 27.4242 19.5224 27.2899 19.1936 26.6598C17.9478 27.554 17.6644 28.9295 17.2962 30.2959H14.5508C15.1034 28.9113 15.4571 27.5449 14.6808 26.0806C14.5977 26.2476 14.5221 26.3569 14.4873 26.4769C14.2431 27.321 14.0058 28.1674 13.7692 29.0138C13.6989 29.2658 13.6369 29.5201 13.5689 29.7729C13.5205 29.9513 13.4668 30.1281 13.4124 30.3164H10.1099C10.0297 29.076 9.95112 27.8524 9.8725 26.6279C9.84453 26.6204 9.81657 26.6128 9.78784 26.6052C9.46734 27.1548 9.36075 27.7863 9.18312 28.3898C9.00019 29.01 8.83087 29.6347 8.64416 30.2989H6C6.61909 28.0953 7.22683 25.9281 7.86179 23.6667C7.94268 23.6295 8.09083 23.5035 8.2405 23.5012C9.28592 23.4861 10.3313 23.4959 11.3775 23.499C11.4259 23.499 11.4743 23.5187 11.5907 23.5438C11.6391 23.7624 11.7252 23.9992 11.7381 24.2391C11.7683 24.8198 11.7487 25.4035 11.7789 25.9842C11.8008 26.4078 11.8696 26.8291 11.9271 27.3385C12.0412 27.239 12.141 27.1957 12.1599 27.1289C12.3776 26.3623 12.5779 25.5918 12.7933 24.8243C12.8969 24.4547 13.0224 24.0911 13.1698 23.6257C13.268 23.5954 13.4343 23.5012 13.6021 23.499C14.5848 23.4845 15.5675 23.4861 16.5502 23.4974C16.7112 23.499 16.8714 23.5772 17.0483 23.625C17.0483 24.1078 17.0324 24.5374 17.0528 24.9655C17.0725 25.3732 16.9606 25.8051 17.2751 26.234C17.4951 25.9182 17.7173 25.6282 17.9093 25.3193C18.2374 24.7925 18.5322 24.2452 18.8738 23.7275C18.9547 23.6052 19.1618 23.5043 19.3122 23.5012C20.8868 23.4762 22.4613 23.4648 24.0359 23.4671C24.7653 23.4678 25.2703 23.8421 25.6105 24.5981C25.6906 24.4144 25.7548 24.2968 25.7956 24.1708C26.002 23.5308 26.0474 23.4739 26.6309 23.4876C27.1601 23.5005 27.6892 23.4883 28.2183 23.4921C28.3521 23.4929 28.4867 23.5134 28.7097 23.5324C28.5025 24.2634 28.309 24.945 28.0974 25.6882C28.3687 26.1118 28.811 25.8058 29.2093 25.9106C29.4482 25.1348 29.675 24.4 29.9017 23.6629H32.5769C31.9328 25.9091 31.3032 28.1059 30.6712 30.3103H27.959C28.1322 29.5057 28.4995 28.7724 28.5373 27.9245H27.5297C27.4798 27.9791 27.4133 28.052 27.3468 28.1241C27.3619 28.1294 27.377 28.1355 27.3929 28.1408C27.1752 28.8733 26.9575 29.6066 26.7488 30.3088V30.3118ZM24.9248 26.9931C24.9528 26.9756 24.9815 26.9589 25.0095 26.9415C25.0216 26.4534 25.457 26.048 25.2703 25.4605H23.1628C22.9217 24.9503 22.6919 24.8023 22.3374 24.8873C22.0305 24.961 21.8733 25.1993 21.8982 25.5827C22.2157 25.8825 22.6579 25.9227 23.0608 26.0518C23.6443 26.2393 24.2717 26.3273 24.7109 26.8268C24.7691 26.8936 24.8523 26.9384 24.9241 26.9931H24.9248Z" fill="#193686"/>
<path d="M37.4125 28.1522C37.2221 28.7959 37.0059 29.5239 36.7768 30.2974H34.0586C34.5348 28.6828 35.0027 27.0963 35.4457 25.5941C35.9151 25.3663 36.2999 25.1948 36.6687 24.9944C36.8932 24.8729 37.2032 24.7355 37.0905 24.4197C37.0285 24.2459 36.7753 24.1404 36.6083 24.0038C36.5856 24.0227 36.5622 24.0417 36.5395 24.0607V23.6493C36.6922 23.6014 36.8691 23.5012 37.0474 23.499C38.0037 23.4838 38.9614 23.48 39.9176 23.5005C40.2752 23.5081 40.6433 23.5491 40.985 23.65C41.8066 23.8929 42.1899 24.8433 41.9034 25.5766C41.8134 25.8081 41.7469 26.0503 41.6403 26.2734C41.2246 27.1434 40.5601 27.7332 39.6077 27.9085C38.9349 28.0323 38.2456 28.0641 37.4118 28.153L37.4125 28.1522ZM37.8729 26.4412C38.7021 26.76 39.4021 26.1186 39.2093 25.3018C39.0884 25.2403 38.9289 25.1576 38.7671 25.0786C38.5736 24.9845 38.3438 25.0027 38.269 25.1841C38.1012 25.591 37.9999 26.0252 37.8736 26.442L37.8729 26.4412Z" fill="#193686"/>
<path d="M33.8085 20.6849C33.8735 20.4412 33.9438 20.1786 34.0444 19.8036C34.4488 19.4901 34.9908 19.1531 35.4277 18.7105C35.9606 18.17 36.5804 18.1344 37.2562 18.1571C37.4527 18.164 37.6523 18.0698 37.9411 18C37.8594 18.3196 37.8088 18.5807 37.7256 18.8304C37.4996 19.5121 37.2471 20.1854 37.0287 20.8694C36.8027 21.5768 36.616 22.2965 36.3884 23.0032C36.2327 23.4875 36.2267 24.0462 35.7527 24.3878C35.7066 24.4212 35.6817 24.4895 35.659 24.5464C35.6469 24.5775 35.6613 24.6193 35.6688 24.7256C35.9485 24.6724 36.2146 24.6216 36.5003 24.5677C36.3348 24.8713 35.5547 25.1894 35.2243 25.1119C35.2636 24.9601 35.303 24.8075 35.3445 24.6451C35.0157 24.3991 34.7043 24.1669 34.4125 23.9482C34.3966 23.7721 34.386 23.6469 34.3747 23.5262C34.2024 23.2856 33.9726 23.2112 33.6876 23.2127C32.3784 23.221 31.0691 23.2165 29.7599 23.2165C29.6117 23.2165 29.4628 23.2165 29.3253 23.2165C29.2217 22.8187 29.3683 22.6107 29.7501 22.4081C30.06 22.2433 30.3359 22.0141 30.6269 21.8137C30.6095 21.7886 30.5921 21.7636 30.5748 21.7393C30.5491 21.6558 30.5241 21.5723 30.5045 21.5093C30.5211 21.2679 30.7819 21.0591 31.0895 21.0523C31.5544 21.0409 32.0208 21.0394 32.4857 21.0546C32.8085 21.0645 33.0995 21.0022 33.3739 20.8253C33.4744 20.7608 33.6082 20.7479 33.8063 20.6864L33.8085 20.6849Z" fill="#193686"/>
<path d="M33.7389 30.3093H31.0312C31.6791 28.0829 32.3155 25.8951 32.9633 23.668H33.9377C33.9891 24.2411 34.4714 24.4688 34.8962 24.774C34.8463 24.9076 34.7994 25.0328 34.7359 25.2006C34.8198 25.319 34.9196 25.4579 35.0678 25.6659C34.6399 27.1606 34.1977 28.7046 33.7381 30.3093H33.7389Z" fill="#193686"/>
</g>
<defs>
<clipPath id="clip0_879_151">
<rect width="36" height="12.3428" fill="white" transform="translate(6 18)"/>
</clipPath>
</defs>
</svg>
