<svg width="49" height="49" viewBox="0 0 49 49" fill="none" xmlns="http://www.w3.org/2000/svg">
<g clip-path="url(#clip0_879_309)">
<rect width="49" height="49" rx="5" fill="white"/>
<path d="M31.9549 14.9044C32.1754 14.9699 32.3404 15.0867 32.4445 15.2799C32.5794 15.5312 32.5815 15.7926 32.4843 16.0555C32.4123 16.2508 32.2856 16.4119 32.1439 16.5621C31.9179 16.8004 31.6659 17.01 31.4186 17.2244C31.2789 17.3452 31.1399 17.4674 31.0009 17.5896C30.803 17.7651 30.6064 17.9426 30.4078 18.1174C30.2284 18.2751 30.0462 18.4308 29.8654 18.5878C29.6373 18.7851 29.4093 18.9825 29.1812 19.1805C28.9422 19.3873 28.7039 19.5956 28.4635 19.8011C28.2389 19.9936 28.0115 20.1834 27.7855 20.3746C27.6376 20.4995 27.4897 20.6245 27.3438 20.7521C27.1493 20.9235 27.0288 21.1434 26.9616 21.3878C26.9021 21.6035 26.8637 21.8254 26.8212 22.0453C26.7897 22.2071 26.763 22.3696 26.7404 22.5327C26.7185 22.6932 26.7021 22.8543 26.6898 23.0155C26.6603 23.3998 26.5096 23.7282 26.2446 24.0068C26.1076 24.1502 25.9529 24.269 25.7721 24.355C25.6488 24.413 25.5187 24.4438 25.3865 24.4629C25.1351 24.5004 24.8811 24.5086 24.627 24.5045C24.3243 24.4997 24.0223 24.4895 23.7196 24.4875C23.6086 24.4868 23.4977 24.4997 23.3867 24.5086C23.2046 24.5236 23.0546 24.6022 22.932 24.7367C22.9039 24.7681 22.8662 24.7913 22.8313 24.8159C22.819 24.8247 22.8005 24.8254 22.7765 24.8316C22.7663 24.7735 22.7532 24.7216 22.7478 24.6691C22.732 24.5155 22.7327 24.3625 22.7745 24.2123C22.8471 23.9529 23.0197 23.7883 23.271 23.7009C23.3984 23.6566 23.5312 23.634 23.6655 23.6313C23.8422 23.6279 24.0188 23.6286 24.1955 23.6313C24.4263 23.6354 24.6571 23.6484 24.8886 23.649C25.0338 23.649 25.1797 23.647 25.3221 23.6135C25.3413 23.6088 25.3611 23.6047 25.3803 23.6013C25.5399 23.5698 25.6419 23.477 25.6728 23.3172C25.7077 23.1363 25.744 22.9547 25.7673 22.7724C25.8221 22.3388 25.8727 21.9046 25.9748 21.4779C26.0282 21.2533 26.0953 21.0327 26.1919 20.8225C26.2556 20.6845 26.3432 20.5603 26.4439 20.4476C26.5863 20.2886 26.7274 20.1267 26.8856 19.984C27.1472 19.7471 27.4205 19.5232 27.691 19.2965C28.1499 18.9128 28.6121 18.5339 29.0703 18.1495C29.334 17.9283 29.5942 17.7023 29.8531 17.4743C30.0578 17.2933 30.2558 17.1042 30.4592 16.9219C30.6475 16.7526 30.8406 16.5881 31.0303 16.4201C31.2351 16.2385 31.4337 16.05 31.5946 15.8268C31.7782 15.5721 31.8864 15.2874 31.9391 14.9802C31.9425 14.9583 31.9473 14.9365 31.9535 14.9023L31.9549 14.9044Z" fill="#193686"/>
<path d="M28.7512 24.9841C28.7225 25.0517 28.6499 25.0339 28.6115 25.0804C28.6225 25.0933 28.6328 25.1097 28.6471 25.1213C28.6992 25.1643 28.7184 25.2197 28.7225 25.2859C28.728 25.3705 28.7362 25.4559 28.754 25.5385C28.7759 25.6416 28.8485 25.7071 28.9457 25.7392C29.0019 25.7577 29.0622 25.7665 29.1217 25.7693C29.3272 25.7781 29.5313 25.7536 29.736 25.7379C29.9114 25.7242 30.0894 25.7085 30.2627 25.7672C30.4305 25.8239 30.5318 25.9522 30.538 26.1291C30.5469 26.396 30.4435 26.6125 30.225 26.7668C30.0805 26.8685 29.9278 26.9579 29.7799 27.0549C29.6895 27.1143 29.595 27.1703 29.5142 27.2413C29.1779 27.5349 29.2724 28.0326 29.6251 28.2326C29.8169 28.3419 30.0168 28.3405 30.2202 28.2729C30.2798 28.2531 30.3367 28.2265 30.4004 28.2012C30.4038 28.247 30.3819 28.2825 30.3613 28.3173C30.2812 28.4538 30.1634 28.5528 30.0292 28.6307C29.7997 28.7638 29.5491 28.8287 29.2854 28.8328C29.0923 28.8355 28.9033 28.8054 28.7362 28.6996C28.5348 28.5719 28.4396 28.3849 28.4321 28.1493C28.4273 28.0019 28.4444 27.8598 28.5191 27.7288C28.5821 27.6181 28.6677 27.5253 28.767 27.4481C28.8909 27.3519 29.0231 27.2672 29.1471 27.1716C29.2443 27.0972 29.3423 27.0221 29.4265 26.934C29.5552 26.7995 29.608 26.6398 29.5368 26.4554C29.4929 26.3435 29.4107 26.267 29.3073 26.2124C29.1978 26.155 29.0813 26.1209 28.9553 26.1181C28.8033 26.1154 28.654 26.1304 28.504 26.153C28.3951 26.1694 28.2849 26.1892 28.1725 26.1714C27.9979 26.1441 27.9109 26.0369 27.928 25.8628C27.9335 25.8095 27.9411 25.7556 27.9506 25.703C27.963 25.6334 27.9397 25.5801 27.8808 25.5426C27.8397 25.5166 27.7966 25.4948 27.7562 25.4675C27.6863 25.4197 27.6808 25.3808 27.7322 25.3125C27.7404 25.3016 27.7493 25.2907 27.7616 25.2743C27.7164 25.2592 27.6753 25.2483 27.6363 25.2326C27.5514 25.1978 27.5384 25.1698 27.5685 25.0831C27.5795 25.051 27.5959 25.021 27.6103 24.9902C27.6199 24.9698 27.6329 24.9506 27.6404 24.9288C27.6479 24.9076 27.6514 24.8851 27.6569 24.8612C27.6212 24.8291 27.5795 24.825 27.5363 24.825C27.4795 24.825 27.4219 24.825 27.3651 24.825C27.3425 24.825 27.3192 24.825 27.2966 24.8223C27.1603 24.8018 27.0919 24.7008 27.1329 24.569C27.1514 24.5103 27.1809 24.4529 27.2151 24.401C27.2891 24.2897 27.3665 24.1805 27.4473 24.0733C27.5432 23.9463 27.5521 23.8146 27.4637 23.6848C27.361 23.5346 27.3555 23.3708 27.3809 23.2014C27.4309 22.8648 27.4822 22.5276 27.5719 22.1985C27.6281 21.9937 27.7041 21.7957 27.8575 21.642C27.9616 21.5376 28.0808 21.4481 28.1931 21.3512C28.3848 21.186 28.5766 21.0201 28.7677 20.8542C28.967 20.6801 29.1663 20.5053 29.3649 20.3298C29.5484 20.168 29.7313 20.0048 29.9155 19.843C30.1271 19.6566 30.3394 19.4709 30.5517 19.2852C30.764 19.0995 30.9749 18.9131 31.1886 18.7294C31.3585 18.5826 31.5317 18.4386 31.7029 18.2932C31.9009 18.1252 32.0878 17.9456 32.2611 17.7524C32.4193 17.5763 32.52 17.3728 32.559 17.1386C32.5652 17.1004 32.5795 17.0635 32.5891 17.0273C32.8165 17.0451 33.0117 17.2158 33.0658 17.4397C33.1206 17.6664 33.0781 17.8808 32.9699 18.0829C32.8802 18.2501 32.7583 18.3949 32.6145 18.5178C32.3892 18.7103 32.1556 18.8919 31.9296 19.0831C31.7406 19.2435 31.5577 19.4108 31.3728 19.5754C31.2263 19.7058 31.0797 19.8375 30.9332 19.9686C30.7441 20.1379 30.5551 20.3066 30.3661 20.4752C30.1661 20.6534 29.9662 20.8316 29.7648 21.0078C29.469 21.2659 29.1717 21.5232 28.8731 21.7793C28.7601 21.8755 28.6519 21.9752 28.5574 22.0906C28.4129 22.2674 28.3321 22.4723 28.2855 22.6914C28.2465 22.8744 28.2184 23.0601 28.1842 23.2445C28.1616 23.3674 28.1794 23.4766 28.278 23.5633C28.3746 23.6486 28.3766 23.7572 28.3479 23.8699C28.3177 23.9873 28.2609 24.0897 28.1787 24.1812C28.1246 24.242 28.0739 24.3095 28.039 24.3826C27.9979 24.4686 28.0554 24.5492 28.1506 24.5553C28.1992 24.5587 28.2479 24.5526 28.2965 24.5574C28.3294 24.5601 28.3629 24.5704 28.3937 24.5833C28.4417 24.6038 28.4609 24.6434 28.4533 24.6946C28.4485 24.7253 28.4396 24.7561 28.4355 24.7868C28.4225 24.8824 28.4691 24.9479 28.5656 24.9643C28.6239 24.9739 28.6834 24.9766 28.754 24.9834L28.7512 24.9841Z" fill="#193686"/>
<path d="M29.6992 24.5224V24.2684C29.6403 24.2684 29.5876 24.2684 29.5342 24.2684C29.5054 24.2684 29.4766 24.2691 29.4486 24.2636C29.3602 24.2465 29.315 24.1837 29.3315 24.0963C29.341 24.0465 29.3575 23.9973 29.378 23.9502C29.4143 23.8669 29.4554 23.785 29.4958 23.7031C29.5403 23.6109 29.5616 23.5167 29.4945 23.4286C29.402 23.3078 29.3931 23.1726 29.4143 23.0312C29.4438 22.8339 29.4883 22.6407 29.5472 22.4502C29.617 22.2256 29.7499 22.0433 29.9286 21.8945C30.1238 21.7327 30.3265 21.5804 30.521 21.4179C30.7642 21.2158 31.0032 21.0089 31.2422 20.8027C31.5805 20.5105 31.9216 20.221 32.2544 19.9227C32.5386 19.6673 32.8084 19.3977 33.0529 19.1027C33.0598 19.0945 33.0694 19.089 33.0837 19.0781C33.181 19.2085 33.2474 19.3471 33.27 19.5055C33.2995 19.7049 33.2419 19.8804 33.1317 20.0442C33.0091 20.2258 32.8475 20.3699 32.6845 20.5133C32.4304 20.7372 32.1729 20.9577 31.9174 21.1803C31.7476 21.3278 31.5791 21.4759 31.41 21.6241C31.2922 21.7272 31.1764 21.833 31.0573 21.9347C30.9402 22.0344 30.8176 22.128 30.7025 22.229C30.6066 22.313 30.5128 22.4011 30.4252 22.4939C30.2752 22.6523 30.2457 22.8469 30.2594 23.0572C30.2697 23.2122 30.3005 23.3685 30.267 23.5242C30.2519 23.5931 30.2259 23.6594 30.204 23.727C30.1841 23.7891 30.1635 23.8505 30.1396 23.9229C30.1923 23.9489 30.2403 23.9721 30.2875 23.9953C30.3156 24.0096 30.345 24.0219 30.3697 24.0403C30.4395 24.0929 30.4519 24.1387 30.4279 24.2267C30.4245 24.2397 30.4245 24.254 30.4224 24.2752H30.6019C30.5984 24.2991 30.5971 24.3148 30.5936 24.3291C30.5765 24.3961 30.5854 24.4295 30.6416 24.4671C30.6861 24.4964 30.7464 24.5101 30.7792 24.5476C30.8121 24.5859 30.8155 24.648 30.8402 24.6958C30.9011 24.8153 30.9984 24.8596 31.1388 24.8398C31.2935 24.818 31.4319 24.749 31.573 24.6876C31.7038 24.6309 31.8332 24.5702 31.9668 24.5203C32.2099 24.4288 32.4619 24.4193 32.7173 24.4473C32.9824 24.4766 33.2365 24.5531 33.4933 24.6166C33.7385 24.6774 33.9857 24.7176 34.2384 24.6985C34.3343 24.6917 34.4295 24.6671 34.5247 24.65C34.5493 24.6459 34.5733 24.6391 34.6157 24.6289C34.6021 24.6651 34.5986 24.6903 34.5849 24.7074C34.4582 24.8685 34.3391 25.0358 34.1898 25.1778C34.0008 25.3574 33.783 25.4823 33.52 25.5076C33.294 25.5294 33.068 25.5151 32.855 25.4277C32.6441 25.341 32.4379 25.2434 32.2284 25.1525C32.0654 25.0815 31.8969 25.0283 31.7161 25.0303C31.5915 25.0317 31.4737 25.0658 31.3572 25.1048C31.2189 25.1505 31.0833 25.2031 30.9456 25.2509C30.808 25.2987 30.6669 25.3335 30.521 25.3451C30.4265 25.3526 30.3327 25.3471 30.2423 25.315C30.0649 25.2509 29.9745 25.1013 29.9985 24.9143C30.0026 24.8835 30.0081 24.8528 30.0149 24.8119C29.9951 24.8009 29.9711 24.788 29.9471 24.775C29.8314 24.7129 29.8184 24.678 29.8636 24.5531C29.8348 24.5504 29.8061 24.549 29.7787 24.5442C29.754 24.5394 29.73 24.5306 29.6972 24.521L29.6992 24.5224Z" fill="#193686"/>
<path d="M28.3517 29.4284C28.3045 29.4756 28.2613 29.5288 28.2086 29.5698C27.9168 29.7965 27.5902 29.9514 27.2224 29.9951C26.7779 30.0484 26.3554 29.7726 26.2725 29.3001C26.2314 29.0666 26.2876 28.8467 26.4191 28.6494C26.5088 28.5142 26.6026 28.3804 26.7245 28.2719C26.8012 28.2043 26.8848 28.1442 26.967 28.0828C27.058 28.0138 27.1471 27.9435 27.2046 27.8411C27.2957 27.6779 27.2765 27.4778 27.1149 27.3406C26.9779 27.2239 26.8136 27.1576 26.6499 27.0907C26.367 26.9753 26.0842 26.8613 25.8034 26.7411C25.2494 26.5042 24.685 26.2974 24.1057 26.1294C23.8482 26.0543 23.5941 25.9676 23.3386 25.887C23.0668 25.801 22.7914 25.7239 22.5079 25.6883C22.3929 25.674 22.2737 25.6795 22.1573 25.6863C22.073 25.6911 21.9991 25.7327 21.9374 25.7914C21.8895 25.8372 21.8368 25.8741 21.7662 25.8945C21.7258 25.8338 21.7395 25.7662 21.745 25.7047C21.7614 25.5224 21.8244 25.3579 21.9477 25.2173C22.0559 25.0944 22.1929 25.0466 22.3511 25.0438C22.7757 25.0356 23.1921 25.0855 23.6016 25.1995C24.2118 25.3695 24.8179 25.5532 25.4178 25.7559C25.8609 25.9061 26.3006 26.0652 26.741 26.2229C27.1567 26.3725 27.5477 26.5705 27.9086 26.8258C27.9456 26.8518 27.9819 26.8804 28.0141 26.9118C28.1805 27.075 28.1524 27.2792 28.0579 27.4533C27.9915 27.5755 27.8881 27.6656 27.7847 27.7557C27.6388 27.8827 27.495 28.0124 27.3498 28.1408C27.0985 28.3627 27.0786 28.633 27.1909 28.9266C27.3005 29.2141 27.5306 29.3506 27.821 29.4039C27.9846 29.4339 28.1497 29.4305 28.3147 29.4107C28.323 29.41 28.3312 29.4114 28.3394 29.4121C28.3435 29.4175 28.3483 29.4237 28.3524 29.4291L28.3517 29.4284Z" fill="#193686"/>
<path d="M18.5635 15.1984C18.5745 15.1758 18.5786 15.1656 18.584 15.1567C18.6286 15.0809 18.6286 15.0577 18.571 14.9908C18.4539 14.8549 18.3354 14.7204 18.217 14.5859C18.1677 14.5295 18.1005 14.5179 18.0156 14.5511C18.0225 14.5313 18.0232 14.5136 18.0321 14.5047C18.0827 14.4589 18.1355 14.4159 18.1868 14.3709C18.2108 14.3497 18.2341 14.3579 18.2581 14.3688C18.367 14.418 18.4765 14.4671 18.5854 14.5163C18.671 14.5545 18.7559 14.5934 18.8498 14.6351C18.8498 14.6126 18.8532 14.5969 18.8498 14.5832C18.7957 14.4043 18.7422 14.2248 18.6861 14.0466C18.6662 13.9837 18.6662 13.9332 18.732 13.895C18.7683 13.8738 18.7964 13.839 18.8299 13.8131C18.845 13.8014 18.8655 13.7967 18.8861 13.7871C18.8888 13.8028 18.8909 13.8062 18.8902 13.8083C18.8361 13.9066 18.834 13.9086 18.9094 13.9974C19.0306 14.1408 19.1538 14.2821 19.2778 14.4234C19.2963 14.4439 19.3216 14.4583 19.3435 14.4753C19.3785 14.4589 19.4079 14.4446 19.4504 14.4241C19.4449 14.4494 19.4463 14.4678 19.4381 14.4753C19.3579 14.5477 19.2764 14.6187 19.1936 14.6883C19.1833 14.6965 19.1634 14.6931 19.1374 14.6965C19.2121 14.5771 19.2114 14.5777 19.121 14.476C19.0134 14.3552 18.908 14.2323 18.797 14.1128C18.8559 14.362 18.9463 14.6016 19.0039 14.8501C18.9984 14.8549 18.9936 14.8597 18.9881 14.8645C18.769 14.7662 18.5498 14.6679 18.3313 14.5695C18.3279 14.573 18.3245 14.5764 18.3211 14.5798C18.3533 14.6201 18.3841 14.661 18.4169 14.6999C18.4793 14.7737 18.543 14.8467 18.6066 14.9198C18.6217 14.9369 18.6382 14.9532 18.6553 14.9683C18.6902 14.999 18.7272 15.0133 18.7724 14.9874C18.7861 14.9799 18.8025 14.9778 18.8217 14.9724C18.8025 15.0331 18.6477 15.171 18.5649 15.1977L18.5635 15.1984Z" fill="#193686"/>
<path d="M20.1115 27.5847C20.0834 27.8277 20.0554 28.0701 20.0266 28.3132C20.0307 28.3145 20.0348 28.3159 20.0389 28.3173C20.1053 28.2094 20.1725 28.1008 20.2382 27.9923C20.2635 27.9513 20.2875 27.909 20.3122 27.8673C20.3382 27.8223 20.3361 27.7813 20.2944 27.7465C20.2841 27.7376 20.2759 27.7267 20.2656 27.7158C20.3081 27.6987 20.3074 27.6987 20.4122 27.767C20.4594 27.7977 20.5074 27.8264 20.5512 27.8721C20.5313 27.8721 20.5087 27.879 20.493 27.8708C20.4416 27.8441 20.4115 27.8721 20.3834 27.9069C20.3676 27.9267 20.3539 27.9493 20.3409 27.9711C20.2526 28.1138 20.1649 28.2572 20.0766 28.4006C20.0369 28.4652 20.0433 28.5251 20.0958 28.5801C20.0992 28.5835 20.0985 28.5911 20.1026 28.6088C20.0033 28.5917 19.9389 28.5214 19.8526 28.4798C19.8807 28.2476 19.9088 28.0155 19.9389 27.7656C19.7348 27.9028 19.5417 28.0326 19.3465 28.1637C19.3048 28.1391 19.2623 28.1159 19.2212 28.0906C19.1842 28.0674 19.1431 28.049 19.1055 28.0005C19.1342 28.0018 19.1507 27.9991 19.163 28.0039C19.215 28.0244 19.2507 28.0073 19.2781 27.9616C19.3041 27.9179 19.3335 27.8755 19.3602 27.8318C19.4404 27.7008 19.5212 27.5697 19.5992 27.4379C19.6417 27.3662 19.6397 27.3655 19.5766 27.3054C19.5705 27.3 19.5677 27.2918 19.5595 27.2788C19.5732 27.2734 19.589 27.2624 19.5951 27.2665C19.6972 27.3287 19.7985 27.3928 19.8992 27.457C19.9019 27.4591 19.9006 27.4673 19.9019 27.4864C19.8793 27.4816 19.8581 27.4809 19.8417 27.4727C19.8074 27.455 19.78 27.4618 19.7588 27.4905C19.7301 27.5294 19.7027 27.569 19.6773 27.6093C19.602 27.7294 19.528 27.851 19.4582 27.9779C19.5732 27.9254 19.6712 27.8462 19.7753 27.7779C19.8787 27.7096 19.9814 27.64 20.0848 27.571C20.093 27.5758 20.1012 27.5813 20.1088 27.5861L20.1115 27.5847Z" fill="#193686"/>
<path d="M16.9228 15.9114C16.9146 15.9285 16.9091 15.9415 16.9023 15.9538C16.881 15.9927 16.8886 16.0255 16.9235 16.0507C16.9975 16.1033 17.0728 16.1552 17.1557 16.2132C17.2289 16.1074 17.2995 16.0063 17.3755 15.8971C17.294 15.8418 17.218 15.7892 17.1406 15.738C17.105 15.7141 17.0721 15.7162 17.0433 15.753C17.0338 15.7653 17.0187 15.7728 16.9988 15.7879C16.994 15.7694 16.9865 15.7565 16.9906 15.7503C17.057 15.6493 17.1255 15.5496 17.1933 15.4492C17.1988 15.4513 17.2043 15.4526 17.2098 15.4547C17.2111 15.469 17.2166 15.484 17.2132 15.497C17.1913 15.5748 17.1899 15.5783 17.2536 15.6247C17.3549 15.6984 17.459 15.7681 17.5625 15.8391C17.6234 15.8807 17.685 15.9217 17.7467 15.9633C17.8172 16.0104 17.822 16.0098 17.8864 15.9558C17.8946 15.949 17.9035 15.9435 17.9138 15.9367C17.9213 15.9476 17.9309 15.9565 17.9289 15.9606C17.9015 16.0268 17.7412 16.2378 17.6878 16.2692C17.7015 16.2269 17.7118 16.1961 17.7234 16.1606C17.696 16.1088 17.6433 16.0801 17.594 16.0473C17.544 16.0139 17.4947 15.9804 17.4392 15.9422C17.368 16.0453 17.2967 16.147 17.2187 16.2596C17.3104 16.3197 17.3967 16.3778 17.4864 16.4317C17.5001 16.4399 17.5289 16.4303 17.5474 16.4221C17.5686 16.4126 17.5864 16.3955 17.6131 16.3764C17.6083 16.4344 17.507 16.6037 17.4275 16.6952C17.4207 16.7034 17.4049 16.7041 17.3775 16.7144C17.394 16.672 17.4049 16.644 17.4193 16.6065C17.396 16.5826 17.3721 16.5498 17.3413 16.528C17.192 16.4235 17.0413 16.3211 16.8899 16.2187C16.7982 16.1565 16.7975 16.1579 16.7078 16.2207C16.7043 16.2235 16.6975 16.2207 16.6797 16.2207C16.718 16.1122 16.7982 16.0343 16.8543 15.9442C16.866 15.9251 16.8762 15.8944 16.9228 15.9135V15.9114Z" fill="#193686"/>
<path d="M16.1373 18.4031C16.0346 18.3764 15.9394 18.3498 15.8428 18.3293C15.8264 18.3259 15.8024 18.3443 15.786 18.3587C15.7682 18.3744 15.7559 18.3962 15.7374 18.4194C15.7244 18.358 15.7942 18.0938 15.8374 18.0371C15.8435 18.0528 15.8524 18.0644 15.8524 18.076C15.8524 18.1539 15.8613 18.1682 15.9319 18.19C15.9894 18.2078 16.0462 18.2242 16.1045 18.2399C16.2229 18.272 16.3414 18.302 16.4592 18.3341C16.5859 18.3682 16.5852 18.3689 16.6592 18.2631C16.6667 18.2768 16.6797 18.289 16.677 18.2979C16.6469 18.4072 16.6154 18.5157 16.5832 18.6243C16.5818 18.6284 16.5743 18.6297 16.5695 18.6331C16.566 18.6297 16.5585 18.6263 16.5592 18.6236C16.5681 18.5417 16.5222 18.5055 16.4496 18.4884C16.3702 18.4693 16.2921 18.4474 16.2092 18.4256C16.1729 18.5546 16.1401 18.6741 16.1058 18.797C16.1969 18.8223 16.2811 18.8475 16.3661 18.8694C16.4407 18.8892 16.4435 18.8864 16.4893 18.8182C16.4955 18.8093 16.503 18.8011 16.5119 18.7943C16.5154 18.7915 16.5222 18.7943 16.5387 18.7956C16.5092 18.9206 16.4798 19.0428 16.4291 19.1787C16.4133 19.1514 16.4044 19.1432 16.4044 19.1343C16.4024 19.0455 16.3969 19.0339 16.312 19.01C16.1668 18.9691 16.0209 18.9315 15.8757 18.8926C15.8374 18.8824 15.799 18.8714 15.7607 18.8598C15.6792 18.8366 15.6607 18.8441 15.6162 18.9185C15.6121 18.9254 15.6066 18.9308 15.5949 18.9458C15.5675 18.8673 15.61 18.8079 15.6257 18.7465C15.6415 18.6864 15.6422 18.6195 15.6956 18.5499C15.7025 18.5874 15.71 18.6079 15.7086 18.6277C15.7066 18.6693 15.7278 18.6925 15.7641 18.7028C15.8517 18.7274 15.9394 18.7499 16.0339 18.7752C16.0675 18.6536 16.099 18.5376 16.1366 18.4031H16.1373Z" fill="#193686"/>
<path d="M15.6769 23.0416C15.6263 22.9255 15.6044 22.8012 15.5742 22.679C15.5797 22.6756 15.5852 22.6722 15.5907 22.6688C15.6016 22.6804 15.6153 22.6906 15.6235 22.7036C15.6591 22.7603 15.6783 22.7698 15.742 22.7521C15.9091 22.707 16.0762 22.6606 16.2433 22.6148C16.2488 22.6135 16.2536 22.6094 16.2591 22.6087C16.3488 22.5971 16.4227 22.5711 16.4036 22.4551C16.4447 22.4735 16.444 22.4735 16.4864 22.6271C16.5029 22.6879 16.5296 22.7466 16.5234 22.8176C16.5097 22.8115 16.4981 22.8094 16.496 22.804C16.4659 22.7268 16.4145 22.7159 16.3399 22.7432C16.2632 22.7712 16.1824 22.7869 16.1022 22.8087C16.1378 22.9357 16.17 23.0525 16.2056 23.1802C16.3084 23.1556 16.4097 23.1344 16.507 23.0969C16.5446 23.0825 16.5494 23.0484 16.5474 23.0122C16.5474 22.9979 16.5515 22.9835 16.5549 22.963C16.6042 23.0238 16.6748 23.2819 16.659 23.3454C16.6453 23.331 16.6337 23.3208 16.6255 23.3085C16.5844 23.2471 16.5707 23.2416 16.4981 23.2614C16.3166 23.3106 16.1358 23.3597 15.955 23.4089C15.9386 23.4137 15.9221 23.4191 15.9057 23.4239C15.8625 23.4362 15.8358 23.4601 15.8406 23.5092C15.842 23.5249 15.8365 23.542 15.8338 23.5611C15.7941 23.5229 15.718 23.2587 15.7256 23.1924C15.7598 23.1911 15.7646 23.2211 15.7756 23.2416C15.7934 23.2744 15.8201 23.2867 15.8536 23.2778C15.944 23.2546 16.0344 23.2293 16.1296 23.2041C16.1002 23.088 16.0721 22.976 16.042 22.8647C16.0351 22.8388 16.0159 22.8299 15.9886 22.8381C15.918 22.8599 15.8461 22.8784 15.7762 22.9016C15.705 22.9248 15.7057 22.9262 15.7057 23.004C15.7057 23.0163 15.6989 23.0279 15.6954 23.0402C15.6893 23.0402 15.6831 23.0416 15.6769 23.0422V23.0416Z" fill="#193686"/>
<path d="M22.0664 28.4608C22.0493 28.4656 22.0369 28.471 22.0246 28.471C21.9452 28.4717 21.9424 28.471 21.9143 28.5461C21.8671 28.6738 21.8233 28.8028 21.7787 28.9312C21.7582 28.9899 21.7363 29.0486 21.7178 29.1087C21.6945 29.1831 21.6972 29.1845 21.7603 29.2357C21.7705 29.2439 21.7753 29.2596 21.7904 29.2842C21.765 29.2801 21.7548 29.2794 21.7452 29.276C21.613 29.2309 21.4808 29.1872 21.35 29.1387C21.311 29.1244 21.2747 29.0985 21.2418 29.0718C21.1569 29.0022 21.137 28.9237 21.174 28.8213C21.2048 28.7339 21.2754 28.6861 21.3774 28.6813C21.4021 28.6799 21.4274 28.6779 21.4617 28.6758C21.4096 28.5352 21.363 28.4014 21.3103 28.2703C21.2966 28.2368 21.2637 28.2109 21.2295 28.1699C21.3165 28.1754 21.3808 28.202 21.4418 28.2314C21.4603 28.2402 21.4712 28.2717 21.4801 28.2949C21.5267 28.4164 21.5712 28.5393 21.6171 28.6615C21.6267 28.6868 21.6418 28.7093 21.6541 28.7346C21.6712 28.727 21.6835 28.7257 21.6856 28.7202C21.7157 28.6376 21.7472 28.5557 21.7726 28.4724C21.7842 28.4328 21.776 28.3932 21.7287 28.3741C21.7151 28.3686 21.7061 28.3536 21.6918 28.3406C21.7507 28.3235 21.9931 28.4021 22.0671 28.4608H22.0664ZM21.6637 28.7981C21.5973 28.7851 21.5397 28.7653 21.4822 28.7639C21.3562 28.7612 21.2658 28.9168 21.3322 29.0206C21.3706 29.0807 21.4363 29.106 21.5041 29.1217C21.537 29.1292 21.5569 29.1128 21.5671 29.0807C21.5959 28.9926 21.6267 28.9046 21.663 28.7981H21.6637Z" fill="#193686"/>
<path d="M23.3388 12.9401C23.295 12.9476 23.2505 12.9646 23.2074 12.9612C23.1265 12.9544 23.0485 12.9981 22.9553 12.9715C22.9725 12.9551 22.9807 12.9408 22.9903 12.9394C23.0505 12.9305 23.0601 12.8916 23.056 12.8404C23.045 12.7134 23.0361 12.5864 23.0238 12.4594C23.017 12.3864 23.0019 12.314 22.9964 12.2403C22.9916 12.174 22.9683 12.1317 22.8951 12.1296C22.8889 12.1296 22.8827 12.1208 22.8711 12.1126C22.8827 12.1037 22.8896 12.0928 22.8985 12.0921C22.969 12.0839 23.0396 12.0771 23.1108 12.0696C23.1478 12.0655 23.1848 12.0641 23.2204 12.0566C23.3094 12.0382 23.3984 12.0464 23.4813 12.0778C23.5614 12.1085 23.6046 12.1754 23.6142 12.2614C23.6237 12.3495 23.5881 12.4164 23.5135 12.4621C23.4847 12.4799 23.4532 12.4929 23.4224 12.5079C23.4669 12.596 23.7025 12.8138 23.8292 12.8827C23.8114 12.8909 23.7991 12.8991 23.7854 12.9032C23.7744 12.9059 23.7614 12.9012 23.7511 12.9046C23.6361 12.9455 23.5614 12.8889 23.4895 12.8069C23.4183 12.7257 23.3375 12.6526 23.2594 12.5775C23.243 12.5618 23.2211 12.5523 23.1923 12.5454C23.2032 12.6526 23.1895 12.7571 23.2217 12.8575C23.232 12.8889 23.2505 12.9039 23.2841 12.9046C23.3019 12.9046 23.3197 12.9121 23.3375 12.9155V12.9394L23.3388 12.9401ZM23.1909 12.5004C23.2649 12.4724 23.3299 12.4526 23.3902 12.4232C23.4429 12.3966 23.4649 12.3454 23.4573 12.2867C23.4498 12.2266 23.432 12.1727 23.3669 12.144C23.2971 12.1133 23.2293 12.1208 23.1519 12.1433C23.1567 12.2573 23.1553 12.3713 23.1909 12.5004Z" fill="#193686"/>
<path d="M16.9641 17.3809C16.9703 17.4881 16.9888 17.5898 16.9449 17.6874C16.9107 17.7632 16.8621 17.8226 16.7744 17.8397C16.695 17.8554 16.5874 17.8117 16.5443 17.742C16.5018 17.6731 16.4738 17.5993 16.4758 17.5167C16.4758 17.4997 16.4738 17.4833 16.4724 17.458C16.4299 17.4519 16.3888 17.4471 16.3478 17.4389C16.2574 17.4205 16.1896 17.3706 16.1601 17.2826C16.1348 17.2074 16.1512 17.1364 16.2046 17.0764C16.2443 17.0313 16.295 17.004 16.356 17.0163C16.4272 17.0306 16.484 17.0695 16.5046 17.1419C16.519 17.1931 16.5244 17.247 16.5361 17.3126C16.6292 17.2962 16.7272 17.301 16.8347 17.2621C16.7936 17.204 16.7621 17.1501 16.7217 17.105C16.6751 17.0538 16.6587 17.0572 16.6005 17.1016C16.5922 17.1078 16.582 17.1105 16.571 17.116C16.5669 17.0525 16.6374 16.8968 16.6977 16.834C16.7032 16.8449 16.7135 16.8565 16.7114 16.862C16.6881 16.9139 16.7114 16.9541 16.7395 16.9958C16.7936 17.0757 16.8456 17.1569 16.8984 17.2368C17.049 17.2238 17.1141 17.1317 17.0778 16.9815C17.1045 16.963 17.1216 16.9815 17.1326 16.9999C17.2079 17.1194 17.1887 17.2587 17.062 17.3303C17.0299 17.3481 16.997 17.3638 16.9655 17.3795L16.9641 17.3809ZM16.5327 17.4567C16.547 17.5638 16.5779 17.6546 16.6888 17.6826C16.7525 17.6983 16.8189 17.6949 16.8662 17.6335C16.9141 17.5714 16.9217 17.4833 16.8833 17.4136C16.7689 17.428 16.6546 17.4416 16.5327 17.4567ZM16.4566 17.314C16.4614 17.2006 16.4203 17.1255 16.3443 17.1037C16.2957 17.09 16.2498 17.1084 16.2279 17.1508C16.2053 17.1945 16.2156 17.2423 16.2621 17.2689C16.3217 17.303 16.3868 17.3208 16.4566 17.314Z" fill="#193686"/>
<path d="M25.3963 28.6692C25.3675 28.6862 25.3572 28.6938 25.3463 28.6992C25.2723 28.7375 25.2682 28.7497 25.2771 28.8337C25.2949 29.003 25.3106 29.1717 25.3271 29.341C25.3285 29.3553 25.3298 29.369 25.3312 29.3833C25.3367 29.4537 25.3545 29.5124 25.4428 29.5117C25.4469 29.5117 25.451 29.5185 25.4593 29.526C25.4517 29.5329 25.4449 29.5438 25.4373 29.5445C25.2956 29.5568 25.1545 29.5718 25.0127 29.5779C24.9484 29.5806 24.8826 29.569 24.8196 29.554C24.6778 29.5206 24.5861 29.4304 24.5416 29.2925C24.4738 29.0843 24.5416 28.8774 24.7135 28.7682C24.7902 28.7197 24.8765 28.6999 24.9641 28.689C25.0826 28.6746 25.2018 28.6699 25.3209 28.6623C25.3387 28.661 25.3572 28.6658 25.3963 28.6692ZM25.1819 29.4905C25.1819 29.4598 25.184 29.4311 25.1819 29.4031C25.1648 29.2024 25.1483 29.0024 25.1292 28.8016C25.1251 28.7538 25.1031 28.7381 25.0531 28.7456C25.0052 28.7525 24.958 28.7634 24.9121 28.7771C24.7826 28.816 24.7066 28.9061 24.6806 29.0358C24.6642 29.1177 24.6772 29.1997 24.7052 29.2789C24.7696 29.4612 24.9853 29.5615 25.1819 29.4905Z" fill="#193686"/>
<path d="M18.3192 27.3437C18.2479 27.3335 18.1295 27.216 18.1253 27.1642C18.124 27.1471 18.124 27.13 18.1253 27.113C18.1521 26.8822 18.1794 26.6521 18.2 26.4166C18.0664 26.5367 17.9322 26.6535 17.8247 26.7941C17.8452 26.8351 17.861 26.8672 17.8822 26.9088C17.8048 26.9068 17.7816 26.8515 17.7459 26.8125C17.7083 26.7716 17.6692 26.7313 17.6172 26.676C17.6528 26.6787 17.6686 26.676 17.6809 26.6821C17.7596 26.717 17.7672 26.7183 17.8302 26.6576C17.9185 26.5729 18.0034 26.4841 18.0911 26.3988C18.1705 26.321 18.2514 26.2445 18.3322 26.1687C18.3418 26.1598 18.3541 26.1544 18.3794 26.1387C18.3794 26.3046 18.35 26.4541 18.3376 26.6043C18.3253 26.7531 18.3027 26.902 18.2849 27.0508C18.2904 27.0536 18.2959 27.0563 18.3014 27.0583C18.3294 27.029 18.3561 26.9989 18.3849 26.9703C18.4691 26.8856 18.5547 26.8009 18.639 26.7163C18.7205 26.635 18.7212 26.6309 18.6766 26.5258C18.6753 26.5217 18.6794 26.5155 18.6814 26.5108C18.7349 26.5203 18.8828 26.6623 18.9177 26.7443C18.8944 26.7374 18.8739 26.7374 18.8616 26.7272C18.817 26.6917 18.7766 26.706 18.7362 26.7333C18.7294 26.7381 18.7225 26.7443 18.7171 26.7497C18.5773 26.8883 18.4376 27.0269 18.2986 27.1662C18.2623 27.2024 18.2596 27.2358 18.2829 27.2823C18.2918 27.2993 18.3027 27.3157 18.3192 27.3437Z" fill="#193686"/>
<path d="M20.1776 13.2303C20.2392 13.3546 20.3008 13.4788 20.3625 13.6031C20.3714 13.6209 20.3817 13.6379 20.3899 13.6564C20.4207 13.728 20.4625 13.7806 20.5529 13.7499C20.5584 13.7478 20.5666 13.7554 20.5871 13.7642C20.4947 13.8393 20.3878 13.8639 20.2913 13.9219C20.2769 13.8769 20.3043 13.8653 20.3214 13.8503C20.357 13.8202 20.3639 13.7874 20.3433 13.7451C20.2721 13.5997 20.2022 13.4529 20.1317 13.3068C20.1159 13.2733 20.0981 13.2406 20.0831 13.2071C20.0577 13.1504 20.0173 13.1245 19.9536 13.1375C19.9392 13.1402 19.9228 13.1354 19.8906 13.132C19.9612 13.0747 20.0296 13.0487 20.0961 13.0214C20.1146 13.0139 20.1447 13.0282 20.1673 13.0385C20.3639 13.1286 20.5604 13.2208 20.757 13.3116C20.7748 13.3198 20.7926 13.3266 20.8227 13.3389C20.8138 13.3102 20.8111 13.2918 20.8028 13.2754C20.7535 13.1757 20.7035 13.0767 20.6535 12.9784C20.6433 12.9579 20.6309 12.9388 20.6186 12.9197C20.5755 12.8541 20.5734 12.8534 20.4933 12.8698C20.483 12.8719 20.4721 12.8712 20.4597 12.8719C20.4837 12.8145 20.6337 12.734 20.7522 12.7148C20.7433 12.7326 20.7392 12.7476 20.7302 12.7585C20.6672 12.8282 20.6659 12.8302 20.7063 12.9142C20.7686 13.0419 20.8323 13.1696 20.8953 13.2972C20.933 13.3737 20.972 13.4502 21.009 13.5266C21.0158 13.5403 21.0172 13.5574 21.0247 13.5881C20.8672 13.5437 20.7385 13.4652 20.6022 13.4065C20.4638 13.3471 20.3282 13.2808 20.1913 13.2173C20.1865 13.2214 20.1824 13.2255 20.1776 13.2303Z" fill="#193686"/>
<path d="M17.4148 24.9612C17.4251 25.166 17.2457 25.3544 17.058 25.409C16.919 25.4493 16.7868 25.4377 16.6677 25.3517C16.4657 25.2063 16.3979 24.9031 16.5923 24.6935C16.7211 24.5549 16.882 24.4867 17.0779 24.531C17.2683 24.5747 17.421 24.7727 17.4155 24.9612H17.4148ZM16.5643 25.0513C16.5643 25.1994 16.6875 25.3128 16.8409 25.2978C17.0101 25.2814 17.1457 25.194 17.2601 25.0731C17.2813 25.0506 17.2957 25.0219 17.3087 24.9933C17.3525 24.9004 17.3334 24.8157 17.2697 24.74C17.2067 24.6655 17.1258 24.6307 17.0279 24.6491C16.8896 24.6758 16.7718 24.7427 16.6677 24.8342C16.604 24.8902 16.5656 24.9632 16.5643 25.0506V25.0513Z" fill="#193686"/>
<path d="M18.9895 26.7683C19.1854 26.926 19.373 27.0775 19.5607 27.2284C19.5408 27.2646 19.5196 27.2544 19.5004 27.2407C19.4552 27.2093 19.4209 27.2243 19.3894 27.2626C19.3244 27.3418 19.2579 27.4196 19.1936 27.4995C19.1306 27.5766 19.0703 27.6558 19.008 27.7337C18.9518 27.8047 18.9518 27.804 19.0025 27.8784C19.0093 27.888 19.0107 27.9009 19.0162 27.9173C18.9573 27.9023 18.5375 27.576 18.4375 27.4701C18.4772 27.4189 18.5183 27.367 18.5567 27.3179C18.6005 27.3322 18.5916 27.3588 18.5799 27.3759C18.5382 27.4415 18.5656 27.4899 18.6156 27.5323C18.6827 27.5889 18.7512 27.6435 18.8265 27.7043C18.8662 27.6579 18.9011 27.6183 18.9354 27.5773C18.9676 27.5384 18.9991 27.4981 19.0333 27.4551C18.971 27.4059 18.9135 27.3595 18.8559 27.3138C18.8155 27.2817 18.7758 27.2749 18.732 27.3097C18.7169 27.322 18.6957 27.3261 18.669 27.337C18.6861 27.266 18.8073 27.113 18.8717 27.0721C18.9032 27.0987 18.8785 27.1247 18.8683 27.1479C18.8511 27.1888 18.8621 27.2237 18.8916 27.2489C18.9511 27.3001 19.0155 27.3465 19.0826 27.3984C19.1573 27.3029 19.2264 27.2141 19.2984 27.1226C19.2169 27.0339 19.1306 26.9663 19.0306 26.9171C18.982 26.8925 18.9313 26.9082 18.882 26.9267C18.8395 26.943 18.8388 26.9417 18.7916 26.9157C18.8573 26.8659 18.9203 26.8188 18.9881 26.7676L18.9895 26.7683Z" fill="#193686"/>
<path d="M26.3882 12.748C26.356 12.8579 26.3265 12.9583 26.2978 13.0586C26.2902 13.0853 26.3046 13.1023 26.33 13.1105C26.43 13.1419 26.5299 13.1836 26.6375 13.1686C26.6744 13.1638 26.7094 13.1392 26.7429 13.1187C26.7662 13.1044 26.7854 13.0825 26.8066 13.0634C26.8361 13.1051 26.8073 13.172 26.7162 13.286C26.4635 13.2355 26.0745 13.118 26.0156 13.0702C26.0362 13.0662 26.0519 13.0586 26.0663 13.0614C26.117 13.0716 26.1403 13.0477 26.1533 13.0027C26.1862 12.888 26.2218 12.7746 26.2546 12.6599C26.28 12.5725 26.3053 12.4851 26.3259 12.3971C26.343 12.3233 26.3402 12.3226 26.2772 12.281C26.2683 12.2755 26.2615 12.2673 26.2361 12.2441C26.2759 12.2441 26.2964 12.2393 26.3149 12.2448C26.5258 12.3042 26.7361 12.3657 26.9456 12.4264C26.9244 12.5841 26.9148 12.6067 26.8642 12.6128C26.8457 12.4749 26.8416 12.4687 26.6998 12.4257C26.6375 12.4066 26.5738 12.3909 26.4991 12.3697C26.4683 12.4715 26.4382 12.5705 26.406 12.6784C26.4889 12.7016 26.5662 12.7282 26.6457 12.7439C26.6703 12.7487 26.7039 12.7296 26.7279 12.7132C26.7477 12.6995 26.7594 12.6743 26.7847 12.6401C26.7936 12.6674 26.8053 12.6838 26.8018 12.6968C26.7827 12.7739 26.7601 12.8504 26.7388 12.9269C26.732 12.9535 26.7183 12.9672 26.684 12.9535C26.6813 12.9228 26.6786 12.8893 26.6751 12.8511C26.5971 12.789 26.495 12.7828 26.3896 12.7473L26.3882 12.748Z" fill="#193686"/>
<path d="M22.7335 12.318C22.7013 12.3474 22.6794 12.3351 22.6698 12.3071C22.6452 12.2388 22.5931 12.2265 22.5322 12.2368C22.4431 12.2511 22.3548 12.2702 22.2562 12.2887C22.2781 12.3986 22.2973 12.4969 22.3171 12.5986C22.4096 12.5986 22.4918 12.5754 22.5705 12.5461C22.5979 12.5358 22.613 12.4908 22.6301 12.4594C22.6383 12.4443 22.6383 12.4239 22.6513 12.4061C22.7061 12.5037 22.7096 12.6123 22.7363 12.7147C22.7315 12.7188 22.7267 12.7222 22.7219 12.7263C22.7082 12.7174 22.687 12.7113 22.6815 12.699C22.6493 12.6266 22.5959 12.6164 22.5267 12.6348C22.4671 12.6505 22.4062 12.6621 22.3363 12.6778C22.3617 12.7932 22.3849 12.9004 22.4103 13.0158C22.539 13.0158 22.6609 12.9987 22.7657 12.9243C22.7952 12.9031 22.8082 12.8588 22.8273 12.8246C22.8404 12.8021 22.8397 12.768 22.8828 12.7625V12.998C22.6493 13.0622 22.4075 13.1039 22.1692 13.1551C22.1521 13.1141 22.1815 13.1114 22.1993 13.1005C22.2637 13.0615 22.2644 13.0588 22.2487 12.9844C22.2082 12.7994 22.1678 12.6137 22.1288 12.428C22.1096 12.3344 22.1048 12.329 22.0131 12.316C22.0035 12.3146 21.9939 12.3078 21.9727 12.2982C22.0494 12.2463 22.1315 12.2525 22.2041 12.2306C22.2822 12.2067 22.3658 12.2006 22.4466 12.1842C22.524 12.1678 22.6007 12.1487 22.6842 12.1289C22.7027 12.1979 22.7185 12.2593 22.7342 12.318H22.7335Z" fill="#193686"/>
<path d="M15.9607 22.2173C16.0874 22.1982 16.1991 22.1811 16.3175 22.1634C16.3127 22.0336 16.3031 21.9155 16.2429 21.8104C16.2251 21.7797 16.1819 21.7626 16.1491 21.7407C16.1251 21.725 16.0867 21.7257 16.0806 21.6738C16.1628 21.6793 16.2395 21.6841 16.3237 21.6902C16.3614 21.9346 16.3977 22.1722 16.4346 22.4105C16.4278 22.4132 16.4209 22.416 16.4141 22.4194C16.4025 22.403 16.3874 22.388 16.3799 22.3702C16.3634 22.3286 16.336 22.317 16.2922 22.3245C16.2278 22.3354 16.1621 22.3381 16.0977 22.3484C15.9628 22.3695 15.8279 22.3921 15.6936 22.416C15.5971 22.433 15.5971 22.4344 15.582 22.5307C15.5806 22.5375 15.5745 22.5437 15.5621 22.5628C15.519 22.4378 15.5142 22.3177 15.495 22.2002C15.4752 22.0828 15.458 21.9654 15.4375 21.8397C15.5067 21.8281 15.5717 21.8172 15.6361 21.8063C15.6402 21.8124 15.6436 21.8193 15.6477 21.8254C15.6382 21.8384 15.6306 21.8589 15.6183 21.8623C15.5389 21.8862 15.5217 21.9428 15.5327 22.0159C15.5437 22.0855 15.5539 22.1558 15.5663 22.2255C15.5731 22.2665 15.595 22.2801 15.6395 22.2699C15.7197 22.2521 15.8018 22.2426 15.8916 22.2289C15.8833 22.1347 15.8799 22.0446 15.8422 21.9619C15.8327 21.9415 15.7977 21.9312 15.7731 21.9196C15.7546 21.9114 15.7327 21.9087 15.706 21.9019C15.7683 21.8479 15.9477 21.822 16.0484 21.852C16.0162 21.8711 15.9936 21.8841 15.9717 21.8978C15.9436 21.9148 15.9224 21.9374 15.9272 21.9736C15.9381 22.0514 15.9491 22.1292 15.9614 22.218L15.9607 22.2173Z" fill="#193686"/>
<path d="M23.7997 29.0108C23.8127 29.0319 23.8216 29.0401 23.823 29.0497C23.8367 29.1371 23.8983 29.1548 23.973 29.1548C24.0319 29.1548 24.0908 29.1548 24.1551 29.1548C24.1565 29.1432 24.1606 29.1268 24.1606 29.1104C24.1606 29.0114 24.1606 28.9118 24.1606 28.8039C24.0312 28.7773 23.9072 28.7636 23.7894 28.8216C23.7525 28.8401 23.7278 28.8858 23.6997 28.9213C23.6847 28.9404 23.6744 28.9602 23.6367 28.9377C23.6566 28.866 23.6778 28.7909 23.7011 28.709C23.7874 28.7144 23.8696 28.7206 23.9517 28.7233C24.0319 28.7261 24.112 28.7213 24.1914 28.7247C24.2716 28.7281 24.3531 28.7124 24.4489 28.7397C24.4229 28.7581 24.4127 28.7718 24.4017 28.7725C24.3332 28.7745 24.3181 28.821 24.3106 28.8749C24.3072 28.8974 24.3044 28.92 24.3044 28.9425C24.3044 29.122 24.3044 29.3016 24.3044 29.4805C24.3044 29.5549 24.3051 29.5549 24.3791 29.5809C24.3894 29.5843 24.3996 29.5897 24.4113 29.5952C24.3558 29.6259 23.8559 29.6273 23.7004 29.5972V29.4143C23.736 29.4006 23.7449 29.4245 23.7483 29.4464C23.7614 29.5201 23.8141 29.5426 23.8785 29.5447C23.9634 29.5467 24.0483 29.5447 24.1456 29.5447C24.1517 29.4361 24.1572 29.3364 24.1634 29.2272C24.0812 29.2238 24.0106 29.2197 23.9401 29.2176C23.8833 29.2163 23.8415 29.2388 23.8257 29.2975C23.8216 29.3132 23.8134 29.3276 23.8045 29.3487C23.7901 29.3392 23.7709 29.3317 23.7716 29.3248C23.773 29.2231 23.7436 29.1186 23.7997 29.0094V29.0108Z" fill="#193686"/>
<path d="M23.307 29.0544C23.32 28.9629 23.3324 28.8816 23.344 28.8004C23.3502 28.7553 23.3235 28.7321 23.2865 28.7164C23.268 28.7082 23.2502 28.7 23.2344 28.683C23.2995 28.6509 23.3604 28.6884 23.4228 28.6857C23.4837 28.683 23.5453 28.7021 23.6097 28.7267C23.594 28.7328 23.5789 28.741 23.5632 28.7451C23.5193 28.7553 23.4947 28.7765 23.4892 28.825C23.4755 28.952 23.4563 29.0783 23.4406 29.2053C23.4317 29.2783 23.4262 29.3521 23.4166 29.4251C23.4084 29.4866 23.4111 29.5391 23.4865 29.5562C23.496 29.5583 23.5022 29.576 23.5207 29.5992C23.4495 29.5917 23.3947 29.5876 23.3399 29.5801C23.2413 29.5664 23.142 29.5555 23.0447 29.5337C22.9694 29.5173 22.9002 29.4859 22.8584 29.4108C22.7749 29.2619 22.8502 29.0865 23.0201 29.0564C23.0865 29.0448 23.1557 29.051 23.2235 29.0503C23.2488 29.0503 23.2735 29.053 23.3077 29.0551L23.307 29.0544ZM23.2995 29.1343C23.168 29.0994 23.0728 29.1158 23.0276 29.1752C22.979 29.238 22.968 29.335 23.0029 29.3903C23.0509 29.4668 23.1502 29.5057 23.2536 29.4845C23.2687 29.3705 23.2837 29.2544 23.3002 29.1343H23.2995Z" fill="#193686"/>
<path d="M17.2891 15.3387C17.3089 15.3114 17.326 15.2813 17.3493 15.2574C17.4171 15.1892 17.4685 15.1038 17.5609 15.0553C17.5568 15.0704 17.5548 15.0854 17.5479 15.099C17.5185 15.1618 17.5185 15.181 17.5678 15.2247C17.6883 15.3325 17.8102 15.4397 17.9349 15.5435C17.9958 15.5947 18.0712 15.6254 18.1485 15.5886C18.2369 15.5462 18.2985 15.4732 18.3163 15.3749C18.3259 15.3202 18.3006 15.267 18.2602 15.2281C18.1616 15.1339 18.0602 15.043 17.9595 14.9502C17.9342 14.927 17.9102 14.9024 17.8828 14.8826C17.8411 14.8532 17.7972 14.8369 17.75 14.8744C17.739 14.8833 17.7226 14.886 17.7034 14.8935C17.7246 14.8239 17.8369 14.6914 17.9212 14.6348C17.9212 14.6552 17.9267 14.6737 17.9205 14.6832C17.8787 14.7433 17.8999 14.7877 17.9493 14.8307C18.0431 14.9133 18.1355 14.998 18.2273 15.0833C18.2581 15.112 18.2855 15.1455 18.3163 15.1748C18.4177 15.2738 18.4006 15.4582 18.3061 15.564C18.2869 15.5852 18.265 15.6036 18.2458 15.6248C18.1301 15.7558 17.9486 15.7572 17.8102 15.6384C17.7 15.5435 17.5925 15.4472 17.4822 15.3523C17.4096 15.2902 17.4089 15.2909 17.3308 15.3435C17.3247 15.3476 17.3158 15.3482 17.3082 15.351C17.3021 15.3462 17.2959 15.3414 17.2904 15.3373L17.2891 15.3387Z" fill="#193686"/>
<path d="M29.0055 13.3965C29.1178 13.4648 29.2171 13.5446 29.3205 13.6197L29.3089 13.6409C29.2945 13.6389 29.2787 13.6389 29.265 13.6341C29.1959 13.6095 29.1849 13.6102 29.1424 13.6682C29.0514 13.7918 28.963 13.9174 28.8719 14.0417C28.7432 14.2178 28.8329 14.3284 28.9918 14.4042C29.0829 14.4472 29.1404 14.4308 29.2171 14.34C29.3253 14.2124 29.4171 14.071 29.5157 13.9359C29.5431 13.8976 29.5499 13.8594 29.5143 13.8205C29.502 13.8068 29.4944 13.7884 29.4828 13.7693C29.5506 13.7706 29.7355 13.9031 29.7526 13.9638C29.7341 13.9591 29.7184 13.957 29.704 13.9522C29.6376 13.9304 29.6239 13.9311 29.5807 13.9871C29.5075 14.082 29.4383 14.1789 29.3684 14.2759C29.3232 14.3387 29.2794 14.4001 29.2123 14.4431C29.1219 14.5005 29.0267 14.5032 28.9356 14.4588C28.8726 14.4281 28.8137 14.3851 28.7623 14.3373C28.6665 14.2472 28.6617 14.0861 28.7288 13.983C28.7986 13.8758 28.876 13.7734 28.95 13.6689C28.9746 13.6341 28.9993 13.5993 29.0233 13.5644C29.0493 13.5269 29.052 13.4921 29.0137 13.4593C28.9979 13.4456 28.974 13.4306 29.0048 13.3972L29.0055 13.3965Z" fill="#193686"/>
<path d="M27.5916 12.6964C27.621 12.6861 27.645 12.6779 27.6737 12.6677C27.6662 12.7749 27.6196 12.9265 27.5724 12.9783C27.5696 12.9347 27.5683 12.9026 27.5662 12.8712C27.5601 12.7872 27.5224 12.7189 27.4525 12.6718C27.3882 12.6288 27.3046 12.6397 27.269 12.695C27.2443 12.7326 27.2347 12.7728 27.2635 12.8145C27.3135 12.8869 27.3635 12.9592 27.4108 13.033C27.4409 13.0808 27.4744 13.1286 27.4923 13.1811C27.5416 13.3266 27.4409 13.4754 27.2875 13.489C27.1895 13.4979 27.0991 13.4713 27.0259 13.4064C26.9807 13.3662 26.9403 13.3341 26.8711 13.375C26.8738 13.2644 26.9163 13.1736 26.9327 13.076C26.98 13.0739 26.9786 13.1053 26.9772 13.1327C26.9745 13.1948 26.9964 13.2487 27.0245 13.3027C27.0601 13.3696 27.1217 13.3996 27.1882 13.416C27.2676 13.4358 27.3676 13.3245 27.3368 13.2453C27.3087 13.1722 27.2621 13.106 27.2204 13.0391C27.1978 13.0029 27.1683 12.9715 27.1443 12.9367C27.0635 12.8186 27.0964 12.695 27.1704 12.6254C27.2539 12.5469 27.3957 12.5441 27.495 12.6179C27.5292 12.6431 27.5607 12.6718 27.5916 12.6971V12.6964Z" fill="#193686"/>
<path d="M21.5459 13.3702C21.5028 13.2828 21.4596 13.1947 21.4165 13.108C21.4596 13.0759 21.4747 13.108 21.4987 13.1285C21.5418 13.1647 21.5857 13.2016 21.635 13.2275C21.6911 13.2576 21.7541 13.2487 21.8082 13.218C21.8589 13.1893 21.8979 13.149 21.8904 13.0807C21.8829 13.0131 21.8438 12.9694 21.7849 12.9483C21.7076 12.9203 21.6267 12.9025 21.5473 12.88C21.5254 12.8738 21.5028 12.8691 21.4816 12.8616C21.3617 12.8185 21.3062 12.7264 21.3234 12.6021C21.3384 12.4936 21.4309 12.4096 21.5452 12.4C21.5596 12.3987 21.574 12.4 21.5884 12.4C21.6514 12.4 21.7014 12.3793 21.7384 12.3379C21.7774 12.3754 21.85 12.5359 21.8596 12.6096C21.8274 12.6267 21.8137 12.6014 21.8 12.5809C21.7603 12.5202 21.7055 12.4806 21.635 12.471C21.5973 12.4662 21.5562 12.471 21.5192 12.482C21.4679 12.497 21.4411 12.5407 21.4364 12.5912C21.4322 12.6383 21.4665 12.6718 21.5035 12.6929C21.537 12.7127 21.5767 12.7236 21.6144 12.7353C21.6911 12.7578 21.7692 12.7749 21.8445 12.8001C21.9835 12.8472 22.0418 12.9435 22.0212 13.0814C22.0048 13.1906 21.8842 13.2903 21.7644 13.2951C21.7356 13.2958 21.7069 13.2931 21.6788 13.2972C21.6322 13.304 21.5795 13.304 21.5699 13.375C21.5617 13.3736 21.5535 13.3723 21.5452 13.3709L21.5459 13.3702Z" fill="#193686"/>
<path d="M16.2775 24.6827C16.172 24.4704 16.0823 24.2512 15.9844 24.0307C16.0392 23.9897 16.0974 23.9583 16.1659 23.9481C16.1713 23.9474 16.1796 23.9631 16.185 23.9692C16.1823 23.9788 16.183 23.9863 16.1796 23.989C16.1156 24.0441 16.0997 24.1112 16.1316 24.1904C16.1542 24.2457 16.1775 24.301 16.2015 24.355C16.2248 24.4069 16.2357 24.4116 16.2857 24.3898C16.3638 24.3563 16.4412 24.3208 16.5247 24.2826C16.496 24.2177 16.4692 24.1583 16.4432 24.0989C16.4165 24.0389 16.3741 24.0109 16.3069 24.0273C16.2967 24.03 16.2857 24.0273 16.2665 24.0273C16.2734 24.0095 16.2748 23.9911 16.2823 23.9877C16.3754 23.9467 16.4631 23.89 16.5651 23.875L16.5754 23.8907C16.5638 23.9044 16.5549 23.9214 16.5405 23.9317C16.4946 23.9651 16.4829 24.0068 16.5049 24.0587C16.5316 24.1208 16.5583 24.1836 16.5891 24.256C16.6891 24.2102 16.785 24.1686 16.8788 24.1222C16.9171 24.103 16.9384 24.0703 16.9137 24.0232C16.9076 24.0115 16.9144 23.9938 16.9158 23.974C16.9706 24.0197 17.0747 24.2478 17.0815 24.34C17.0616 24.3242 17.0459 24.3154 17.0342 24.3031C16.9856 24.2539 16.9795 24.2512 16.9158 24.2785C16.7589 24.3468 16.6028 24.4157 16.446 24.4847C16.4145 24.4983 16.383 24.512 16.3515 24.525C16.3083 24.5427 16.2905 24.5728 16.298 24.6192C16.3015 24.6383 16.298 24.6588 16.298 24.6786C16.2912 24.68 16.2843 24.6813 16.2768 24.682L16.2775 24.6827Z" fill="#193686"/>
<path d="M30.2255 14.3828H30.3029C30.2591 14.4846 30.1872 14.5542 30.1276 14.6361C30.0872 14.5979 30.1159 14.5672 30.1262 14.5385C30.1639 14.4354 30.1365 14.3507 30.0598 14.2756C30.0249 14.2415 29.9845 14.2333 29.942 14.247C29.8975 14.2613 29.8708 14.2988 29.8687 14.3432C29.8667 14.3876 29.8735 14.434 29.8838 14.4777C29.9036 14.5665 29.931 14.6532 29.9502 14.7413C29.9817 14.886 29.8804 15.0048 29.7331 15.013C29.5968 15.0205 29.5044 14.9632 29.4373 14.8505C29.4188 14.8191 29.3975 14.7891 29.3763 14.7563C29.3558 14.7611 29.3373 14.7652 29.3147 14.7699C29.3126 14.7549 29.3058 14.7413 29.3099 14.7344C29.3599 14.6559 29.4119 14.5781 29.4626 14.5016C29.4955 14.5187 29.4962 14.5358 29.4879 14.5617C29.4681 14.6238 29.4496 14.688 29.4736 14.7529C29.4866 14.7897 29.5023 14.8273 29.5256 14.8573C29.5708 14.9167 29.6503 14.9338 29.7098 14.9044C29.7708 14.8737 29.805 14.8027 29.7879 14.731C29.7674 14.6457 29.7365 14.5631 29.7215 14.477C29.7105 14.417 29.7037 14.3494 29.7215 14.2934C29.7708 14.1377 29.9776 14.0961 30.1009 14.2156C30.1468 14.2599 30.1796 14.3186 30.2255 14.3815V14.3828Z" fill="#193686"/>
<path d="M20.0164 14.0276C19.9644 13.9572 19.9295 13.9293 19.8274 13.8781C19.7377 13.9361 19.6453 13.9955 19.5494 14.0569C19.561 14.1129 19.5692 14.1655 19.5829 14.2174C19.5966 14.2679 19.6186 14.2788 19.6706 14.2699C19.6816 14.2679 19.6918 14.2672 19.7028 14.2665C19.7048 14.2665 19.7076 14.2699 19.7096 14.2713C19.6891 14.315 19.5631 14.4017 19.4768 14.4297C19.4782 14.4147 19.4747 14.399 19.4816 14.3915C19.5199 14.3471 19.5158 14.2979 19.5069 14.2461C19.459 13.9839 19.411 13.7217 19.3638 13.4595C19.3617 13.4493 19.3665 13.4384 19.3672 13.4302C19.4042 13.4083 19.4241 13.4349 19.4467 13.4493C19.6555 13.5831 19.8644 13.7169 20.0719 13.8535C20.1301 13.8917 20.1842 13.9313 20.2609 13.8978C20.2705 13.9484 20.2308 13.9559 20.2096 13.9709C20.0603 14.0788 20.0075 14.1061 19.9555 14.1034C19.9767 14.0767 19.9945 14.0542 20.0158 14.0283L20.0164 14.0276ZM19.7665 13.8296C19.6658 13.7606 19.574 13.6978 19.4686 13.6254C19.4925 13.7524 19.5131 13.8617 19.5357 13.9818C19.6165 13.9286 19.6857 13.8828 19.7665 13.8296Z" fill="#193686"/>
<path d="M30.7766 14.8945C30.8135 14.9198 30.8005 14.9416 30.7889 14.9662C30.693 15.1758 30.5985 15.3854 30.5033 15.595C30.4882 15.6285 30.4732 15.6626 30.4574 15.6961C30.4376 15.7384 30.4239 15.7807 30.4492 15.8265C30.4533 15.834 30.4465 15.847 30.4417 15.8709C30.3485 15.7821 30.2698 15.6954 30.1958 15.6019C30.2444 15.5698 30.2574 15.621 30.2972 15.6237C30.3732 15.5855 30.3725 15.4919 30.4225 15.4271C30.3437 15.3397 30.2698 15.2578 30.1903 15.1704C30.1397 15.1915 30.0876 15.212 30.0369 15.2366C29.9835 15.2625 29.9828 15.27 30.0068 15.3288C30.0109 15.3383 30.013 15.3492 30.0184 15.3663C29.9479 15.3711 29.9356 15.309 29.9013 15.2789C29.8671 15.2482 29.8417 15.2079 29.8164 15.1629C29.95 15.2093 30.0575 15.1383 30.1698 15.1014C30.3746 15.0345 30.5773 14.9628 30.7759 14.8945H30.7766ZM30.6108 15.0263C30.4882 15.07 30.3855 15.1062 30.2711 15.1458C30.3355 15.2188 30.3903 15.2817 30.4533 15.354C30.5054 15.2455 30.554 15.1451 30.6108 15.0263Z" fill="#193686"/>
<path d="M22.0781 28.4512C22.2048 28.4703 22.3171 28.4956 22.4295 28.5242V28.5481C22.4021 28.5536 22.3747 28.5597 22.3418 28.5666C22.3219 28.6355 22.3315 28.7045 22.3555 28.7721C22.361 28.7878 22.3795 28.8069 22.3952 28.8103C22.4918 28.8321 22.589 28.8492 22.689 28.869C22.7171 28.8281 22.7431 28.7912 22.7671 28.7529C22.8068 28.6895 22.8034 28.6765 22.7417 28.6294C22.7356 28.6246 22.7328 28.6164 22.7274 28.6096C22.7787 28.5898 22.9041 28.6123 23.0081 28.6628C22.8575 28.7079 22.8061 28.8417 22.7274 28.9475C22.6185 29.093 22.5171 29.2445 22.4123 29.3927C22.3993 29.4104 22.3829 29.4255 22.3644 29.4459C22.3137 29.392 22.3185 29.3258 22.3062 29.2677C22.2569 29.0411 22.2165 28.8117 22.1658 28.5857C22.1562 28.5433 22.1165 28.5078 22.0788 28.4512H22.0781ZM22.4363 29.2357C22.5096 29.1285 22.5733 29.0363 22.6438 28.9339C22.5486 28.9141 22.4664 28.897 22.3726 28.8772C22.3938 28.9981 22.413 29.1059 22.4363 29.235V29.2357Z" fill="#193686"/>
<path d="M16.2586 20.6836C16.2627 20.6897 16.2764 20.7 16.2771 20.7102C16.2785 20.8154 16.2778 20.9205 16.2778 21.0366C16.2308 20.9656 16.1696 20.9469 16.0943 20.9806C16.0634 20.9942 16.034 21.0106 15.9963 21.0297C16.0025 21.1383 16.008 21.2448 16.0141 21.3616C16.0634 21.3793 16.1134 21.3984 16.1641 21.4141C16.2216 21.4319 16.234 21.4237 16.2572 21.3643C16.262 21.3527 16.2696 21.3418 16.2853 21.3322C16.3018 21.4244 16.3066 21.5159 16.2963 21.6121C16.249 21.5118 16.1504 21.4974 16.0662 21.4647C15.8594 21.3841 15.6505 21.3069 15.443 21.2284C15.4347 21.2257 15.4252 21.2257 15.419 21.2202C15.4067 21.2107 15.3882 21.1991 15.3868 21.1868C15.3854 21.1752 15.4005 21.1567 15.4128 21.1499C15.4882 21.1103 15.5649 21.0728 15.6416 21.0352C15.8107 20.9526 15.9813 20.8734 16.1477 20.7874C16.1894 20.7655 16.2189 20.7218 16.2586 20.6843V20.6836ZM15.934 21.0571C15.8189 21.1076 15.7176 21.152 15.621 21.2134C15.7279 21.2482 15.8231 21.3042 15.934 21.3295V21.0577V21.0571Z" fill="#193686"/>
<path d="M25.9975 12.933C25.855 13.0579 25.6934 13.0736 25.5229 13.0217C25.3565 12.9719 25.2592 12.851 25.2305 12.6865C25.1866 12.4359 25.3291 12.1601 25.6181 12.1198C25.7167 12.1061 25.8105 12.1239 25.9002 12.1628C25.9591 12.1888 26.0146 12.2331 26.0762 12.171C26.0961 12.2229 26.0721 12.4298 26.0427 12.4844C26.0023 12.4803 26.0071 12.4434 26.0002 12.4202C25.9523 12.2563 25.8619 12.1881 25.6962 12.1935C25.616 12.1963 25.5475 12.2331 25.5051 12.2925C25.4003 12.4393 25.3476 12.6018 25.4154 12.7807C25.4619 12.9043 25.5886 12.978 25.6996 12.978C25.7866 12.978 25.8619 12.9562 25.9338 12.9118C25.9571 12.8974 25.9804 12.8865 25.9975 12.9323V12.933Z" fill="#193686"/>
<path d="M17.4118 26.2988C17.4453 26.363 17.4844 26.4101 17.5392 26.4442C17.6035 26.4845 17.6501 26.4183 17.7124 26.4183C17.7165 26.4272 17.7261 26.4436 17.7234 26.4456C17.6665 26.4948 17.6083 26.5426 17.5433 26.5965C17.3789 26.3896 17.2228 26.193 17.0625 25.9916C17.1289 25.9356 17.1885 25.8851 17.2481 25.8352C17.2536 25.8387 17.2591 25.8421 17.2645 25.8455C17.2611 25.8625 17.2645 25.8844 17.2543 25.896C17.1734 25.9882 17.2097 26.0687 17.2769 26.1466C17.2878 26.1589 17.2988 26.1705 17.3138 26.1862C17.4309 26.094 17.5446 26.0039 17.6576 25.9144C17.7227 25.8632 17.7884 25.8134 17.8514 25.7601C17.9055 25.7144 17.9042 25.7117 17.8747 25.6454C17.8672 25.6277 17.8638 25.6079 17.8686 25.584C17.9665 25.6796 18.0494 25.7833 18.1261 25.8926C18.1226 25.8974 18.1185 25.9021 18.1151 25.9069C18.0994 25.9001 18.0822 25.8953 18.0685 25.8851C18.0117 25.8434 17.9973 25.8407 17.9418 25.8837C17.7665 26.0196 17.5926 26.1575 17.4125 26.2995L17.4118 26.2988Z" fill="#193686"/>
<path d="M24.3698 12.0127C24.4608 11.9942 24.5512 11.999 24.6464 12.0161C24.6348 12.025 24.6238 12.0345 24.6115 12.042C24.5684 12.0693 24.5444 12.111 24.5273 12.1567C24.4389 12.3902 24.3506 12.6244 24.2622 12.8579C24.2547 12.8777 24.2437 12.8962 24.2246 12.9351C24.191 12.8695 24.1643 12.8217 24.141 12.7719C24.054 12.5869 23.9684 12.4005 23.8808 12.2155C23.8459 12.1424 23.8191 12.0612 23.7109 12.0352C23.739 12.0175 23.752 12.0024 23.765 12.0024C23.8739 12.0018 23.9828 11.9915 24.0931 12.0188C24.0595 12.04 24.0253 12.0618 23.9862 12.0864C24.076 12.2783 24.1629 12.4626 24.2581 12.6654C24.2944 12.5691 24.3252 12.4879 24.3547 12.4066C24.3807 12.3343 24.4061 12.2619 24.4314 12.1895C24.4718 12.0748 24.4704 12.0714 24.3704 12.0127H24.3698Z" fill="#193686"/>
<path d="M20.6756 28.8041C20.7023 28.8163 20.7249 28.8273 20.7489 28.8368C20.8557 28.8798 20.8797 28.8751 20.9591 28.7918C20.9776 28.7726 20.9906 28.7487 21.0283 28.7856C20.9941 28.8512 20.9585 28.9201 20.9201 28.9945C20.6845 28.888 20.4572 28.7849 20.2305 28.6825C20.2449 28.5958 20.2839 28.5077 20.3277 28.4593C20.3606 28.4729 20.351 28.5016 20.3489 28.5248C20.3414 28.6272 20.3551 28.6532 20.4462 28.6989C20.4715 28.7112 20.4976 28.7214 20.5263 28.7344C20.5387 28.7146 20.551 28.6989 20.5592 28.6818C20.6407 28.5036 20.7229 28.3254 20.8023 28.1459C20.8468 28.0448 20.8448 28.0442 20.7592 27.98C20.7551 27.9766 20.753 27.9711 20.7462 27.9609C20.7592 27.9561 20.7729 27.9445 20.7811 27.9479C20.8879 27.995 20.9941 28.0435 21.1002 28.0933C21.1084 28.0974 21.1132 28.1097 21.1235 28.124C21.1057 28.1261 21.0947 28.1295 21.0845 28.1281C20.9865 28.1131 20.9845 28.1131 20.9427 28.2039C20.855 28.3924 20.7688 28.5808 20.6825 28.7692C20.679 28.7767 20.6797 28.7856 20.677 28.8041H20.6756Z" fill="#193686"/>
<path d="M16.4063 19.3926C16.3769 19.5202 16.3789 19.65 16.3193 19.7708C16.3152 19.7599 16.307 19.749 16.3063 19.738C16.3029 19.6588 16.3043 19.6561 16.2317 19.6418C16.1146 19.6192 15.9975 19.5994 15.8797 19.5803C15.7735 19.5633 15.6667 19.5482 15.5585 19.5319C15.5222 19.5933 15.5119 19.665 15.5386 19.721C15.5633 19.7715 15.6242 19.805 15.6742 19.8507C15.6585 19.8568 15.6461 19.8664 15.6352 19.865C15.579 19.8568 15.5235 19.8452 15.4674 19.8357C15.4359 19.8302 15.4256 19.8138 15.4311 19.7817C15.4708 19.5476 15.5092 19.3134 15.5489 19.0703C15.6283 19.0806 15.705 19.0901 15.7817 19.0997C15.7831 19.1065 15.7838 19.1133 15.7852 19.1208C15.7673 19.1297 15.7495 19.1468 15.7311 19.1475C15.6359 19.1509 15.5948 19.2048 15.5838 19.2922C15.5804 19.3195 15.5749 19.3461 15.5687 19.3837C15.666 19.3987 15.755 19.4124 15.8441 19.4267C15.9755 19.4479 16.1077 19.4684 16.2392 19.4916C16.3104 19.5039 16.3214 19.5004 16.3508 19.4342C16.3597 19.4144 16.3584 19.3864 16.4049 19.3939L16.4063 19.3926Z" fill="#193686"/>
<path d="M16.2444 20.6537C16.2355 20.6223 16.2266 20.5902 16.215 20.5507C16.1766 20.5452 16.1355 20.5363 16.0938 20.5336C15.9205 20.5206 15.7479 20.5111 15.5746 20.4967C15.4904 20.4899 15.4212 20.5008 15.4089 20.6114C15.3582 20.5636 15.398 20.5186 15.3925 20.4769C15.3863 20.4353 15.3897 20.3916 15.3938 20.3492C15.398 20.3042 15.4069 20.2605 15.4171 20.1963C15.4308 20.225 15.439 20.2352 15.4411 20.2461C15.4555 20.3199 15.4658 20.3342 15.5377 20.341C15.6733 20.3533 15.8095 20.3615 15.9458 20.3704C16.0171 20.3752 16.0876 20.3779 16.1588 20.382C16.204 20.3847 16.2266 20.369 16.228 20.3199C16.23 20.2468 16.2458 20.1758 16.2369 20.1014C16.228 20.0229 16.1896 19.971 16.1287 19.928C16.1081 19.9136 16.0924 19.8925 16.0794 19.8672C16.1698 19.8659 16.2417 19.9102 16.3239 19.9369C16.3026 20.1792 16.2951 20.4175 16.2691 20.6537C16.2609 20.6537 16.252 20.6544 16.2437 20.6551L16.2444 20.6537Z" fill="#193686"/>
<path d="M25.1905 12.0737C25.1823 12.0812 25.1809 12.0846 25.1782 12.0853C25.0632 12.1106 25.0597 12.1099 25.0467 12.2253C25.0289 12.3851 25.0166 12.5455 25.0022 12.7059C25.0008 12.7203 25.0008 12.7339 24.9988 12.7483C24.9896 12.8234 25.0216 12.8766 25.0947 12.908C25.1008 12.9108 25.1049 12.919 25.1104 12.9258C25.0467 12.9497 24.7728 12.9258 24.707 12.891C24.7139 12.8855 24.7187 12.8766 24.7248 12.8759C24.8324 12.8582 24.8419 12.8445 24.8495 12.7339C24.857 12.6151 24.87 12.497 24.8796 12.3789C24.8858 12.3059 24.8926 12.2321 24.8967 12.1591C24.8988 12.1181 24.8817 12.0881 24.8413 12.073C24.8228 12.0662 24.8056 12.0587 24.7714 12.0444C24.8002 12.0362 24.8146 12.0287 24.8282 12.0293C24.9412 12.0362 25.0542 12.045 25.1679 12.0539C25.1741 12.0539 25.1796 12.0642 25.1905 12.0737Z" fill="#193686"/>
<path d="M28.1821 13.6423C28.078 13.6423 27.9883 13.5501 27.9883 13.4429C27.9883 13.3371 28.0814 13.2443 28.1917 13.2422C28.2903 13.2402 28.3958 13.3467 28.3875 13.4505C28.3793 13.557 28.2903 13.6409 28.1821 13.6423Z" fill="#193686"/>
<path d="M12.0704 41.4203H10.5699C10.7897 39.5988 11.0671 37.7936 11.3588 35.9856C11.28 36.172 11.204 36.3591 11.1218 36.5441C10.6411 37.6277 10.1138 38.6887 9.57272 39.7435C9.33439 40.2078 9.10428 40.6755 8.87007 41.1418C8.84541 41.1902 8.81596 41.2367 8.78925 41.2838C8.41327 41.3439 8.03455 41.2305 7.66953 41.3596C7.63734 41.3302 7.60378 41.2995 7.55653 41.2558C7.5353 40.9315 7.5442 40.5908 7.48188 40.2644C7.43052 39.9948 7.48256 39.7162 7.41134 39.4649C7.31752 39.1352 7.43531 38.7897 7.29149 38.4736C7.28259 38.4545 7.29012 38.4285 7.28944 38.406C7.26547 37.741 7.24218 37.0753 7.21684 36.4103C7.21273 36.3038 7.25519 36.1782 7.10932 36.1208C6.98399 36.622 6.92236 37.1361 6.77169 37.6324C6.66006 37.9991 6.61965 38.3869 6.53679 38.7631C6.4731 39.0526 6.38886 39.3373 6.32243 39.6261C6.23066 40.0221 6.15259 40.4208 6.05739 40.8161C6.00877 41.0175 5.93686 41.2128 5.87249 41.4183H4.47266C5.0178 39.0403 5.6458 36.7019 6.22244 34.3389H8.29959C8.30849 34.3812 8.32082 34.4126 8.32082 34.444C8.31808 34.8694 8.37013 35.2892 8.45368 35.7057C8.45573 35.7166 8.45368 35.7283 8.45436 35.7399C8.47833 36.1666 8.47765 36.596 8.53244 37.018C8.59133 37.4679 8.55572 37.9206 8.60983 38.365C8.64201 38.6293 8.63927 38.8969 8.67968 39.2007C8.98512 38.2729 9.40493 37.4392 9.79256 36.5933C10.1446 35.8252 10.5507 35.0817 10.9308 34.332H12.9518C12.9922 34.4706 13.0038 34.6072 12.9394 34.7485C12.9175 34.797 12.9155 34.8564 12.9107 34.911C12.886 35.2005 12.8826 35.4934 12.8347 35.7788C12.7716 36.1522 12.7381 36.5271 12.6922 36.9019C12.6525 37.231 12.5696 37.5553 12.558 37.8905C12.5525 38.0428 12.5025 38.193 12.471 38.3439C12.4621 38.3862 12.4361 38.4265 12.4326 38.4695C12.4066 38.7474 12.3874 39.0266 12.3587 39.3038C12.345 39.4349 12.3087 39.5639 12.2936 39.695C12.2799 39.8159 12.269 39.9326 12.2381 40.0542C12.1875 40.2556 12.2155 40.4713 12.1614 40.683C12.1019 40.9171 12.0991 41.1657 12.0697 41.4203H12.0704Z" fill="#193686"/>
<path d="M22.6087 36.3063C22.7614 35.5396 22.9128 34.7756 23.0675 34H24.5975C24.6893 34.2656 24.5023 34.5073 24.5461 34.7626C24.4564 34.8562 24.4934 34.9756 24.4783 35.0849C24.4646 35.1825 24.4331 35.2767 24.4133 35.3737C24.3352 35.7506 24.2592 36.1274 24.1825 36.5043C24.1455 36.6873 24.1017 36.8689 24.0736 37.0533C24.0003 37.5319 23.9133 38.0071 23.8051 38.4802C23.714 38.8776 23.6709 39.2852 23.5894 39.6853C23.5134 40.0567 23.4572 40.4274 23.4476 40.807C23.4421 41.0043 23.3908 41.2003 23.3572 41.4167H21.954C21.9766 41.188 22.0005 40.9518 22.0314 40.6411C21.9129 40.7565 21.843 40.82 21.778 40.8883C21.3712 41.317 20.8835 41.5341 20.2809 41.5075C20.0063 41.4952 19.7474 41.4645 19.5186 41.3075C19.2207 41.1033 18.966 40.876 18.8386 40.5093C18.7194 40.1666 18.6304 39.8307 18.6571 39.4681C18.6804 39.1466 18.7557 38.7069 18.9071 38.3437C19.0666 37.9606 19.2837 37.6138 19.5515 37.2984C19.7871 37.0205 20.0967 36.8348 20.4083 36.6593C20.863 36.4033 21.3547 36.2838 21.8807 36.3043C22.119 36.3138 22.3573 36.3056 22.6087 36.3056V36.3063ZM21.552 37.4752C21.3335 37.6145 21.0472 37.7189 20.8788 37.9217C20.4802 38.3996 20.2158 38.9547 20.3117 39.6054C20.3432 39.8191 20.3911 40.0642 20.6062 40.1775C20.8219 40.2909 21.0568 40.4404 21.3034 40.2123C21.3376 40.1809 21.4081 40.1891 21.4376 40.1837C21.843 39.8498 22.0903 39.4572 22.1553 38.954C22.1772 38.7827 22.245 38.6167 22.2827 38.4467C22.3341 38.2105 22.3772 37.9722 22.421 37.734C22.4265 37.7032 22.4149 37.6691 22.4128 37.6466C22.321 37.5858 22.2389 37.5305 22.1574 37.4766H21.5513L21.552 37.4752Z" fill="#193686"/>
<path d="M37.244 36.5651C37.1892 36.871 37.1639 37.1946 37.0687 37.4964C36.9742 37.7941 36.9536 38.1013 36.881 38.4004C36.8112 38.6878 36.7516 38.9787 36.6927 39.2688C36.6592 39.4306 36.6256 39.5938 36.6092 39.7577C36.5783 40.0581 36.564 40.3599 36.5352 40.6603C36.5119 40.904 36.4777 41.1464 36.4441 41.4263C36.2339 41.4448 35.9976 41.4318 35.7634 41.4338C35.5264 41.4359 35.2888 41.4338 35.0504 41.4338C35.0669 41.2488 35.1025 41.0849 35.0888 40.9252C35.0765 40.7818 35.1751 40.635 35.0806 40.4739C34.8464 40.8876 34.5491 41.1983 34.1156 41.371C33.7396 41.5212 33.3575 41.5513 32.9678 41.4632C32.3843 41.3314 32.0782 40.9081 31.8817 40.3879C31.8317 40.2561 31.8248 40.1073 31.807 39.9652C31.7502 39.5126 31.8358 39.0661 31.9604 38.6421C32.0583 38.3089 32.2645 38.0037 32.4439 37.6985C32.5336 37.5463 32.6603 37.4118 32.787 37.2854C32.9137 37.1598 33.0521 37.0424 33.2 36.942C33.5219 36.7242 33.8704 36.557 34.2437 36.4457C34.8813 36.2552 35.5394 36.2763 36.188 36.3228C36.5297 36.3474 36.8968 36.359 37.2447 36.5651H37.244ZM34.8121 37.4814C33.9204 37.8631 33.5047 38.5649 33.4048 39.4853C33.4904 39.6409 33.4363 39.8499 33.563 40.0083C33.6903 40.168 33.8657 40.2206 34.0574 40.2793C34.204 40.2124 34.3745 40.1707 34.4978 40.0711C34.7423 39.8744 34.9395 39.6409 35.0374 39.3214C35.1114 39.0811 35.2128 38.853 35.2532 38.5977C35.3121 38.2263 35.4189 37.8624 35.5086 37.4821H34.8121V37.4814Z" fill="#193686"/>
<path d="M18.2515 37.4757C18.2392 37.7372 18.2961 38.0117 18.181 38.2691C18.0673 38.5244 17.9249 38.7456 17.6824 38.9184C17.2982 39.1915 16.8695 39.2986 16.4209 39.3929C16.0039 39.4803 15.5882 39.4379 15.1718 39.4557C15.0834 39.4591 14.9855 39.4291 14.9225 39.5328C14.9759 39.8728 15.1547 40.1296 15.4971 40.219C15.7108 40.275 15.9272 40.4047 16.1696 40.2839C16.2244 40.2565 16.3155 40.3009 16.425 40.318C16.7435 40.2245 17.1003 40.1193 17.4838 40.006C17.5181 40.3747 17.553 40.7481 17.5879 41.1216C17.2373 41.2814 16.901 41.366 16.5545 41.4438C16.0792 41.5517 15.6053 41.5101 15.1355 41.4875C14.802 41.4718 14.4746 41.3326 14.1966 41.1154C13.9575 40.9284 13.7959 40.6969 13.6466 40.43C13.3604 39.9186 13.4857 39.3806 13.4549 38.8521C13.6137 38.3237 13.7774 37.8048 14.1363 37.3576C14.4986 36.9063 14.941 36.6011 15.4854 36.4304C15.6964 36.3642 15.91 36.3034 16.1354 36.3062C16.3066 36.3082 16.4778 36.3103 16.649 36.3055C17.1085 36.2911 17.5009 36.4734 17.829 36.765C17.9482 36.8708 18.0899 37.006 18.1214 37.1999C18.1365 37.2941 18.2043 37.3794 18.2509 37.475L18.2515 37.4757ZM16.7894 37.7645C16.5928 37.4225 16.3579 37.3453 15.9826 37.4395C15.6142 37.5324 15.4074 37.8103 15.1786 38.0656C15.1225 38.1284 15.119 38.2377 15.0855 38.3462C15.1677 38.3503 15.2122 38.3476 15.2546 38.3558C15.4711 38.3967 15.671 38.2902 15.882 38.2868C16.1888 38.2814 16.4668 38.1919 16.7106 38.0178C16.7367 37.9345 16.7593 37.8621 16.7901 37.7645H16.7894Z" fill="#193686"/>
<path d="M43.9221 40.3386C44.1234 40.2205 44.3357 40.4328 44.5076 40.273C44.7001 40.286 44.885 40.2519 45.0672 40.1897C45.2507 40.1269 45.4384 40.0744 45.6356 40.0136C45.6685 40.3843 45.7013 40.7503 45.7342 41.1101C45.4116 41.2965 45.0809 41.3634 44.7467 41.4412C44.3077 41.5436 43.8666 41.5177 43.4311 41.4938C42.7462 41.4562 42.1833 41.1422 41.8477 40.5325C41.6977 40.2601 41.5559 39.9583 41.597 39.6162C41.6162 39.4592 41.6053 39.2981 41.5991 39.1397C41.5895 38.9028 41.6409 38.6836 41.7203 38.4576C41.8806 38.0022 42.0894 37.5932 42.412 37.2212C42.762 36.817 43.2003 36.5882 43.6762 36.4087C43.8687 36.3363 44.0885 36.3165 44.2967 36.3117C44.6097 36.3042 44.9206 36.2947 45.2363 36.367C45.5801 36.4455 45.8342 36.6237 46.0616 36.8764C46.3239 37.1679 46.4115 37.5093 46.4006 37.8889C46.3882 38.3081 46.1999 38.6467 45.8794 38.8925C45.4877 39.1929 45.0261 39.3186 44.535 39.3984C44.1495 39.4606 43.7708 39.4346 43.3893 39.4551C43.2783 39.4606 43.1674 39.4558 43.0325 39.4558C43.1195 39.6941 43.1427 39.9296 43.3537 40.0539C43.5324 40.1597 43.7262 40.2403 43.9235 40.3372L43.9221 40.3386ZM44.9569 37.8083C44.8795 37.6765 44.8412 37.5304 44.6837 37.4745C44.5234 37.4164 44.3556 37.372 44.1933 37.4144C43.8344 37.5086 43.5667 37.7298 43.3749 38.0486C43.3187 38.1415 43.2708 38.2303 43.2468 38.3402C43.4064 38.3709 43.5358 38.3668 43.6577 38.2958C43.9214 38.3723 44.168 38.2692 44.4179 38.22C44.6508 38.1743 44.8597 38.08 44.9569 37.809V37.8083Z" fill="#193686"/>
<path d="M31.4605 37.6903C31.2914 37.5571 31.1291 37.5332 30.9558 37.5407C30.688 37.5523 30.4223 37.5285 30.1607 37.6404C29.8176 37.7872 29.5526 38.0057 29.3553 38.3184C29.1992 38.5655 29.1019 38.8366 29.078 39.1199C29.0403 39.5651 29.1533 39.9604 29.5053 40.1393C30.1045 40.3584 30.5956 40.2253 31.1085 40.0587C31.1462 40.2676 31.1202 40.4697 31.125 40.6698C31.1298 40.863 31.1257 41.0562 31.1257 41.2597C30.6949 41.4222 30.2538 41.5089 29.7929 41.5041C29.4231 41.5007 29.0554 41.5143 28.7027 41.3655C28.4041 41.2392 28.1541 41.0637 27.9315 40.822C27.5405 40.398 27.411 39.8887 27.4419 39.3487C27.4576 39.0715 27.4775 38.7799 27.5836 38.5027C27.7103 38.1709 27.8487 37.8459 28.061 37.5653C28.4568 37.0423 28.9889 36.675 29.6005 36.4606C29.9053 36.3534 30.2422 36.2804 30.5833 36.3029C30.788 36.3166 30.9942 36.3138 31.1989 36.3029C31.4421 36.2906 31.6557 36.3746 31.8947 36.4757C31.7639 36.8792 31.6633 37.2799 31.4612 37.6889L31.4605 37.6903Z" fill="#193686"/>
<path d="M39.1157 41.4266H37.5906C37.5002 41.273 37.6282 41.1324 37.6474 40.9897C37.6741 40.7855 37.7399 40.5841 37.7631 40.3759C37.7803 40.2222 37.7946 40.0652 37.8378 39.9184C37.9104 39.6733 37.9398 39.4227 37.9748 39.1715C38.009 38.923 38.0624 38.6724 38.1453 38.4362C38.198 38.2846 38.1672 38.1324 38.2199 37.9774C38.2966 37.7514 38.2843 37.4953 38.3103 37.2523C38.3398 36.9751 38.3685 36.6979 38.398 36.4159C38.624 36.3634 39.3219 36.3545 39.765 36.4057C39.7369 36.7095 39.7095 37.0133 39.6746 37.3888C40.1293 36.6187 40.7121 36.2227 41.5846 36.3162C41.6284 36.5682 41.4867 36.7989 41.4737 37.0427C41.46 37.3021 41.3675 37.537 41.3072 37.8149C41.2127 37.8149 41.1134 37.8128 41.0141 37.8149C40.5176 37.8272 40.1526 38.0415 39.8869 38.4717C39.7026 38.7694 39.617 39.0978 39.5006 39.4159C39.441 39.5791 39.4369 39.7628 39.4129 39.9382C39.3458 40.4394 39.2465 40.9337 39.1164 41.4273L39.1157 41.4266Z" fill="#193686"/>
<path d="M25.4221 36.3809H26.9295C27.0096 36.6116 26.8624 36.8165 26.8617 37.0343C26.861 37.2452 26.7398 37.4337 26.724 37.6487C26.7103 37.844 26.6453 38.0352 26.6097 38.2297C26.5124 38.7596 26.4611 39.2989 26.2885 39.8144C26.2364 39.9708 26.2474 40.1401 26.2077 40.3039C26.1303 40.6248 26.1063 40.9587 26.0536 41.2864C26.0453 41.3363 26.0008 41.3806 25.9762 41.4216H24.4805C24.4887 41.2673 24.4832 41.1342 24.5284 40.9867C24.6085 40.7252 24.6346 40.4473 24.6866 40.1769C24.7435 39.8854 24.8071 39.5959 24.8626 39.3044C24.9208 39.0013 24.9729 38.6967 25.027 38.3922C25.0564 38.2297 25.0852 38.0666 25.1153 37.9041C25.1776 37.5682 25.2386 37.2322 25.3043 36.897C25.3379 36.727 25.3804 36.5591 25.4208 36.3809H25.4221Z" fill="#193686"/>
<path d="M26.2716 34.041C26.4675 34.067 26.688 34.0963 26.8948 34.1236C27.5215 34.5046 27.4228 35.414 26.6161 35.6974H26.1942C26.0874 35.6455 25.9682 35.5868 25.8347 35.5219C25.7772 35.4147 25.7141 35.2973 25.6498 35.1764C25.6094 34.5722 25.6833 34.422 26.2723 34.041H26.2716Z" fill="#193686"/>
<path d="M21.5523 37.476H22.1583C22.2398 37.5299 22.322 37.5852 22.4138 37.646C22.4165 37.6685 22.4282 37.7026 22.422 37.7334C22.3782 37.971 22.335 38.2092 22.2837 38.4462C22.2467 38.6168 22.1789 38.7821 22.1563 38.9534C22.0912 39.4566 21.844 39.8499 21.4386 40.1831C21.4091 40.1885 21.3379 40.1803 21.3043 40.2118C21.0578 40.4405 20.8229 40.2909 20.6072 40.1769C20.3921 40.0636 20.3442 39.8192 20.3127 39.6048C20.2168 38.9541 20.4811 38.3997 20.8797 37.9211C21.0482 37.719 21.3352 37.6146 21.5529 37.4746L21.5523 37.476Z" fill="white"/>
<path d="M34.8136 37.4812H35.5101C35.4204 37.8621 35.3136 38.226 35.2547 38.5968C35.2142 38.8521 35.1129 39.0795 35.0389 39.3205C34.941 39.64 34.7438 39.8735 34.4993 40.0701C34.3753 40.1698 34.2048 40.2121 34.0589 40.2784C33.8678 40.2197 33.6918 40.1671 33.5644 40.0073C33.4384 39.8489 33.4925 39.64 33.4062 39.4843C33.5069 38.564 33.9219 37.8621 34.8136 37.4805V37.4812Z" fill="white"/>
<path d="M16.7866 37.7645C16.7558 37.8615 16.7332 37.9345 16.7072 38.0178C16.4634 38.1912 16.1853 38.2814 15.8785 38.2868C15.6676 38.2909 15.4676 38.3968 15.2512 38.3558C15.2087 38.3476 15.1642 38.3503 15.082 38.3462C15.1163 38.2377 15.1197 38.1284 15.1752 38.0656C15.4039 37.8103 15.6107 37.5324 15.9792 37.4395C16.3545 37.3453 16.5887 37.4218 16.7859 37.7645H16.7866Z" fill="white"/>
<path d="M44.9562 37.8079C44.8589 38.0789 44.65 38.1732 44.4172 38.2189C44.1672 38.2681 43.92 38.3712 43.657 38.2947C43.5351 38.3657 43.4057 38.3698 43.2461 38.3391C43.2694 38.2291 43.318 38.1404 43.3742 38.0475C43.5659 37.7294 43.8337 37.5075 44.1926 37.4133C44.3549 37.3709 44.5226 37.4153 44.6829 37.4733C44.8404 37.53 44.8788 37.6754 44.9562 37.8072V37.8079Z" fill="white"/>
</g>
<defs>
<clipPath id="clip0_879_309">
<rect width="49" height="49" rx="5" fill="white"/>
</clipPath>
</defs>
</svg>
