<svg width="49" height="49" viewBox="0 0 49 49" fill="none" xmlns="http://www.w3.org/2000/svg">
<g clip-path="url(#clip0_879_317)">
<rect width="49" height="49" rx="5" fill="white"/>
<path d="M31.9549 11.9044C32.1754 11.9699 32.3404 12.0867 32.4445 12.2799C32.5794 12.5312 32.5815 12.7926 32.4843 13.0555C32.4123 13.2508 32.2856 13.4119 32.1439 13.5621C31.9179 13.8004 31.6659 14.01 31.4186 14.2244C31.2789 14.3452 31.1399 14.4674 31.0009 14.5896C30.803 14.7651 30.6064 14.9426 30.4078 15.1174C30.2284 15.2751 30.0462 15.4308 29.8654 15.5878C29.6373 15.7851 29.4093 15.9825 29.1812 16.1805C28.9422 16.3873 28.7039 16.5956 28.4635 16.8011C28.2389 16.9936 28.0115 17.1834 27.7855 17.3746C27.6376 17.4995 27.4897 17.6245 27.3438 17.7521C27.1493 17.9235 27.0288 18.1434 26.9616 18.3878C26.9021 18.6035 26.8637 18.8254 26.8212 19.0453C26.7897 19.2071 26.763 19.3696 26.7404 19.5327C26.7185 19.6932 26.7021 19.8543 26.6898 20.0155C26.6603 20.3998 26.5096 20.7282 26.2446 21.0068C26.1076 21.1502 25.9529 21.269 25.7721 21.355C25.6488 21.413 25.5187 21.4438 25.3865 21.4629C25.1351 21.5004 24.8811 21.5086 24.627 21.5045C24.3243 21.4997 24.0223 21.4895 23.7196 21.4875C23.6086 21.4868 23.4977 21.4997 23.3867 21.5086C23.2046 21.5236 23.0546 21.6022 22.932 21.7367C22.9039 21.7681 22.8662 21.7913 22.8313 21.8159C22.819 21.8247 22.8005 21.8254 22.7765 21.8316C22.7663 21.7735 22.7532 21.7216 22.7478 21.6691C22.732 21.5155 22.7327 21.3625 22.7745 21.2123C22.8471 20.9529 23.0197 20.7883 23.271 20.7009C23.3984 20.6566 23.5312 20.634 23.6655 20.6313C23.8422 20.6279 24.0188 20.6286 24.1955 20.6313C24.4263 20.6354 24.6571 20.6484 24.8886 20.649C25.0338 20.649 25.1797 20.647 25.3221 20.6135C25.3413 20.6088 25.3611 20.6047 25.3803 20.6013C25.5399 20.5698 25.6419 20.477 25.6728 20.3172C25.7077 20.1363 25.744 19.9547 25.7673 19.7724C25.8221 19.3388 25.8727 18.9046 25.9748 18.4779C26.0282 18.2533 26.0953 18.0327 26.1919 17.8225C26.2556 17.6845 26.3432 17.5603 26.4439 17.4476C26.5863 17.2886 26.7274 17.1267 26.8856 16.984C27.1472 16.7471 27.4205 16.5232 27.691 16.2965C28.1499 15.9128 28.6121 15.5339 29.0703 15.1495C29.334 14.9283 29.5942 14.7023 29.8531 14.4743C30.0578 14.2933 30.2558 14.1042 30.4592 13.9219C30.6475 13.7526 30.8406 13.5881 31.0303 13.4201C31.2351 13.2385 31.4337 13.05 31.5946 12.8268C31.7782 12.5721 31.8864 12.2874 31.9391 11.9802C31.9425 11.9583 31.9473 11.9365 31.9535 11.9023L31.9549 11.9044Z" fill="#193686"/>
<path d="M28.7512 21.9841C28.7225 22.0517 28.6499 22.0339 28.6115 22.0804C28.6225 22.0933 28.6328 22.1097 28.6471 22.1213C28.6992 22.1643 28.7184 22.2197 28.7225 22.2859C28.728 22.3705 28.7362 22.4559 28.754 22.5385C28.7759 22.6416 28.8485 22.7071 28.9457 22.7392C29.0019 22.7577 29.0622 22.7665 29.1217 22.7693C29.3272 22.7781 29.5313 22.7536 29.736 22.7379C29.9114 22.7242 30.0894 22.7085 30.2627 22.7672C30.4305 22.8239 30.5318 22.9522 30.538 23.1291C30.5469 23.396 30.4435 23.6125 30.225 23.7668C30.0805 23.8685 29.9278 23.9579 29.7799 24.0549C29.6895 24.1143 29.595 24.1703 29.5142 24.2413C29.1779 24.5349 29.2724 25.0326 29.6251 25.2326C29.8169 25.3419 30.0168 25.3405 30.2202 25.2729C30.2798 25.2531 30.3367 25.2265 30.4004 25.2012C30.4038 25.247 30.3819 25.2825 30.3613 25.3173C30.2812 25.4538 30.1634 25.5528 30.0292 25.6307C29.7997 25.7638 29.5491 25.8287 29.2854 25.8328C29.0923 25.8355 28.9033 25.8054 28.7362 25.6996C28.5348 25.5719 28.4396 25.3849 28.4321 25.1493C28.4273 25.0019 28.4444 24.8598 28.5191 24.7288C28.5821 24.6181 28.6677 24.5253 28.767 24.4481C28.8909 24.3519 29.0231 24.2672 29.1471 24.1716C29.2443 24.0972 29.3423 24.0221 29.4265 23.934C29.5552 23.7995 29.608 23.6398 29.5368 23.4554C29.4929 23.3435 29.4107 23.267 29.3073 23.2124C29.1978 23.155 29.0813 23.1209 28.9553 23.1181C28.8033 23.1154 28.654 23.1304 28.504 23.153C28.3951 23.1694 28.2849 23.1892 28.1725 23.1714C27.9979 23.1441 27.9109 23.0369 27.928 22.8628C27.9335 22.8095 27.9411 22.7556 27.9506 22.703C27.963 22.6334 27.9397 22.5801 27.8808 22.5426C27.8397 22.5166 27.7966 22.4948 27.7562 22.4675C27.6863 22.4197 27.6808 22.3808 27.7322 22.3125C27.7404 22.3016 27.7493 22.2907 27.7616 22.2743C27.7164 22.2592 27.6753 22.2483 27.6363 22.2326C27.5514 22.1978 27.5384 22.1698 27.5685 22.0831C27.5795 22.051 27.5959 22.021 27.6103 21.9902C27.6199 21.9698 27.6329 21.9506 27.6404 21.9288C27.6479 21.9076 27.6514 21.8851 27.6569 21.8612C27.6212 21.8291 27.5795 21.825 27.5363 21.825C27.4795 21.825 27.4219 21.825 27.3651 21.825C27.3425 21.825 27.3192 21.825 27.2966 21.8223C27.1603 21.8018 27.0919 21.7008 27.1329 21.569C27.1514 21.5103 27.1809 21.4529 27.2151 21.401C27.2891 21.2897 27.3665 21.1805 27.4473 21.0733C27.5432 20.9463 27.5521 20.8146 27.4637 20.6848C27.361 20.5346 27.3555 20.3708 27.3809 20.2014C27.4309 19.8648 27.4822 19.5276 27.5719 19.1985C27.6281 18.9937 27.7041 18.7957 27.8575 18.642C27.9616 18.5376 28.0808 18.4481 28.1931 18.3512C28.3848 18.186 28.5766 18.0201 28.7677 17.8542C28.967 17.6801 29.1663 17.5053 29.3649 17.3298C29.5484 17.168 29.7313 17.0048 29.9155 16.843C30.1271 16.6566 30.3394 16.4709 30.5517 16.2852C30.764 16.0995 30.9749 15.9131 31.1886 15.7294C31.3585 15.5826 31.5317 15.4386 31.7029 15.2932C31.9009 15.1252 32.0878 14.9456 32.2611 14.7524C32.4193 14.5763 32.52 14.3728 32.559 14.1386C32.5652 14.1004 32.5795 14.0635 32.5891 14.0273C32.8165 14.0451 33.0117 14.2158 33.0658 14.4397C33.1206 14.6664 33.0781 14.8808 32.9699 15.0829C32.8802 15.2501 32.7583 15.3949 32.6145 15.5178C32.3892 15.7103 32.1556 15.8919 31.9296 16.0831C31.7406 16.2435 31.5577 16.4108 31.3728 16.5754C31.2263 16.7058 31.0797 16.8375 30.9332 16.9686C30.7441 17.1379 30.5551 17.3066 30.3661 17.4752C30.1661 17.6534 29.9662 17.8316 29.7648 18.0078C29.469 18.2659 29.1717 18.5232 28.8731 18.7793C28.7601 18.8755 28.6519 18.9752 28.5574 19.0906C28.4129 19.2674 28.3321 19.4723 28.2855 19.6914C28.2465 19.8744 28.2184 20.0601 28.1842 20.2445C28.1616 20.3674 28.1794 20.4766 28.278 20.5633C28.3746 20.6486 28.3766 20.7572 28.3479 20.8699C28.3177 20.9873 28.2609 21.0897 28.1787 21.1812C28.1246 21.242 28.0739 21.3095 28.039 21.3826C27.9979 21.4686 28.0554 21.5492 28.1506 21.5553C28.1992 21.5587 28.2479 21.5526 28.2965 21.5574C28.3294 21.5601 28.3629 21.5704 28.3937 21.5833C28.4417 21.6038 28.4609 21.6434 28.4533 21.6946C28.4485 21.7253 28.4396 21.7561 28.4355 21.7868C28.4225 21.8824 28.4691 21.9479 28.5656 21.9643C28.6239 21.9739 28.6834 21.9766 28.754 21.9834L28.7512 21.9841Z" fill="#193686"/>
<path d="M29.6992 21.5224V21.2684C29.6403 21.2684 29.5876 21.2684 29.5342 21.2684C29.5054 21.2684 29.4766 21.2691 29.4486 21.2636C29.3602 21.2465 29.315 21.1837 29.3315 21.0963C29.341 21.0465 29.3575 20.9973 29.378 20.9502C29.4143 20.8669 29.4554 20.785 29.4958 20.7031C29.5403 20.6109 29.5616 20.5167 29.4945 20.4286C29.402 20.3078 29.3931 20.1726 29.4143 20.0312C29.4438 19.8339 29.4883 19.6407 29.5472 19.4502C29.617 19.2256 29.7499 19.0433 29.9286 18.8945C30.1238 18.7327 30.3265 18.5804 30.521 18.4179C30.7642 18.2158 31.0032 18.0089 31.2422 17.8027C31.5805 17.5105 31.9216 17.221 32.2544 16.9227C32.5386 16.6673 32.8084 16.3977 33.0529 16.1027C33.0598 16.0945 33.0694 16.089 33.0837 16.0781C33.181 16.2085 33.2474 16.3471 33.27 16.5055C33.2995 16.7049 33.2419 16.8804 33.1317 17.0442C33.0091 17.2258 32.8475 17.3699 32.6845 17.5133C32.4304 17.7372 32.1729 17.9577 31.9174 18.1803C31.7476 18.3278 31.5791 18.4759 31.41 18.6241C31.2922 18.7272 31.1764 18.833 31.0573 18.9347C30.9402 19.0344 30.8176 19.128 30.7025 19.229C30.6066 19.313 30.5128 19.4011 30.4252 19.4939C30.2752 19.6523 30.2457 19.8469 30.2594 20.0572C30.2697 20.2122 30.3005 20.3685 30.267 20.5242C30.2519 20.5931 30.2259 20.6594 30.204 20.727C30.1841 20.7891 30.1635 20.8505 30.1396 20.9229C30.1923 20.9489 30.2403 20.9721 30.2875 20.9953C30.3156 21.0096 30.345 21.0219 30.3697 21.0403C30.4395 21.0929 30.4519 21.1387 30.4279 21.2267C30.4245 21.2397 30.4245 21.254 30.4224 21.2752H30.6019C30.5984 21.2991 30.5971 21.3148 30.5936 21.3291C30.5765 21.3961 30.5854 21.4295 30.6416 21.4671C30.6861 21.4964 30.7464 21.5101 30.7792 21.5476C30.8121 21.5859 30.8155 21.648 30.8402 21.6958C30.9011 21.8153 30.9984 21.8596 31.1388 21.8398C31.2935 21.818 31.4319 21.749 31.573 21.6876C31.7038 21.6309 31.8332 21.5702 31.9668 21.5203C32.2099 21.4288 32.4619 21.4193 32.7173 21.4473C32.9824 21.4766 33.2365 21.5531 33.4933 21.6166C33.7385 21.6774 33.9857 21.7176 34.2384 21.6985C34.3343 21.6917 34.4295 21.6671 34.5247 21.65C34.5493 21.6459 34.5733 21.6391 34.6157 21.6289C34.6021 21.6651 34.5986 21.6903 34.5849 21.7074C34.4582 21.8685 34.3391 22.0358 34.1898 22.1778C34.0008 22.3574 33.783 22.4823 33.52 22.5076C33.294 22.5294 33.068 22.5151 32.855 22.4277C32.6441 22.341 32.4379 22.2434 32.2284 22.1525C32.0654 22.0815 31.8969 22.0283 31.7161 22.0303C31.5915 22.0317 31.4737 22.0658 31.3572 22.1048C31.2189 22.1505 31.0833 22.2031 30.9456 22.2509C30.808 22.2987 30.6669 22.3335 30.521 22.3451C30.4265 22.3526 30.3327 22.3471 30.2423 22.315C30.0649 22.2509 29.9745 22.1013 29.9985 21.9143C30.0026 21.8835 30.0081 21.8528 30.0149 21.8119C29.9951 21.8009 29.9711 21.788 29.9471 21.775C29.8314 21.7129 29.8184 21.678 29.8636 21.5531C29.8348 21.5504 29.8061 21.549 29.7787 21.5442C29.754 21.5394 29.73 21.5306 29.6972 21.521L29.6992 21.5224Z" fill="#193686"/>
<path d="M28.3517 26.4284C28.3045 26.4756 28.2613 26.5288 28.2086 26.5698C27.9168 26.7965 27.5902 26.9514 27.2224 26.9951C26.7779 27.0484 26.3554 26.7726 26.2725 26.3001C26.2314 26.0666 26.2876 25.8467 26.4191 25.6494C26.5088 25.5142 26.6026 25.3804 26.7245 25.2719C26.8012 25.2043 26.8848 25.1442 26.967 25.0828C27.058 25.0138 27.1471 24.9435 27.2046 24.8411C27.2957 24.6779 27.2765 24.4778 27.1149 24.3406C26.9779 24.2239 26.8136 24.1576 26.6499 24.0907C26.367 23.9753 26.0842 23.8613 25.8034 23.7411C25.2494 23.5042 24.685 23.2974 24.1057 23.1294C23.8482 23.0543 23.5941 22.9676 23.3386 22.887C23.0668 22.801 22.7914 22.7239 22.5079 22.6883C22.3929 22.674 22.2737 22.6795 22.1573 22.6863C22.073 22.6911 21.9991 22.7327 21.9374 22.7914C21.8895 22.8372 21.8368 22.8741 21.7662 22.8945C21.7258 22.8338 21.7395 22.7662 21.745 22.7047C21.7614 22.5224 21.8244 22.3579 21.9477 22.2173C22.0559 22.0944 22.1929 22.0466 22.3511 22.0438C22.7757 22.0356 23.1921 22.0855 23.6016 22.1995C24.2118 22.3695 24.8179 22.5532 25.4178 22.7559C25.8609 22.9061 26.3006 23.0652 26.741 23.2229C27.1567 23.3725 27.5477 23.5705 27.9086 23.8258C27.9456 23.8518 27.9819 23.8804 28.0141 23.9118C28.1805 24.075 28.1524 24.2792 28.0579 24.4533C27.9915 24.5755 27.8881 24.6656 27.7847 24.7557C27.6388 24.8827 27.495 25.0124 27.3498 25.1408C27.0985 25.3627 27.0786 25.633 27.1909 25.9266C27.3005 26.2141 27.5306 26.3506 27.821 26.4039C27.9846 26.4339 28.1497 26.4305 28.3147 26.4107C28.323 26.41 28.3312 26.4114 28.3394 26.4121C28.3435 26.4175 28.3483 26.4237 28.3524 26.4291L28.3517 26.4284Z" fill="#193686"/>
<path d="M18.5635 12.1984C18.5745 12.1758 18.5786 12.1656 18.584 12.1567C18.6286 12.0809 18.6286 12.0577 18.571 11.9908C18.4539 11.8549 18.3354 11.7204 18.217 11.5859C18.1677 11.5295 18.1005 11.5179 18.0156 11.5511C18.0225 11.5313 18.0232 11.5136 18.0321 11.5047C18.0827 11.4589 18.1355 11.4159 18.1868 11.3709C18.2108 11.3497 18.2341 11.3579 18.2581 11.3688C18.367 11.418 18.4765 11.4671 18.5854 11.5163C18.671 11.5545 18.7559 11.5934 18.8498 11.6351C18.8498 11.6126 18.8532 11.5969 18.8498 11.5832C18.7957 11.4043 18.7422 11.2248 18.6861 11.0466C18.6662 10.9837 18.6662 10.9332 18.732 10.895C18.7683 10.8738 18.7964 10.839 18.8299 10.8131C18.845 10.8014 18.8655 10.7967 18.8861 10.7871C18.8888 10.8028 18.8909 10.8062 18.8902 10.8083C18.8361 10.9066 18.834 10.9086 18.9094 10.9974C19.0306 11.1408 19.1538 11.2821 19.2778 11.4234C19.2963 11.4439 19.3216 11.4583 19.3435 11.4753C19.3785 11.4589 19.4079 11.4446 19.4504 11.4241C19.4449 11.4494 19.4463 11.4678 19.4381 11.4753C19.3579 11.5477 19.2764 11.6187 19.1936 11.6883C19.1833 11.6965 19.1634 11.6931 19.1374 11.6965C19.2121 11.5771 19.2114 11.5777 19.121 11.476C19.0134 11.3552 18.908 11.2323 18.797 11.1128C18.8559 11.362 18.9463 11.6016 19.0039 11.8501C18.9984 11.8549 18.9936 11.8597 18.9881 11.8645C18.769 11.7662 18.5498 11.6679 18.3313 11.5695C18.3279 11.573 18.3245 11.5764 18.3211 11.5798C18.3533 11.6201 18.3841 11.661 18.4169 11.6999C18.4793 11.7737 18.543 11.8467 18.6066 11.9198C18.6217 11.9369 18.6382 11.9532 18.6553 11.9683C18.6902 11.999 18.7272 12.0133 18.7724 11.9874C18.7861 11.9799 18.8025 11.9778 18.8217 11.9724C18.8025 12.0331 18.6477 12.171 18.5649 12.1977L18.5635 12.1984Z" fill="#193686"/>
<path d="M20.1115 24.5847C20.0834 24.8277 20.0554 25.0701 20.0266 25.3132C20.0307 25.3145 20.0348 25.3159 20.0389 25.3173C20.1053 25.2094 20.1725 25.1008 20.2382 24.9923C20.2635 24.9513 20.2875 24.909 20.3122 24.8673C20.3382 24.8223 20.3361 24.7813 20.2944 24.7465C20.2841 24.7376 20.2759 24.7267 20.2656 24.7158C20.3081 24.6987 20.3074 24.6987 20.4122 24.767C20.4594 24.7977 20.5074 24.8264 20.5512 24.8721C20.5313 24.8721 20.5087 24.879 20.493 24.8708C20.4416 24.8441 20.4115 24.8721 20.3834 24.9069C20.3676 24.9267 20.3539 24.9493 20.3409 24.9711C20.2526 25.1138 20.1649 25.2572 20.0766 25.4006C20.0369 25.4652 20.0433 25.5251 20.0958 25.5801C20.0992 25.5835 20.0985 25.5911 20.1026 25.6088C20.0033 25.5917 19.9389 25.5214 19.8526 25.4798C19.8807 25.2476 19.9088 25.0155 19.9389 24.7656C19.7348 24.9028 19.5417 25.0326 19.3465 25.1637C19.3048 25.1391 19.2623 25.1159 19.2212 25.0906C19.1842 25.0674 19.1431 25.049 19.1055 25.0005C19.1342 25.0018 19.1507 24.9991 19.163 25.0039C19.215 25.0244 19.2507 25.0073 19.2781 24.9616C19.3041 24.9179 19.3335 24.8755 19.3602 24.8318C19.4404 24.7008 19.5212 24.5697 19.5992 24.4379C19.6417 24.3662 19.6397 24.3655 19.5766 24.3054C19.5705 24.3 19.5677 24.2918 19.5595 24.2788C19.5732 24.2734 19.589 24.2624 19.5951 24.2665C19.6972 24.3287 19.7985 24.3928 19.8992 24.457C19.9019 24.4591 19.9006 24.4673 19.9019 24.4864C19.8793 24.4816 19.8581 24.4809 19.8417 24.4727C19.8074 24.455 19.78 24.4618 19.7588 24.4905C19.7301 24.5294 19.7027 24.569 19.6773 24.6093C19.602 24.7294 19.528 24.851 19.4582 24.9779C19.5732 24.9254 19.6712 24.8462 19.7753 24.7779C19.8787 24.7096 19.9814 24.64 20.0848 24.571C20.093 24.5758 20.1012 24.5813 20.1088 24.5861L20.1115 24.5847Z" fill="#193686"/>
<path d="M16.9228 12.9114C16.9146 12.9285 16.9091 12.9415 16.9023 12.9538C16.881 12.9927 16.8886 13.0255 16.9235 13.0507C16.9975 13.1033 17.0728 13.1552 17.1557 13.2132C17.2289 13.1074 17.2995 13.0063 17.3755 12.8971C17.294 12.8418 17.218 12.7892 17.1406 12.738C17.105 12.7141 17.0721 12.7162 17.0433 12.753C17.0338 12.7653 17.0187 12.7728 16.9988 12.7879C16.994 12.7694 16.9865 12.7565 16.9906 12.7503C17.057 12.6493 17.1255 12.5496 17.1933 12.4492C17.1988 12.4513 17.2043 12.4526 17.2098 12.4547C17.2111 12.469 17.2166 12.484 17.2132 12.497C17.1913 12.5748 17.1899 12.5783 17.2536 12.6247C17.3549 12.6984 17.459 12.7681 17.5625 12.8391C17.6234 12.8807 17.685 12.9217 17.7467 12.9633C17.8172 13.0104 17.822 13.0098 17.8864 12.9558C17.8946 12.949 17.9035 12.9435 17.9138 12.9367C17.9213 12.9476 17.9309 12.9565 17.9289 12.9606C17.9015 13.0268 17.7412 13.2378 17.6878 13.2692C17.7015 13.2269 17.7118 13.1961 17.7234 13.1606C17.696 13.1088 17.6433 13.0801 17.594 13.0473C17.544 13.0139 17.4947 12.9804 17.4392 12.9422C17.368 13.0453 17.2967 13.147 17.2187 13.2596C17.3104 13.3197 17.3967 13.3778 17.4864 13.4317C17.5001 13.4399 17.5289 13.4303 17.5474 13.4221C17.5686 13.4126 17.5864 13.3955 17.6131 13.3764C17.6083 13.4344 17.507 13.6037 17.4275 13.6952C17.4207 13.7034 17.4049 13.7041 17.3775 13.7144C17.394 13.672 17.4049 13.644 17.4193 13.6065C17.396 13.5826 17.3721 13.5498 17.3413 13.528C17.192 13.4235 17.0413 13.3211 16.8899 13.2187C16.7982 13.1565 16.7975 13.1579 16.7078 13.2207C16.7043 13.2235 16.6975 13.2207 16.6797 13.2207C16.718 13.1122 16.7982 13.0343 16.8543 12.9442C16.866 12.9251 16.8762 12.8944 16.9228 12.9135V12.9114Z" fill="#193686"/>
<path d="M16.1373 15.4031C16.0346 15.3764 15.9394 15.3498 15.8428 15.3293C15.8264 15.3259 15.8024 15.3443 15.786 15.3587C15.7682 15.3744 15.7559 15.3962 15.7374 15.4194C15.7244 15.358 15.7942 15.0938 15.8374 15.0371C15.8435 15.0528 15.8524 15.0644 15.8524 15.076C15.8524 15.1539 15.8613 15.1682 15.9319 15.19C15.9894 15.2078 16.0462 15.2242 16.1045 15.2399C16.2229 15.272 16.3414 15.302 16.4592 15.3341C16.5859 15.3682 16.5852 15.3689 16.6592 15.2631C16.6667 15.2768 16.6797 15.289 16.677 15.2979C16.6469 15.4072 16.6154 15.5157 16.5832 15.6243C16.5818 15.6284 16.5743 15.6297 16.5695 15.6331C16.566 15.6297 16.5585 15.6263 16.5592 15.6236C16.5681 15.5417 16.5222 15.5055 16.4496 15.4884C16.3702 15.4693 16.2921 15.4474 16.2092 15.4256C16.1729 15.5546 16.1401 15.6741 16.1058 15.797C16.1969 15.8223 16.2811 15.8475 16.3661 15.8694C16.4407 15.8892 16.4435 15.8864 16.4893 15.8182C16.4955 15.8093 16.503 15.8011 16.5119 15.7943C16.5154 15.7915 16.5222 15.7943 16.5387 15.7956C16.5092 15.9206 16.4798 16.0428 16.4291 16.1787C16.4133 16.1514 16.4044 16.1432 16.4044 16.1343C16.4024 16.0455 16.3969 16.0339 16.312 16.01C16.1668 15.9691 16.0209 15.9315 15.8757 15.8926C15.8374 15.8824 15.799 15.8714 15.7607 15.8598C15.6792 15.8366 15.6607 15.8441 15.6162 15.9185C15.6121 15.9254 15.6066 15.9308 15.5949 15.9458C15.5675 15.8673 15.61 15.8079 15.6257 15.7465C15.6415 15.6864 15.6422 15.6195 15.6956 15.5499C15.7025 15.5874 15.71 15.6079 15.7086 15.6277C15.7066 15.6693 15.7278 15.6925 15.7641 15.7028C15.8517 15.7274 15.9394 15.7499 16.0339 15.7752C16.0675 15.6536 16.099 15.5376 16.1366 15.4031H16.1373Z" fill="#193686"/>
<path d="M15.6769 20.0416C15.6263 19.9255 15.6044 19.8012 15.5742 19.679C15.5797 19.6756 15.5852 19.6722 15.5907 19.6688C15.6016 19.6804 15.6153 19.6906 15.6235 19.7036C15.6591 19.7603 15.6783 19.7698 15.742 19.7521C15.9091 19.707 16.0762 19.6606 16.2433 19.6148C16.2488 19.6135 16.2536 19.6094 16.2591 19.6087C16.3488 19.5971 16.4227 19.5711 16.4036 19.4551C16.4447 19.4735 16.444 19.4735 16.4864 19.6271C16.5029 19.6879 16.5296 19.7466 16.5234 19.8176C16.5097 19.8115 16.4981 19.8094 16.496 19.804C16.4659 19.7268 16.4145 19.7159 16.3399 19.7432C16.2632 19.7712 16.1824 19.7869 16.1022 19.8087C16.1378 19.9357 16.17 20.0525 16.2056 20.1802C16.3084 20.1556 16.4097 20.1344 16.507 20.0969C16.5446 20.0825 16.5494 20.0484 16.5474 20.0122C16.5474 19.9979 16.5515 19.9835 16.5549 19.963C16.6042 20.0238 16.6748 20.2819 16.659 20.3454C16.6453 20.331 16.6337 20.3208 16.6255 20.3085C16.5844 20.2471 16.5707 20.2416 16.4981 20.2614C16.3166 20.3106 16.1358 20.3597 15.955 20.4089C15.9386 20.4137 15.9221 20.4191 15.9057 20.4239C15.8625 20.4362 15.8358 20.4601 15.8406 20.5092C15.842 20.5249 15.8365 20.542 15.8338 20.5611C15.7941 20.5229 15.718 20.2587 15.7256 20.1924C15.7598 20.1911 15.7646 20.2211 15.7756 20.2416C15.7934 20.2744 15.8201 20.2867 15.8536 20.2778C15.944 20.2546 16.0344 20.2293 16.1296 20.2041C16.1002 20.088 16.0721 19.976 16.042 19.8647C16.0351 19.8388 16.0159 19.8299 15.9886 19.8381C15.918 19.8599 15.8461 19.8784 15.7762 19.9016C15.705 19.9248 15.7057 19.9262 15.7057 20.004C15.7057 20.0163 15.6989 20.0279 15.6954 20.0402C15.6893 20.0402 15.6831 20.0416 15.6769 20.0422V20.0416Z" fill="#193686"/>
<path d="M22.0664 25.4608C22.0493 25.4656 22.0369 25.471 22.0246 25.471C21.9452 25.4717 21.9424 25.471 21.9143 25.5461C21.8671 25.6738 21.8233 25.8028 21.7787 25.9312C21.7582 25.9899 21.7363 26.0486 21.7178 26.1087C21.6945 26.1831 21.6972 26.1845 21.7603 26.2357C21.7705 26.2439 21.7753 26.2596 21.7904 26.2842C21.765 26.2801 21.7548 26.2794 21.7452 26.276C21.613 26.2309 21.4808 26.1872 21.35 26.1387C21.311 26.1244 21.2747 26.0985 21.2418 26.0718C21.1569 26.0022 21.137 25.9237 21.174 25.8213C21.2048 25.7339 21.2754 25.6861 21.3774 25.6813C21.4021 25.6799 21.4274 25.6779 21.4617 25.6758C21.4096 25.5352 21.363 25.4014 21.3103 25.2703C21.2966 25.2368 21.2637 25.2109 21.2295 25.1699C21.3165 25.1754 21.3808 25.202 21.4418 25.2314C21.4603 25.2402 21.4712 25.2717 21.4801 25.2949C21.5267 25.4164 21.5712 25.5393 21.6171 25.6615C21.6267 25.6868 21.6418 25.7093 21.6541 25.7346C21.6712 25.727 21.6835 25.7257 21.6856 25.7202C21.7157 25.6376 21.7472 25.5557 21.7726 25.4724C21.7842 25.4328 21.776 25.3932 21.7287 25.3741C21.7151 25.3686 21.7061 25.3536 21.6918 25.3406C21.7507 25.3235 21.9931 25.4021 22.0671 25.4608H22.0664ZM21.6637 25.7981C21.5973 25.7851 21.5397 25.7653 21.4822 25.7639C21.3562 25.7612 21.2658 25.9168 21.3322 26.0206C21.3706 26.0807 21.4363 26.106 21.5041 26.1217C21.537 26.1292 21.5569 26.1128 21.5671 26.0807C21.5959 25.9926 21.6267 25.9046 21.663 25.7981H21.6637Z" fill="#193686"/>
<path d="M23.3388 9.94007C23.295 9.94758 23.2505 9.96465 23.2074 9.96124C23.1265 9.95441 23.0485 9.9981 22.9553 9.97148C22.9725 9.95509 22.9807 9.94075 22.9903 9.93939C23.0505 9.93051 23.0601 9.8916 23.056 9.84039C23.045 9.7134 23.0361 9.58641 23.0238 9.45942C23.017 9.38636 23.0019 9.31399 22.9964 9.24025C22.9916 9.17403 22.9683 9.1317 22.8951 9.12965C22.8889 9.12965 22.8827 9.12077 22.8711 9.11258C22.8827 9.1037 22.8896 9.09278 22.8985 9.0921C22.969 9.0839 23.0396 9.07708 23.1108 9.06957C23.1478 9.06547 23.1848 9.0641 23.2204 9.05659C23.3094 9.03816 23.3984 9.04635 23.4813 9.07776C23.5614 9.10848 23.6046 9.17539 23.6142 9.26142C23.6237 9.34949 23.5881 9.4164 23.5135 9.46215C23.4847 9.4799 23.4532 9.49287 23.4224 9.50789C23.4669 9.59596 23.7025 9.81376 23.8292 9.88272C23.8114 9.89091 23.7991 9.89911 23.7854 9.9032C23.7744 9.90593 23.7614 9.90115 23.7511 9.90457C23.6361 9.94553 23.5614 9.88886 23.4895 9.80693C23.4183 9.72569 23.3375 9.65263 23.2594 9.57753C23.243 9.56183 23.2211 9.55227 23.1923 9.54544C23.2032 9.65263 23.1895 9.75709 23.2217 9.85746C23.232 9.88886 23.2505 9.90388 23.2841 9.90457C23.3019 9.90457 23.3197 9.91208 23.3375 9.91549V9.93939L23.3388 9.94007ZM23.1909 9.50038C23.2649 9.47239 23.3299 9.45259 23.3902 9.42323C23.4429 9.3966 23.4649 9.3454 23.4573 9.28668C23.4498 9.2266 23.432 9.17266 23.3669 9.14399C23.2971 9.11326 23.2293 9.12077 23.1519 9.1433C23.1567 9.25732 23.1553 9.37134 23.1909 9.50038Z" fill="#193686"/>
<path d="M16.9641 14.3809C16.9703 14.4881 16.9888 14.5898 16.9449 14.6874C16.9107 14.7632 16.8621 14.8226 16.7744 14.8397C16.695 14.8554 16.5874 14.8117 16.5443 14.742C16.5018 14.6731 16.4738 14.5993 16.4758 14.5167C16.4758 14.4997 16.4738 14.4833 16.4724 14.458C16.4299 14.4519 16.3888 14.4471 16.3478 14.4389C16.2574 14.4205 16.1896 14.3706 16.1601 14.2826C16.1348 14.2074 16.1512 14.1364 16.2046 14.0764C16.2443 14.0313 16.295 14.004 16.356 14.0163C16.4272 14.0306 16.484 14.0695 16.5046 14.1419C16.519 14.1931 16.5244 14.247 16.5361 14.3126C16.6292 14.2962 16.7272 14.301 16.8347 14.2621C16.7936 14.204 16.7621 14.1501 16.7217 14.105C16.6751 14.0538 16.6587 14.0572 16.6005 14.1016C16.5922 14.1078 16.582 14.1105 16.571 14.116C16.5669 14.0525 16.6374 13.8968 16.6977 13.834C16.7032 13.8449 16.7135 13.8565 16.7114 13.862C16.6881 13.9139 16.7114 13.9541 16.7395 13.9958C16.7936 14.0757 16.8456 14.1569 16.8984 14.2368C17.049 14.2238 17.1141 14.1317 17.0778 13.9815C17.1045 13.963 17.1216 13.9815 17.1326 13.9999C17.2079 14.1194 17.1887 14.2587 17.062 14.3303C17.0299 14.3481 16.997 14.3638 16.9655 14.3795L16.9641 14.3809ZM16.5327 14.4567C16.547 14.5638 16.5779 14.6546 16.6888 14.6826C16.7525 14.6983 16.8189 14.6949 16.8662 14.6335C16.9141 14.5714 16.9217 14.4833 16.8833 14.4136C16.7689 14.428 16.6546 14.4416 16.5327 14.4567ZM16.4566 14.314C16.4614 14.2006 16.4203 14.1255 16.3443 14.1037C16.2957 14.09 16.2498 14.1084 16.2279 14.1508C16.2053 14.1945 16.2156 14.2423 16.2621 14.2689C16.3217 14.303 16.3868 14.3208 16.4566 14.314Z" fill="#193686"/>
<path d="M25.3963 25.6692C25.3675 25.6862 25.3572 25.6938 25.3463 25.6992C25.2723 25.7375 25.2682 25.7497 25.2771 25.8337C25.2949 26.003 25.3106 26.1717 25.3271 26.341C25.3285 26.3553 25.3298 26.369 25.3312 26.3833C25.3367 26.4537 25.3545 26.5124 25.4428 26.5117C25.4469 26.5117 25.451 26.5185 25.4593 26.526C25.4517 26.5329 25.4449 26.5438 25.4373 26.5445C25.2956 26.5568 25.1545 26.5718 25.0127 26.5779C24.9484 26.5806 24.8826 26.569 24.8196 26.554C24.6778 26.5206 24.5861 26.4304 24.5416 26.2925C24.4738 26.0843 24.5416 25.8774 24.7135 25.7682C24.7902 25.7197 24.8765 25.6999 24.9641 25.689C25.0826 25.6746 25.2018 25.6699 25.3209 25.6623C25.3387 25.661 25.3572 25.6658 25.3963 25.6692ZM25.1819 26.4905C25.1819 26.4598 25.184 26.4311 25.1819 26.4031C25.1648 26.2024 25.1483 26.0024 25.1292 25.8016C25.1251 25.7538 25.1031 25.7381 25.0531 25.7456C25.0052 25.7525 24.958 25.7634 24.9121 25.7771C24.7826 25.816 24.7066 25.9061 24.6806 26.0358C24.6642 26.1177 24.6772 26.1997 24.7052 26.2789C24.7696 26.4612 24.9853 26.5615 25.1819 26.4905Z" fill="#193686"/>
<path d="M18.3192 24.3437C18.2479 24.3335 18.1295 24.216 18.1253 24.1642C18.124 24.1471 18.124 24.13 18.1253 24.113C18.1521 23.8822 18.1794 23.6521 18.2 23.4166C18.0664 23.5367 17.9322 23.6535 17.8247 23.7941C17.8452 23.8351 17.861 23.8672 17.8822 23.9088C17.8048 23.9068 17.7816 23.8515 17.7459 23.8125C17.7083 23.7716 17.6692 23.7313 17.6172 23.676C17.6528 23.6787 17.6686 23.676 17.6809 23.6821C17.7596 23.717 17.7672 23.7183 17.8302 23.6576C17.9185 23.5729 18.0034 23.4841 18.0911 23.3988C18.1705 23.321 18.2514 23.2445 18.3322 23.1687C18.3418 23.1598 18.3541 23.1544 18.3794 23.1387C18.3794 23.3046 18.35 23.4541 18.3376 23.6043C18.3253 23.7531 18.3027 23.902 18.2849 24.0508C18.2904 24.0536 18.2959 24.0563 18.3014 24.0583C18.3294 24.029 18.3561 23.9989 18.3849 23.9703C18.4691 23.8856 18.5547 23.8009 18.639 23.7163C18.7205 23.635 18.7212 23.6309 18.6766 23.5258C18.6753 23.5217 18.6794 23.5155 18.6814 23.5108C18.7349 23.5203 18.8828 23.6623 18.9177 23.7443C18.8944 23.7374 18.8739 23.7374 18.8616 23.7272C18.817 23.6917 18.7766 23.706 18.7362 23.7333C18.7294 23.7381 18.7225 23.7443 18.7171 23.7497C18.5773 23.8883 18.4376 24.0269 18.2986 24.1662C18.2623 24.2024 18.2596 24.2358 18.2829 24.2823C18.2918 24.2993 18.3027 24.3157 18.3192 24.3437Z" fill="#193686"/>
<path d="M20.1776 10.2303C20.2392 10.3546 20.3008 10.4788 20.3625 10.6031C20.3714 10.6209 20.3817 10.6379 20.3899 10.6564C20.4207 10.728 20.4625 10.7806 20.5529 10.7499C20.5584 10.7478 20.5666 10.7554 20.5871 10.7642C20.4947 10.8393 20.3878 10.8639 20.2913 10.9219C20.2769 10.8769 20.3043 10.8653 20.3214 10.8503C20.357 10.8202 20.3639 10.7874 20.3433 10.7451C20.2721 10.5997 20.2022 10.4529 20.1317 10.3068C20.1159 10.2733 20.0981 10.2406 20.0831 10.2071C20.0577 10.1504 20.0173 10.1245 19.9536 10.1375C19.9392 10.1402 19.9228 10.1354 19.8906 10.132C19.9612 10.0747 20.0296 10.0487 20.0961 10.0214C20.1146 10.0139 20.1447 10.0282 20.1673 10.0385C20.3639 10.1286 20.5604 10.2208 20.757 10.3116C20.7748 10.3198 20.7926 10.3266 20.8227 10.3389C20.8138 10.3102 20.8111 10.2918 20.8028 10.2754C20.7535 10.1757 20.7035 10.0767 20.6535 9.97838C20.6433 9.9579 20.6309 9.93879 20.6186 9.91967C20.5755 9.85412 20.5734 9.85344 20.4933 9.86983C20.483 9.87188 20.4721 9.87119 20.4597 9.87188C20.4837 9.81453 20.6337 9.73396 20.7522 9.71484C20.7433 9.7326 20.7392 9.74762 20.7302 9.75854C20.6672 9.82818 20.6659 9.83023 20.7063 9.91421C20.7686 10.0419 20.8323 10.1696 20.8953 10.2972C20.933 10.3737 20.972 10.4502 21.009 10.5266C21.0158 10.5403 21.0172 10.5574 21.0247 10.5881C20.8672 10.5437 20.7385 10.4652 20.6022 10.4065C20.4638 10.3471 20.3282 10.2808 20.1913 10.2173C20.1865 10.2214 20.1824 10.2255 20.1776 10.2303Z" fill="#193686"/>
<path d="M17.4148 21.9612C17.4251 22.166 17.2457 22.3544 17.058 22.409C16.919 22.4493 16.7868 22.4377 16.6677 22.3517C16.4657 22.2063 16.3979 21.9031 16.5923 21.6935C16.7211 21.5549 16.882 21.4867 17.0779 21.531C17.2683 21.5747 17.421 21.7727 17.4155 21.9612H17.4148ZM16.5643 22.0513C16.5643 22.1994 16.6875 22.3128 16.8409 22.2978C17.0101 22.2814 17.1457 22.194 17.2601 22.0731C17.2813 22.0506 17.2957 22.0219 17.3087 21.9933C17.3525 21.9004 17.3334 21.8157 17.2697 21.74C17.2067 21.6655 17.1258 21.6307 17.0279 21.6491C16.8896 21.6758 16.7718 21.7427 16.6677 21.8342C16.604 21.8902 16.5656 21.9632 16.5643 22.0506V22.0513Z" fill="#193686"/>
<path d="M18.9895 23.7683C19.1854 23.926 19.373 24.0775 19.5607 24.2284C19.5408 24.2646 19.5196 24.2544 19.5004 24.2407C19.4552 24.2093 19.4209 24.2243 19.3894 24.2626C19.3244 24.3418 19.2579 24.4196 19.1936 24.4995C19.1306 24.5766 19.0703 24.6558 19.008 24.7337C18.9518 24.8047 18.9518 24.804 19.0025 24.8784C19.0093 24.888 19.0107 24.9009 19.0162 24.9173C18.9573 24.9023 18.5375 24.576 18.4375 24.4701C18.4772 24.4189 18.5183 24.367 18.5567 24.3179C18.6005 24.3322 18.5916 24.3588 18.5799 24.3759C18.5382 24.4415 18.5656 24.4899 18.6156 24.5323C18.6827 24.5889 18.7512 24.6435 18.8265 24.7043C18.8662 24.6579 18.9011 24.6183 18.9354 24.5773C18.9676 24.5384 18.9991 24.4981 19.0333 24.4551C18.971 24.4059 18.9135 24.3595 18.8559 24.3138C18.8155 24.2817 18.7758 24.2749 18.732 24.3097C18.7169 24.322 18.6957 24.3261 18.669 24.337C18.6861 24.266 18.8073 24.113 18.8717 24.0721C18.9032 24.0987 18.8785 24.1247 18.8683 24.1479C18.8511 24.1888 18.8621 24.2237 18.8916 24.2489C18.9511 24.3001 19.0155 24.3465 19.0826 24.3984C19.1573 24.3029 19.2264 24.2141 19.2984 24.1226C19.2169 24.0339 19.1306 23.9663 19.0306 23.9171C18.982 23.8925 18.9313 23.9082 18.882 23.9267C18.8395 23.943 18.8388 23.9417 18.7916 23.9157C18.8573 23.8659 18.9203 23.8188 18.9881 23.7676L18.9895 23.7683Z" fill="#193686"/>
<path d="M26.3882 9.74799C26.356 9.85791 26.3265 9.95828 26.2978 10.0586C26.2902 10.0853 26.3046 10.1023 26.33 10.1105C26.43 10.1419 26.5299 10.1836 26.6375 10.1686C26.6744 10.1638 26.7094 10.1392 26.7429 10.1187C26.7662 10.1044 26.7854 10.0825 26.8066 10.0634C26.8361 10.1051 26.8073 10.172 26.7162 10.286C26.4635 10.2355 26.0745 10.118 26.0156 10.0702C26.0362 10.0662 26.0519 10.0586 26.0663 10.0614C26.117 10.0716 26.1403 10.0477 26.1533 10.0027C26.1862 9.88796 26.2218 9.77462 26.2546 9.65992C26.28 9.57253 26.3053 9.48513 26.3259 9.39706C26.343 9.32332 26.3402 9.32264 26.2772 9.28099C26.2683 9.27553 26.2615 9.26734 26.2361 9.24412C26.2759 9.24412 26.2964 9.23934 26.3149 9.24481C26.5258 9.3042 26.7361 9.36565 26.9456 9.42642C26.9244 9.58413 26.9148 9.60666 26.8642 9.61281C26.8457 9.47489 26.8416 9.46875 26.6998 9.42573C26.6375 9.40662 26.5738 9.39091 26.4991 9.36975C26.4683 9.47148 26.4382 9.57048 26.406 9.67835C26.4889 9.70156 26.5662 9.72819 26.6457 9.7439C26.6703 9.74867 26.7039 9.72956 26.7279 9.71317C26.7477 9.69952 26.7594 9.67425 26.7847 9.64012C26.7936 9.66743 26.8053 9.68381 26.8018 9.69679C26.7827 9.77394 26.7601 9.8504 26.7388 9.92687C26.732 9.9535 26.7183 9.96715 26.684 9.9535C26.6813 9.92278 26.6786 9.88932 26.6751 9.85109C26.5971 9.78896 26.495 9.78281 26.3896 9.74731L26.3882 9.74799Z" fill="#193686"/>
<path d="M22.7335 9.31803C22.7013 9.34739 22.6794 9.3351 22.6698 9.3071C22.6452 9.23883 22.5931 9.22654 22.5322 9.23678C22.4431 9.25112 22.3548 9.27024 22.2562 9.28867C22.2781 9.39859 22.2973 9.49691 22.3171 9.59864C22.4096 9.59864 22.4918 9.57542 22.5705 9.54607C22.5979 9.53582 22.613 9.49076 22.6301 9.45936C22.6383 9.44434 22.6383 9.42385 22.6513 9.4061C22.7061 9.50374 22.7096 9.61229 22.7363 9.7147C22.7315 9.7188 22.7267 9.72222 22.7219 9.72631C22.7082 9.71744 22.687 9.71129 22.6815 9.699C22.6493 9.62663 22.5959 9.61639 22.5267 9.63482C22.4671 9.65053 22.4062 9.66213 22.3363 9.67784C22.3617 9.79322 22.3849 9.90041 22.4103 10.0158C22.539 10.0158 22.6609 9.99873 22.7657 9.92431C22.7952 9.90314 22.8082 9.85877 22.8273 9.82463C22.8404 9.8021 22.8397 9.76796 22.8828 9.7625V9.99805C22.6493 10.0622 22.4075 10.1039 22.1692 10.1551C22.1521 10.1141 22.1815 10.1114 22.1993 10.1005C22.2637 10.0615 22.2644 10.0588 22.2487 9.98439C22.2082 9.79937 22.1678 9.61366 22.1288 9.42795C22.1096 9.33441 22.1048 9.32895 22.0131 9.31598C22.0035 9.31461 21.9939 9.30779 21.9727 9.29823C22.0494 9.24634 22.1315 9.25248 22.2041 9.23064C22.2822 9.20674 22.3658 9.20059 22.4466 9.18421C22.524 9.16782 22.6007 9.14871 22.6842 9.12891C22.7027 9.19786 22.7185 9.25931 22.7342 9.31803H22.7335Z" fill="#193686"/>
<path d="M15.9607 19.2173C16.0874 19.1982 16.1991 19.1811 16.3175 19.1634C16.3127 19.0336 16.3031 18.9155 16.2429 18.8104C16.2251 18.7797 16.1819 18.7626 16.1491 18.7407C16.1251 18.725 16.0867 18.7257 16.0806 18.6738C16.1628 18.6793 16.2395 18.6841 16.3237 18.6902C16.3614 18.9346 16.3977 19.1722 16.4346 19.4105C16.4278 19.4132 16.4209 19.416 16.4141 19.4194C16.4025 19.403 16.3874 19.388 16.3799 19.3702C16.3634 19.3286 16.336 19.317 16.2922 19.3245C16.2278 19.3354 16.1621 19.3381 16.0977 19.3484C15.9628 19.3695 15.8279 19.3921 15.6936 19.416C15.5971 19.433 15.5971 19.4344 15.582 19.5307C15.5806 19.5375 15.5745 19.5437 15.5621 19.5628C15.519 19.4378 15.5142 19.3177 15.495 19.2002C15.4752 19.0828 15.458 18.9654 15.4375 18.8397C15.5067 18.8281 15.5717 18.8172 15.6361 18.8063C15.6402 18.8124 15.6436 18.8193 15.6477 18.8254C15.6382 18.8384 15.6306 18.8589 15.6183 18.8623C15.5389 18.8862 15.5217 18.9428 15.5327 19.0159C15.5437 19.0855 15.5539 19.1558 15.5663 19.2255C15.5731 19.2665 15.595 19.2801 15.6395 19.2699C15.7197 19.2521 15.8018 19.2426 15.8916 19.2289C15.8833 19.1347 15.8799 19.0446 15.8422 18.9619C15.8327 18.9415 15.7977 18.9312 15.7731 18.9196C15.7546 18.9114 15.7327 18.9087 15.706 18.9019C15.7683 18.8479 15.9477 18.822 16.0484 18.852C16.0162 18.8711 15.9936 18.8841 15.9717 18.8978C15.9436 18.9148 15.9224 18.9374 15.9272 18.9736C15.9381 19.0514 15.9491 19.1292 15.9614 19.218L15.9607 19.2173Z" fill="#193686"/>
<path d="M23.7997 26.0108C23.8127 26.0319 23.8216 26.0401 23.823 26.0497C23.8367 26.1371 23.8983 26.1548 23.973 26.1548C24.0319 26.1548 24.0908 26.1548 24.1551 26.1548C24.1565 26.1432 24.1606 26.1268 24.1606 26.1104C24.1606 26.0114 24.1606 25.9118 24.1606 25.8039C24.0312 25.7773 23.9072 25.7636 23.7894 25.8216C23.7525 25.8401 23.7278 25.8858 23.6997 25.9213C23.6847 25.9404 23.6744 25.9602 23.6367 25.9377C23.6566 25.866 23.6778 25.7909 23.7011 25.709C23.7874 25.7144 23.8696 25.7206 23.9517 25.7233C24.0319 25.7261 24.112 25.7213 24.1914 25.7247C24.2716 25.7281 24.3531 25.7124 24.4489 25.7397C24.4229 25.7581 24.4127 25.7718 24.4017 25.7725C24.3332 25.7745 24.3181 25.821 24.3106 25.8749C24.3072 25.8974 24.3044 25.92 24.3044 25.9425C24.3044 26.122 24.3044 26.3016 24.3044 26.4805C24.3044 26.5549 24.3051 26.5549 24.3791 26.5809C24.3894 26.5843 24.3996 26.5897 24.4113 26.5952C24.3558 26.6259 23.8559 26.6273 23.7004 26.5972V26.4143C23.736 26.4006 23.7449 26.4245 23.7483 26.4464C23.7614 26.5201 23.8141 26.5426 23.8785 26.5447C23.9634 26.5467 24.0483 26.5447 24.1456 26.5447C24.1517 26.4361 24.1572 26.3364 24.1634 26.2272C24.0812 26.2238 24.0106 26.2197 23.9401 26.2176C23.8833 26.2163 23.8415 26.2388 23.8257 26.2975C23.8216 26.3132 23.8134 26.3276 23.8045 26.3487C23.7901 26.3392 23.7709 26.3317 23.7716 26.3248C23.773 26.2231 23.7436 26.1186 23.7997 26.0094V26.0108Z" fill="#193686"/>
<path d="M23.307 26.0544C23.32 25.9629 23.3324 25.8816 23.344 25.8004C23.3502 25.7553 23.3235 25.7321 23.2865 25.7164C23.268 25.7082 23.2502 25.7 23.2344 25.683C23.2995 25.6509 23.3604 25.6884 23.4228 25.6857C23.4837 25.683 23.5453 25.7021 23.6097 25.7267C23.594 25.7328 23.5789 25.741 23.5632 25.7451C23.5193 25.7553 23.4947 25.7765 23.4892 25.825C23.4755 25.952 23.4563 26.0783 23.4406 26.2053C23.4317 26.2783 23.4262 26.3521 23.4166 26.4251C23.4084 26.4866 23.4111 26.5391 23.4865 26.5562C23.496 26.5583 23.5022 26.576 23.5207 26.5992C23.4495 26.5917 23.3947 26.5876 23.3399 26.5801C23.2413 26.5664 23.142 26.5555 23.0447 26.5337C22.9694 26.5173 22.9002 26.4859 22.8584 26.4108C22.7749 26.2619 22.8502 26.0865 23.0201 26.0564C23.0865 26.0448 23.1557 26.051 23.2235 26.0503C23.2488 26.0503 23.2735 26.053 23.3077 26.0551L23.307 26.0544ZM23.2995 26.1343C23.168 26.0994 23.0728 26.1158 23.0276 26.1752C22.979 26.238 22.968 26.335 23.0029 26.3903C23.0509 26.4668 23.1502 26.5057 23.2536 26.4845C23.2687 26.3705 23.2837 26.2544 23.3002 26.1343H23.2995Z" fill="#193686"/>
<path d="M17.2891 12.3387C17.3089 12.3114 17.326 12.2813 17.3493 12.2574C17.4171 12.1892 17.4685 12.1038 17.5609 12.0553C17.5568 12.0704 17.5548 12.0854 17.5479 12.099C17.5185 12.1618 17.5185 12.181 17.5678 12.2247C17.6883 12.3325 17.8102 12.4397 17.9349 12.5435C17.9958 12.5947 18.0712 12.6254 18.1485 12.5886C18.2369 12.5462 18.2985 12.4732 18.3163 12.3749C18.3259 12.3202 18.3006 12.267 18.2602 12.2281C18.1616 12.1339 18.0602 12.043 17.9595 11.9502C17.9342 11.927 17.9102 11.9024 17.8828 11.8826C17.8411 11.8532 17.7972 11.8369 17.75 11.8744C17.739 11.8833 17.7226 11.886 17.7034 11.8935C17.7246 11.8239 17.8369 11.6914 17.9212 11.6348C17.9212 11.6552 17.9267 11.6737 17.9205 11.6832C17.8787 11.7433 17.8999 11.7877 17.9493 11.8307C18.0431 11.9133 18.1355 11.998 18.2273 12.0833C18.2581 12.112 18.2855 12.1455 18.3163 12.1748C18.4177 12.2738 18.4006 12.4582 18.3061 12.564C18.2869 12.5852 18.265 12.6036 18.2458 12.6248C18.1301 12.7558 17.9486 12.7572 17.8102 12.6384C17.7 12.5435 17.5925 12.4472 17.4822 12.3523C17.4096 12.2902 17.4089 12.2909 17.3308 12.3435C17.3247 12.3476 17.3158 12.3482 17.3082 12.351C17.3021 12.3462 17.2959 12.3414 17.2904 12.3373L17.2891 12.3387Z" fill="#193686"/>
<path d="M29.0055 10.3965C29.1178 10.4648 29.2171 10.5446 29.3205 10.6197L29.3089 10.6409C29.2945 10.6389 29.2787 10.6389 29.265 10.6341C29.1959 10.6095 29.1849 10.6102 29.1424 10.6682C29.0514 10.7918 28.963 10.9174 28.8719 11.0417C28.7432 11.2178 28.8329 11.3284 28.9918 11.4042C29.0829 11.4472 29.1404 11.4308 29.2171 11.34C29.3253 11.2124 29.4171 11.071 29.5157 10.9359C29.5431 10.8976 29.5499 10.8594 29.5143 10.8205C29.502 10.8068 29.4944 10.7884 29.4828 10.7693C29.5506 10.7706 29.7355 10.9031 29.7526 10.9638C29.7341 10.9591 29.7184 10.957 29.704 10.9522C29.6376 10.9304 29.6239 10.9311 29.5807 10.9871C29.5075 11.082 29.4383 11.1789 29.3684 11.2759C29.3232 11.3387 29.2794 11.4001 29.2123 11.4431C29.1219 11.5005 29.0267 11.5032 28.9356 11.4588C28.8726 11.4281 28.8137 11.3851 28.7623 11.3373C28.6665 11.2472 28.6617 11.0861 28.7288 10.983C28.7986 10.8758 28.876 10.7734 28.95 10.6689C28.9746 10.6341 28.9993 10.5993 29.0233 10.5644C29.0493 10.5269 29.052 10.4921 29.0137 10.4593C28.9979 10.4456 28.974 10.4306 29.0048 10.3972L29.0055 10.3965Z" fill="#193686"/>
<path d="M27.5916 9.69637C27.621 9.68613 27.645 9.67794 27.6737 9.6677C27.6662 9.77489 27.6196 9.92646 27.5724 9.97835C27.5696 9.93465 27.5683 9.90256 27.5662 9.87116C27.5601 9.78718 27.5224 9.7189 27.4525 9.67179C27.3882 9.62878 27.3046 9.63971 27.269 9.69501C27.2443 9.73256 27.2347 9.77284 27.2635 9.81449C27.3135 9.88686 27.3635 9.95923 27.4108 10.033C27.4409 10.0808 27.4744 10.1286 27.4923 10.1811C27.5416 10.3266 27.4409 10.4754 27.2875 10.489C27.1895 10.4979 27.0991 10.4713 27.0259 10.4064C26.9807 10.3662 26.9403 10.3341 26.8711 10.375C26.8738 10.2644 26.9163 10.1736 26.9327 10.076C26.98 10.0739 26.9786 10.1053 26.9772 10.1327C26.9745 10.1948 26.9964 10.2487 27.0245 10.3027C27.0601 10.3696 27.1217 10.3996 27.1882 10.416C27.2676 10.4358 27.3676 10.3245 27.3368 10.2453C27.3087 10.1722 27.2621 10.106 27.2204 10.0391C27.1978 10.0029 27.1683 9.97152 27.1443 9.9367C27.0635 9.81859 27.0964 9.69501 27.1704 9.62537C27.2539 9.54685 27.3957 9.54412 27.495 9.61786C27.5292 9.64312 27.5607 9.67179 27.5916 9.69706V9.69637Z" fill="#193686"/>
<path d="M21.5459 10.3702C21.5028 10.2828 21.4596 10.1947 21.4165 10.108C21.4596 10.0759 21.4747 10.108 21.4987 10.1285C21.5418 10.1647 21.5857 10.2016 21.635 10.2275C21.6911 10.2576 21.7541 10.2487 21.8082 10.218C21.8589 10.1893 21.8979 10.149 21.8904 10.0807C21.8829 10.0131 21.8438 9.96943 21.7849 9.94827C21.7076 9.92028 21.6267 9.90252 21.5473 9.87999C21.5254 9.87385 21.5028 9.86907 21.4816 9.86156C21.3617 9.81855 21.3062 9.72637 21.3234 9.60211C21.3384 9.49356 21.4309 9.40958 21.5452 9.40002C21.5596 9.39866 21.574 9.40002 21.5884 9.40002C21.6514 9.40002 21.7014 9.37931 21.7384 9.33789C21.7774 9.37544 21.85 9.53589 21.8596 9.60962C21.8274 9.62669 21.8137 9.60143 21.8 9.58095C21.7603 9.52018 21.7055 9.48059 21.635 9.47103C21.5973 9.46625 21.5562 9.47103 21.5192 9.48195C21.4679 9.49697 21.4411 9.54067 21.4364 9.59119C21.4322 9.6383 21.4665 9.67175 21.5035 9.69292C21.537 9.71272 21.5767 9.72364 21.6144 9.73525C21.6911 9.75778 21.7692 9.77485 21.8445 9.80011C21.9835 9.84722 22.0418 9.94349 22.0212 10.0814C22.0048 10.1906 21.8842 10.2903 21.7644 10.2951C21.7356 10.2958 21.7069 10.2931 21.6788 10.2972C21.6322 10.304 21.5795 10.304 21.5699 10.375C21.5617 10.3736 21.5535 10.3723 21.5452 10.3709L21.5459 10.3702Z" fill="#193686"/>
<path d="M16.2775 21.6827C16.172 21.4704 16.0823 21.2512 15.9844 21.0307C16.0392 20.9897 16.0974 20.9583 16.1659 20.9481C16.1713 20.9474 16.1796 20.9631 16.185 20.9692C16.1823 20.9788 16.183 20.9863 16.1796 20.989C16.1156 21.0441 16.0997 21.1112 16.1316 21.1904C16.1542 21.2457 16.1775 21.301 16.2015 21.355C16.2248 21.4069 16.2357 21.4116 16.2857 21.3898C16.3638 21.3563 16.4412 21.3208 16.5247 21.2826C16.496 21.2177 16.4692 21.1583 16.4432 21.0989C16.4165 21.0389 16.3741 21.0109 16.3069 21.0273C16.2967 21.03 16.2857 21.0273 16.2665 21.0273C16.2734 21.0095 16.2748 20.9911 16.2823 20.9877C16.3754 20.9467 16.4631 20.89 16.5651 20.875L16.5754 20.8907C16.5638 20.9044 16.5549 20.9214 16.5405 20.9317C16.4946 20.9651 16.4829 21.0068 16.5049 21.0587C16.5316 21.1208 16.5583 21.1836 16.5891 21.256C16.6891 21.2102 16.785 21.1686 16.8788 21.1222C16.9171 21.103 16.9384 21.0703 16.9137 21.0232C16.9076 21.0115 16.9144 20.9938 16.9158 20.974C16.9706 21.0197 17.0747 21.2478 17.0815 21.34C17.0616 21.3242 17.0459 21.3154 17.0342 21.3031C16.9856 21.2539 16.9795 21.2512 16.9158 21.2785C16.7589 21.3468 16.6028 21.4157 16.446 21.4847C16.4145 21.4983 16.383 21.512 16.3515 21.525C16.3083 21.5427 16.2905 21.5728 16.298 21.6192C16.3015 21.6383 16.298 21.6588 16.298 21.6786C16.2912 21.68 16.2843 21.6813 16.2768 21.682L16.2775 21.6827Z" fill="#193686"/>
<path d="M30.2255 11.3828H30.3029C30.2591 11.4846 30.1872 11.5542 30.1276 11.6361C30.0872 11.5979 30.1159 11.5672 30.1262 11.5385C30.1639 11.4354 30.1365 11.3507 30.0598 11.2756C30.0249 11.2415 29.9845 11.2333 29.942 11.247C29.8975 11.2613 29.8708 11.2988 29.8687 11.3432C29.8667 11.3876 29.8735 11.434 29.8838 11.4777C29.9036 11.5665 29.931 11.6532 29.9502 11.7413C29.9817 11.886 29.8804 12.0048 29.7331 12.013C29.5968 12.0205 29.5044 11.9632 29.4373 11.8505C29.4188 11.8191 29.3975 11.7891 29.3763 11.7563C29.3558 11.7611 29.3373 11.7652 29.3147 11.7699C29.3126 11.7549 29.3058 11.7413 29.3099 11.7344C29.3599 11.6559 29.4119 11.5781 29.4626 11.5016C29.4955 11.5187 29.4962 11.5358 29.4879 11.5617C29.4681 11.6238 29.4496 11.688 29.4736 11.7529C29.4866 11.7897 29.5023 11.8273 29.5256 11.8573C29.5708 11.9167 29.6503 11.9338 29.7098 11.9044C29.7708 11.8737 29.805 11.8027 29.7879 11.731C29.7674 11.6457 29.7365 11.5631 29.7215 11.477C29.7105 11.417 29.7037 11.3494 29.7215 11.2934C29.7708 11.1377 29.9776 11.0961 30.1009 11.2156C30.1468 11.2599 30.1796 11.3186 30.2255 11.3815V11.3828Z" fill="#193686"/>
<path d="M20.0164 11.0276C19.9644 10.9572 19.9295 10.9293 19.8274 10.8781C19.7377 10.9361 19.6453 10.9955 19.5494 11.0569C19.561 11.1129 19.5692 11.1655 19.5829 11.2174C19.5966 11.2679 19.6186 11.2788 19.6706 11.2699C19.6816 11.2679 19.6918 11.2672 19.7028 11.2665C19.7048 11.2665 19.7076 11.2699 19.7096 11.2713C19.6891 11.315 19.5631 11.4017 19.4768 11.4297C19.4782 11.4147 19.4747 11.399 19.4816 11.3915C19.5199 11.3471 19.5158 11.2979 19.5069 11.2461C19.459 10.9839 19.411 10.7217 19.3638 10.4595C19.3617 10.4493 19.3665 10.4384 19.3672 10.4302C19.4042 10.4083 19.4241 10.4349 19.4467 10.4493C19.6555 10.5831 19.8644 10.7169 20.0719 10.8535C20.1301 10.8917 20.1842 10.9313 20.2609 10.8978C20.2705 10.9484 20.2308 10.9559 20.2096 10.9709C20.0603 11.0788 20.0075 11.1061 19.9555 11.1034C19.9767 11.0767 19.9945 11.0542 20.0158 11.0283L20.0164 11.0276ZM19.7665 10.8296C19.6658 10.7606 19.574 10.6978 19.4686 10.6254C19.4925 10.7524 19.5131 10.8617 19.5357 10.9818C19.6165 10.9286 19.6857 10.8828 19.7665 10.8296Z" fill="#193686"/>
<path d="M30.7766 11.8945C30.8135 11.9198 30.8005 11.9416 30.7889 11.9662C30.693 12.1758 30.5985 12.3854 30.5033 12.595C30.4882 12.6285 30.4732 12.6626 30.4574 12.6961C30.4376 12.7384 30.4239 12.7807 30.4492 12.8265C30.4533 12.834 30.4465 12.847 30.4417 12.8709C30.3485 12.7821 30.2698 12.6954 30.1958 12.6019C30.2444 12.5698 30.2574 12.621 30.2972 12.6237C30.3732 12.5855 30.3725 12.4919 30.4225 12.4271C30.3437 12.3397 30.2698 12.2578 30.1903 12.1704C30.1397 12.1915 30.0876 12.212 30.0369 12.2366C29.9835 12.2625 29.9828 12.27 30.0068 12.3288C30.0109 12.3383 30.013 12.3492 30.0184 12.3663C29.9479 12.3711 29.9356 12.309 29.9013 12.2789C29.8671 12.2482 29.8417 12.2079 29.8164 12.1629C29.95 12.2093 30.0575 12.1383 30.1698 12.1014C30.3746 12.0345 30.5773 11.9628 30.7759 11.8945H30.7766ZM30.6108 12.0263C30.4882 12.07 30.3855 12.1062 30.2711 12.1458C30.3355 12.2188 30.3903 12.2817 30.4533 12.354C30.5054 12.2455 30.554 12.1451 30.6108 12.0263Z" fill="#193686"/>
<path d="M22.0781 25.4512C22.2048 25.4703 22.3171 25.4956 22.4295 25.5242V25.5481C22.4021 25.5536 22.3747 25.5597 22.3418 25.5666C22.3219 25.6355 22.3315 25.7045 22.3555 25.7721C22.361 25.7878 22.3795 25.8069 22.3952 25.8103C22.4918 25.8321 22.589 25.8492 22.689 25.869C22.7171 25.8281 22.7431 25.7912 22.7671 25.7529C22.8068 25.6895 22.8034 25.6765 22.7417 25.6294C22.7356 25.6246 22.7328 25.6164 22.7274 25.6096C22.7787 25.5898 22.9041 25.6123 23.0081 25.6628C22.8575 25.7079 22.8061 25.8417 22.7274 25.9475C22.6185 26.093 22.5171 26.2445 22.4123 26.3927C22.3993 26.4104 22.3829 26.4255 22.3644 26.4459C22.3137 26.392 22.3185 26.3258 22.3062 26.2677C22.2569 26.0411 22.2165 25.8117 22.1658 25.5857C22.1562 25.5433 22.1165 25.5078 22.0788 25.4512H22.0781ZM22.4363 26.2357C22.5096 26.1285 22.5733 26.0363 22.6438 25.9339C22.5486 25.9141 22.4664 25.897 22.3726 25.8772C22.3938 25.9981 22.413 26.1059 22.4363 26.235V26.2357Z" fill="#193686"/>
<path d="M16.2586 17.6836C16.2627 17.6897 16.2764 17.7 16.2771 17.7102C16.2785 17.8154 16.2778 17.9205 16.2778 18.0366C16.2308 17.9656 16.1696 17.9469 16.0943 17.9806C16.0634 17.9942 16.034 18.0106 15.9963 18.0297C16.0025 18.1383 16.008 18.2448 16.0141 18.3616C16.0634 18.3793 16.1134 18.3984 16.1641 18.4141C16.2216 18.4319 16.234 18.4237 16.2572 18.3643C16.262 18.3527 16.2696 18.3418 16.2853 18.3322C16.3018 18.4244 16.3066 18.5159 16.2963 18.6121C16.249 18.5118 16.1504 18.4974 16.0662 18.4647C15.8594 18.3841 15.6505 18.3069 15.443 18.2284C15.4347 18.2257 15.4252 18.2257 15.419 18.2202C15.4067 18.2107 15.3882 18.1991 15.3868 18.1868C15.3854 18.1752 15.4005 18.1567 15.4128 18.1499C15.4882 18.1103 15.5649 18.0728 15.6416 18.0352C15.8107 17.9526 15.9813 17.8734 16.1477 17.7874C16.1894 17.7655 16.2189 17.7218 16.2586 17.6843V17.6836ZM15.934 18.0571C15.8189 18.1076 15.7176 18.152 15.621 18.2134C15.7279 18.2482 15.8231 18.3042 15.934 18.3295V18.0577V18.0571Z" fill="#193686"/>
<path d="M25.9975 9.93295C25.855 10.0579 25.6934 10.0736 25.5229 10.0217C25.3565 9.97187 25.2592 9.85102 25.2305 9.68648C25.1866 9.43591 25.3291 9.16008 25.6181 9.1198C25.7167 9.10614 25.8105 9.12389 25.9002 9.16281C25.9591 9.18876 26.0146 9.23313 26.0762 9.171C26.0961 9.22289 26.0721 9.42977 26.0427 9.48439C26.0023 9.48029 26.0071 9.44342 26.0002 9.42021C25.9523 9.25635 25.8619 9.18807 25.6962 9.19354C25.616 9.19627 25.5475 9.23313 25.5051 9.29253C25.4003 9.43932 25.3476 9.60182 25.4154 9.7807C25.4619 9.90428 25.5886 9.97801 25.6996 9.97801C25.7866 9.97801 25.8619 9.95617 25.9338 9.91179C25.9571 9.89745 25.9804 9.88653 25.9975 9.93227V9.93295Z" fill="#193686"/>
<path d="M17.4118 23.2988C17.4453 23.363 17.4844 23.4101 17.5392 23.4442C17.6035 23.4845 17.6501 23.4183 17.7124 23.4183C17.7165 23.4272 17.7261 23.4436 17.7234 23.4456C17.6665 23.4948 17.6083 23.5426 17.5433 23.5965C17.3789 23.3896 17.2228 23.193 17.0625 22.9916C17.1289 22.9356 17.1885 22.8851 17.2481 22.8352C17.2536 22.8387 17.2591 22.8421 17.2645 22.8455C17.2611 22.8625 17.2645 22.8844 17.2543 22.896C17.1734 22.9882 17.2097 23.0687 17.2769 23.1466C17.2878 23.1589 17.2988 23.1705 17.3138 23.1862C17.4309 23.094 17.5446 23.0039 17.6576 22.9144C17.7227 22.8632 17.7884 22.8134 17.8514 22.7601C17.9055 22.7144 17.9042 22.7117 17.8747 22.6454C17.8672 22.6277 17.8638 22.6079 17.8686 22.584C17.9665 22.6796 18.0494 22.7833 18.1261 22.8926C18.1226 22.8974 18.1185 22.9021 18.1151 22.9069C18.0994 22.9001 18.0822 22.8953 18.0685 22.8851C18.0117 22.8434 17.9973 22.8407 17.9418 22.8837C17.7665 23.0196 17.5926 23.1575 17.4125 23.2995L17.4118 23.2988Z" fill="#193686"/>
<path d="M24.3698 9.01268C24.4608 8.99425 24.5512 8.99903 24.6464 9.01609C24.6348 9.02497 24.6238 9.03453 24.6115 9.04204C24.5684 9.06935 24.5444 9.111 24.5273 9.15674C24.4389 9.39024 24.3506 9.62442 24.2622 9.85792C24.2547 9.87772 24.2437 9.89616 24.2246 9.93508C24.191 9.86953 24.1643 9.82174 24.141 9.7719C24.054 9.58687 23.9684 9.40048 23.8808 9.21546C23.8459 9.1424 23.8191 9.06116 23.7109 9.03521C23.739 9.01746 23.752 9.00244 23.765 9.00244C23.8739 9.00176 23.9828 8.99152 24.0931 9.01883C24.0595 9.03999 24.0253 9.06184 23.9862 9.08642C24.076 9.27827 24.1629 9.46261 24.2581 9.66539C24.2944 9.56912 24.3252 9.48787 24.3547 9.40663C24.3807 9.33426 24.4061 9.26188 24.4314 9.18951C24.4718 9.07481 24.4704 9.0714 24.3704 9.01268H24.3698Z" fill="#193686"/>
<path d="M20.6756 25.8041C20.7023 25.8163 20.7249 25.8273 20.7489 25.8368C20.8557 25.8798 20.8797 25.8751 20.9591 25.7918C20.9776 25.7726 20.9906 25.7487 21.0283 25.7856C20.9941 25.8512 20.9585 25.9201 20.9201 25.9945C20.6845 25.888 20.4572 25.7849 20.2305 25.6825C20.2449 25.5958 20.2839 25.5077 20.3277 25.4593C20.3606 25.4729 20.351 25.5016 20.3489 25.5248C20.3414 25.6272 20.3551 25.6532 20.4462 25.6989C20.4715 25.7112 20.4976 25.7214 20.5263 25.7344C20.5387 25.7146 20.551 25.6989 20.5592 25.6818C20.6407 25.5036 20.7229 25.3254 20.8023 25.1459C20.8468 25.0448 20.8448 25.0442 20.7592 24.98C20.7551 24.9766 20.753 24.9711 20.7462 24.9609C20.7592 24.9561 20.7729 24.9445 20.7811 24.9479C20.8879 24.995 20.9941 25.0435 21.1002 25.0933C21.1084 25.0974 21.1132 25.1097 21.1235 25.124C21.1057 25.1261 21.0947 25.1295 21.0845 25.1281C20.9865 25.1131 20.9845 25.1131 20.9427 25.2039C20.855 25.3924 20.7688 25.5808 20.6825 25.7692C20.679 25.7767 20.6797 25.7856 20.677 25.8041H20.6756Z" fill="#193686"/>
<path d="M16.4063 16.3926C16.3769 16.5202 16.3789 16.65 16.3193 16.7708C16.3152 16.7599 16.307 16.749 16.3063 16.738C16.3029 16.6588 16.3043 16.6561 16.2317 16.6418C16.1146 16.6192 15.9975 16.5994 15.8797 16.5803C15.7735 16.5633 15.6667 16.5482 15.5585 16.5319C15.5222 16.5933 15.5119 16.665 15.5386 16.721C15.5633 16.7715 15.6242 16.805 15.6742 16.8507C15.6585 16.8568 15.6461 16.8664 15.6352 16.865C15.579 16.8568 15.5235 16.8452 15.4674 16.8357C15.4359 16.8302 15.4256 16.8138 15.4311 16.7817C15.4708 16.5476 15.5092 16.3134 15.5489 16.0703C15.6283 16.0806 15.705 16.0901 15.7817 16.0997C15.7831 16.1065 15.7838 16.1133 15.7852 16.1208C15.7673 16.1297 15.7495 16.1468 15.7311 16.1475C15.6359 16.1509 15.5948 16.2048 15.5838 16.2922C15.5804 16.3195 15.5749 16.3461 15.5687 16.3837C15.666 16.3987 15.755 16.4124 15.8441 16.4267C15.9755 16.4479 16.1077 16.4684 16.2392 16.4916C16.3104 16.5039 16.3214 16.5004 16.3508 16.4342C16.3597 16.4144 16.3584 16.3864 16.4049 16.3939L16.4063 16.3926Z" fill="#193686"/>
<path d="M16.2444 17.6537C16.2355 17.6223 16.2266 17.5902 16.215 17.5507C16.1766 17.5452 16.1355 17.5363 16.0938 17.5336C15.9205 17.5206 15.7479 17.5111 15.5746 17.4967C15.4904 17.4899 15.4212 17.5008 15.4089 17.6114C15.3582 17.5636 15.398 17.5186 15.3925 17.4769C15.3863 17.4353 15.3897 17.3916 15.3938 17.3492C15.398 17.3042 15.4069 17.2605 15.4171 17.1963C15.4308 17.225 15.439 17.2352 15.4411 17.2461C15.4555 17.3199 15.4658 17.3342 15.5377 17.341C15.6733 17.3533 15.8095 17.3615 15.9458 17.3704C16.0171 17.3752 16.0876 17.3779 16.1588 17.382C16.204 17.3847 16.2266 17.369 16.228 17.3199C16.23 17.2468 16.2458 17.1758 16.2369 17.1014C16.228 17.0229 16.1896 16.971 16.1287 16.928C16.1081 16.9136 16.0924 16.8925 16.0794 16.8672C16.1698 16.8659 16.2417 16.9102 16.3239 16.9369C16.3026 17.1792 16.2951 17.4175 16.2691 17.6537C16.2609 17.6537 16.252 17.6544 16.2437 17.6551L16.2444 17.6537Z" fill="#193686"/>
<path d="M25.1905 9.07372C25.1823 9.08123 25.1809 9.08464 25.1782 9.08533C25.0632 9.11059 25.0597 9.1099 25.0467 9.22529C25.0289 9.38505 25.0166 9.5455 25.0022 9.70594C25.0008 9.72028 25.0008 9.73394 24.9988 9.74827C24.9896 9.82338 25.0216 9.87663 25.0947 9.90804C25.1008 9.91077 25.1049 9.91896 25.1104 9.92579C25.0467 9.94969 24.7728 9.92579 24.707 9.89097C24.7139 9.88551 24.7187 9.87663 24.7248 9.87595C24.8324 9.8582 24.8419 9.84454 24.8495 9.73394C24.857 9.61514 24.87 9.49702 24.8796 9.37891C24.8858 9.30585 24.8926 9.23212 24.8967 9.15906C24.8988 9.1181 24.8817 9.08806 24.8413 9.07304C24.8228 9.06621 24.8056 9.0587 24.7714 9.04436C24.8002 9.03617 24.8146 9.02866 24.8282 9.02934C24.9412 9.03617 25.0542 9.04504 25.1679 9.05392C25.1741 9.05392 25.1796 9.06416 25.1905 9.07372Z" fill="#193686"/>
<path d="M28.1821 10.6423C28.078 10.6423 27.9883 10.5501 27.9883 10.4429C27.9883 10.3371 28.0814 10.2443 28.1917 10.2422C28.2903 10.2402 28.3958 10.3467 28.3875 10.4505C28.3793 10.557 28.2903 10.6409 28.1821 10.6423Z" fill="#193686"/>
<path d="M12.0704 38.4203H10.5699C10.7897 36.5988 11.0671 34.7936 11.3588 32.9856C11.28 33.172 11.204 33.3591 11.1218 33.5441C10.6411 34.6277 10.1138 35.6887 9.57272 36.7435C9.33439 37.2078 9.10428 37.6755 8.87007 38.1418C8.84541 38.1902 8.81596 38.2367 8.78925 38.2838C8.41327 38.3439 8.03455 38.2305 7.66953 38.3596C7.63734 38.3302 7.60378 38.2995 7.55653 38.2558C7.5353 37.9315 7.5442 37.5908 7.48188 37.2644C7.43052 36.9948 7.48256 36.7162 7.41134 36.4649C7.31752 36.1352 7.43531 35.7897 7.29149 35.4736C7.28259 35.4545 7.29012 35.4285 7.28944 35.406C7.26547 34.741 7.24218 34.0753 7.21684 33.4103C7.21273 33.3038 7.25519 33.1782 7.10932 33.1208C6.98399 33.622 6.92236 34.1361 6.77169 34.6324C6.66006 34.9991 6.61965 35.3869 6.53679 35.7631C6.4731 36.0526 6.38886 36.3373 6.32243 36.6261C6.23066 37.0221 6.15259 37.4208 6.05739 37.8161C6.00877 38.0175 5.93686 38.2128 5.87249 38.4183H4.47266C5.0178 36.0403 5.6458 33.7019 6.22244 31.3389H8.29959C8.30849 31.3812 8.32082 31.4126 8.32082 31.444C8.31808 31.8694 8.37013 32.2892 8.45368 32.7057C8.45573 32.7166 8.45368 32.7283 8.45436 32.7399C8.47833 33.1666 8.47765 33.596 8.53244 34.018C8.59133 34.4679 8.55572 34.9206 8.60983 35.365C8.64201 35.6293 8.63927 35.8969 8.67968 36.2007C8.98512 35.2729 9.40493 34.4392 9.79256 33.5933C10.1446 32.8252 10.5507 32.0817 10.9308 31.332H12.9518C12.9922 31.4706 13.0038 31.6072 12.9394 31.7485C12.9175 31.797 12.9155 31.8564 12.9107 31.911C12.886 32.2005 12.8826 32.4934 12.8347 32.7788C12.7716 33.1522 12.7381 33.5271 12.6922 33.9019C12.6525 34.231 12.5696 34.5553 12.558 34.8905C12.5525 35.0428 12.5025 35.193 12.471 35.3439C12.4621 35.3862 12.4361 35.4265 12.4326 35.4695C12.4066 35.7474 12.3874 36.0266 12.3587 36.3038C12.345 36.4349 12.3087 36.5639 12.2936 36.695C12.2799 36.8159 12.269 36.9326 12.2381 37.0542C12.1875 37.2556 12.2155 37.4713 12.1614 37.683C12.1019 37.9171 12.0991 38.1657 12.0697 38.4203H12.0704Z" fill="#193686"/>
<path d="M22.6087 33.3063C22.7614 32.5396 22.9128 31.7756 23.0675 31H24.5975C24.6893 31.2656 24.5023 31.5073 24.5461 31.7626C24.4564 31.8562 24.4934 31.9756 24.4783 32.0849C24.4646 32.1825 24.4331 32.2767 24.4133 32.3737C24.3352 32.7506 24.2592 33.1274 24.1825 33.5043C24.1455 33.6873 24.1017 33.8689 24.0736 34.0533C24.0003 34.5319 23.9133 35.0071 23.8051 35.4802C23.714 35.8776 23.6709 36.2852 23.5894 36.6853C23.5134 37.0567 23.4572 37.4274 23.4476 37.807C23.4421 38.0043 23.3908 38.2003 23.3572 38.4167H21.954C21.9766 38.188 22.0005 37.9518 22.0314 37.6411C21.9129 37.7565 21.843 37.82 21.778 37.8883C21.3712 38.317 20.8835 38.5341 20.2809 38.5075C20.0063 38.4952 19.7474 38.4645 19.5186 38.3075C19.2207 38.1033 18.966 37.876 18.8386 37.5093C18.7194 37.1666 18.6304 36.8307 18.6571 36.4681C18.6804 36.1466 18.7557 35.7069 18.9071 35.3437C19.0666 34.9606 19.2837 34.6138 19.5515 34.2984C19.7871 34.0205 20.0967 33.8348 20.4083 33.6593C20.863 33.4033 21.3547 33.2838 21.8807 33.3043C22.119 33.3138 22.3573 33.3056 22.6087 33.3056V33.3063ZM21.552 34.4752C21.3335 34.6145 21.0472 34.7189 20.8788 34.9217C20.4802 35.3996 20.2158 35.9547 20.3117 36.6054C20.3432 36.8191 20.3911 37.0642 20.6062 37.1775C20.8219 37.2909 21.0568 37.4404 21.3034 37.2123C21.3376 37.1809 21.4081 37.1891 21.4376 37.1837C21.843 36.8498 22.0903 36.4572 22.1553 35.954C22.1772 35.7827 22.245 35.6167 22.2827 35.4467C22.3341 35.2105 22.3772 34.9722 22.421 34.734C22.4265 34.7032 22.4149 34.6691 22.4128 34.6466C22.321 34.5858 22.2389 34.5305 22.1574 34.4766H21.5513L21.552 34.4752Z" fill="#193686"/>
<path d="M37.244 33.5651C37.1892 33.871 37.1639 34.1946 37.0687 34.4964C36.9742 34.7941 36.9536 35.1013 36.881 35.4004C36.8112 35.6878 36.7516 35.9787 36.6927 36.2688C36.6592 36.4306 36.6256 36.5938 36.6092 36.7577C36.5783 37.0581 36.564 37.3599 36.5352 37.6603C36.5119 37.904 36.4777 38.1464 36.4441 38.4263C36.2339 38.4448 35.9976 38.4318 35.7634 38.4338C35.5264 38.4359 35.2888 38.4338 35.0504 38.4338C35.0669 38.2488 35.1025 38.0849 35.0888 37.9252C35.0765 37.7818 35.1751 37.635 35.0806 37.4739C34.8464 37.8876 34.5491 38.1983 34.1156 38.371C33.7396 38.5212 33.3575 38.5513 32.9678 38.4632C32.3843 38.3314 32.0782 37.9081 31.8817 37.3879C31.8317 37.2561 31.8248 37.1073 31.807 36.9652C31.7502 36.5126 31.8358 36.0661 31.9604 35.6421C32.0583 35.3089 32.2645 35.0037 32.4439 34.6985C32.5336 34.5463 32.6603 34.4118 32.787 34.2854C32.9137 34.1598 33.0521 34.0424 33.2 33.942C33.5219 33.7242 33.8704 33.557 34.2437 33.4457C34.8813 33.2552 35.5394 33.2763 36.188 33.3228C36.5297 33.3474 36.8968 33.359 37.2447 33.5651H37.244ZM34.8121 34.4814C33.9204 34.8631 33.5047 35.5649 33.4048 36.4853C33.4904 36.6409 33.4363 36.8499 33.563 37.0083C33.6903 37.168 33.8657 37.2206 34.0574 37.2793C34.204 37.2124 34.3745 37.1707 34.4978 37.0711C34.7423 36.8744 34.9395 36.6409 35.0374 36.3214C35.1114 36.0811 35.2128 35.853 35.2532 35.5977C35.3121 35.2263 35.4189 34.8624 35.5086 34.4821H34.8121V34.4814Z" fill="#193686"/>
<path d="M18.2515 34.4757C18.2392 34.7372 18.2961 35.0117 18.181 35.2691C18.0673 35.5244 17.9249 35.7456 17.6824 35.9184C17.2982 36.1915 16.8695 36.2986 16.4209 36.3929C16.0039 36.4803 15.5882 36.4379 15.1718 36.4557C15.0834 36.4591 14.9855 36.4291 14.9225 36.5328C14.9759 36.8728 15.1547 37.1296 15.4971 37.219C15.7108 37.275 15.9272 37.4047 16.1696 37.2839C16.2244 37.2565 16.3155 37.3009 16.425 37.318C16.7435 37.2245 17.1003 37.1193 17.4838 37.006C17.5181 37.3747 17.553 37.7481 17.5879 38.1216C17.2373 38.2814 16.901 38.366 16.5545 38.4438C16.0792 38.5517 15.6053 38.5101 15.1355 38.4875C14.802 38.4718 14.4746 38.3326 14.1966 38.1154C13.9575 37.9284 13.7959 37.6969 13.6466 37.43C13.3604 36.9186 13.4857 36.3806 13.4549 35.8521C13.6137 35.3237 13.7774 34.8048 14.1363 34.3576C14.4986 33.9063 14.941 33.6011 15.4854 33.4304C15.6964 33.3642 15.91 33.3034 16.1354 33.3062C16.3066 33.3082 16.4778 33.3103 16.649 33.3055C17.1085 33.2911 17.5009 33.4734 17.829 33.765C17.9482 33.8708 18.0899 34.006 18.1214 34.1999C18.1365 34.2941 18.2043 34.3794 18.2509 34.475L18.2515 34.4757ZM16.7894 34.7645C16.5928 34.4225 16.3579 34.3453 15.9826 34.4395C15.6142 34.5324 15.4074 34.8103 15.1786 35.0656C15.1225 35.1284 15.119 35.2377 15.0855 35.3462C15.1677 35.3503 15.2122 35.3476 15.2546 35.3558C15.4711 35.3967 15.671 35.2902 15.882 35.2868C16.1888 35.2814 16.4668 35.1919 16.7106 35.0178C16.7367 34.9345 16.7593 34.8621 16.7901 34.7645H16.7894Z" fill="#193686"/>
<path d="M43.9221 37.3386C44.1234 37.2205 44.3357 37.4328 44.5076 37.273C44.7001 37.286 44.885 37.2519 45.0672 37.1897C45.2507 37.1269 45.4384 37.0744 45.6356 37.0136C45.6685 37.3843 45.7013 37.7503 45.7342 38.1101C45.4116 38.2965 45.0809 38.3634 44.7467 38.4412C44.3077 38.5436 43.8666 38.5177 43.4311 38.4938C42.7462 38.4562 42.1833 38.1422 41.8477 37.5325C41.6977 37.2601 41.5559 36.9583 41.597 36.6162C41.6162 36.4592 41.6053 36.2981 41.5991 36.1397C41.5895 35.9028 41.6409 35.6836 41.7203 35.4576C41.8806 35.0022 42.0894 34.5932 42.412 34.2212C42.762 33.817 43.2003 33.5882 43.6762 33.4087C43.8687 33.3363 44.0885 33.3165 44.2967 33.3117C44.6097 33.3042 44.9206 33.2947 45.2363 33.367C45.5801 33.4455 45.8342 33.6237 46.0616 33.8764C46.3239 34.1679 46.4115 34.5093 46.4006 34.8889C46.3882 35.3081 46.1999 35.6467 45.8794 35.8925C45.4877 36.1929 45.0261 36.3186 44.535 36.3984C44.1495 36.4606 43.7708 36.4346 43.3893 36.4551C43.2783 36.4606 43.1674 36.4558 43.0325 36.4558C43.1195 36.6941 43.1427 36.9296 43.3537 37.0539C43.5324 37.1597 43.7262 37.2403 43.9235 37.3372L43.9221 37.3386ZM44.9569 34.8083C44.8795 34.6765 44.8412 34.5304 44.6837 34.4745C44.5234 34.4164 44.3556 34.372 44.1933 34.4144C43.8344 34.5086 43.5667 34.7298 43.3749 35.0486C43.3187 35.1415 43.2708 35.2303 43.2468 35.3402C43.4064 35.3709 43.5358 35.3668 43.6577 35.2958C43.9214 35.3723 44.168 35.2692 44.4179 35.22C44.6508 35.1743 44.8597 35.08 44.9569 34.809V34.8083Z" fill="#193686"/>
<path d="M31.4605 34.6903C31.2914 34.5571 31.1291 34.5332 30.9558 34.5407C30.688 34.5523 30.4223 34.5285 30.1607 34.6404C29.8176 34.7872 29.5526 35.0057 29.3553 35.3184C29.1992 35.5655 29.1019 35.8366 29.078 36.1199C29.0403 36.5651 29.1533 36.9604 29.5053 37.1393C30.1045 37.3584 30.5956 37.2253 31.1085 37.0587C31.1462 37.2676 31.1202 37.4697 31.125 37.6698C31.1298 37.863 31.1257 38.0562 31.1257 38.2597C30.6949 38.4222 30.2538 38.5089 29.7929 38.5041C29.4231 38.5007 29.0554 38.5143 28.7027 38.3655C28.4041 38.2392 28.1541 38.0637 27.9315 37.822C27.5405 37.398 27.411 36.8887 27.4419 36.3487C27.4576 36.0715 27.4775 35.7799 27.5836 35.5027C27.7103 35.1709 27.8487 34.8459 28.061 34.5653C28.4568 34.0423 28.9889 33.675 29.6005 33.4606C29.9053 33.3534 30.2422 33.2804 30.5833 33.3029C30.788 33.3166 30.9942 33.3138 31.1989 33.3029C31.4421 33.2906 31.6557 33.3746 31.8947 33.4757C31.7639 33.8792 31.6633 34.2799 31.4612 34.6889L31.4605 34.6903Z" fill="#193686"/>
<path d="M39.1157 38.4266H37.5906C37.5002 38.273 37.6282 38.1324 37.6474 37.9897C37.6741 37.7855 37.7399 37.5841 37.7631 37.3759C37.7803 37.2222 37.7946 37.0652 37.8378 36.9184C37.9104 36.6733 37.9398 36.4227 37.9748 36.1715C38.009 35.923 38.0624 35.6724 38.1453 35.4362C38.198 35.2846 38.1672 35.1324 38.2199 34.9774C38.2966 34.7514 38.2843 34.4953 38.3103 34.2523C38.3398 33.9751 38.3685 33.6979 38.398 33.4159C38.624 33.3634 39.3219 33.3545 39.765 33.4057C39.7369 33.7095 39.7095 34.0133 39.6746 34.3888C40.1293 33.6187 40.7121 33.2227 41.5846 33.3162C41.6284 33.5682 41.4867 33.7989 41.4737 34.0427C41.46 34.3021 41.3675 34.537 41.3072 34.8149C41.2127 34.8149 41.1134 34.8128 41.0141 34.8149C40.5176 34.8272 40.1526 35.0415 39.8869 35.4717C39.7026 35.7694 39.617 36.0978 39.5006 36.4159C39.441 36.5791 39.4369 36.7628 39.4129 36.9382C39.3458 37.4394 39.2465 37.9337 39.1164 38.4273L39.1157 38.4266Z" fill="#193686"/>
<path d="M25.4221 33.3809H26.9295C27.0096 33.6116 26.8624 33.8165 26.8617 34.0343C26.861 34.2452 26.7398 34.4337 26.724 34.6487C26.7103 34.844 26.6453 35.0352 26.6097 35.2297C26.5124 35.7596 26.4611 36.2989 26.2885 36.8144C26.2364 36.9708 26.2474 37.1401 26.2077 37.3039C26.1303 37.6248 26.1063 37.9587 26.0536 38.2864C26.0453 38.3363 26.0008 38.3806 25.9762 38.4216H24.4805C24.4887 38.2673 24.4832 38.1342 24.5284 37.9867C24.6085 37.7252 24.6346 37.4473 24.6866 37.1769C24.7435 36.8854 24.8071 36.5959 24.8626 36.3044C24.9208 36.0013 24.9729 35.6967 25.027 35.3922C25.0564 35.2297 25.0852 35.0666 25.1153 34.9041C25.1776 34.5682 25.2386 34.2322 25.3043 33.897C25.3379 33.727 25.3804 33.5591 25.4208 33.3809H25.4221Z" fill="#193686"/>
<path d="M26.2716 31.041C26.4675 31.067 26.688 31.0963 26.8948 31.1236C27.5215 31.5046 27.4228 32.414 26.6161 32.6974H26.1942C26.0874 32.6455 25.9682 32.5868 25.8347 32.5219C25.7772 32.4147 25.7141 32.2973 25.6498 32.1764C25.6094 31.5722 25.6833 31.422 26.2723 31.041H26.2716Z" fill="#193686"/>
<path d="M21.5523 34.476H22.1583C22.2398 34.5299 22.322 34.5852 22.4138 34.646C22.4165 34.6685 22.4282 34.7026 22.422 34.7334C22.3782 34.971 22.335 35.2092 22.2837 35.4462C22.2467 35.6168 22.1789 35.7821 22.1563 35.9534C22.0912 36.4566 21.844 36.8499 21.4386 37.1831C21.4091 37.1885 21.3379 37.1803 21.3043 37.2118C21.0578 37.4405 20.8229 37.2909 20.6072 37.1769C20.3921 37.0636 20.3442 36.8192 20.3127 36.6048C20.2168 35.9541 20.4811 35.3997 20.8797 34.9211C21.0482 34.719 21.3352 34.6146 21.5529 34.4746L21.5523 34.476Z" fill="white"/>
<path d="M34.8136 34.4812H35.5101C35.4204 34.8621 35.3136 35.226 35.2547 35.5968C35.2142 35.8521 35.1129 36.0795 35.0389 36.3205C34.941 36.64 34.7438 36.8735 34.4993 37.0701C34.3753 37.1698 34.2048 37.2121 34.0589 37.2784C33.8678 37.2197 33.6918 37.1671 33.5644 37.0073C33.4384 36.8489 33.4925 36.64 33.4062 36.4843C33.5069 35.564 33.9219 34.8621 34.8136 34.4805V34.4812Z" fill="white"/>
<path d="M16.7866 34.7645C16.7558 34.8615 16.7332 34.9345 16.7072 35.0178C16.4634 35.1912 16.1853 35.2814 15.8785 35.2868C15.6676 35.2909 15.4676 35.3968 15.2512 35.3558C15.2087 35.3476 15.1642 35.3503 15.082 35.3462C15.1163 35.2377 15.1197 35.1284 15.1752 35.0656C15.4039 34.8103 15.6107 34.5324 15.9792 34.4395C16.3545 34.3453 16.5887 34.4218 16.7859 34.7645H16.7866Z" fill="white"/>
<path d="M44.9562 34.8079C44.8589 35.0789 44.65 35.1732 44.4172 35.2189C44.1672 35.2681 43.92 35.3712 43.657 35.2947C43.5351 35.3657 43.4057 35.3698 43.2461 35.3391C43.2694 35.2291 43.318 35.1404 43.3742 35.0475C43.5659 34.7294 43.8337 34.5075 44.1926 34.4133C44.3549 34.3709 44.5226 34.4153 44.6829 34.4733C44.8404 34.53 44.8788 34.6754 44.9562 34.8072V34.8079Z" fill="white"/>
</g>
<defs>
<clipPath id="clip0_879_317">
<rect width="49" height="49" rx="5" fill="white"/>
</clipPath>
</defs>
</svg>
