<svg width="49" height="49" viewBox="0 0 49 49" fill="none" xmlns="http://www.w3.org/2000/svg">
<rect width="49" height="49" rx="5" fill="white"/>
<g clip-path="url(#clip0_879_449)">
<path d="M30.3199 27.8541C30.3199 27.8541 29.889 28.363 28.86 28.363C27.4855 28.363 26.5977 27.3918 26.5977 26.1928C26.5977 24.9938 27.4855 24.0156 28.86 24.0156C29.889 24.0156 30.3682 24.5349 30.3682 24.5349L29.9429 25.068C29.9429 25.068 29.5547 24.666 28.8749 24.666C27.987 24.666 27.3666 25.3319 27.3666 26.191C27.3666 27.0502 27.987 27.7023 28.8749 27.7023C29.5547 27.7023 29.9429 27.3072 29.9429 27.3072L30.3199 27.8541Z" fill="#045594"/>
<path d="M43.5646 24.723C43.5646 24.723 43.6575 24.7938 43.7894 24.7938C43.8971 24.7938 43.9435 24.7524 43.9435 24.692C43.9435 24.6351 43.9064 24.6075 43.7634 24.5661C43.5851 24.516 43.4996 24.4608 43.4996 24.3452C43.4996 24.2176 43.6036 24.1348 43.7912 24.1348C43.99 24.1348 44.068 24.2107 44.068 24.2107L43.9955 24.3107C43.9955 24.3107 43.9194 24.2486 43.7894 24.2486C43.6984 24.2486 43.6426 24.2814 43.6426 24.3418C43.6426 24.3918 43.6854 24.4177 43.8191 24.4539C44.0123 24.5039 44.0884 24.5695 44.0884 24.6851C44.0884 24.811 43.9918 24.9094 43.7931 24.9094C43.5943 24.9094 43.4922 24.8162 43.4922 24.8162L43.5646 24.723Z" fill="#045594"/>
<path d="M44.8715 24.3766L44.6411 24.6544H44.5929L44.3644 24.3801V24.8924H44.2344V24.1523H44.3347L44.617 24.4974L44.9012 24.1523H44.9996L45.0015 24.8924H44.8715V24.3766Z" fill="#045594"/>
<path d="M31.4437 28.1113H31.44L31.375 28.2666H31.3787L31.4437 28.1113Z" fill="#045594"/>
<path d="M34.2348 28.2665H34.2385L34.1289 28.0215L34.2348 28.2665Z" fill="#045594"/>
<path d="M6.65923 24.1074L6.65737 24.1109V24.1074L5.21602 25.993L3.77466 24.1074H3.07812V28.2668H3.77466V25.3892L4.76095 26.5985L5.00799 26.9056H5.42405L6.65923 25.3909V28.2685H7.35577V24.1074H6.65923Z" fill="#045594"/>
<path d="M38.1028 26.7918C38.1158 26.7866 38.1251 26.7831 38.1251 26.7831C38.6991 26.5813 39.0724 26.1448 39.0724 25.5013C39.0724 24.6353 38.4074 24.1074 37.3561 24.1074H35.5117V28.2668H36.251V26.8936H37.3246H37.3153L38.387 28.2668H39.2006L38.1028 26.7918ZM36.251 26.2846V24.7181H37.319C37.9152 24.7181 38.3034 24.9752 38.3034 25.5083C38.3034 26.0413 37.9078 26.2846 37.3636 26.2846H36.251Z" fill="#045594"/>
<path d="M31.5492 28.1113H31.5455L31.4805 28.2666H31.4823L31.5492 28.1113Z" fill="#045594"/>
<path d="M34.3423 28.2665H34.346L34.2383 28.0215L34.3423 28.2665Z" fill="#045594"/>
<path d="M33.0336 25.3321L32.8516 24.9043L33.0336 25.3321Z" fill="#045594"/>
<path d="M33.3655 24.5629L33.1574 24.1074H32.4776L30.6406 28.2668H31.4226L32.0021 26.9005H33.7017L34.179 28.0218L34.2867 28.2668H35.0594L33.3655 24.5629ZM32.2399 26.3415L32.851 24.9044L33.033 25.3323L33.4639 26.3415H32.2399Z" fill="#045594"/>
<path d="M24.5003 25.3321L24.3164 24.9043L24.5003 25.3321Z" fill="#045594"/>
<path d="M24.8303 24.5629L24.6223 24.1074H23.9425L22.1055 28.2668H22.8874L23.467 26.9005H25.1665L25.6439 28.0218L25.7516 28.2668H26.5243L24.8303 24.5629ZM23.7066 26.3415L24.3177 24.9044L24.4997 25.3323L24.9306 26.3415H23.7066Z" fill="#045594"/>
<path d="M10.3891 25.3321L10.207 24.9043L10.3891 25.3321Z" fill="#045594"/>
<path d="M10.7209 24.5629L10.5129 24.1074H9.83308L7.99609 28.2668H8.77807L9.35758 26.9005H11.0571L11.5345 28.0218L11.6422 28.2668H12.4149L10.7209 24.5629ZM9.59533 26.3415L10.2064 24.9044L10.3885 25.3323L10.8194 26.3415H9.59533Z" fill="#045594"/>
<path d="M42.9135 24.6664V24.1074H40.7218H39.9844V28.2668H40.6308H40.7218H42.9135V27.7078H40.7218V26.4692H42.4325L42.4269 25.9102H40.7218V24.6664H42.9135Z" fill="#045594"/>
<path d="M16.8338 25.9172H14.7201L15.008 26.4986H16.0481V26.521C16.0481 27.2214 15.5633 27.7062 14.7795 27.7062C13.8842 27.7062 13.3084 27.0472 13.3084 26.195C13.3084 25.3427 13.8972 24.6699 14.8018 24.6699C15.5485 24.6699 15.9664 25.0788 15.9664 25.0788L16.3992 24.5526C16.3992 24.5526 15.9144 24.0195 14.8018 24.0195C13.4217 24.0195 12.5469 24.9839 12.5469 26.1967C12.5469 27.4095 13.3901 28.3669 14.7795 28.3669C16.0017 28.3669 16.7558 27.6355 16.8245 26.5003H16.8282C16.8357 26.4399 16.8338 25.9172 16.8338 25.9172Z" fill="#045594"/>
<path d="M20.7142 24.1074V27.0471V27.0454L18.3311 24.1074H17.5938V28.2668H18.3311V26.2466V25.3202L20.7142 28.2668H21.4535V24.1074H20.7142Z" fill="#045594"/>
</g>
<defs>
<clipPath id="clip0_879_449">
<rect width="42" height="4.375" fill="white" transform="translate(3 24)"/>
</clipPath>
</defs>
</svg>
