<svg width="49" height="49" viewBox="0 0 49 49" fill="none" xmlns="http://www.w3.org/2000/svg">
<rect width="49" height="49" rx="5" fill="white"/>
<path d="M20.3698 24.4115C20.3698 24.2985 20.3552 24.2458 20.3698 24.2081C21.5665 22.0763 22.7632 19.952 23.9745 17.8051C24.6531 17.775 25.3244 17.7901 26.0687 17.7976C25.9666 18.0161 25.9082 18.1743 25.8279 18.3249C25.5652 18.807 25.2952 19.2741 25.0253 19.7562C24.478 20.743 23.9234 21.7223 23.3761 22.7091C23.2375 22.9577 23.1061 23.2138 22.9675 23.4624C22.7486 23.8466 22.4786 24.178 22.0554 24.3437C21.9897 24.3739 21.9167 24.4115 21.8511 24.4115C21.3695 24.4115 20.8879 24.4115 20.3698 24.4115Z" fill="#3967B0"/>
<path d="M20.5586 15.4792C20.8578 15.4415 21.0913 15.3963 21.3321 15.3963C23.1928 15.3888 25.0535 15.3963 26.907 15.3888C27.6659 15.3813 28.2132 15.6826 28.4977 16.4359C28.5707 16.6317 28.702 16.805 28.8042 16.9858C28.8626 17.0913 28.9137 17.1967 28.972 17.3097C28.8334 17.4679 28.6802 17.4076 28.5415 17.3926C27.9286 17.3549 27.3083 17.2871 26.6954 17.2796C25.0973 17.2645 23.492 17.2645 21.8866 17.2796C21.5802 17.2796 21.4269 17.1591 21.2956 16.8954C21.0986 16.4962 20.8651 16.112 20.6462 15.7203C20.617 15.6675 20.6024 15.6073 20.5586 15.4792Z" fill="#3967B0"/>
<path d="M27.0902 13.9642C26.8785 13.9642 26.7399 13.9642 26.594 13.9642C24.4632 13.9642 22.3398 13.9642 20.2091 13.9642C20.0194 13.9642 19.7859 14.0546 19.6618 13.8663C19.5232 13.6554 19.4356 13.3992 19.3334 13.1657C19.3043 13.0979 19.3261 13.0151 19.3189 12.9397C19.2313 12.2768 19.5524 12.0433 20.2091 12.0282C21.8363 11.9906 23.4636 11.9906 25.0981 12.0282C25.6381 12.0433 26.1634 12.2467 26.4626 12.7966C26.6669 13.1431 26.8494 13.5122 27.0902 13.9642Z" fill="#3967B0"/>
<path d="M24.0586 24.3815C24.2483 24.0124 24.4161 23.681 24.5913 23.3646C25.2115 22.2497 25.8391 21.1348 26.4666 20.02C26.846 19.3345 27.2255 18.6565 27.5976 17.9635C27.6852 17.8053 27.7874 17.6923 27.9698 17.7299C28.2982 17.7977 28.6411 17.858 28.9549 17.971C29.3051 18.0991 29.4 18.3552 29.276 18.7243C29.2249 18.8749 29.1665 19.0331 29.0862 19.1687C28.3711 20.4343 27.656 21.6923 26.9409 22.9578C26.7804 23.2365 26.6417 23.5303 26.4666 23.8015C26.182 24.2309 25.7661 24.4418 25.2553 24.4267C24.9634 24.4192 24.6715 24.4267 24.3797 24.4192C24.2994 24.4117 24.2045 24.3966 24.0586 24.3815Z" fill="#3967B0"/>
<path d="M16.9165 16.5176C16.9895 16.623 17.0552 16.6984 17.099 16.7812C17.8141 18.0468 18.5292 19.3123 19.237 20.5854C19.6529 21.3311 20.0542 22.0844 20.4848 22.8302C20.5869 23.011 20.5796 23.1315 20.4775 23.3048C20.3096 23.591 20.1126 23.8396 19.8572 24.0355C19.5289 24.2841 19.2151 24.2464 18.967 23.9074C18.7992 23.6814 18.6605 23.4253 18.5219 23.1767C17.8651 21.994 17.2084 20.8038 16.559 19.6136C16.4057 19.3424 16.2671 19.0637 16.1212 18.7925C15.9314 18.4535 15.9825 18.107 16.1503 17.7906C16.3547 17.3914 16.5809 17.0072 16.7998 16.623C16.8144 16.5929 16.8509 16.5778 16.9165 16.5176Z" fill="#3967B0"/>
<path d="M22.9883 24.0579C23.3385 23.4477 23.6815 22.8526 24.0318 22.25C24.455 22.5438 24.5352 22.8451 24.3163 23.2444C24.1631 23.5231 23.9953 23.8018 23.8201 24.073C23.5137 24.5325 23.3823 24.5325 22.9883 24.0579Z" fill="#3967B0"/>
<path d="M17.887 17.5426C17.6826 17.1584 17.4637 16.7667 17.2594 16.3674C17.0478 15.9456 17.15 15.7723 17.6754 15.6895C18.0183 16.2846 18.3686 16.8872 18.748 17.5426C18.4488 17.5426 18.2007 17.5426 17.887 17.5426Z" fill="#3967B0"/>
<path d="M27.3893 14.4471C27.4112 14.5601 27.4258 14.6354 27.4331 14.7108C27.4331 14.7861 27.4185 14.8614 27.4112 14.9292C27.1631 15.0347 25.762 15.0573 25.3242 14.9518C25.4191 14.7484 25.5066 14.5526 25.6088 14.3266C26.2072 14.3492 26.7909 14.2211 27.3893 14.4471Z" fill="#3967B0"/>
<path d="M22.4622 19.7797C22.1193 20.3974 21.7836 21 21.4188 21.6629C21.2071 21.3089 21.0174 21.0226 20.8496 20.7213C20.5212 20.1262 20.2075 19.516 19.8791 18.9134C19.3026 17.8663 18.7262 16.8267 18.1497 15.7797C17.9381 15.3955 17.8359 14.9962 17.96 14.5593C17.9819 14.4915 17.9965 14.4162 18.0402 14.3484C18.2592 13.9718 18.4854 13.6026 18.7116 13.226C18.7335 13.1883 18.7772 13.1657 18.8429 13.1055C20.0469 15.3503 21.2509 17.5574 22.4622 19.7797Z" fill="#3967B0"/>
<path d="M6.06392 31.3622C6.42102 31.3622 6.76383 31.3622 7.14236 31.3622C7.10665 31.5023 7.08522 31.6055 7.04951 31.753C7.16378 31.9004 7.29948 32.0774 7.47089 32.2912C7.63516 32.0995 7.76371 31.9521 7.88513 31.8046C7.82085 31.7014 7.76371 31.6203 7.69229 31.5023C7.99226 31.377 8.26365 31.4212 8.53505 31.4581C8.60647 31.635 8.48505 31.7014 8.40649 31.7825C8.16366 32.0479 7.91369 32.3133 7.6423 32.5935C8.00654 33.058 8.36364 33.5077 8.7136 33.9575C8.4422 34.2008 8.07082 34.2155 7.72086 34.0165C7.81371 33.611 7.51374 33.4045 7.30662 33.1244C7.0638 33.2497 6.98523 33.4709 6.84239 33.6478C6.9281 33.7658 6.99952 33.8543 7.07094 33.9501C6.72098 34.2155 6.42816 34.2229 6.05677 33.9649C6.35674 33.5372 6.77812 33.2276 7.11379 32.8073C6.79954 32.3944 6.61385 31.871 6.03535 31.635C5.95679 32.5935 5.61397 33.3455 4.81407 33.8174C4.23556 34.1639 3.59993 34.2672 2.95 34.1492C1.7073 33.9206 0.878823 32.8516 1.01452 31.2516C1.10737 30.1678 1.85728 29.1135 3.27139 29.0103C4.60695 28.9144 5.66396 29.4747 6.06392 31.3622ZM1.64302 31.3327C1.58588 32.4903 2.30722 33.4783 3.14998 33.7216C3.83561 33.9206 4.59266 33.7363 5.02833 33.117C5.33543 32.682 5.43542 32.1954 5.42114 31.694C5.39257 30.8904 5.08546 30.1899 4.43554 29.7033C3.77133 29.2019 2.72146 29.1946 2.11439 29.9245C1.77157 30.3448 1.59302 30.8387 1.64302 31.3327Z" fill="black"/>
<path d="M41.8845 33.7568C41.9916 33.7715 42.0702 33.7863 42.1487 33.7937C42.3701 33.801 42.463 33.7273 42.4773 33.5061C42.4915 33.2849 42.4844 33.0637 42.4915 32.8426C42.4915 32.5476 42.4915 32.2601 42.4915 31.9873C42.3344 31.8693 42.213 31.7735 42.0487 31.6481C42.3701 31.5007 42.6415 31.3753 42.9272 31.25C42.9986 31.368 43.0629 31.4638 43.12 31.5523C43.3343 31.4786 43.5343 31.3901 43.7343 31.3458C44.3913 31.191 44.8555 31.6481 44.877 32.2159C44.8913 32.6066 44.9127 32.9974 44.927 33.3882C44.9413 33.6683 44.9555 33.6904 45.2341 33.7568C45.2555 33.5651 45.2841 33.3808 45.3055 33.1891C45.5198 33.1522 45.5555 33.3218 45.5983 33.4471C45.6626 33.6315 45.7626 33.7642 45.9554 33.8232C46.1625 33.8895 46.4268 33.7789 46.5268 33.5725C46.6125 33.4029 46.5553 33.2259 46.3339 33.0859C46.1197 32.9531 45.8911 32.8499 45.6769 32.7246C45.3055 32.496 45.2126 31.9209 45.484 31.5744C45.6412 31.368 45.8769 31.3458 46.0983 31.3311C46.3054 31.3237 46.5196 31.3606 46.7482 31.3827C46.8267 31.5965 46.9196 31.7882 46.8053 32.002C46.6339 32.0389 46.5839 31.9062 46.4982 31.8251C46.2197 31.5744 45.9697 31.6039 45.7269 31.9504C45.8126 32.0315 45.8911 32.1348 45.9911 32.2011C46.1554 32.297 46.3339 32.3707 46.5053 32.4518C46.9696 32.673 47.041 32.99 46.9839 33.4103C46.9196 33.8379 46.5553 34.1697 46.1554 34.1844C46.0268 34.1918 45.8697 34.2065 45.7697 34.1476C45.5198 33.9927 45.2912 34.0812 45.0484 34.1181C44.8341 34.1476 44.6056 34.1254 44.3842 34.1107C44.3342 34.1107 44.2913 34.0443 44.277 34.037C44.3056 33.5135 44.3342 33.0269 44.3556 32.5403C44.3628 32.2896 44.2985 32.0537 44.1056 31.8767C43.9271 31.7145 43.72 31.6408 43.4843 31.744C43.2486 31.8472 43.0843 32.0094 43.0843 32.2896C43.0843 32.6361 43.0843 32.9753 43.0843 33.3218C43.0772 33.5577 43.12 33.7642 43.3914 33.8305C43.4557 33.8453 43.52 33.8895 43.5843 33.919C43.5628 33.9559 43.5486 33.9927 43.5271 34.037C43.3986 34.0738 43.2629 34.1476 43.1343 34.1476C42.8272 34.1549 42.5201 34.1549 42.213 34.1254C41.9488 34.096 41.6845 34.0149 41.4202 33.9706C41.3203 33.9559 41.2131 33.9927 41.106 34.0149C40.8632 34.0665 40.6203 34.1549 40.3775 34.1697C40.0347 34.1918 39.8204 33.9706 39.7919 33.6241C39.7562 33.1817 39.8561 32.9974 40.2561 32.8204C40.5632 32.6877 40.8703 32.5698 41.1988 32.437C41.2703 32.1864 41.306 31.9283 41.0917 31.7292C40.8703 31.5228 40.6132 31.5597 40.3632 31.6924C40.249 31.8693 40.3918 32.1274 40.1418 32.2896C40.0633 32.2675 39.949 32.238 39.8561 32.2159C39.7562 31.7956 39.9061 31.5302 40.3275 31.3975C40.6561 31.2942 40.9989 31.2574 41.3488 31.368C41.5131 31.4196 41.6631 31.5007 41.7131 31.685C41.7773 31.9062 41.8488 32.1274 41.8702 32.3559C41.8988 32.673 41.8773 32.9974 41.8773 33.3144C41.863 33.4471 41.8773 33.5946 41.8845 33.7568ZM41.2346 32.732C40.9274 32.8794 40.6846 32.9753 40.4632 33.108C40.3061 33.1965 40.2632 33.425 40.3275 33.5946C40.3775 33.7273 40.5489 33.86 40.6918 33.8453C40.9917 33.8084 41.2631 33.6388 41.2346 33.2997C41.2203 33.1375 41.2346 32.9826 41.2346 32.732Z" fill="black"/>
<path d="M20.4131 33.9736C19.8989 34.1948 19.4132 34.1874 18.8704 33.9809C18.949 33.8777 18.999 33.7893 19.0704 33.7155C19.2347 33.5312 19.2918 33.3248 19.2847 33.0741C19.2775 32.1746 19.2775 31.2825 19.2847 30.383C19.2847 30.147 19.2704 29.9406 19.0061 29.8595C18.9633 29.8447 18.9347 29.771 18.8633 29.6752C18.999 29.6383 19.0918 29.5867 19.1847 29.594C19.5346 29.6014 19.8917 29.5277 20.2703 29.6752C20.1988 29.7563 20.1417 29.8152 20.0917 29.8816C20.0346 29.9553 19.956 30.0364 19.9346 30.1175C19.8275 30.5747 19.856 31.0318 19.9132 31.4815C20.206 31.5626 21.6558 31.5774 22.0486 31.5036C22.1129 31.0613 22.0843 30.6115 22.0629 30.1618C22.0558 30.088 21.9986 30.0069 21.9486 29.9406C21.8843 29.8521 21.8058 29.7784 21.7344 29.6973C22.0058 29.5572 22.6343 29.5498 22.9556 29.6752C22.8771 29.83 22.77 29.9848 22.7342 30.147C22.6914 30.3092 22.72 30.4862 22.72 30.6631C22.72 31.4963 22.72 32.3294 22.72 33.1699C22.72 33.3026 22.72 33.4354 22.72 33.5533C22.8771 33.6787 23.0199 33.7893 23.1913 33.9293C22.6914 34.2095 22.2414 34.18 21.7629 33.9883C21.7844 33.9367 21.7915 33.8777 21.8201 33.8556C22.0558 33.686 22.0915 33.4501 22.0772 33.1773C22.0629 32.7865 22.07 32.3958 22.07 32.0124C21.7844 31.9165 20.2631 31.9092 19.8989 31.9976C19.856 32.4769 19.8417 32.9561 19.9417 33.4427C19.9631 33.5386 20.0489 33.627 20.1203 33.7081C20.1988 33.8114 20.2988 33.8777 20.4131 33.9736Z" fill="black"/>
<path d="M31.8986 33.6912C32.0129 33.7723 32.1129 33.8461 32.22 33.9272C31.9629 34.141 31.413 34.1631 31.013 33.9714C31.3059 33.6912 31.2201 33.33 31.2273 32.9834C31.2273 32.1208 31.2273 31.2655 31.2273 30.4029C31.2273 30.2849 31.2273 30.1596 31.2273 30.0416C31.0844 29.9384 30.963 29.8573 30.7773 29.7246C31.0844 29.5919 31.3273 29.4813 31.5772 29.4002C31.6344 29.3854 31.7629 29.4665 31.7915 29.5329C31.8415 29.6656 31.8629 29.8205 31.8629 29.9605C31.8701 30.366 31.8629 30.7716 31.8629 31.1771C31.8629 31.295 31.8629 31.413 31.8629 31.5457C32.0772 31.472 32.2557 31.3983 32.4343 31.354C33.1913 31.1697 33.6413 31.7669 33.6556 32.3567C33.6627 32.5779 33.6627 32.7991 33.677 33.0203C33.6913 33.2267 33.7127 33.4332 33.7413 33.6765C33.8341 33.7429 33.9555 33.824 34.1127 33.9346C33.7056 34.2368 33.327 34.1631 32.9128 34.0378C32.9485 33.964 32.9699 33.8977 32.9985 33.8461C33.0985 33.6839 33.1556 33.5143 33.1413 33.3226C33.1271 33.0056 33.1342 32.6812 33.0914 32.3715C33.0699 32.2093 32.9914 32.0397 32.8985 31.9144C32.7628 31.7374 32.57 31.6489 32.3272 31.7227C32.07 31.8038 31.9058 31.9807 31.8844 32.2388C31.8415 32.718 31.8129 33.2046 31.8986 33.6912Z" fill="black"/>
<path d="M35.4414 29.6431C35.62 29.6283 35.7342 29.6062 35.8485 29.6062C36.277 29.6062 36.7055 29.5841 37.1341 29.6209C37.3912 29.6431 37.6483 29.7168 37.884 29.8274C38.5982 30.1444 38.7267 31.2651 37.9982 31.8033C37.6554 32.0614 37.2698 32.1646 36.8555 32.0982C36.7627 32.0835 36.677 32.0098 36.5913 31.9655C36.5984 31.936 36.5984 31.9139 36.6056 31.8844C36.677 31.8623 36.7484 31.8254 36.8198 31.8181C36.9484 31.8033 37.0841 31.8181 37.2126 31.8107C37.7697 31.7665 38.0911 31.1766 37.8625 30.6458C37.6769 30.2255 37.3483 30.0117 36.9269 29.938C36.6198 29.879 36.477 29.997 36.4699 30.3287C36.4627 30.8596 36.4699 31.3831 36.4699 31.9139C36.4699 32.2604 36.4699 32.5996 36.4699 32.9461C36.4699 33.3443 36.5413 33.7055 36.9127 33.9194C36.9269 33.9267 36.9341 33.9636 36.9412 33.9857C36.5556 34.2217 35.8271 34.2364 35.4985 34.0152C35.4985 33.9931 35.4914 33.9562 35.5057 33.9489C35.7985 33.7277 35.8271 33.418 35.8271 33.0715C35.8271 32.3342 35.8699 31.6043 35.8771 30.867C35.8914 30.1592 35.8842 30.1592 35.4414 29.6431Z" fill="black"/>
<path d="M16.2068 29.6887C16.5496 29.6003 16.8138 29.3717 17.1923 29.3791C17.2066 29.5929 17.2281 29.7698 17.2281 29.9542C17.2352 30.9938 17.2352 32.0407 17.2352 33.0803C17.2352 33.6406 17.2352 33.6406 17.6352 34.0167C17.3495 34.083 17.0852 34.1346 16.821 34.1936C16.7567 34.1051 16.6996 34.0314 16.6424 33.9429C16.5853 33.9577 16.5281 33.965 16.4781 33.9798C16.3139 34.0462 16.1568 34.1494 15.9854 34.1715C15.4854 34.2305 15.0283 33.9134 14.8498 33.4195C14.6069 32.778 14.7426 32.0997 15.1854 31.6573C15.464 31.3771 15.7925 31.296 16.1639 31.3255C16.3067 31.3403 16.4424 31.3477 16.5996 31.3624C16.7853 31.0601 16.7281 30.7357 16.6996 30.426C16.6781 30.168 16.6353 29.9099 16.321 29.8436C16.2782 29.8436 16.2639 29.7846 16.2068 29.6887ZM16.721 32.8812C16.6853 32.5716 16.671 32.3209 16.621 32.0702C16.5996 31.9596 16.5281 31.8416 16.4424 31.7605C16.1425 31.4804 15.6497 31.5394 15.3926 31.8711C15.1212 32.225 15.164 32.6379 15.2712 33.0213C15.3569 33.331 15.5354 33.589 15.8497 33.7217C16.1782 33.8618 16.4781 33.7439 16.5996 33.4047C16.671 33.2204 16.6924 33.0287 16.721 32.8812Z" fill="black"/>
<path d="M26.9517 32.4239C27.0303 31.893 26.866 31.6202 26.4803 31.5834C26.2232 31.5613 26.0875 31.6571 26.0161 31.9225C25.9804 32.0479 25.9447 32.1732 25.9018 32.328C25.7376 32.2691 25.6019 32.2174 25.4805 32.1732C25.559 31.635 25.7947 31.3917 26.2875 31.3548C26.5232 31.3401 26.7589 31.3401 26.9946 31.3548C27.2803 31.3696 27.4517 31.5465 27.5088 31.8267C27.5445 32.0036 27.5731 32.188 27.5731 32.3723C27.5802 32.8147 27.5731 33.2497 27.5731 33.692C27.7088 33.7584 27.8088 33.81 27.9445 33.8764C27.8873 33.9501 27.8588 34.0386 27.8088 34.0459C27.6731 34.0681 27.5017 34.1123 27.3945 34.0533C27.1517 33.9206 26.9517 33.9722 26.716 34.0533C26.5089 34.127 26.2804 34.1639 26.059 34.1713C25.809 34.186 25.6305 34.0386 25.5447 33.8026C25.409 33.434 25.5162 33.0727 25.859 32.8884C26.1518 32.7335 26.4661 32.623 26.7732 32.4976C26.8232 32.4681 26.8803 32.4534 26.9517 32.4239ZM26.9874 32.7557C26.7017 32.8663 26.4732 32.9326 26.2732 33.0432C26.1018 33.1391 26.0304 33.4414 26.0875 33.6257C26.1375 33.7879 26.2732 33.8469 26.4161 33.8542C26.6518 33.8764 26.966 33.6036 26.9874 33.3529C27.0017 33.1907 26.9874 33.0211 26.9874 32.7557Z" fill="black"/>
<path d="M25.3534 32.3568C25.1463 32.5707 24.9177 32.5485 24.6892 32.5412C24.3392 32.5338 23.9821 32.5412 23.6393 32.5412C23.5251 32.9909 23.7465 33.4554 24.1393 33.6102C24.5464 33.7724 24.9177 33.5807 25.2748 33.4259C25.3891 33.5881 25.3034 33.6766 25.232 33.7503C24.5249 34.4508 23.4822 34.318 23.0894 33.3743C22.8251 32.7329 23.0323 31.9292 23.4822 31.5606C24.0107 31.1182 24.8463 31.2656 25.1749 31.8776C25.2249 31.9734 25.2677 32.0767 25.3106 32.1799C25.332 32.2241 25.332 32.2831 25.3534 32.3568ZM24.6035 32.1504C24.6035 31.8407 24.4392 31.6343 24.1893 31.5974C23.9036 31.5532 23.7107 31.7449 23.625 32.1504C23.9536 32.1504 24.2821 32.1504 24.6035 32.1504Z" fill="black"/>
<path d="M10.105 34.0007C9.71216 34.2071 9.32649 34.1629 8.90511 33.9712C9.11937 33.6615 9.07652 33.3371 9.07652 33.0275C9.07652 32.6367 9.07652 32.2459 9.07652 31.8552C8.95511 31.7741 8.84798 31.7077 8.72656 31.6266C8.76227 31.5529 8.77656 31.4718 8.81941 31.457C9.05509 31.3612 9.11937 31.1621 9.19793 30.9262C9.31221 30.5723 9.43362 30.211 9.64788 29.894C9.92642 29.4958 10.2907 29.4442 10.7049 29.4737C10.8192 29.658 10.8192 29.8276 10.7049 30.0193C10.5906 29.9751 10.4835 29.9235 10.3764 29.894C10.1121 29.8276 9.90499 29.9161 9.84071 30.1815C9.75501 30.5428 9.61217 30.9041 9.67645 31.3317C9.91928 31.3391 10.155 31.3538 10.4478 31.3685C10.3549 31.5308 10.2907 31.6266 10.2407 31.7224C10.0693 31.7372 9.91213 31.7519 9.73358 31.7741C9.72644 31.9068 9.71216 32.0247 9.71216 32.1427C9.71216 32.5335 9.7193 32.9242 9.70502 33.3224C9.69787 33.5804 9.74073 33.7869 10.005 33.8753C10.0335 33.8827 10.0621 33.9196 10.0835 33.9417C10.0978 33.9491 10.0978 33.9638 10.105 34.0007Z" fill="black"/>
<path d="M13.0132 32.7098C13.056 33.6535 12.2204 34.1991 11.6062 34.1844C10.8849 34.1696 10.2064 33.7199 10.1992 32.7909C10.1992 31.9872 10.6992 31.3237 11.6133 31.3089C12.4704 31.2942 12.9775 31.7808 13.0132 32.7098ZM10.7991 32.5697C10.7849 32.9899 10.892 33.366 11.1991 33.6609C11.6062 34.059 12.1704 33.9042 12.3775 33.3807C12.5489 32.9383 12.4847 32.5181 12.3204 32.1052C12.1847 31.766 11.7776 31.5375 11.4562 31.5965C11.0848 31.6628 10.8491 31.9356 10.8063 32.3559C10.792 32.4222 10.7991 32.496 10.7991 32.5697Z" fill="black"/>
<path d="M27.9258 29.695C28.2329 29.5623 28.5043 29.4443 28.8328 29.2969C28.8471 29.5033 28.8614 29.6434 28.8685 29.7835C28.8685 30.9115 28.8757 32.0396 28.8685 33.1677C28.8685 33.4773 28.8614 33.7575 29.2256 33.8607C29.2399 33.8681 29.2471 33.8976 29.2613 33.9197C29.0114 34.1999 28.5329 34.2294 28.0758 33.9787C28.3757 33.6174 28.2829 33.1824 28.2829 32.7622C28.29 31.9659 28.2829 31.1696 28.29 30.3733C28.29 30.1374 28.2686 29.9309 28.0186 29.8425C27.9901 29.8277 27.9758 29.7761 27.9258 29.695Z" fill="black"/>
<path d="M39.2684 29.4013C39.2756 29.6446 39.2898 29.8584 39.297 30.0796C39.297 31.1118 39.3041 32.1441 39.297 33.1763C39.297 33.4712 39.297 33.744 39.6255 33.8546C39.6469 33.862 39.6612 33.9136 39.6755 33.9504C39.3327 34.2085 38.9685 34.2159 38.5257 33.9873C38.5257 33.9652 38.5185 33.9283 38.5257 33.9209C38.7685 33.7219 38.7828 33.4491 38.7756 33.1615C38.7685 32.2989 38.7685 31.4436 38.7756 30.581C38.7756 30.264 38.7471 29.9912 38.4328 29.8437C38.4042 29.829 38.3971 29.7847 38.3828 29.7552C38.5756 29.5488 38.9685 29.3866 39.2684 29.4013Z" fill="black"/>
<path d="M29.4342 31.8343C29.3414 31.768 29.2771 31.7163 29.1914 31.6426C29.37 31.3182 29.5699 31.0307 29.927 30.8242C29.9913 31.0085 30.0413 31.1634 30.1056 31.333C30.3698 31.3477 30.6412 31.3624 30.9126 31.3772C30.8055 31.7311 30.7912 31.7385 30.527 31.7532C30.377 31.7606 30.227 31.7532 30.0913 31.7532C30.0556 31.8343 30.027 31.8638 30.027 31.9007C30.0413 32.4241 30.0413 32.9476 30.0699 33.4785C30.0842 33.7292 30.1699 33.7881 30.4198 33.7881C30.5912 33.7881 30.7626 33.7587 31.0126 33.7365C30.8126 34.0241 30.5841 34.1273 30.3341 34.1789C29.8985 34.2674 29.5057 34.0093 29.4842 33.5743C29.4699 33.3826 29.4485 33.1836 29.4414 32.9919C29.4342 32.6085 29.4342 32.2251 29.4342 31.8343Z" fill="black"/>
<path d="M14.0476 33.7282C14.1476 33.8019 14.2476 33.8756 14.3762 33.9789C13.9334 34.1927 13.5548 34.1927 13.1406 34.001C13.5263 33.3522 13.3049 32.6591 13.3691 32.0029C13.212 31.885 13.0763 31.7891 12.8906 31.649C13.2263 31.5016 13.5048 31.3836 13.7977 31.2656C13.8548 31.391 13.8905 31.4794 13.9262 31.5679C13.9619 31.5605 13.9976 31.5679 14.0262 31.5532C14.1262 31.4942 14.219 31.4057 14.3262 31.3688C14.5119 31.3025 14.6833 31.3467 14.8118 31.5016C14.9547 31.6785 14.8332 31.8186 14.7333 31.9513C14.519 31.9292 14.3119 31.8997 14.1476 31.885C13.9262 32.0766 13.8691 32.2757 13.8834 32.5117C13.9119 32.9098 13.9405 33.3153 13.9691 33.7134C13.9976 33.7134 14.0191 33.7208 14.0476 33.7282Z" fill="black"/>
</svg>
