<svg width="49" height="49" viewBox="0 0 49 49" fill="none" xmlns="http://www.w3.org/2000/svg">
<rect width="49" height="49" rx="5" fill="white"/>
<path d="M24.5857 22.0275C23.6852 22.0275 23.1787 21.5363 23.1787 20.7504V20.7111C23.3475 20.7111 23.6665 20.7308 23.854 20.7308C25.4861 20.7308 26.3115 20.2003 26.3115 19.0411C26.3303 18.0587 25.6362 17.3907 24.1354 17.3907C22.3158 17.3907 21.6029 18.2356 21.4341 19.7484C21.1714 19.7288 20.8713 19.7288 20.4961 19.7288C20.4961 19.6502 20.4961 19.5716 20.4961 19.4733C20.4961 17.9409 19.8958 17.3711 18.2637 17.3711C17.4758 17.3711 16.7817 17.489 16.3503 17.6658L16.4065 18.8839C16.7817 18.6875 17.3257 18.4713 17.851 18.4713C18.6014 18.4713 18.8077 18.7857 18.8077 19.5519V19.6698C18.7515 19.6698 18.6202 19.6698 18.5451 19.6698C16.7067 19.6698 15.8438 20.2592 15.8438 21.3398C15.8438 22.4597 16.369 23.1081 17.8885 23.1081C18.6764 23.1081 19.4831 22.9902 20.4961 22.9902C20.4211 22.5383 20.4211 21.8899 20.4211 21.4577C20.4211 21.2219 20.4398 20.9469 20.4398 20.6325C20.8713 20.6325 21.1902 20.6522 21.3966 20.6522C21.5842 22.499 22.4846 23.167 24.323 23.167C24.9984 23.167 25.6925 23.0491 26.0677 22.8723L26.0114 21.6345C25.6362 21.8507 25.1485 22.0275 24.5857 22.0275ZM18.32 22.0864C17.7572 22.0864 17.5133 21.8899 17.5133 21.3988C17.5133 20.9272 17.8135 20.6522 18.5826 20.6522C18.6577 20.6522 18.7327 20.6522 18.8077 20.6522C18.8077 21.1041 18.789 21.6542 18.8265 22.0275C18.6764 22.0668 18.4888 22.0864 18.32 22.0864ZM23.1787 19.7484C23.1787 18.9822 23.4038 18.4124 24.0792 18.4124C24.4543 18.4124 24.6982 18.6285 24.6982 19.0018C24.6982 19.5323 24.3606 19.7877 23.6477 19.7877C23.4789 19.7877 23.2913 19.7877 23.1599 19.7681V19.7484H23.1787Z" fill="#7D3F98"/>
<path d="M29.6593 21.9329C29.1153 21.9329 28.9465 21.7168 28.9465 20.8719V18.75H30.0157V17.5712H28.9652C28.9652 17.1586 29.0027 16.5299 29.0215 16.0977H28.0272C27.8959 17.139 27.6145 17.6694 26.6953 17.8266C26.6953 18.1017 26.7141 18.4946 26.6953 18.75H27.2956C27.2769 19.3394 27.2769 20.42 27.2769 21.4024C27.2769 22.6598 27.8959 23.1706 29.059 23.1706C29.6218 23.1706 30.0345 23.0921 30.1846 23.0331L30.1095 21.815C30.0345 21.8936 29.8281 21.9329 29.6593 21.9329Z" fill="#7D3F98"/>
<path d="M40.925 21.5224C40.925 21.0312 40.9812 20.3239 40.9812 19.4987C40.9812 17.9663 40.3809 17.3965 38.7489 17.3965C37.961 17.3965 37.2669 17.5144 36.8354 17.6912L36.8917 18.9093C37.2669 18.7128 37.8109 18.4967 38.3362 18.4967C39.0865 18.4967 39.3117 18.8111 39.3117 19.5773V19.6952C39.2554 19.6952 39.1241 19.6952 39.049 19.6952C37.2106 19.6952 36.3477 20.2846 36.3477 21.3652C36.3477 22.4851 36.8729 23.1335 38.3924 23.1335C39.1803 23.1335 39.987 23.0156 41 23.0156C40.925 22.603 40.925 21.9546 40.925 21.5224ZM38.7864 22.0922C38.2236 22.0922 37.9797 21.8957 37.9797 21.4045C37.9797 20.933 38.2799 20.6579 39.049 20.6579C39.1241 20.6579 39.1991 20.6579 39.2741 20.6579C39.2741 21.1098 39.2554 21.6599 39.2929 22.0332C39.1616 22.0725 38.9552 22.0922 38.7864 22.0922Z" fill="#7D3F98"/>
<path d="M35.7079 20.5084C35.7079 20.0369 35.7267 19.4278 35.7267 19.4278C35.7267 18.0329 35.1451 17.4238 33.4943 17.4238C32.5751 17.4238 31.9185 17.6007 30.8867 17.6007C30.943 18.583 30.943 19.7815 30.943 20.5281C30.943 21.2943 30.9242 22.65 30.8867 23.0822H32.6501C32.6126 22.65 32.5751 21.3729 32.5751 20.5281C32.5751 20.0369 32.5751 19.4475 32.5938 18.6616C32.7627 18.6027 32.9878 18.5437 33.2317 18.5437C33.8507 18.5437 34.0571 18.8581 34.0571 19.6833C34.0571 19.6833 34.0758 20.2137 34.0758 20.5084C34.0758 21.2747 34.0571 22.6303 34.0196 23.0626H35.7829C35.7454 22.6107 35.7079 21.3533 35.7079 20.5084Z" fill="#7D3F98"/>
<path d="M13.8061 17.1421C13.6372 16.985 13.4121 16.8867 13.2058 16.8867C12.9994 16.8867 12.7743 16.9653 12.6055 17.1421L11.63 18.1638L10.6357 17.1618C10.4856 16.985 10.2605 16.8867 10.0542 16.8867C9.84781 16.8867 9.62269 16.985 9.45386 17.1421L8.25325 18.3996C7.91558 18.7532 7.91558 19.3033 8.25325 19.657L11.63 23.1738L14.9879 19.657C15.3256 19.3033 15.3256 18.7532 14.9879 18.3996L13.8061 17.1421Z" fill="#7D3F98"/>
<g clip-path="url(#clip0_879_579)">
<path d="M27.6172 31.0432C27.6568 30.7015 27.6693 30.354 27.7399 30.0201C27.9925 28.8247 28.7617 28.1068 29.893 28.016C30.2294 27.9889 30.5783 27.9925 30.9095 28.0561C31.8271 28.2327 32.3825 28.8611 32.6134 29.8213C32.7789 30.5091 32.7921 31.2112 32.6536 31.9083C32.3897 33.2339 31.6536 33.9167 30.3989 33.9767C30.0625 33.9932 29.7149 33.9653 29.385 33.8909C28.356 33.6564 27.7438 32.8221 27.6594 31.583C27.6475 31.4057 27.6574 31.2262 27.6574 31.0475C27.6442 31.0461 27.6304 31.0454 27.6172 31.0439V31.0432ZM31.2505 31.0997C31.2103 30.3182 31.1925 29.7234 31.147 29.1314C31.0935 28.4457 30.7538 28.0768 30.207 28.0725C29.6186 28.0675 29.2432 28.4886 29.2076 29.2758C29.166 30.2017 29.1548 31.1304 29.1588 32.0578C29.1601 32.4109 29.2155 32.7699 29.2907 33.1145C29.4042 33.6357 29.7426 33.8974 30.2235 33.8881C30.6931 33.8795 31.0032 33.6278 31.0777 33.0787C31.174 32.3638 31.2063 31.6388 31.2512 31.0997H31.2505Z" fill="#7D3F98"/>
<path d="M37.6504 33.9071C37.3239 33.9071 37.0277 33.9307 36.7388 33.8935C36.6451 33.8814 36.5455 33.7234 36.4888 33.609C35.7124 32.0353 34.9426 30.4567 34.1708 28.8802C34.1127 28.7615 34.0474 28.6478 33.9175 28.557V33.7863C34.0395 33.8063 34.1503 33.8249 34.2612 33.8435C34.2598 33.8578 34.2592 33.8721 34.2579 33.8871H33.4062C33.7479 33.8807 33.7796 33.6597 33.7776 33.3523C33.7664 31.7565 33.7684 30.16 33.7763 28.5634C33.7776 28.2875 33.7512 28.0794 33.428 28.0887C34.0514 28.0887 34.6754 28.0773 35.2981 28.1009C35.3878 28.1044 35.5006 28.2582 35.5554 28.3697C36.1266 29.5358 36.688 30.7083 37.2533 31.878C37.3081 31.991 37.3694 32.1004 37.5066 32.2019C37.5159 32.0968 37.5323 31.9917 37.5323 31.8866C37.5343 30.767 37.5271 29.6473 37.5383 28.5277C37.5409 28.2439 37.471 28.0923 37.1887 28.103H38.0007C37.8925 28.1438 37.7401 28.1516 37.686 28.2353C37.6267 28.3254 37.6504 28.4862 37.6504 28.6156C37.6498 30.2358 37.6504 31.8559 37.6511 33.476C37.6511 33.604 37.6511 33.7319 37.6511 33.9078L37.6504 33.9071Z" fill="#7D3F98"/>
<path d="M23.7788 28.2159V29.6437C23.5103 29.2705 23.2702 28.8944 22.9898 28.5569C22.6409 28.1365 22.1976 27.9749 21.6771 28.1265C21.3058 28.2345 21.061 28.5147 21.0241 28.8837C20.9852 29.2676 21.1217 29.5336 21.4964 29.7345C21.7114 29.8496 21.9417 29.9332 22.1699 30.0162C22.4192 30.107 22.6778 30.1677 22.9259 30.2635C23.9127 30.6425 24.2847 31.3303 24.1185 32.4521C23.9859 33.3486 23.2735 33.9899 22.346 33.9749C21.8678 33.9671 21.3915 33.8377 20.9126 33.7862C20.7398 33.7676 20.561 33.8169 20.3242 33.8419C20.3242 33.6232 20.3295 33.3193 20.3229 33.0162C20.3163 32.723 20.2958 32.4306 20.3447 32.1089C20.4014 32.199 20.4495 32.2962 20.5155 32.3777C20.84 32.7781 21.1349 33.2156 21.505 33.5595C21.9021 33.9285 22.3955 34.0057 22.8975 33.7654C23.1917 33.6246 23.3665 33.3858 23.3909 33.0269C23.4153 32.6637 23.317 32.3455 23.0169 32.1768C22.689 31.9916 22.3328 31.8636 21.9872 31.7156C21.6923 31.5891 21.377 31.504 21.1013 31.3417C20.4337 30.9478 20.1738 30.2278 20.3433 29.3534C20.4746 28.6756 21.0333 28.0765 21.7009 28.0393C22.2068 28.0114 22.72 28.1322 23.2299 28.183C23.3935 28.1994 23.5578 28.2037 23.7801 28.2173L23.7788 28.2159Z" fill="#7D3F98"/>
<path d="M12 28.0918H14.2039C14.2052 28.1025 14.2059 28.1132 14.2072 28.1233C14.0667 28.1411 13.9268 28.1597 13.7369 28.184C14.1788 29.6097 14.6096 30.9989 15.0403 32.3873C15.0713 32.3902 15.1023 32.393 15.1327 32.3966C15.5792 31.0067 16.0265 29.6168 16.4915 28.169C16.2725 28.1547 16.107 28.1433 15.9407 28.1325C15.9407 28.1197 15.9421 28.1075 15.9427 28.0947H16.8075C16.7257 28.2155 16.5753 28.3592 16.5166 28.5379C15.9572 30.2388 15.4124 31.9455 14.8668 33.6521C14.8028 33.8516 14.7514 34.0081 14.4948 33.9989C14.254 33.9903 14.1313 33.9309 14.0429 33.6657C13.4671 31.9319 12.8754 30.2052 12.2771 28.4815C12.2223 28.3249 12.0818 28.2033 12 28.0918Z" fill="#7D3F98"/>
<path d="M26.6377 33.792C26.7591 33.8092 26.8561 33.8221 26.9531 33.8356V33.8743H24.8204C24.8178 33.8628 24.8151 33.8514 24.8125 33.8399C24.9121 33.8264 25.0111 33.8128 25.1351 33.7956V28.1838C25.0322 28.1631 24.9312 28.1424 24.8303 28.1216C24.8316 28.1123 24.8323 28.103 24.8336 28.0938H26.9346C26.9359 28.1023 26.9379 28.1116 26.9392 28.1202C26.8442 28.1402 26.7486 28.1602 26.6384 28.1831V33.792H26.6377Z" fill="#7D3F98"/>
<path d="M17.4052 28.0936H19.5412L19.5438 28.1222C19.4389 28.1394 19.334 28.1558 19.2041 28.1773V33.7848C19.3096 33.8041 19.4046 33.8212 19.5003 33.8384C19.5003 33.8505 19.5003 33.8627 19.5003 33.8748H17.3828C17.7845 33.8934 17.7535 33.5989 17.7522 33.2979C17.7456 31.7249 17.7463 30.1527 17.7522 28.5798C17.7535 28.2995 17.7489 28.0564 17.4059 28.0936H17.4052Z" fill="#7D3F98"/>
</g>
<defs>
<clipPath id="clip0_879_579">
<rect width="26" height="6" fill="white" transform="translate(12 28)"/>
</clipPath>
</defs>
</svg>
