<svg width="49" height="49" viewBox="0 0 49 49" fill="none" xmlns="http://www.w3.org/2000/svg">
<rect width="49" height="49" rx="5" fill="white"/>
<path d="M15.9055 37.1134C15.9055 37.3773 15.7155 37.5782 15.4542 37.5782C15.193 37.5782 15 37.3693 15 37.1134C15 36.8575 15.1989 36.6426 15.4542 36.6426C15.7095 36.6426 15.9055 36.8555 15.9055 37.1134ZM15.0871 37.1134C15.0871 37.3223 15.2454 37.4973 15.4542 37.4973C15.663 37.4973 15.8214 37.3313 15.8214 37.1134C15.8214 36.8955 15.661 36.7255 15.4542 36.7255C15.2474 36.7255 15.0871 36.9005 15.0871 37.1134ZM15.2791 36.8595H15.4651C15.5373 36.8595 15.6492 36.8805 15.6492 37.0045C15.6492 37.0984 15.5799 37.1324 15.5166 37.1404L15.6789 37.3583H15.573L15.4186 37.1454H15.3701V37.3583H15.2791V36.8595ZM15.3701 36.9385V37.0724H15.4611C15.5096 37.0724 15.5542 37.0634 15.5542 37.0045C15.5542 36.9455 15.5096 36.9385 15.4611 36.9385H15.3701ZM24.7741 37.1134C24.7741 37.3773 24.5841 37.5782 24.3229 37.5782C24.0616 37.5782 23.8686 37.3693 23.8686 37.1134C23.8686 36.8575 24.0676 36.6426 24.3229 36.6426C24.5782 36.6426 24.7741 36.8555 24.7741 37.1134ZM23.9557 37.1134C23.9557 37.3223 24.1141 37.4973 24.3229 37.4973C24.5317 37.4973 24.69 37.3313 24.69 37.1134C24.69 36.8955 24.5297 36.7255 24.3229 36.7255C24.116 36.7255 23.9557 36.9005 23.9557 37.1134ZM24.1477 36.8595H24.3337C24.406 36.8595 24.5178 36.8805 24.5178 37.0045C24.5178 37.0984 24.4485 37.1324 24.3852 37.1404L24.5475 37.3583H24.4416L24.2872 37.1454H24.2387V37.3583H24.1477V36.8595ZM24.2387 36.9385V37.0724H24.3298C24.3783 37.0724 24.4228 37.0634 24.4228 37.0045C24.4228 36.9455 24.3783 36.9385 24.3298 36.9385H24.2387ZM32.6749 37.1134C32.6749 37.3773 32.4849 37.5782 32.2237 37.5782C31.9624 37.5782 31.7695 37.3693 31.7695 37.1134C31.7695 36.8575 31.9684 36.6426 32.2237 36.6426C32.479 36.6426 32.6749 36.8555 32.6749 37.1134ZM31.8566 37.1134C31.8566 37.3223 32.0149 37.4973 32.2237 37.4973C32.4325 37.4973 32.5908 37.3313 32.5908 37.1134C32.5908 36.8955 32.4305 36.7255 32.2237 36.7255C32.0169 36.7255 31.8566 36.9005 31.8566 37.1134ZM32.0485 36.8595H32.2346C32.3068 36.8595 32.4186 36.8805 32.4186 37.0045C32.4186 37.0984 32.3494 37.1324 32.286 37.1404L32.4483 37.3583H32.3424L32.1881 37.1454H32.1396V37.3583H32.0485V36.8595ZM32.1396 36.9385V37.0724H32.2306C32.2791 37.0724 32.3236 37.0634 32.3236 37.0045C32.3236 36.9455 32.2791 36.9385 32.2306 36.9385H32.1396Z" fill="#1355E9"/>
<path d="M33.494 31.4601C33.494 34.2252 31.9572 36.0765 31.5782 36.4824C31.2002 36.8882 30.4491 37.515 30.1591 37.578C29.8682 37.515 29.1181 36.8882 28.7401 36.4824C28.361 36.0765 26.8242 34.2252 26.8242 31.4601C26.8242 30.4205 27.0162 29.5758 27.3438 29C28.1602 29.4378 28.9736 29.6598 30.1591 29.6598C31.3446 29.6598 32.1581 29.4378 32.9745 29C33.302 29.5748 33.494 30.4205 33.494 31.4601Z" fill="#1355E9"/>
<path d="M32.8953 31.435C32.8953 30.9022 32.8131 30.1285 32.6301 29.8496L32.5994 29.8676C32.1016 30.1345 31.1754 30.3664 30.1591 30.3664C29.1428 30.3664 28.1848 30.1165 27.6871 29.8496C27.504 30.1285 27.4219 30.9022 27.4219 31.435C27.4219 33.9292 28.7064 35.5306 28.8815 35.7455C29.118 36.0374 29.9997 36.8381 30.1591 36.8761C30.3174 36.8381 31.1991 36.0374 31.4366 35.7455C31.6108 35.5296 32.8953 33.9292 32.8953 31.435ZM32.4777 30.2565C32.6419 30.5074 32.6756 31.1541 32.6617 31.633C32.5905 34.1061 31.4683 35.3187 31.3099 35.5136C31.0972 35.7765 30.3026 36.5273 30.1591 36.5652C30.0146 36.5273 29.2199 35.7765 29.0062 35.5136C28.8479 35.3187 27.7267 34.1061 27.6554 31.634C27.6416 31.1541 27.6742 30.5074 27.8385 30.2575C28.2878 30.4974 29.2417 30.6343 30.1581 30.6343C31.0715 30.6343 32.0274 30.4984 32.4767 30.2575L32.4777 30.2565ZM29.9651 35.6106L29.9602 35.3757C29.8533 35.4176 29.7682 35.5786 29.7692 35.7105C29.7692 35.7355 29.7761 35.8385 29.8246 35.8645C29.8424 35.8735 29.8562 35.8645 29.8642 35.8515C29.8998 35.7975 29.8919 35.6736 29.9651 35.6106ZM30.2165 35.1397C30.1947 35.1118 30.1492 35.0688 30.0769 35.0478C30.0314 35.0338 30.0314 35.0378 29.9918 35.0228C30.0007 35.2437 30.0116 35.5106 30.0146 35.6676C30.0185 35.8215 30.0235 36.0114 30.0235 36.0464C30.1116 36.1074 30.2224 36.0564 30.2224 36.0564C30.2244 36.0314 30.2442 35.7905 30.2491 35.5296C30.2501 35.4226 30.262 35.1847 30.2165 35.1387V35.1397ZM30.3431 34.7619C30.3026 34.7449 30.1986 34.7049 30.1492 34.6839C30.0858 34.6569 29.975 34.5999 29.9305 34.5839C29.8889 34.5699 29.8196 34.5599 29.9097 34.512C29.9067 34.445 29.8988 34.399 29.8958 34.348C29.8958 34.307 29.8889 34.2581 29.8849 34.2091C29.5208 34.2121 29.3743 34.7769 29.9681 34.9268C30.0552 34.9488 30.0819 34.9578 30.1175 34.9758C30.1828 35.0108 30.2085 35.0318 30.2392 35.0608C30.2768 35.0968 30.2996 35.1447 30.2996 35.2087V35.4966C30.641 35.3167 30.6746 34.9078 30.3431 34.7619ZM30.2659 34.303C30.2659 34.2561 30.2719 34.1931 30.2748 34.1451C30.2758 34.1221 30.2709 34.0491 30.2719 34.0311C30.2125 34.0151 30.2115 34.0311 30.0928 34.0191C30.0284 34.0121 29.9997 34.0041 29.9463 34.0011C29.9443 34.0451 29.9483 34.1681 29.9512 34.2061L29.9592 34.335V34.436C29.9592 34.448 29.9611 34.504 29.9621 34.517C30.0047 34.54 30.0423 34.5769 30.1116 34.6049C30.1601 34.6229 30.2234 34.6539 30.2699 34.6609C30.2699 34.6169 30.2679 34.522 30.2699 34.476C30.2709 34.389 30.2649 34.392 30.2669 34.303H30.2659ZM30.351 33.5713C30.26 33.5513 30.2115 33.5403 30.1848 33.5373C30.0265 33.5173 29.978 33.5203 29.8464 33.5113L29.7642 33.3194L29.6712 33.0895C29.3644 33.2094 29.3298 33.8212 29.8048 33.9132C30.0096 33.9532 30.071 33.9492 30.1333 33.9562C30.2521 33.9692 30.3817 33.9562 30.4164 34.0081C30.4797 34.1001 30.3926 34.1171 30.351 34.1651C30.3372 34.2001 30.3372 34.2161 30.3342 34.266C30.3263 34.346 30.3243 34.426 30.3233 34.501C30.8349 34.449 30.9864 33.7082 30.351 33.5713ZM29.7929 33.2124L29.8968 33.4493L30.2689 33.4843V32.7576L29.8454 32.7246L29.694 32.9695L29.7929 33.2124ZM30.4025 32.2977C30.3679 32.2897 30.3352 32.2768 30.2976 32.2668C30.2115 32.2448 30.1145 32.2278 30.0086 32.2158C29.9047 32.2078 29.8087 32.1798 29.7306 32.1638C29.1665 32.0488 29.2417 31.8019 29.2764 31.687C29.3714 31.7219 29.4594 31.7439 29.5544 31.7559C29.6653 31.7699 29.784 31.7739 29.8879 31.7269C29.7949 31.646 29.5693 31.609 29.501 31.546C29.501 31.546 29.6237 31.53 29.8295 31.554C29.9324 31.566 30.0621 31.506 30.0621 31.506C29.9859 31.3211 29.7444 31.1492 29.2971 31.2241C28.6816 31.3271 28.4956 32.4817 29.7612 32.6476C29.8355 32.6576 29.9799 32.6676 30.0641 32.6766C30.1957 32.6886 30.257 32.6886 30.3342 32.7036C30.3877 32.7136 30.5311 32.9235 30.3342 32.9445C30.3342 32.9445 30.3016 33.1674 30.358 33.4084C30.9497 33.4173 31.1971 32.4937 30.4025 32.2987V32.2977ZM30.733 31.3181C30.6677 31.3621 30.4698 31.542 30.3926 31.58C30.352 31.601 30.3609 31.2091 30.3609 31.2091C30.3639 31.1771 30.262 31.1102 30.1531 31.0652C30.1403 31.0582 30.1224 31.0372 30.0908 31.0222C29.9226 30.9672 29.8305 30.9312 29.8355 31.0942C29.8365 31.1202 29.8246 31.1531 29.8543 31.2031C29.8543 31.2031 30.0166 31.2831 30.0878 31.4211C30.1304 31.503 30.1422 31.553 30.1422 31.553C30.1422 31.553 30.1066 31.583 30.0027 31.598C30.0819 31.624 30.1492 31.657 30.2125 31.669L30.2719 31.7339C30.2254 31.7389 30.1007 31.7219 29.9641 31.677L29.9849 31.7399C29.9305 31.7849 29.9057 31.7969 29.8127 31.8069C29.8078 31.9129 29.8147 32.0288 29.8305 32.1248L30.2887 32.2018C30.3253 32.1798 30.3659 32.0978 30.3708 32.0928C30.453 32.0048 30.6083 31.8389 30.9359 31.518C31.0596 31.3961 30.8646 31.2281 30.734 31.3171L30.733 31.3181ZM29.6692 31.3651C29.5999 31.3221 29.5564 31.3141 29.5564 31.3141C29.5564 31.3141 29.6959 31.2651 29.8177 31.3311C29.8177 31.3311 29.7989 31.3891 29.7583 31.3941C29.7207 31.3991 29.6959 31.3811 29.6702 31.3651H29.6692Z" fill="white"/>
<path d="M25.6882 35.2019H23.338L23.339 37.5771H19.5973V35.2019H17.2461V31.4142H19.5973V29.0391H23.338V31.4142H25.6882V35.2019Z" fill="#1355E9"/>
<path d="M19.3749 32.3156H20.9305C21.0849 32.3166 21.2086 32.2716 21.2808 32.1956C21.3729 32.1007 21.3798 31.9577 21.2531 31.8008C21.0285 31.5229 21.2224 31.257 21.459 31.266C21.6945 31.276 21.8894 31.5229 21.6658 31.8008C21.5381 31.9577 21.5451 32.0997 21.6381 32.1956C21.7093 32.2706 21.834 32.3166 21.9884 32.3166H23.5846C23.4164 31.9487 23.3639 31.8508 23.0749 31.5989C22.692 31.264 21.9785 30.9551 21.4778 30.9551C20.8375 30.9551 20.2586 31.218 19.839 31.6418C19.647 31.8358 19.4897 32.0637 19.3739 32.3156H19.3749ZM20.028 35.1226C20.1765 34.8407 20.8246 33.6201 21.0275 33.2373C21.2521 32.8114 21.0067 32.6335 20.6752 32.6135C20.3655 32.5955 19.8618 32.5115 19.2967 32.4985C19.2086 32.7464 19.1602 33.0174 19.1602 33.2963C19.1602 34.034 19.4986 34.6928 20.028 35.1226ZM22.7642 35.2446C22.7642 35.2446 21.7222 33.7221 21.6648 33.6231C21.6054 33.5252 21.5559 33.4642 21.458 33.4642C21.36 33.4642 21.3105 33.5242 21.2521 33.6231C21.2007 33.7101 20.3615 34.9417 20.1666 35.2276C20.5396 35.4875 20.9909 35.6374 21.4778 35.6374C21.9646 35.6374 22.3971 35.4925 22.7642 35.2446ZM23.7954 33.2963C23.7954 33.0144 23.7469 32.7444 23.6568 32.4945C23.0769 32.5045 22.5584 32.5945 22.2427 32.6135C21.9092 32.6335 21.6648 32.8124 21.8884 33.2373C22.1151 33.6621 22.8681 35.0866 22.8978 35.1466C23.4441 34.7177 23.7954 34.049 23.7954 33.2973V33.2963Z" fill="white"/>
<path d="M21 32.0107H19.9323C20.1678 31.6938 20.5102 31.4559 20.8724 31.377C20.7546 31.7918 21 31.8218 21 32.0107ZM22.9901 32.0107C22.7209 31.7388 22.4122 31.4559 22.049 31.377C22.1667 31.7928 21.9213 31.8228 21.9213 32.0107H22.9901ZM21.4612 33.9111C21.3929 33.9111 20.6289 35.1296 20.6289 35.1296C20.8536 35.2476 21.1386 35.3076 21.4612 35.3076C21.7838 35.3076 22.0688 35.2486 22.2944 35.1296C22.2944 35.1296 21.5294 33.9111 21.4612 33.9111ZM22.2746 32.9314C22.1875 32.9414 22.1083 32.9504 22.1875 33.0993C22.2647 33.2473 22.9802 34.6128 22.9802 34.6128C23.3325 34.168 23.5581 33.6132 23.4215 32.8414C23.4215 32.8414 22.3439 32.9304 22.2746 32.9304V32.9314ZM20.6477 32.9314C20.5794 32.9314 19.5018 32.8424 19.5018 32.8424C19.3642 33.6142 19.5899 34.169 19.9422 34.6138C19.9422 34.6138 20.6576 33.2483 20.7368 33.1003C20.814 32.9514 20.7368 32.9414 20.6477 32.9324V32.9314Z" fill="#1355E9"/>
<path d="M12.1726 24.1327H9.0712L8.45073 25.7432H7L9.84604 18.5727H11.4739L14.3318 25.7442H12.792L12.1716 24.1337L12.1726 24.1327ZM11.7074 22.8912L10.6219 20.0612L9.5363 22.8912H11.7065H11.7074ZM14.883 20.385H16.2338V21.1458C16.5109 20.575 17.0423 20.2391 17.74 20.2391C18.9581 20.2391 19.7448 21.1008 19.7448 22.4993V25.7442H18.3941V22.7012C18.3941 21.9735 17.9844 21.5147 17.3194 21.5147C16.6544 21.5147 16.2338 21.9735 16.2338 22.7012V25.7442H14.883V20.385ZM20.2436 20.385H21.1738V18.9975H22.5473V20.385H23.9654V21.5926H22.5473V23.8748C22.5473 24.3776 22.7472 24.6126 23.1451 24.6126C23.3994 24.6126 23.6438 24.5006 23.7764 24.3447L24.3751 25.3623C24.0871 25.6532 23.5884 25.8881 22.9353 25.8881C21.8616 25.8881 21.1748 25.2173 21.1748 23.9078V21.5916H20.2446V20.3841L20.2436 20.385ZM25.0332 18.0469H26.384V21.1458C26.661 20.575 27.1925 20.2391 27.8901 20.2391C29.1083 20.2391 29.895 21.1008 29.895 22.4993V25.7442H28.5442V22.7012C28.5442 21.9735 28.1345 21.5147 27.4695 21.5147C26.8045 21.5147 26.384 21.9735 26.384 22.7012V25.7442H25.0332V18.0469ZM30.6273 23.0591C30.6273 21.5037 31.7683 20.2401 33.2962 20.2401C34.8241 20.2401 35.976 21.4147 35.976 22.9591C35.976 23.1381 35.9651 23.351 35.9424 23.44H32.0107C32.1542 24.1787 32.7084 24.6925 33.5169 24.6925C34.0592 24.6925 34.5134 24.4576 34.8241 24.1337L35.5218 25.0734C35.1121 25.5322 34.359 25.8901 33.4733 25.8901C31.8227 25.8901 30.6273 24.6256 30.6273 23.0601V23.0591ZM32.0454 22.4883H34.5817C34.4154 21.7726 33.9394 21.3917 33.319 21.3917C32.6985 21.3917 32.2116 21.8395 32.0454 22.4883ZM36.7311 25.7442V20.385H38.0818V21.2018C38.3589 20.62 38.8794 20.2391 39.5771 20.2391C40.3856 20.2391 41.0061 20.642 41.3158 21.3577C41.5929 20.7199 42.1025 20.2391 42.9437 20.2391C44.1727 20.2391 44.9812 21.0668 44.9812 22.4993V25.7442H43.6186V22.7012C43.6186 21.9735 43.2198 21.5147 42.5775 21.5147C41.9353 21.5147 41.5256 21.9735 41.5256 22.7012V25.7442H40.1748V22.7012C40.1748 21.9735 39.776 21.5147 39.1338 21.5147C38.4915 21.5147 38.0818 21.9735 38.0818 22.7012V25.7442H36.7311Z" fill="#1355E9"/>
</svg>
