<svg width="49" height="49" viewBox="0 0 49 49" fill="none" xmlns="http://www.w3.org/2000/svg">
<rect width="49" height="49" rx="5" fill="white"/>
<path d="M3 24.0438C3.52924 24.0438 4.06211 24.0403 4.59135 24.0474C4.73997 24.0474 4.89222 24.0649 5.03722 24.0895C5.54108 24.1808 5.8492 24.4689 5.95795 24.9571C6.02682 25.2768 6.02682 25.5929 5.9217 25.9056C5.8347 26.162 5.68608 26.3622 5.43233 26.4852C5.41058 26.4957 5.39246 26.5098 5.35621 26.5343C5.38883 26.5519 5.41058 26.5695 5.43596 26.5765C5.80208 26.717 6.01595 26.9769 6.10295 27.3458C6.20445 27.7814 6.1682 28.2029 5.97607 28.6068C5.79483 28.9862 5.47221 29.1935 5.05896 29.2742C4.91759 29.3024 4.77259 29.3094 4.6276 29.3129C4.08386 29.3164 3.54012 29.3129 3 29.3129C3 27.5565 3 25.8002 3 24.0438ZM4.00411 26.9664C3.96061 27.1772 3.97148 28.375 4.01498 28.5015C4.18173 28.5015 4.34848 28.512 4.51885 28.4979C4.80884 28.4734 5.02997 28.2907 5.07709 28.0097C5.10609 27.8376 5.11334 27.6584 5.08796 27.4863C5.05172 27.265 4.93209 27.0753 4.69647 26.998C4.47172 26.9313 4.2361 26.9629 4.00411 26.9664ZM4.00411 24.8588C3.96423 25.0766 3.97148 26.0566 4.01498 26.1831C4.16723 26.1831 4.32673 26.1936 4.47897 26.1796C4.73997 26.1585 4.93209 26.018 4.96834 25.7897C4.99734 25.614 4.99734 25.4278 4.96834 25.2522C4.93209 25.0485 4.78709 24.9255 4.56597 24.8834C4.3811 24.8483 4.19985 24.8553 4.00411 24.8588Z" fill="#1F77BB"/>
<path d="M8.77721 29.371C8.72283 29.3465 8.67208 29.3219 8.61771 29.2973C8.38934 29.1954 8.25159 29.0233 8.18997 28.7844C8.14647 28.6123 8.12109 28.4437 8.12109 28.2645C8.12472 27.3583 8.12109 26.452 8.12109 25.5457C8.12109 25.4825 8.12109 25.4193 8.12109 25.3631C8.26609 25.3244 8.81346 25.3174 9.05633 25.349C9.05995 25.4122 9.0672 25.479 9.0672 25.5457C9.0672 26.322 9.0672 27.1018 9.07083 27.8781C9.07083 28.0292 9.08895 28.1802 9.10708 28.3313C9.1252 28.4718 9.2557 28.5842 9.40432 28.5947C9.70157 28.6158 9.89006 28.4858 9.92994 28.1275C9.93719 28.0573 9.93356 27.987 9.93356 27.9168C9.93356 27.1264 9.93356 26.3361 9.93356 25.5492C9.93356 25.486 9.93356 25.4228 9.93356 25.3385C10.2598 25.3209 10.5679 25.3244 10.8905 25.335C10.8978 25.4017 10.9087 25.4544 10.9123 25.5036C10.9449 26.7576 10.9232 29.1287 10.8833 29.2692C10.76 29.3078 10.2707 29.3184 9.98431 29.2867C9.97706 29.1743 9.96981 29.0584 9.96256 28.9144C9.92994 28.953 9.91544 28.9671 9.90094 28.9846C9.79582 29.1252 9.66894 29.234 9.49857 29.3008C9.44782 29.3219 9.40432 29.3465 9.35357 29.3675C9.16508 29.371 8.96933 29.371 8.77721 29.371Z" fill="#1F77BB"/>
<path d="M40.9191 29.3699C40.8973 29.3593 40.8792 29.3453 40.8574 29.3383C40.4551 29.2575 40.2013 29.0081 40.0599 28.6463C39.9621 28.3933 39.9149 28.1299 39.9041 27.8594C39.8932 27.6557 39.8678 27.4519 39.8714 27.2482C39.8823 26.8864 39.9077 26.5281 40.0092 26.1768C40.1034 25.8501 40.2738 25.5691 40.5819 25.4005C40.7306 25.3197 40.9046 25.2741 41.0749 25.2424C41.3758 25.1898 41.6767 25.2179 41.963 25.3303C42.282 25.4532 42.4705 25.7026 42.5829 26.0047C42.6808 26.2646 42.7279 26.5351 42.7351 26.8091C42.7424 27.0023 42.7714 27.1955 42.7641 27.3852C42.746 27.747 42.7351 28.1088 42.6228 28.4566C42.5575 28.6638 42.4705 28.8605 42.3147 29.0256C42.166 29.1837 41.9848 29.2785 41.7782 29.3347C41.7455 29.3453 41.7129 29.3593 41.6803 29.3699C41.4265 29.3699 41.1728 29.3699 40.9191 29.3699ZM41.4845 28.6533C41.6005 28.576 41.673 28.4776 41.6984 28.3512C41.731 28.1791 41.7818 28.0069 41.7818 27.8348C41.789 27.3957 41.8217 26.9566 41.7492 26.5211C41.7165 26.3138 41.6875 26.0995 41.4664 25.9696C41.3649 25.9696 41.2598 25.9696 41.1619 25.9696C41.0278 26.0539 40.9517 26.1663 40.9191 26.3033C40.8864 26.4438 40.8538 26.5878 40.8502 26.7318C40.8393 27.0409 40.8429 27.3536 40.8466 27.6627C40.8502 27.8418 40.8574 28.0245 40.8864 28.2037C40.9227 28.439 41.0169 28.6427 41.296 28.6989C41.3613 28.6814 41.4265 28.6673 41.4845 28.6533Z" fill="#1F77BB"/>
<path d="M12.375 29.3676C12.3315 29.3535 12.288 29.3324 12.2445 29.3219C11.9183 29.2306 11.6863 29.0268 11.5413 28.7318C11.4398 28.5245 11.3781 28.3032 11.3636 28.0749C11.3419 27.7482 11.3201 27.4215 11.331 27.0948C11.3383 26.8068 11.36 26.5117 11.4361 26.2307C11.5304 25.8865 11.7116 25.5984 12.027 25.4017C12.2046 25.2893 12.4076 25.2507 12.607 25.2296C12.81 25.205 13.0166 25.2226 13.216 25.2788C13.6147 25.3947 13.8576 25.6617 13.9772 26.0375C14.0316 26.2132 14.0642 26.3993 14.0823 26.5855C14.1077 26.8244 14.1113 27.0632 14.1186 27.3021C14.1222 27.3513 14.1113 27.404 14.1077 27.4742C13.5096 27.4742 12.9187 27.4742 12.3243 27.4742C12.317 27.5304 12.3061 27.5691 12.3061 27.6077C12.3098 27.829 12.2771 28.0538 12.346 28.2681C12.3786 28.3735 12.4294 28.4753 12.4837 28.5702C12.5345 28.658 12.636 28.6791 12.7266 28.6966C13.013 28.6369 13.129 28.5069 13.1725 28.2013C13.1797 28.1627 13.1797 28.1205 13.1906 28.0819C13.1979 28.0468 13.2124 28.0152 13.2269 27.973C13.5024 27.973 13.7779 27.973 14.0751 27.973C14.0642 28.0643 14.057 28.1486 14.0461 28.233C14.0135 28.4543 13.9555 28.665 13.8431 28.8617C13.7054 29.1041 13.4951 29.2411 13.2341 29.3254C13.1906 29.3394 13.1471 29.357 13.1036 29.3711C12.8571 29.3676 12.6179 29.3676 12.375 29.3676ZM12.3134 26.8244C12.6142 26.856 13.071 26.8454 13.2087 26.8033C13.1979 26.6874 13.1906 26.5644 13.1689 26.445C13.1471 26.3326 13.1072 26.2202 13.0674 26.1148C13.0384 26.034 12.9622 25.9883 12.8789 25.9673C12.6432 25.9075 12.4729 26.0129 12.3931 26.171C12.2916 26.3782 12.288 26.596 12.3134 26.8244Z" fill="#1F77BB"/>
<path d="M21.9504 29.365C21.9287 29.3545 21.9106 29.3369 21.8888 29.3334C21.4828 29.2421 21.2327 28.9857 21.0841 28.6204C21.0152 28.4517 20.9898 28.2726 20.9645 28.0935C20.9101 27.679 20.9246 27.2645 20.9391 26.85C20.9536 26.4355 21.0261 26.0245 21.2943 25.6767C21.4756 25.4414 21.7221 25.3079 22.0193 25.2517C22.2984 25.199 22.5703 25.2095 22.8422 25.2833C23.0597 25.343 23.23 25.4624 23.3642 25.6381C23.52 25.8383 23.607 26.0701 23.6469 26.3125C23.7049 26.6638 23.7339 27.0186 23.7267 27.3769C23.7267 27.3979 23.7194 27.4225 23.7122 27.4612C23.5164 27.4787 23.317 27.4682 23.1213 27.4682C22.9147 27.4717 22.7117 27.4682 22.5051 27.4682C22.3057 27.4682 22.1099 27.4682 21.8888 27.4682C21.8779 27.6684 21.8707 27.8511 21.8924 28.0372C21.9069 28.1567 21.9396 28.2796 21.9794 28.392C22.0374 28.5466 22.1426 28.6625 22.3383 28.6871C22.3746 28.6766 22.4253 28.666 22.4688 28.652C22.5667 28.6168 22.6501 28.5571 22.6791 28.4517C22.7262 28.2972 22.7697 28.1391 22.8168 27.9775C22.9292 27.9459 23.4149 27.9389 23.636 27.9705C23.6433 27.9986 23.6578 28.0337 23.6542 28.0653C23.636 28.3534 23.5817 28.6344 23.4149 28.8803C23.2518 29.1262 23.0271 29.2948 22.7189 29.3369C22.7044 29.3405 22.6899 29.3545 22.6754 29.365C22.4326 29.365 22.1933 29.365 21.9504 29.365ZM22.1752 25.9612C22.1172 26.0245 22.0338 26.0877 21.9903 26.172C21.8888 26.3722 21.8562 26.59 21.8924 26.8113C22.0918 26.85 22.6501 26.8429 22.7769 26.8008C22.8023 26.6216 22.7878 26.439 22.7371 26.2669C22.7008 26.1369 22.6392 26.0139 22.4833 25.9612C22.3927 25.9612 22.2948 25.9612 22.1752 25.9612Z" fill="#1F77BB"/>
<path d="M36.1655 29.3662C36.0858 29.3416 36.006 29.3205 35.9263 29.2959C35.5094 29.1659 35.3064 28.8709 35.2593 28.4669C35.2412 28.3194 35.1868 28.1719 35.2448 27.9962C35.5167 27.9892 35.7885 27.9927 36.0785 27.9962C36.1003 28.2456 36.1003 28.495 36.3722 28.6531C36.4592 28.6812 36.5679 28.7093 36.6948 28.6707C36.9231 28.6039 37.0718 28.3861 37.0174 28.1613C36.9811 28.0103 36.9014 27.8943 36.7491 27.8311C36.4882 27.7257 36.2235 27.6239 35.9662 27.5115C35.5384 27.3288 35.2992 27.0056 35.2557 26.556C35.2375 26.3804 35.2593 26.2047 35.31 26.0361C35.4224 25.6638 35.6834 25.4249 36.0532 25.3055C36.4229 25.1896 36.7999 25.1931 37.1733 25.3125C37.5575 25.4355 37.7569 25.7095 37.8294 26.0783C37.8548 26.2153 37.862 26.3523 37.8765 26.4858C37.7388 26.5349 37.2204 26.5455 37.0138 26.5068C36.9993 26.426 36.9811 26.3417 36.9703 26.2539C36.9485 26.0713 36.8434 25.9694 36.6549 25.9518C36.6368 25.9483 36.6186 25.9448 36.6114 25.9413C36.4447 25.9553 36.3105 26.0115 36.2163 26.1556C36.2018 26.2118 36.1837 26.2785 36.1619 26.3698C36.1982 26.4612 36.2453 26.5701 36.2779 26.6544C36.5208 26.8124 36.7745 26.8757 37.0138 26.9705C37.1805 27.0337 37.3473 27.1005 37.4995 27.1988C37.6699 27.3077 37.7931 27.4517 37.8511 27.6309C37.9998 28.0805 37.9853 28.5161 37.7061 28.9201C37.5829 29.0957 37.4234 29.2186 37.2131 29.2854C37.1298 29.3135 37.0464 29.3416 36.9594 29.3697C36.6984 29.3662 36.4302 29.3662 36.1655 29.3662Z" fill="#1F77BB"/>
<path d="M20.4402 24C20.4402 24.2845 20.4402 24.5691 20.4402 24.8676C20.1248 24.8676 19.8276 24.8676 19.5195 24.8676C19.4724 24.7271 19.5014 24.5831 19.4977 24.4391C19.4941 24.2916 19.4977 24.1475 19.4977 24C19.8131 24 20.1248 24 20.4402 24Z" fill="#1F77BB"/>
<path d="M34.7554 24C34.7554 24.2845 34.7554 24.5691 34.7554 24.8676C34.44 24.8676 34.1428 24.8676 33.8347 24.8676C33.7875 24.7271 33.8202 24.5831 33.8129 24.4391C33.8093 24.2916 33.8129 24.1475 33.8129 24C34.1283 24 34.44 24 34.7554 24Z" fill="#1F77BB"/>
<path d="M39.3531 24C39.3531 24.2845 39.3531 24.5691 39.3531 24.8676C39.0377 24.8676 38.7404 24.8676 38.4323 24.8676C38.3852 24.7271 38.4178 24.5831 38.4106 24.4391C38.407 24.2916 38.4106 24.1475 38.4106 24C38.7259 24 39.0377 24 39.3531 24Z" fill="#1F77BB"/>
<path d="M27.8148 29.2685C27.6662 29.3071 26.952 29.3141 26.7309 29.279C26.633 28.8399 26.5787 28.3833 26.4917 27.9336C26.4047 27.4875 26.3394 27.0379 26.2561 26.5918C26.0929 27.4875 25.9624 28.3868 25.8029 29.2895C25.4332 29.2895 25.0852 29.2895 24.7191 29.2895C24.6103 28.9699 24.5813 28.6327 24.5088 28.306C24.4363 27.9828 24.3747 27.6561 24.3095 27.3294C24.2442 26.9993 24.1826 26.6655 24.1173 26.3354C24.0521 26.0087 23.9832 25.6855 23.918 25.3623C24.0666 25.3202 24.7046 25.3167 24.8786 25.3623C24.9438 25.7944 25.0091 26.237 25.0779 26.6796C25.1432 27.1152 25.2084 27.5472 25.3099 27.9828C25.4513 27.1081 25.5927 26.2335 25.7341 25.3623C25.8682 25.3237 26.4881 25.3132 26.7708 25.3448C26.9267 26.2265 27.0753 27.1152 27.2384 28.0039C27.4088 27.1222 27.5212 26.2335 27.6734 25.3588C27.8547 25.3202 28.4346 25.3237 28.5869 25.3588C28.3295 26.6655 28.0685 27.9723 27.8148 29.2685Z" fill="#1F77BB"/>
<path d="M32.433 24.0788C32.5998 24.0331 33.2813 24.0296 33.4408 24.0682C33.448 24.2087 33.1725 25.5436 32.9188 26.6817C32.723 27.5493 32.5527 28.424 32.3678 29.3022C31.9364 29.3022 31.5232 29.3022 31.0918 29.3022C30.7293 27.5704 30.3632 25.8422 30.0007 24.1139C29.9971 24.0999 30.008 24.0823 30.0188 24.0437C30.3523 24.0401 30.6858 24.0401 31.0374 24.0437C31.1426 24.4652 31.1897 24.8867 31.2694 25.3012C31.3492 25.7262 31.4144 26.1513 31.4906 26.5728C31.5631 26.9908 31.6428 27.4088 31.7262 27.869C31.8712 27.2121 31.9654 26.5868 32.0887 25.9686C32.2155 25.3433 32.3207 24.7146 32.433 24.0788Z" fill="#1F77BB"/>
<path d="M18.0213 29.3078C17.6044 29.3078 17.2057 29.3078 16.796 29.3078C16.7779 29.2622 16.7525 29.2165 16.7417 29.1673C16.6293 28.6299 16.5206 28.0959 16.4046 27.5585C16.2668 26.9086 16.1254 26.2588 15.9877 25.609C15.8862 25.1312 15.7883 24.65 15.6868 24.1723C15.6796 24.1406 15.6868 24.1055 15.6868 24.0739C15.8246 24.0388 16.4662 24.0282 16.7272 24.0599C16.9555 25.3209 17.1694 26.596 17.405 27.9027C17.6443 26.5995 17.8799 25.3314 18.1155 24.0528C18.4526 24.0528 18.7753 24.0528 19.1196 24.0528C19.116 24.1196 19.1196 24.1828 19.1088 24.2425C18.9094 25.2015 18.7064 26.1604 18.507 27.1159C18.362 27.8009 18.2206 28.4858 18.072 29.1673C18.0648 29.22 18.0394 29.2657 18.0213 29.3078Z" fill="#1F77BB"/>
<path d="M44.1844 29.29C43.8545 29.29 43.5609 29.29 43.2745 29.29C43.2637 29.2795 43.26 29.2759 43.2564 29.2689C43.2528 29.2654 43.2492 29.2584 43.2492 29.2549C43.2455 28.0043 43.2419 26.7503 43.2383 25.4998C43.2383 25.4541 43.2419 25.4085 43.2455 25.3628C43.3724 25.3206 43.9234 25.3101 44.1409 25.3487C44.1409 25.4647 44.1409 25.5876 44.1409 25.7351C44.2388 25.6298 44.3076 25.5419 44.3874 25.4647C44.7426 25.138 45.4241 25.1274 45.7467 25.4893C45.812 25.563 45.8627 25.6508 45.9026 25.7422C45.9715 25.9038 46.0005 26.0759 46.0005 26.255C46.0005 27.2105 46.0005 28.1624 46.0005 29.1179C46.0005 29.1706 45.9969 29.2197 45.9932 29.2689C45.8555 29.304 45.3226 29.3146 45.0653 29.283C45.0616 29.2197 45.0544 29.153 45.0544 29.0863C45.0544 28.2502 45.0544 27.4107 45.0544 26.5747C45.0544 26.4131 45.0254 26.262 44.9384 26.1251C44.855 26.0653 44.7716 26.0302 44.6665 26.0302C44.449 26.0302 44.2931 26.1321 44.2351 26.3358C44.2061 26.4412 44.188 26.5536 44.188 26.6625C44.1844 27.4704 44.1844 28.2783 44.1844 29.0863C44.1844 29.1495 44.1844 29.2127 44.1844 29.29Z" fill="#1F77BB"/>
<path d="M7.57632 29.3044C7.25007 29.3044 6.94558 29.3044 6.64108 29.3044C6.60483 29.1709 6.59758 24.2777 6.63021 24.0529C6.9347 24.0389 7.24645 24.0353 7.56907 24.0529C7.57632 24.1161 7.58719 24.1688 7.58719 24.218C7.58719 25.869 7.58719 27.5199 7.58719 29.1709C7.59082 29.2095 7.58357 29.2482 7.57632 29.3044Z" fill="#1F77BB"/>
<path d="M20.4205 29.2919C20.116 29.2919 19.8223 29.2919 19.536 29.2919C19.5251 29.2814 19.5215 29.2779 19.5178 29.2743C19.5142 29.2708 19.5106 29.2638 19.507 29.2603C19.5033 29.2252 19.4961 29.19 19.4961 29.1549C19.4961 27.9044 19.4961 26.6539 19.4997 25.3998C19.4997 25.3823 19.5106 25.3682 19.5142 25.3507C19.6447 25.319 20.1885 25.3085 20.4132 25.3366C20.4168 25.3401 20.4205 25.3436 20.4241 25.3471C20.4277 25.3507 20.4313 25.3577 20.435 25.3612C20.4386 25.3893 20.4458 25.4174 20.4458 25.449C20.4458 26.7066 20.4458 27.9641 20.4422 29.2217C20.4422 29.2427 20.4313 29.2568 20.4205 29.2919Z" fill="#1F77BB"/>
<path d="M33.8415 25.3418C34.1387 25.3418 34.4324 25.3418 34.7224 25.3418C34.7332 25.3523 34.7369 25.3558 34.7405 25.3629C34.7441 25.3664 34.7477 25.3734 34.7477 25.3769C34.7514 25.4226 34.7586 25.4683 34.7586 25.5174C34.7586 26.7609 34.755 28.0079 34.7514 29.2514C34.7514 29.262 34.7405 29.2725 34.7296 29.2936C34.436 29.2936 34.1387 29.2936 33.8451 29.2936C33.8379 29.2866 33.8342 29.283 33.8306 29.2795C33.827 29.276 33.8234 29.269 33.8234 29.2655C33.8197 29.2128 33.8125 29.1601 33.8125 29.1074C33.8125 27.8674 33.8161 26.6274 33.8198 25.391C33.8161 25.3769 33.827 25.3699 33.8415 25.3418Z" fill="#1F77BB"/>
<path d="M39.3384 29.291C39.0339 29.291 38.7403 29.291 38.4539 29.291C38.4431 29.2805 38.4394 29.2769 38.4358 29.2734C38.4322 29.2699 38.4249 29.2629 38.4249 29.2594C38.4213 29.2313 38.4141 29.2032 38.4141 29.1716C38.4141 27.914 38.4141 26.6565 38.4177 25.3989C38.4177 25.3814 38.4286 25.3673 38.4322 25.3498C38.5627 25.3146 39.0956 25.3076 39.3312 25.3357C39.3348 25.3392 39.3384 25.3427 39.342 25.3462C39.3457 25.3498 39.3493 25.3568 39.3529 25.3603C39.3565 25.3884 39.3638 25.4165 39.3638 25.4481C39.3638 26.7057 39.3638 27.9632 39.3602 29.2207C39.3565 29.2418 39.3493 29.2559 39.3384 29.291Z" fill="#1F77BB"/>
</svg>
