<svg width="49" height="49" viewBox="0 0 49 49" fill="none" xmlns="http://www.w3.org/2000/svg">
<rect width="49" height="49" rx="5" fill="white"/>
<path d="M17.1522 26.7115C17.1522 27.1049 17.4858 27.4239 17.899 27.4239C18.3111 27.4239 18.6453 27.1049 18.6453 26.7115C18.6453 26.3184 18.3111 26 17.8987 26C17.4858 26 17.1522 26.3184 17.1522 26.7115ZM22.9811 30.4606C22.9811 31.5848 22.5287 32.053 21.874 32.053C21.2136 32.053 20.8437 31.5088 20.8437 30.5543C20.8437 29.5801 21.4175 28.7749 22.4802 28.7749C22.6993 28.7749 22.8525 28.7961 22.9811 28.8263V30.4606ZM23.0449 32.3045V32.6698C23.0449 33.6717 22.4096 34.0608 21.6211 34.0608C20.9124 34.0608 20.3896 33.8536 20.2242 33.7977V34.789C20.3588 34.8242 20.9345 35 21.7557 35C23.2139 35 24.1883 34.4155 24.1883 32.4122V28.0891C24.0013 28.043 23.3166 27.8667 22.5284 27.8667C20.4829 27.8667 19.6039 29.1982 19.6039 30.6387C19.6039 31.963 20.2899 33.0012 21.6039 33.0012C22.4704 33.0012 22.8868 32.493 23.0223 32.3045H23.0449ZM16.0892 31.693C15.7608 31.8426 15.2353 31.9411 14.7267 31.9411C13.3399 31.9411 12.3186 30.9775 12.3186 29.5095C12.3186 28.0512 13.3328 27.0763 14.7267 27.0763C15.4176 27.0763 15.9093 27.2404 16.0895 27.3235V26.2742C15.7861 26.1649 15.2942 26.0545 14.5986 26.0545C12.4467 26.0545 11 27.4998 11 29.51C11 31.4098 12.3312 32.9634 14.5989 32.9634C15.2639 32.9634 15.7643 32.8609 16.0892 32.7429V31.693ZM34.3525 30.4606C34.3525 31.5848 33.8995 32.053 33.2451 32.053C32.5845 32.053 32.2124 31.5088 32.2124 30.5543C32.2124 29.5801 32.7891 28.7749 33.851 28.7749C34.0197 28.7723 34.1881 28.7895 34.3525 28.8263V30.4606ZM35.7115 32.8916C35.6725 32.6179 35.5597 31.8953 35.5597 31.2732V28.0891C35.3708 28.043 34.6859 27.8667 33.8995 27.8667C31.8529 27.8667 30.975 29.1982 30.975 30.6387C30.975 31.963 31.6588 33.0012 32.9739 33.0012C33.9344 33.0012 34.3645 32.3982 34.527 32.0766H34.5586C34.5709 32.2293 34.6139 32.7481 34.6284 32.8919H35.7121L35.7115 32.8916ZM18.503 27.9922H17.2961V32.8914H18.503V27.9922ZM25.5546 32.8914V29.5015C25.5546 29.047 25.5121 28.1754 25.4998 27.9776H26.5841L26.635 28.6666H26.6577C26.7836 28.4739 27.1894 27.8667 28.1355 27.8667C29.2778 27.8667 29.9126 28.682 29.9126 29.6979V32.8916H28.7065V29.9296C28.7065 29.3056 28.3494 28.8342 27.7345 28.8342C27.1006 28.8342 26.7626 29.3319 26.7626 29.9296V32.8914H25.5546ZM37.4826 32.0496C37.4518 32.0324 37.4014 32.0244 37.3335 32.0244H37.228V32.2696H37.3395C37.3793 32.2715 37.4192 32.2666 37.4573 32.255C37.5052 32.2365 37.5295 32.2013 37.5295 32.1486C37.5295 32.0994 37.5139 32.0665 37.4826 32.0496ZM37.3496 31.9429C37.4363 31.9429 37.5003 31.9509 37.5404 31.9667C37.6132 31.9969 37.6489 32.0533 37.6489 32.1388C37.6489 32.1997 37.6262 32.2452 37.581 32.273C37.5501 32.2906 37.5157 32.3018 37.4802 32.3058C37.5281 32.3106 37.5717 32.3349 37.6003 32.3728C37.6237 32.4032 37.6369 32.4397 37.6382 32.4776V32.5274C37.6382 32.5433 37.6382 32.5599 37.6393 32.5777C37.6393 32.5899 37.6418 32.602 37.6459 32.6134L37.6497 32.6214H37.5347L37.533 32.6147C37.5328 32.6126 37.5314 32.61 37.5314 32.6071L37.5289 32.5856V32.5319C37.5289 32.4535 37.5063 32.4014 37.463 32.3762C37.4365 32.3625 37.3907 32.354 37.3259 32.354H37.2286V32.6214H37.1054V31.9429H37.3501H37.3496ZM36.9746 31.9085C36.9231 31.9573 36.8825 32.0159 36.8551 32.0805C36.8278 32.1451 36.8144 32.2145 36.8157 32.2844C36.8157 32.4326 36.8685 32.5597 36.9746 32.6637C37.0754 32.7661 37.2163 32.8231 37.3624 32.8207C37.5142 32.8207 37.644 32.7683 37.7505 32.6637C37.856 32.5599 37.9094 32.4326 37.9094 32.2852C37.9094 32.1375 37.856 32.012 37.7505 31.9082C37.7003 31.8577 37.6399 31.8178 37.5732 31.7908C37.5064 31.7639 37.4347 31.7505 37.3624 31.7515C37.2902 31.7504 37.2185 31.7637 37.1518 31.7907C37.0851 31.8176 37.0249 31.8576 36.9748 31.9082L36.9746 31.9085ZM37.8129 32.7227C37.7547 32.7815 37.6847 32.8279 37.6072 32.8592C37.5296 32.8905 37.4463 32.9059 37.3624 32.9046C37.2785 32.906 37.1952 32.8905 37.1178 32.8592C37.0403 32.828 36.9703 32.7815 36.9121 32.7227C36.8522 32.6657 36.8049 32.5973 36.773 32.5219C36.7412 32.4465 36.7254 32.3656 36.7268 32.2841C36.7268 32.1136 36.7898 31.9681 36.9132 31.8474C36.9715 31.7891 37.0413 31.743 37.1186 31.712C37.1958 31.6809 37.2788 31.6656 37.3624 31.6668C37.4462 31.6654 37.5294 31.6807 37.6069 31.7118C37.6844 31.7428 37.7545 31.789 37.8129 31.8474C37.9378 31.9673 37.9999 32.1131 37.9999 32.2839C38.0013 32.3655 37.9854 32.4466 37.9532 32.5221C37.9211 32.5976 37.8733 32.6659 37.8129 32.7227Z" fill="#0982C6"/>
<path d="M36.7524 42.1383H34.796V41.8709C34.8581 41.8655 34.9256 41.8601 34.9985 41.8547C35.0741 41.8493 35.1362 41.8385 35.1849 41.8223C35.2605 41.798 35.3158 41.7562 35.3509 41.6968C35.3887 41.6347 35.4076 41.555 35.4076 41.4578V39.4042C35.4076 39.1207 35.3401 38.902 35.2051 38.748C35.0728 38.5941 34.9108 38.5172 34.719 38.5172C34.5759 38.5172 34.445 38.5401 34.3262 38.586C34.2073 38.6292 34.102 38.6832 34.0102 38.748C33.9211 38.8101 33.8496 38.8777 33.7955 38.9506C33.7442 39.0208 33.7064 39.0775 33.6821 39.1207V41.4173C33.6821 41.5091 33.701 41.5847 33.7388 41.6441C33.7766 41.7035 33.8333 41.7494 33.909 41.7818C33.9657 41.8088 34.0264 41.8291 34.0912 41.8426C34.1587 41.8561 34.2276 41.8655 34.2978 41.8709V42.1383H32.3414V41.8709C32.4035 41.8655 32.467 41.8601 32.5318 41.8547C32.5993 41.8493 32.6574 41.8385 32.706 41.8223C32.7816 41.798 32.8369 41.7562 32.872 41.6968C32.9098 41.6347 32.9287 41.555 32.9287 41.4578V38.9911C32.9287 38.8993 32.9085 38.8155 32.868 38.7399C32.8302 38.6616 32.7762 38.5982 32.706 38.5496C32.6547 38.5172 32.5939 38.4942 32.5237 38.4807C32.4535 38.4645 32.3779 38.4537 32.2969 38.4483V38.185L33.6254 38.0959L33.6821 38.1526V38.7156H33.7024C33.7672 38.6508 33.8482 38.5739 33.9454 38.4848C34.0426 38.3929 34.1344 38.3187 34.2208 38.262C34.3208 38.1972 34.4396 38.1432 34.5773 38.1C34.715 38.0568 34.8703 38.0352 35.0431 38.0352C35.4265 38.0352 35.7101 38.1553 35.8937 38.3956C36.08 38.6333 36.1732 38.9506 36.1732 39.3475V41.4254C36.1732 41.5199 36.1894 41.5969 36.2218 41.6563C36.2542 41.713 36.3095 41.7575 36.3878 41.7899C36.4526 41.8169 36.508 41.8358 36.5539 41.8466C36.6025 41.8574 36.6687 41.8655 36.7524 41.8709V42.1383Z" fill="#0982C6"/>
<path d="M31.674 40.0991C31.674 40.3799 31.6295 40.6567 31.5404 40.9294C31.4513 41.1995 31.3243 41.429 31.1596 41.618C30.9733 41.834 30.7573 41.9947 30.5115 42.1C30.2658 42.2053 29.9904 42.258 29.6853 42.258C29.4314 42.258 29.1897 42.2107 28.9602 42.1162C28.7307 42.019 28.5268 41.8786 28.3486 41.695C28.1731 41.514 28.0327 41.294 27.9274 41.0347C27.8247 40.7728 27.7734 40.4798 27.7734 40.1558C27.7734 39.532 27.9544 39.0217 28.3162 38.6247C28.6807 38.2278 29.1573 38.0293 29.746 38.0293C30.305 38.0293 30.7654 38.2183 31.1272 38.5964C31.4918 38.9717 31.674 39.4726 31.674 40.0991ZM30.8356 40.1072C30.8356 39.9047 30.8153 39.6913 30.7748 39.4672C30.7343 39.2404 30.6736 39.0487 30.5926 38.892C30.5061 38.7246 30.3927 38.591 30.2523 38.491C30.1119 38.3884 29.9404 38.3371 29.7379 38.3371C29.53 38.3371 29.3518 38.3884 29.2032 38.491C29.0574 38.5937 28.9386 38.7341 28.8468 38.9123C28.7604 39.077 28.6996 39.2647 28.6645 39.4753C28.6294 39.6859 28.6119 39.8898 28.6119 40.0869C28.6119 40.3462 28.6321 40.5865 28.6726 40.8079C28.7158 41.0266 28.7834 41.2224 28.8752 41.3952C28.967 41.568 29.0817 41.7044 29.2194 41.8043C29.3599 41.9015 29.5327 41.9501 29.7379 41.9501C30.0754 41.9501 30.3428 41.7868 30.5399 41.46C30.737 41.1333 30.8356 40.6823 30.8356 40.1072Z" fill="#0982C6"/>
<path d="M27.2022 42.1364H25.2701V41.8691C25.3322 41.8637 25.3957 41.8583 25.4605 41.8529C25.528 41.8475 25.586 41.8367 25.6346 41.8205C25.7102 41.7962 25.7656 41.7543 25.8007 41.6949C25.8385 41.6328 25.8574 41.5532 25.8574 41.456V38.9892C25.8574 38.9028 25.8372 38.8245 25.7967 38.7543C25.7589 38.6814 25.7048 38.6206 25.6346 38.572C25.5833 38.5396 25.5091 38.5126 25.4119 38.491C25.3147 38.4667 25.2255 38.4519 25.1445 38.4465V38.1832L26.5541 38.0941L26.6108 38.1508V41.4074C26.6108 41.5019 26.6283 41.5802 26.6635 41.6423C26.7013 41.7044 26.7593 41.7503 26.8376 41.78C26.897 41.8043 26.9551 41.8246 27.0118 41.8408C27.0685 41.8543 27.132 41.8637 27.2022 41.8691V42.1364ZM26.6918 36.5185C26.6918 36.6724 26.6405 36.8074 26.5379 36.9235C26.438 37.0369 26.3138 37.0936 26.1652 37.0936C26.0275 37.0936 25.9074 37.0396 25.8048 36.9316C25.7048 36.8209 25.6549 36.6953 25.6549 36.5549C25.6549 36.4064 25.7048 36.2768 25.8048 36.1661C25.9074 36.0554 26.0275 36 26.1652 36C26.3192 36 26.4447 36.0527 26.5419 36.158C26.6419 36.2606 26.6918 36.3807 26.6918 36.5185Z" fill="#0982C6"/>
<path d="M24.2226 40.1802C24.3334 40.2774 24.4184 40.3895 24.4778 40.5164C24.5372 40.6433 24.5669 40.7986 24.5669 40.9822C24.5669 41.3522 24.4279 41.6546 24.1497 41.8895C23.8743 42.1245 23.5165 42.2419 23.0764 42.2419C22.8441 42.2419 22.6295 42.2001 22.4323 42.1164C22.2379 42.0326 22.0989 41.9557 22.0151 41.8855L21.9341 42.1488H21.6303L21.5898 40.7594H21.8693C21.8909 40.8648 21.9368 40.9876 22.007 41.128C22.0772 41.2685 22.1623 41.3954 22.2622 41.5088C22.3675 41.6276 22.4931 41.7275 22.6389 41.8085C22.7874 41.8895 22.9535 41.93 23.1371 41.93C23.3963 41.93 23.5962 41.872 23.7366 41.7559C23.877 41.637 23.9472 41.4683 23.9472 41.2496C23.9472 41.1361 23.9243 41.0389 23.8784 40.9579C23.8351 40.8742 23.7703 40.8013 23.6839 40.7392C23.5948 40.6771 23.4855 40.6217 23.3558 40.5731C23.2262 40.5218 23.0818 40.4719 22.9224 40.4233C22.7955 40.3855 22.6538 40.3342 22.4971 40.2693C22.3432 40.2018 22.2109 40.1235 22.1002 40.0344C21.9814 39.9399 21.8842 39.8238 21.8086 39.6861C21.733 39.5484 21.6952 39.3863 21.6952 39.2C21.6952 38.8733 21.8167 38.5965 22.0597 38.3697C22.3027 38.1429 22.6281 38.0294 23.0359 38.0294C23.1925 38.0294 23.3518 38.0497 23.5138 38.0902C23.6785 38.1307 23.8122 38.1793 23.9148 38.236L24.008 38.0254H24.2996L24.3604 39.3094H24.0809C24.0242 39.0232 23.9013 38.7909 23.7123 38.6127C23.526 38.4318 23.2978 38.3413 23.0278 38.3413C22.8063 38.3413 22.6322 38.3967 22.5052 38.5074C22.3783 38.6181 22.3149 38.7518 22.3149 38.9084C22.3149 39.0299 22.3351 39.1312 22.3756 39.2122C22.4188 39.2932 22.4823 39.362 22.566 39.4187C22.647 39.4728 22.7483 39.5241 22.8698 39.5727C22.994 39.6186 23.1466 39.6712 23.3275 39.7306C23.5057 39.7873 23.6731 39.8535 23.8297 39.9291C23.9891 40.0047 24.12 40.0884 24.2226 40.1802Z" fill="#0982C6"/>
<path d="M21.0069 42.1364H19.0748V41.8691C19.1369 41.8637 19.2003 41.8583 19.2652 41.8529C19.3327 41.8475 19.3907 41.8367 19.4393 41.8205C19.5149 41.7962 19.5703 41.7543 19.6054 41.6949C19.6432 41.6328 19.6621 41.5532 19.6621 41.456V38.9892C19.6621 38.9028 19.6418 38.8245 19.6013 38.7543C19.5635 38.6814 19.5095 38.6206 19.4393 38.572C19.388 38.5396 19.3138 38.5126 19.2165 38.491C19.1193 38.4667 19.0302 38.4519 18.9492 38.4465V38.1832L20.3588 38.0941L20.4155 38.1508V41.4074C20.4155 41.5019 20.433 41.5802 20.4681 41.6423C20.5059 41.7044 20.564 41.7503 20.6423 41.78C20.7017 41.8043 20.7598 41.8246 20.8165 41.8408C20.8732 41.8543 20.9366 41.8637 21.0069 41.8691V42.1364ZM20.4965 36.5185C20.4965 36.6724 20.4452 36.8074 20.3426 36.9235C20.2427 37.0369 20.1185 37.0936 19.9699 37.0936C19.8322 37.0936 19.7121 37.0396 19.6094 36.9316C19.5095 36.8209 19.4596 36.6953 19.4596 36.5549C19.4596 36.4064 19.5095 36.2768 19.6094 36.1661C19.7121 36.0554 19.8322 36 19.9699 36C20.1239 36 20.2494 36.0527 20.3466 36.158C20.4465 36.2606 20.4965 36.3807 20.4965 36.5185Z" fill="#0982C6"/>
<path d="M18.8529 36.6763C18.7827 36.679 18.6976 36.6952 18.5977 36.7249C18.4978 36.7519 18.4155 36.7856 18.3507 36.8261C18.2588 36.8828 18.1846 36.9557 18.1279 37.0448C18.0739 37.134 18.0199 37.2393 17.9659 37.3608C17.7849 37.7901 17.5136 38.4598 17.1517 39.3698C16.7899 40.2771 16.4172 41.2236 16.0338 42.2092H15.6976C15.3088 41.1642 14.9334 40.1569 14.5716 39.1875C14.2097 38.2181 13.964 37.5633 13.8344 37.2231C13.802 37.1394 13.7588 37.0664 13.7048 37.0043C13.6508 36.9395 13.5792 36.8788 13.4901 36.8221C13.4172 36.7762 13.3362 36.7424 13.2471 36.7208C13.158 36.6965 13.0756 36.6817 13 36.6763V36.3887H15.3776V36.6763C15.1751 36.6871 15.0036 36.7073 14.8632 36.737C14.7255 36.7667 14.6566 36.8194 14.6566 36.895C14.6566 36.9247 14.662 36.9598 14.6728 37.0003C14.6836 37.0408 14.6931 37.0732 14.7012 37.0975C14.8011 37.3621 14.9631 37.7942 15.1872 38.3936C15.4114 38.9904 15.73 39.841 16.1432 40.9454C16.3484 40.4459 16.5847 39.8559 16.852 39.1754C17.1193 38.4949 17.2989 38.0278 17.3907 37.7739C17.4798 37.5282 17.5311 37.3581 17.5446 37.2636C17.5608 37.1691 17.5689 37.0921 17.5689 37.0327C17.5689 36.9706 17.5406 36.9193 17.4839 36.8788C17.4298 36.8356 17.3569 36.7991 17.2651 36.7694C17.176 36.7424 17.0856 36.7222 16.9938 36.7087C16.9019 36.6952 16.8088 36.6844 16.7143 36.6763V36.3887H18.8529V36.6763Z" fill="#0982C6"/>
<path d="M20.526 14.1387C20.9707 14.1387 23.857 15.4034 23.857 19.9462C23.857 22.1172 23.1205 23.9267 22.6864 23.9267C22.4948 23.9267 22.4221 23.7367 22.4221 23.3716C22.4221 22.5678 22.7075 21.8557 22.7075 20.1401C22.7075 16.8275 21.3331 15.491 20.7177 14.7386C20.5361 14.5159 20.3984 14.3711 20.3984 14.2402C20.3984 14.1868 20.4366 14.1387 20.526 14.1387ZM27.8009 14.2402C27.8009 14.3711 27.6632 14.5159 27.4816 14.7386C26.8666 15.491 25.4927 16.8275 25.4927 20.1395C25.4927 21.8554 25.7769 22.5675 25.7769 23.3716C25.7769 23.7367 25.7043 23.9267 25.5132 23.9267C25.0782 23.9267 24.342 22.1172 24.342 19.9462C24.342 15.4034 27.2289 14.1387 27.6742 14.1387C27.763 14.1387 27.8009 14.1868 27.8009 14.2402Z" fill="#0982C6"/>
<path d="M23.0472 15.0481C23.0472 15.6414 23.5185 16.1217 24.1002 16.1217C24.6838 16.1217 25.1557 15.6414 25.1557 15.0481C25.1557 14.4543 24.6838 13.9746 24.1005 13.9746C23.5185 13.9746 23.0472 14.4543 23.0472 15.0481Z" fill="#F8971F"/>
<path d="M18.6243 13.3514C18.0734 13.1042 17.6607 12.6085 17.5935 12.1276C18.0026 11.8604 18.6487 11.8398 19.2 12.0873C19.7769 12.3464 19.9121 12.7842 19.9154 13.1693C19.6215 13.422 19.2018 13.6111 18.6243 13.3514ZM20.2048 10.4605C19.8501 9.91969 19.7677 9.23491 19.9872 8.76193C20.5125 8.75496 21.1089 9.10886 21.463 9.64911C21.8329 10.2157 21.6995 10.689 21.4773 11.039C21.064 11.098 20.5747 11.0271 20.2048 10.4605ZM21.0252 13.3248C20.5882 12.9569 20.3424 12.3991 20.4072 11.9431C20.8497 11.8055 21.4446 11.954 21.8817 12.3212C22.3396 12.7073 22.3469 13.1406 22.2489 13.4926C21.915 13.6456 21.4831 13.7093 21.0252 13.3245M22.3625 11.9404C22.1744 11.3368 22.2804 10.6687 22.6152 10.2799C23.1124 10.4124 23.5794 10.9059 23.7674 11.5095C23.9643 12.1419 23.7101 12.5524 23.407 12.8236C23.0025 12.7697 22.5584 12.5727 22.3625 11.9404ZM20.0595 16.3475C19.6242 16.4317 19.1649 16.3078 18.9182 16.0481C19.048 15.7148 19.4286 15.43 19.8645 15.3461C20.3208 15.2582 20.5891 15.4633 20.7563 15.6933C20.6877 15.969 20.5173 16.2587 20.0595 16.3475ZM18.9088 15.0673C18.4128 15.014 17.961 14.731 17.7834 14.3704C18.034 14.0559 18.5373 13.875 19.0336 13.9283C19.5534 13.9844 19.7726 14.2935 19.8754 14.5949C19.7094 14.8685 19.4289 15.1234 18.9088 15.0673ZM18.8645 11.411C18.4754 11.0832 18.2571 10.5878 18.3148 10.1827C18.7076 10.0597 19.2366 10.1921 19.6258 10.5187C20.032 10.8617 20.0397 11.2468 19.9524 11.5601C19.6548 11.6965 19.2714 11.7528 18.8645 11.411ZM21.5164 8.81223C21.3595 8.30925 21.4486 7.75174 21.727 7.42844C22.1421 7.53964 22.5316 7.9505 22.6885 8.45287C22.8524 8.98009 22.6399 9.32157 22.3869 9.54882C22.0496 9.50337 21.6812 9.33975 21.5167 8.81253M15 21.8639C15 21.8775 15.0089 21.8884 15.0262 21.8884C15.0424 21.8884 15.0717 21.8754 15.1035 21.8642C16.6608 21.3097 18.9601 20.6291 22.187 20.4219C22.1909 20.3928 22.2098 20.2501 22.2098 20.1401C22.2098 19.9083 22.1824 19.6665 22.1751 19.6262C18.8685 19.9274 16.5863 20.8791 15.087 21.7939C15.0259 21.8314 15 21.8399 15 21.8639ZM28.2833 13.169C28.2867 12.7842 28.4213 12.3461 28.9982 12.087C29.5488 11.8395 30.1959 11.8598 30.6046 12.1273C30.5371 12.6082 30.1251 13.1039 29.5745 13.3508C28.9963 13.6105 28.577 13.4217 28.2833 13.169ZM26.7212 11.0387C26.4996 10.6887 26.3656 10.2151 26.7361 9.6485C27.0899 9.10856 27.686 8.75466 28.2116 8.76163C28.4304 9.23461 28.3474 9.91938 27.994 10.4602C27.624 11.0268 27.1338 11.0977 26.7212 11.0387ZM25.9489 13.4923C25.8516 13.1402 25.8589 12.707 26.3167 12.3209C26.7544 11.9537 27.3484 11.8052 27.7916 11.9431C27.8557 12.3985 27.6103 12.9566 27.1729 13.3242C26.716 13.709 26.2828 13.6453 25.9489 13.4923ZM24.7912 12.8236C24.4881 12.5524 24.2341 12.1419 24.431 11.5092C24.6181 10.9059 25.0873 10.4127 25.5836 10.2799C25.9184 10.6687 26.0243 11.3365 25.8363 11.9404C25.6394 12.5727 25.1971 12.7697 24.7912 12.8236ZM27.4427 15.6936C27.61 15.4642 27.8771 15.2582 28.3343 15.3464C28.7708 15.4303 29.1505 15.7157 29.2805 16.0484C29.0345 16.3081 28.5745 16.4317 28.1386 16.3478C27.6814 16.259 27.5102 15.969 27.4427 15.6936ZM28.3233 14.5952C28.4262 14.2938 28.6456 13.9847 29.1654 13.9286C29.6614 13.8753 30.1642 14.0568 30.4148 14.371C30.2374 14.731 29.7854 15.0143 29.29 15.0676C28.7696 15.1237 28.4884 14.8688 28.3233 14.5952ZM28.2461 11.5604C28.1585 11.2471 28.1655 10.862 28.573 10.5187C28.9622 10.1924 29.4908 10.0597 29.8836 10.183C29.941 10.5881 29.7228 11.0835 29.3339 11.411C28.9274 11.7534 28.5431 11.6971 28.2461 11.5604ZM25.8113 9.54912C25.5582 9.32187 25.3464 8.98039 25.5106 8.45318C25.6669 7.95081 26.057 7.53994 26.47 7.42874C26.7508 7.75234 26.8384 8.30956 26.6821 8.81253C26.5179 9.33975 26.1488 9.50367 25.8113 9.54912ZM33.1112 21.7942C31.6125 20.8794 29.3303 19.9277 26.0234 19.6265C26.0013 19.797 25.9897 19.9686 25.9886 20.1404C25.9886 20.2504 26.0078 20.3931 26.0115 20.4222C29.2381 20.6297 31.5368 21.31 33.0953 21.8645C33.1273 21.8757 33.1572 21.8887 33.1716 21.8887C33.1899 21.8887 33.1991 21.8775 33.1991 21.8645C33.1991 21.8402 33.1716 21.8317 33.1112 21.7942ZM24.0989 10.0779C23.6707 9.87999 23.2489 9.51215 23.2489 8.74769C23.2489 8.01747 23.5959 7.31512 24.0992 7C24.6026 7.31512 24.9496 8.01716 24.9496 8.74739C24.9496 9.51215 24.5284 9.87999 24.0989 10.0779Z" fill="#56B948"/>
</svg>
