<svg width="49" height="49" viewBox="0 0 49 49" fill="none" xmlns="http://www.w3.org/2000/svg">
<rect width="49" height="49" rx="5" fill="white"/>
<g clip-path="url(#clip0_879_603)">
<path d="M8.55078 27.3567C8.59861 27.3699 8.63961 27.3831 8.68745 27.3962L9.04278 26.3495C9.08378 26.3692 9.13161 26.389 9.17261 26.4087L9.50061 25.4344C9.45961 25.4081 9.41861 25.3818 9.37761 25.3554L9.75345 24.2297L9.61678 24.1836L9.24778 25.2764C9.20678 25.2501 9.16578 25.2303 9.11795 25.204L8.76261 26.2507C8.81045 26.2639 8.85145 26.2771 8.89928 26.2902L8.55078 27.3567Z" fill="#0CB6C0"/>
<path d="M10.9759 28.1207C10.9759 28.0746 10.9759 28.0285 10.9691 27.9824H10.2721C10.2789 28.0285 10.2789 28.0746 10.2789 28.1207H9.22656C9.22656 28.1404 9.22656 28.1668 9.22656 28.1865C9.22656 28.2063 9.22656 28.2326 9.22656 28.2523H10.2789C10.2789 28.2984 10.2789 28.3445 10.2721 28.3906H10.9691C10.9691 28.3445 10.9759 28.2984 10.9759 28.2523H12.6911V28.1141H10.9759V28.1207Z" fill="#0CB6C0"/>
<path d="M8.41298 29.0371C8.39248 29.0371 8.36515 29.0371 8.34465 29.0371C8.31731 29.0371 8.29681 29.0371 8.27631 29.0371V30.1958C8.24898 30.1958 8.22165 30.1958 8.19431 30.1958H8.13281V31.5058C8.18065 31.4993 8.22848 31.4861 8.27631 31.4729V32.3682H8.41981V31.4334C8.46765 31.4203 8.51548 31.4071 8.56331 31.3939V30.1694C8.51548 30.176 8.46765 30.1826 8.41981 30.1892L8.41298 29.0371Z" fill="#0CB6C0"/>
<path d="M8.14211 29.0161C8.09428 29.0029 8.05328 28.9897 8.00545 28.9766L7.61595 30.1221C7.56811 30.1089 7.52711 30.0957 7.47928 30.0826L6.98728 31.544C7.03511 31.5506 7.08295 31.5572 7.13078 31.5572L6.92578 32.1563L7.06245 32.1958L7.27428 31.5638C7.32211 31.5638 7.36995 31.5704 7.42461 31.5704L7.89611 30.1813C7.84828 30.1747 7.80045 30.1681 7.75261 30.155L8.14211 29.0161Z" fill="#0CB6C0"/>
<path d="M10.4721 26.4421L9.80927 26.9095C9.8366 26.9424 9.87077 26.9819 9.8981 27.0214L9.02344 27.6403C9.0576 27.6732 9.08494 27.7127 9.10544 27.7522L9.97327 27.1399C10.0006 27.1794 10.0211 27.2189 10.0416 27.2584L10.6771 26.8174C10.6566 26.7779 10.6361 26.7318 10.6156 26.6923L11.9071 25.7838L11.8251 25.6719L10.5473 26.5672C10.5199 26.5211 10.4994 26.4816 10.4721 26.4421Z" fill="#0CB6C0"/>
<path d="M9.34452 26.509C9.38552 26.5353 9.42652 26.5616 9.46069 26.588L8.80469 27.457C8.84569 27.4833 8.88669 27.5096 8.92085 27.536L9.57002 26.6735C9.60419 26.7065 9.64519 26.7328 9.67935 26.7657L10.2055 26.0679C10.1714 26.0284 10.144 25.9955 10.1099 25.9626L10.9572 24.8368L10.841 24.7578L10.0142 25.8638C9.98002 25.8309 9.94585 25.798 9.91169 25.7651L9.34452 26.509Z" fill="#0CB6C0"/>
<path d="M10.8207 27.1922L10.1237 27.4094C10.1442 27.4489 10.1578 27.495 10.1715 27.5411L9.16016 27.8571C9.18066 27.8966 9.19432 27.9427 9.20116 27.9887L10.2125 27.6727C10.2262 27.7188 10.233 27.7649 10.2467 27.811L10.9232 27.6003C10.9163 27.5542 10.9027 27.5082 10.8958 27.4621L12.5017 26.9617L12.4607 26.8301L10.8617 27.3304C10.848 27.2843 10.8412 27.2382 10.8207 27.1922Z" fill="#0CB6C0"/>
<path d="M8.27143 26.1791V27.3377C8.29193 27.3377 8.31926 27.3311 8.33976 27.3311C8.36026 27.3311 8.38759 27.3311 8.40809 27.3377V26.1856C8.45593 26.1922 8.50376 26.1988 8.55159 26.2054V24.9743C8.50376 24.9612 8.45593 24.948 8.40809 24.9348V24H8.26459V24.8953C8.21676 24.8822 8.16893 24.8756 8.12109 24.8624V26.1725H8.18259C8.22359 26.1725 8.25093 26.1791 8.27143 26.1791Z" fill="#0CB6C0"/>
<path d="M6.99119 24.8361L7.48319 26.291C7.52419 26.2778 7.57202 26.2646 7.61985 26.2515L8.00935 27.397C8.05035 27.3772 8.09819 27.364 8.14602 27.3575L7.75652 26.2186C7.80435 26.2054 7.85219 26.1988 7.90002 26.1922L7.42852 24.8031C7.38069 24.8031 7.33285 24.8097 7.27819 24.8097L7.06635 24.1777L6.92969 24.2238L7.13469 24.8229C7.08685 24.8295 7.03902 24.8295 6.99119 24.8361Z" fill="#0CB6C0"/>
<path d="M4.81347 25.9747L6.43297 27.107C6.4603 27.0675 6.48764 27.028 6.51497 26.9951L7.5878 27.7456C7.61514 27.7061 7.64247 27.6666 7.6698 27.6337L6.6038 26.8898C6.63797 26.8569 6.6653 26.8174 6.69947 26.7844L5.12097 25.6785C5.0868 25.7114 5.05264 25.7443 5.01847 25.7772L4.87497 25.6719L4.79297 25.7838L4.9228 25.876C4.8818 25.9089 4.84764 25.9352 4.81347 25.9747Z" fill="#0CB6C0"/>
<path d="M10.2055 30.3001L9.67935 29.6023C9.64519 29.6352 9.61102 29.6615 9.57002 29.6944L8.92085 28.832C8.88669 28.8649 8.84569 28.8913 8.80469 28.911L9.46069 29.78C9.41969 29.8064 9.37869 29.8393 9.34452 29.859L9.90485 30.6095C9.93902 30.5766 9.97319 30.5437 10.0074 30.5108L10.841 31.6102L10.9572 31.5312L10.1099 30.4054C10.144 30.3725 10.1714 30.3396 10.2055 30.3001Z" fill="#0CB6C0"/>
<path d="M6.69849 29.5959C6.66432 29.563 6.63699 29.5301 6.60282 29.4906L7.66882 28.7467C7.63466 28.7138 7.60732 28.6743 7.58682 28.6348L6.51399 29.3853C6.48666 29.3458 6.45932 29.3063 6.43199 29.2733L4.81249 30.4123C4.84666 30.4452 4.87399 30.4781 4.90816 30.511L4.78516 30.5966L4.86716 30.7085L5.01066 30.6097C5.04482 30.6427 5.07899 30.6756 5.11316 30.7085L6.69849 29.5959Z" fill="#0CB6C0"/>
<path d="M9.50061 30.945L9.17261 29.9706C9.13161 29.9904 9.08378 30.0101 9.04278 30.0299L8.68745 28.9766C8.64645 28.9963 8.59861 29.0095 8.55078 29.0161L8.90611 30.076C8.85828 30.0891 8.81728 30.1089 8.76945 30.1155L9.12478 31.1622C9.16578 31.1425 9.20678 31.1161 9.25461 31.0898L9.62361 32.1826L9.76028 32.1431L9.37761 31.024C9.41861 30.9976 9.45961 30.9713 9.50061 30.945Z" fill="#0CB6C0"/>
<path d="M10.6771 29.5637L10.0416 29.1227C10.0211 29.1622 9.99377 29.2017 9.97327 29.2412L9.10544 28.6289C9.0781 28.6684 9.05077 28.7079 9.02344 28.7408L9.8981 29.3531C9.87077 29.3926 9.84344 29.4321 9.80927 29.465L10.4789 29.9324C10.5063 29.8929 10.5268 29.8534 10.5473 29.8139L11.8251 30.7092L11.9071 30.5973L10.6156 29.6954C10.6361 29.6427 10.6566 29.6032 10.6771 29.5637Z" fill="#0CB6C0"/>
<path d="M10.9232 28.7798L10.2467 28.5691C10.2398 28.6152 10.2262 28.6613 10.2125 28.7008L9.20116 28.3848C9.18749 28.4308 9.17382 28.4703 9.16016 28.5164L10.1715 28.8324C10.1578 28.8785 10.1373 28.918 10.1237 28.9641L10.8207 29.1813C10.8343 29.1353 10.848 29.0958 10.8548 29.0497L12.4538 29.55L12.4948 29.4183L10.889 28.918C10.9027 28.8653 10.9163 28.8258 10.9232 28.7798Z" fill="#0CB6C0"/>
<path d="M5.82516 25.1974L6.89116 26.6128C6.92532 26.5865 6.97316 26.5602 7.00732 26.5338L7.76582 27.5411C7.79999 27.5082 7.84099 27.4818 7.88199 27.4621L7.12349 26.4614C7.16449 26.4351 7.20549 26.4154 7.24649 26.3956L6.21466 25.0329C6.16682 25.0526 6.12582 25.0658 6.07799 25.0855L5.83882 24.7695L5.72266 24.8485L5.94816 25.1448C5.91399 25.1579 5.87299 25.1777 5.82516 25.1974Z" fill="#0CB6C0"/>
<path d="M6.1115 28.2601H7.4645C7.4645 28.2404 7.45767 28.2141 7.45767 28.1943C7.45767 28.1746 7.45767 28.1482 7.4645 28.1285H6.1115C6.1115 28.0824 6.11833 28.0363 6.11833 27.9902H4V28.405H6.11833C6.1115 28.3457 6.1115 28.3062 6.1115 28.2601Z" fill="#0CB6C0"/>
<path d="M6.20136 27.5872L7.4792 27.9888C7.49286 27.9427 7.50653 27.9032 7.5202 27.8572L6.24236 27.4556C6.26286 27.4161 6.27653 27.37 6.29703 27.3305L4.30853 26.7051C4.24703 26.8302 4.19236 26.9552 4.14453 27.0869L6.15353 27.7189C6.17403 27.6794 6.1877 27.6333 6.20136 27.5872Z" fill="#0CB6C0"/>
<path d="M7.2543 29.9834C7.2133 29.9636 7.1723 29.9373 7.1313 29.9175L7.88297 28.9169C7.84197 28.8906 7.80097 28.8642 7.7668 28.8379L7.0083 29.8385C6.9673 29.8122 6.9263 29.7859 6.89214 29.7595L5.82614 31.175C5.86714 31.1947 5.91497 31.2145 5.95597 31.2342L5.73047 31.5305L5.84664 31.616L6.0858 31.2935C6.13364 31.3132 6.17464 31.333 6.22247 31.3461L7.2543 29.9834Z" fill="#0CB6C0"/>
<path d="M6.2492 28.918L7.52703 28.5164C7.50653 28.4769 7.49286 28.4308 7.4792 28.3848L6.20136 28.7863C6.1877 28.7403 6.17403 28.7008 6.16036 28.6547L4.14453 29.2867C4.19236 29.4183 4.24703 29.5434 4.30853 29.6685L6.30386 29.0431C6.28336 29.0036 6.2697 28.9575 6.2492 28.918Z" fill="#0CB6C0"/>
<path d="M24.7539 26.1074V26.746H25.7106V26.3444V26.1074H24.7539Z" fill="#505759"/>
<path d="M28.4923 29.4252C28.5675 29.3133 28.6016 29.1817 28.5948 29.05C28.5948 28.971 28.588 28.8854 28.5675 28.8064C28.547 28.734 28.5196 28.6616 28.4718 28.6023C28.4171 28.5365 28.3488 28.4772 28.2736 28.4312C28.1711 28.3719 28.055 28.3193 27.9388 28.2863C27.8431 28.2534 27.7611 28.2337 27.6791 28.2073C27.5971 28.1876 27.522 28.1678 27.4605 28.1415C27.399 28.1218 27.3443 28.0954 27.2965 28.0559C27.2486 28.023 27.2145 27.9638 27.2145 27.9045C27.2145 27.7597 27.3375 27.6873 27.5766 27.6873C27.7065 27.6873 27.8363 27.7136 27.9593 27.7597C28.055 27.7992 28.1506 27.8453 28.2463 27.8913L28.5265 27.3976C28.383 27.312 28.2326 27.2462 28.0755 27.2001C27.8841 27.1474 27.6791 27.1211 27.481 27.1211C27.3238 27.1211 27.1666 27.1408 27.0163 27.1803C26.8865 27.2133 26.7635 27.2725 26.661 27.3515C26.5721 27.4173 26.4901 27.5029 26.4355 27.5951C26.3808 27.6873 26.3535 27.786 26.3535 27.8848C26.3535 27.9769 26.374 28.0757 26.4081 28.1613C26.4423 28.2403 26.497 28.3127 26.5653 28.3719C26.6405 28.4377 26.7225 28.4904 26.8181 28.5299C26.9206 28.576 27.03 28.6155 27.1461 28.6484C27.3033 28.6945 27.4536 28.7406 27.604 28.7998C27.6928 28.8262 27.7543 28.9052 27.7611 28.9973C27.768 29.0895 27.7065 29.1817 27.6108 29.208C27.522 29.2343 27.4263 29.2475 27.3306 29.2475C27.2623 29.2475 27.194 29.2409 27.1325 29.2277C27.0573 29.2146 26.9821 29.1948 26.907 29.1751C26.8318 29.1487 26.7635 29.1224 26.6883 29.0895C26.6405 29.0697 26.5995 29.0434 26.5585 29.0105L26.2031 29.524C26.3535 29.6293 26.5243 29.7083 26.7088 29.7544C27.0778 29.8597 27.4605 29.8795 27.8363 29.8071C27.973 29.7807 28.1028 29.7347 28.2258 29.6688C28.3283 29.6162 28.424 29.5306 28.4923 29.4252Z" fill="#505759"/>
<path d="M24.793 27.2188V29.7599H25.6676V29.2069V27.2188H24.793Z" fill="#505759"/>
<path d="M23.3644 27.2188L22.8041 28.9304L22.1959 27.2188H21.2461L22.3599 29.7599H23.1663L24.3143 27.2188H23.3644Z" fill="#505759"/>
<path d="M18.6445 29.7013C18.7196 29.754 18.8085 29.7935 18.9041 29.8198C18.993 29.8395 19.0818 29.8527 19.1775 29.8527C19.3278 29.8593 19.485 29.833 19.6285 29.7803C19.7651 29.721 19.8881 29.6355 19.9838 29.5301L20.0658 29.4445L20.1136 29.7605H20.9336V28.2135C20.9405 28.0489 20.9063 27.8909 20.8448 27.7395C20.7901 27.6078 20.7013 27.4959 20.5988 27.4037C20.4895 27.3116 20.3596 27.2457 20.2161 27.1996C20.0521 27.1536 19.8813 27.1272 19.7105 27.1338C19.444 27.1272 19.1775 27.1601 18.9178 27.2457C18.7675 27.2984 18.6171 27.3708 18.4805 27.4564L18.7948 27.9172C18.8836 27.8646 18.9793 27.8251 19.0818 27.7921C19.239 27.7461 19.403 27.7197 19.567 27.7263C19.6216 27.7263 19.6763 27.7329 19.731 27.7395C19.7856 27.7526 19.8471 27.7658 19.895 27.7987C19.9496 27.8251 19.9906 27.8711 20.0248 27.9172C20.059 27.9765 20.0795 28.0423 20.0795 28.1147V28.2266L20.018 28.2201C19.9565 28.2135 19.895 28.2069 19.8403 28.2003C19.7856 28.1937 19.7173 28.1937 19.6285 28.1937C19.4645 28.1937 19.3005 28.2135 19.1365 28.253C18.993 28.2859 18.8563 28.3451 18.7333 28.4307C18.624 28.5031 18.5283 28.6019 18.46 28.7138C18.3916 28.8323 18.3575 28.9705 18.3643 29.1088C18.3575 29.2339 18.3848 29.359 18.4395 29.4775C18.501 29.563 18.5625 29.642 18.6445 29.7013ZM19.362 28.7006C19.4781 28.6216 19.6216 28.5821 19.7651 28.5953C19.8608 28.5953 19.9565 28.6019 20.0453 28.6216L20.0863 28.6348V28.852C20.0863 28.931 20.0726 29.0035 20.0453 29.0759C20.018 29.1351 19.9838 29.1812 19.936 29.2207C19.8881 29.2602 19.8335 29.2865 19.7788 29.2997C19.7241 29.3129 19.6695 29.3195 19.608 29.3195C19.362 29.3195 19.2185 29.1944 19.2185 28.9705C19.2253 28.8586 19.2731 28.7599 19.362 28.7006Z" fill="#505759"/>
<path d="M17.7692 28.7461C17.8786 28.4959 17.9332 28.226 17.9264 27.9495C17.9332 27.6664 17.8786 27.3833 17.7692 27.12C17.6736 26.9028 17.5301 26.7053 17.3456 26.5473C17.1542 26.3959 16.9356 26.2774 16.7032 26.2115C16.4367 26.1391 16.1634 26.0996 15.8832 26.0996H14.4414V29.7599H15.8764C16.1497 29.7599 16.4299 29.7204 16.6896 29.648C16.9287 29.5822 17.1474 29.4637 17.3387 29.3057C17.5301 29.1543 17.6736 28.9633 17.7692 28.7461ZM16.6759 28.6934C16.4777 28.8909 16.1976 28.9897 15.8422 28.9897H15.3639V26.8633H15.8422C16.0131 26.8567 16.1771 26.883 16.3411 26.9423C16.4709 26.9884 16.5939 27.0674 16.6964 27.1595C16.7921 27.2583 16.8604 27.3702 16.9014 27.4953C16.9492 27.6335 16.9697 27.7783 16.9697 27.9232C16.9834 28.2128 16.8741 28.4893 16.6759 28.6934Z" fill="#505759"/>
<path d="M28.8398 26.1074H29.448L30.6028 29.116L31.7577 26.1074H32.3317L30.8625 29.7677H30.309L28.8398 26.1074Z" fill="#505759"/>
<path d="M32.7344 26.1992H33.3084V26.7522H32.7344V26.1992ZM32.7685 27.213H33.281V29.7608H32.7685V27.213Z" fill="#505759"/>
<path d="M34.1844 29.122C34.2801 29.2142 34.3963 29.2866 34.5261 29.3393C34.6696 29.3985 34.8268 29.4248 34.9908 29.4183C35.1343 29.4248 35.2846 29.3985 35.4144 29.3393C35.5169 29.2998 35.5853 29.201 35.5853 29.0891C35.5853 29.0364 35.5716 28.9838 35.5511 28.9377C35.5238 28.8916 35.4828 28.8521 35.4281 28.8258C35.3529 28.7863 35.2709 28.7533 35.1889 28.7336C35.0933 28.7073 34.9703 28.6743 34.8268 28.6414C34.7243 28.6217 34.6218 28.5888 34.5193 28.5558C34.4236 28.5229 34.3279 28.4703 34.2459 28.411C34.1639 28.3518 34.1024 28.2728 34.0546 28.1872C33.9999 28.0884 33.9794 27.9831 33.9794 27.8778C33.9794 27.7659 34.0068 27.6474 34.0683 27.5486C34.1298 27.4564 34.2118 27.3709 34.3074 27.3116C34.4099 27.2458 34.5193 27.1997 34.6423 27.1668C34.7653 27.1339 34.8951 27.1141 35.0318 27.1141C35.2299 27.1075 35.4213 27.1404 35.6126 27.1997C35.7698 27.2524 35.9133 27.3314 36.0363 27.4367L35.7561 27.779C35.6673 27.7066 35.5648 27.6474 35.4554 27.6013C35.3188 27.5486 35.1821 27.5289 35.0386 27.5289C34.9019 27.5223 34.7653 27.5486 34.6423 27.6079C34.5466 27.6539 34.4851 27.7527 34.4919 27.858C34.4919 27.9699 34.5603 28.0489 34.6901 28.1016C34.8541 28.1674 35.0318 28.2201 35.2026 28.253C35.3188 28.2794 35.4349 28.3123 35.5511 28.3518C35.6536 28.3847 35.7493 28.4374 35.8381 28.4966C35.9201 28.5558 35.9884 28.6348 36.0294 28.7204C36.0773 28.8192 36.1046 28.9311 36.0978 29.0364C36.0978 29.1549 36.0704 29.2734 36.0089 29.3722C35.9474 29.4709 35.8654 29.5565 35.7629 29.6158C35.6536 29.6816 35.5374 29.7343 35.4076 29.7606C35.2709 29.7935 35.1343 29.8133 34.9908 29.8133C34.4919 29.8133 34.1161 29.6816 33.8633 29.4248L34.1844 29.122Z" fill="#505759"/>
<path d="M36.6914 26.1992H37.2654V26.7522H36.6914V26.1992ZM36.7256 27.213H37.2381V29.7608H36.7256V27.213Z" fill="#505759"/>
<path d="M39.238 29.8399C39.0467 29.8399 38.8553 29.807 38.6777 29.7345C38.5137 29.6687 38.3633 29.5634 38.2335 29.4383C38.1105 29.3132 38.008 29.1684 37.9397 29.0104C37.7962 28.6746 37.7962 28.2994 37.9397 27.9636C38.008 27.8056 38.1037 27.6608 38.2335 27.5357C38.3565 27.4106 38.5068 27.3119 38.6777 27.2395C39.0398 27.0947 39.443 27.0947 39.7983 27.2395C39.9623 27.3053 40.1127 27.4106 40.2425 27.5357C40.3655 27.6608 40.468 27.8056 40.5363 27.9636C40.6798 28.2994 40.6798 28.6746 40.5363 29.0104C40.468 29.1684 40.3655 29.3198 40.2425 29.4383C40.1127 29.5634 39.9623 29.6621 39.7983 29.7345C39.6207 29.807 39.4293 29.8399 39.238 29.8399ZM39.238 29.412C39.3678 29.412 39.4908 29.3856 39.607 29.333C39.7163 29.2803 39.812 29.2079 39.8872 29.1223C39.9623 29.0367 40.0238 28.938 40.058 28.8261C40.099 28.7141 40.1195 28.6022 40.1195 28.4837C40.1195 28.3718 40.099 28.2533 40.058 28.148C40.017 28.0361 39.9623 27.9373 39.8803 27.8517C39.8052 27.7661 39.7095 27.6937 39.6002 27.6411C39.484 27.5884 39.361 27.5621 39.2312 27.5621C39.1013 27.5621 38.9783 27.5884 38.8622 27.6411C38.7528 27.6937 38.664 27.7596 38.582 27.8451C38.5068 27.9307 38.4453 28.0361 38.4112 28.1414C38.3702 28.2533 38.3497 28.3652 38.3497 28.4837C38.3497 28.6022 38.3702 28.7141 38.4112 28.8261C38.4522 28.9314 38.5068 29.0367 38.582 29.1223C38.6572 29.2079 38.7528 29.2803 38.8622 29.333C38.9852 29.3856 39.1082 29.4185 39.238 29.412Z" fill="#505759"/>
<path d="M41.2217 29.7608V27.4698C41.2217 27.3842 41.2217 27.2986 41.2148 27.2065H41.7068L41.7273 27.5883C41.7615 27.5422 41.8093 27.4961 41.8503 27.4435C41.905 27.3842 41.9665 27.3381 42.0348 27.2986C42.1168 27.2525 42.1988 27.213 42.2877 27.1867C42.397 27.1538 42.5063 27.1406 42.6157 27.1406C42.9642 27.1406 43.217 27.2394 43.381 27.4303C43.545 27.6212 43.6338 27.8911 43.6338 28.2203V29.7542H43.1213V28.2664C43.1213 28.0294 43.0667 27.8516 42.9642 27.7397C42.848 27.6212 42.684 27.562 42.5132 27.5751C42.3833 27.5685 42.2535 27.6015 42.1442 27.6607C42.0485 27.72 41.9665 27.799 41.905 27.8911C41.8435 27.9899 41.8025 28.0952 41.7752 28.2071C41.7478 28.3256 41.7342 28.4441 41.7342 28.5692V29.7542H41.2217V29.7608Z" fill="#505759"/>
<path d="M43.8642 26.2389H43.625V26.127H44.2263V26.2389H43.9872V26.7919H43.8573L43.8642 26.2389Z" fill="#505759"/>
<path d="M44.3359 26.127H44.4589L44.6503 26.4364L44.8416 26.127H44.9646L44.9988 26.7919H44.8689L44.8416 26.331L44.6776 26.6009H44.6161L44.4521 26.3376L44.4316 26.7984H44.3086L44.3359 26.127Z" fill="#505759"/>
</g>
<defs>
<clipPath id="clip0_879_603">
<rect width="41" height="8.36735" fill="white" transform="translate(4 24)"/>
</clipPath>
</defs>
</svg>
