<svg width="49" height="49" viewBox="0 0 49 49" fill="none" xmlns="http://www.w3.org/2000/svg">
<rect width="49" height="49" rx="5" fill="white"/>
<g clip-path="url(#clip0_879_161)">
<path d="M35.0099 19.2188H32.5117V28.9457H35.0099V19.2188Z" fill="#356C35"/>
<path d="M19.2155 23.0186H23.3153V19.1895H25.8134V22.9987H28.8052V19.2392H31.3034V28.9363H28.8052V25.2365H25.8336V28.9164H23.3153V25.2862L20.7365 25.2066H19.1953L19.2155 23.0186Z" fill="#356C35"/>
<path d="M24.7237 20.2637H24.3711V27.9219H24.7237V20.2637Z" fill="white"/>
<path d="M28.1785 23.9141H20.9258V24.2622H28.1785V23.9141Z" fill="white"/>
<path d="M23.3049 25.1962C22.761 27.4539 20.696 29.2143 18.2179 29.2143C15.337 29.2143 13 26.9268 13 24.1022C13 21.2776 15.337 19 18.2179 19C20.3535 19 22.1364 20.1935 22.8718 22.1031L20.2225 22.113C19.7289 21.5461 19.0339 21.1881 18.2582 21.1881C16.7674 21.1881 15.5586 22.491 15.5586 24.1022C15.5586 25.7134 16.7674 27.0163 18.2582 27.0163C19.3864 27.0163 20.3636 26.2405 20.7665 25.1763L23.3049 25.1962Z" fill="#356C35"/>
</g>
<defs>
<clipPath id="clip0_879_161">
<rect width="22" height="10.2143" fill="white" transform="translate(13 19)"/>
</clipPath>
</defs>
</svg>
