<svg width="49" height="49" viewBox="0 0 49 49" fill="none" xmlns="http://www.w3.org/2000/svg">
<rect width="49" height="49" rx="5" fill="white"/>
<path fill-rule="evenodd" clip-rule="evenodd" d="M25.6638 21.3184C25.3721 21.6034 25.0111 21.8015 24.6195 21.9006V24.1929H23.4467V21.8986C23.0571 21.7995 22.7002 21.6034 22.4085 21.3204L19.1797 18.0801H20.8787L23.259 20.4917C23.465 20.6938 23.7424 20.803 24.0382 20.803C24.3339 20.803 24.6113 20.6918 24.8173 20.4897L27.318 18.0781H29.015L25.6658 21.3164L25.6638 21.3184Z" fill="#8DC63F"/>
<path d="M19.2618 21.2625C19.6922 20.9593 20.0022 20.5894 20.1776 20.1831C20.0002 19.6939 19.6779 19.2492 19.2332 18.8813C19.1557 18.8166 19.0762 18.758 18.9946 18.6994C18.3419 18.2466 17.5281 18 16.6714 18C15.8147 18 15.0009 18.2466 14.3482 18.6994C14.2646 18.756 14.1851 18.8166 14.1096 18.8813C13.6649 19.2492 13.3447 19.6939 13.1652 20.1831C13.0571 20.4803 13 20.7916 13 21.1089C13 21.9579 13.3937 22.7483 14.1075 23.3385C14.797 23.9065 15.7066 24.2198 16.6694 24.2198C17.6321 24.2198 18.5438 23.9065 19.2312 23.3385C19.3719 23.2213 19.5004 23.098 19.6167 22.9686C19.4637 22.8938 19.3189 22.8109 19.1843 22.72C19.017 22.6088 18.8681 22.4875 18.7376 22.3602C18.2624 22.8554 17.5138 23.1748 16.6714 23.1748C15.3028 23.1748 14.1789 22.3298 14.081 21.2625C14.1035 21.2787 14.1279 21.2949 14.1524 21.3111C14.8316 21.7679 15.727 22.0185 16.6714 22.0185C17.6158 22.0185 18.5112 21.7679 19.1904 21.3111C19.2149 21.2949 19.2373 21.2787 19.2618 21.2625ZM16.6714 20.9715C15.6985 20.9715 14.8275 20.6258 14.3849 20.1285C14.8255 19.4837 15.6842 19.043 16.6714 19.043C17.6586 19.043 18.5173 19.4837 18.9579 20.1285C18.5153 20.6238 17.6443 20.9715 16.6714 20.9715Z" fill="#8DC63F"/>
<path d="M34.1035 21.2625C34.5339 20.9593 34.8459 20.5894 35.0193 20.1831C34.8419 19.6939 34.5196 19.2492 34.075 18.8813C33.9974 18.8166 33.9179 18.758 33.8363 18.6994C33.1836 18.2466 32.3698 18 31.5131 18C30.6565 18 29.8426 18.2466 29.1899 18.6994C29.1083 18.756 29.0268 18.8166 28.9513 18.8813C28.5066 19.2492 28.1864 19.6939 28.0069 20.1831C27.8988 20.4803 27.8438 20.7916 27.8438 21.1089C27.8438 21.9579 28.2374 22.7483 28.9513 23.3385C29.6407 23.9065 30.5504 24.2198 31.5131 24.2198C32.4758 24.2198 33.3876 23.9065 34.075 23.3385C34.2157 23.2213 34.3442 23.098 34.4605 22.9686C34.3075 22.8938 34.1647 22.8109 34.028 22.72C33.8608 22.6088 33.7119 22.4875 33.5793 22.3602C33.1061 22.8554 32.3555 23.1748 31.5131 23.1748C30.1445 23.1748 29.0206 22.3298 28.9227 21.2625C28.9472 21.2787 28.9696 21.2949 28.9941 21.3111C29.6733 21.7679 30.5688 22.0185 31.5131 22.0185C32.4575 22.0185 33.3529 21.7679 34.0321 21.3111C34.0546 21.2949 34.079 21.2787 34.1035 21.2625ZM31.5131 20.9715C30.5402 20.9715 29.6693 20.6258 29.2266 20.1285C29.6652 19.4837 30.5259 19.043 31.5131 19.043C32.5003 19.043 33.359 19.4837 33.7996 20.1285C33.3549 20.6238 32.486 20.9715 31.5131 20.9715Z" fill="#8DC63F"/>
<path fill-rule="evenodd" clip-rule="evenodd" d="M33.8109 24.0664V25.4955C33.1419 25.0003 32.2934 24.7294 31.3959 24.7294C30.4332 24.7294 29.5215 25.0427 28.8341 25.6108C28.1202 26.201 27.7266 26.9914 27.7266 27.8404C27.7266 28.6893 28.1202 29.4797 28.8341 30.07C29.5235 30.64 30.4332 30.9513 31.3959 30.9513C32.2934 30.9513 33.1419 30.6804 33.8109 30.1852V30.925H34.9042V24.0664H33.8109ZM31.3959 29.9062C29.9641 29.9062 28.7974 28.9804 28.7974 27.8424C28.7974 26.7043 29.9641 25.7785 31.3959 25.7785C32.8278 25.7785 33.9945 26.7043 33.9945 27.8424C33.9945 28.9804 32.8298 29.9062 31.3959 29.9062Z" fill="#C9C9CC"/>
<path fill-rule="evenodd" clip-rule="evenodd" d="M18.6743 30.9273H19.8471V24.7539L16.8773 27.3736C16.7774 27.4707 16.6387 27.5252 16.4918 27.5252C16.345 27.5252 16.2083 27.4727 16.1084 27.3757L13.0938 24.7539V30.9273H14.2666V27.2867L15.3027 28.1943C15.6209 28.4975 16.0431 28.6653 16.4939 28.6653C16.9447 28.6653 17.373 28.4955 17.6912 28.1883L18.6763 27.317V30.9252H18.6743V30.9273Z" fill="#C9C9CC"/>
<path fill-rule="evenodd" clip-rule="evenodd" d="M26.5517 28.0454C26.5761 28.0293 26.5986 28.0131 26.623 27.9969C27.0534 27.6917 27.3655 27.3238 27.5389 26.9175C27.3594 26.4283 27.0391 25.9816 26.5945 25.6157C26.517 25.553 26.4374 25.4924 26.3558 25.4358C25.7031 24.983 24.8893 24.7344 24.0327 24.7344C23.176 24.7344 22.3642 24.981 21.7095 25.4358C21.6279 25.4924 21.5463 25.553 21.4708 25.6157C21.0262 25.9836 20.7059 26.4283 20.5265 26.9175C20.4184 27.2126 20.3633 27.5239 20.3633 27.8433C20.3633 28.6923 20.7569 29.4826 21.4708 30.0729C22.1582 30.6409 23.0699 30.9542 24.0327 30.9542C24.9954 30.9542 25.9051 30.6409 26.5945 30.0729C26.7352 29.9556 26.8637 29.8323 26.98 29.701C26.827 29.6262 26.6842 29.5433 26.5476 29.4523C26.3803 29.3411 26.2314 29.2199 26.0988 29.0905C25.6236 29.5857 24.875 29.9051 24.0327 29.9051C22.6661 29.9051 21.5402 29.0602 21.4423 27.9949C21.4647 28.0111 21.4892 28.0272 21.5137 28.0434C22.1949 28.5002 23.0883 28.7509 24.0347 28.7509H24.0327C24.977 28.7529 25.8724 28.5023 26.5517 28.0454ZM24.0327 27.7079C23.0577 27.7079 22.1908 27.3622 21.7462 26.8649C22.1867 26.2181 23.0455 25.7794 24.0327 25.7794C25.0199 25.7794 25.8806 26.2181 26.3191 26.8649C25.8765 27.3622 25.0076 27.7079 24.0327 27.7079Z" fill="#C9C9CC"/>
</svg>
