<svg width="49" height="49" viewBox="0 0 49 49" fill="none" xmlns="http://www.w3.org/2000/svg">
<rect width="49" height="49" rx="5" fill="white"/>
<g clip-path="url(#clip0_879_301)">
<path d="M17.2561 32.6412V32.5168C17.2561 30.5173 17.2568 28.5178 17.2539 26.5183C17.2539 26.4205 17.2833 26.3745 17.3746 26.3429C17.9651 26.1396 18.5705 26.0183 19.1932 25.976C19.7287 25.9398 20.2605 25.956 20.7752 26.1176C20.9864 26.1837 21.1861 26.2934 21.3818 26.4001C21.4621 26.4439 21.5109 26.4539 21.5952 26.407C22.459 25.9264 23.3663 25.8178 24.3052 26.1359C25.0024 26.372 25.3839 26.8906 25.4942 27.6143C25.5254 27.8184 25.5362 28.0274 25.5366 28.2344C25.5401 29.6552 25.5384 31.076 25.5384 32.4967V32.6468H25.4166C25.0598 32.6468 24.7032 32.6468 24.3464 32.6468C24.1187 32.6468 24.047 32.5738 24.047 32.3394C24.0468 31.0595 24.0497 29.7796 24.0441 28.5C24.0433 28.2903 24.0254 28.0764 23.9799 27.8723C23.8948 27.4905 23.6401 27.2955 23.2533 27.2584C22.8968 27.2241 22.5684 27.2978 22.2591 27.4758C22.1865 27.5177 22.1609 27.5669 22.1609 27.6526C22.1638 29.2069 22.1631 30.7612 22.1625 32.3156C22.1625 32.3672 22.1618 32.4199 22.151 32.47C22.1254 32.5891 22.0629 32.6445 21.9438 32.6454C21.5945 32.6483 21.245 32.6481 20.8957 32.6457C20.7702 32.6448 20.6859 32.5593 20.6737 32.4297C20.6695 32.3857 20.6718 32.3407 20.6718 32.2962C20.6718 31.0573 20.6735 29.8181 20.6698 28.5792C20.6691 28.3873 20.6565 28.1935 20.6283 28.0038C20.5579 27.531 20.285 27.2962 19.8099 27.259C19.4908 27.2341 19.1799 27.2728 18.8684 27.3305C18.7766 27.3474 18.7446 27.3848 18.7448 27.4832C18.7481 29.0709 18.747 30.6586 18.747 32.2463C18.747 32.2908 18.7475 32.3354 18.7468 32.3799C18.7437 32.5784 18.6762 32.6463 18.48 32.6465C18.1087 32.647 17.7371 32.6468 17.3658 32.6465C17.3336 32.6465 17.3013 32.6434 17.2561 32.641V32.6412Z" fill="#518518"/>
<path d="M7.81367 27.476V27.3224C7.81367 26.321 7.81367 25.3196 7.81367 24.3182C7.81367 24.0738 7.88538 24.0028 8.13096 24.0028C8.50606 24.0028 8.88117 24.007 9.25605 24.0001C9.3624 23.9981 9.38403 24.0353 9.3838 24.1332C9.38094 25.1903 9.38204 26.2473 9.38204 27.3044C9.38204 29.0179 9.38204 30.7314 9.3816 32.4451C9.3816 32.4958 9.37652 32.5468 9.37343 32.6062C9.11064 32.6062 8.85734 32.6062 8.60403 32.6062C8.43126 32.6062 8.2585 32.6067 8.08573 32.6062C7.89134 32.6056 7.81455 32.5276 7.81411 32.3278C7.81323 31.9382 7.81389 31.5489 7.81389 31.1594C7.81389 30.6143 7.8033 30.0687 7.81698 29.5238C7.82911 29.0433 7.4485 28.765 7.07207 28.7701C6.27796 28.7806 5.48384 28.7733 4.68973 28.7733C4.65398 28.7733 4.61824 28.7733 4.56793 28.7733C4.56793 28.8414 4.56793 28.8961 4.56793 28.9509C4.56793 30.0674 4.56881 31.1837 4.56594 32.3002C4.56594 32.3745 4.55182 32.4582 4.51497 32.5196C4.4885 32.5637 4.41325 32.6013 4.35942 32.602C3.92562 32.6084 3.49183 32.6056 3.05803 32.6051C3.04413 32.6051 3.03045 32.5995 3.00309 32.594V32.474C3.00287 29.6954 3.00375 26.9175 3 24.1394C3 24.0219 3.03508 23.9983 3.1432 24.0001C3.52536 24.0065 3.90797 24.0021 4.29035 24.0028C4.4971 24.003 4.60213 24.1092 4.60213 24.3166C4.60213 25.1437 4.60191 25.9709 4.60235 26.7978C4.60257 27.2225 4.85124 27.4816 5.27069 27.4834C6.07959 27.4867 6.88849 27.4845 7.69717 27.484C7.7296 27.484 7.76226 27.4796 7.81367 27.4758V27.476Z" fill="#518518"/>
<path d="M44.9936 32.6464C44.5601 32.6464 44.1377 32.6493 43.7156 32.6446C43.5914 32.6433 43.5115 32.5463 43.5089 32.416C43.5065 32.2992 43.5084 32.1821 43.5084 32.0485C43.478 32.0655 43.4641 32.0692 43.4555 32.0784C42.3913 33.2004 40.4262 32.7773 39.9024 31.3089C39.7669 30.9287 39.6835 30.539 39.6751 30.1374C39.6641 29.6036 39.6564 29.0688 39.6769 28.5357C39.7009 27.9149 39.8494 27.3259 40.2455 26.8278C40.6107 26.3683 41.102 26.1311 41.6645 26.0251C42.2201 25.9205 42.7788 25.945 43.3326 26.0209C43.8513 26.0919 44.3652 26.2005 44.8813 26.2913C44.9638 26.3058 45.0016 26.3367 45.0013 26.4353C44.9976 28.4676 44.9987 30.4998 44.9985 32.532C44.9985 32.5649 44.9956 32.5977 44.9934 32.6462L44.9936 32.6464ZM43.508 29.1925C43.508 28.6067 43.5067 28.021 43.5095 27.4352C43.51 27.3484 43.4875 27.305 43.395 27.3025C42.9736 27.291 42.5517 27.256 42.1312 27.2689C41.8031 27.2789 41.5204 27.4341 41.375 27.7461C41.2845 27.9402 41.2018 28.1579 41.1943 28.3678C41.1713 29.0147 41.1605 29.6644 41.1934 30.3104C41.2274 30.9797 41.5778 31.3465 42.2073 31.4188C42.6481 31.4696 43.0733 31.4113 43.427 31.0961C43.4846 31.0447 43.51 30.9941 43.5095 30.9162C43.5067 30.3415 43.508 29.767 43.508 29.1923V29.1925Z" fill="#518518"/>
<path d="M31.9171 32.6474C31.4895 32.6474 31.078 32.6492 30.6664 32.6463C30.5292 32.6454 30.4442 32.5564 30.4387 32.4135C30.4341 32.2964 30.4379 32.1791 30.4379 32.0522C30.2962 32.1644 30.1748 32.2703 30.044 32.3627C28.9994 33.1013 27.2618 32.6828 26.8095 31.1389C26.7005 30.7668 26.6409 30.3877 26.6345 30.0013C26.627 29.5639 26.627 29.1261 26.6345 28.6885C26.6409 28.3058 26.6946 27.9283 26.8186 27.5646C27.1184 26.6854 27.742 26.193 28.6345 26.0247C29.1863 25.9208 29.7415 25.9451 30.2918 26.0199C30.8032 26.0895 31.3094 26.1997 31.8184 26.2881C31.9069 26.3034 31.9263 26.3468 31.9263 26.4307C31.9244 28.463 31.9248 30.4952 31.9246 32.5276C31.9246 32.5637 31.9204 32.5998 31.9173 32.6472L31.9171 32.6474ZM30.4718 29.1893C30.4718 28.6034 30.4707 28.0176 30.4732 27.4317C30.4736 27.352 30.4588 27.3066 30.3683 27.3037C29.9652 27.2915 29.5617 27.2552 29.1594 27.2659C28.7111 27.2779 28.3896 27.5145 28.2585 27.9521C28.1841 28.2005 28.1431 28.4654 28.1296 28.725C28.1087 29.1319 28.1111 29.541 28.1285 29.9481C28.1391 30.1938 28.1769 30.4427 28.2384 30.6806C28.3267 31.0221 28.531 31.2874 28.8847 31.3742C29.0846 31.4232 29.2989 31.4283 29.5063 31.4263C29.8381 31.4232 30.1415 31.3237 30.3959 31.0951C30.4504 31.0463 30.4734 30.998 30.4732 30.9243C30.4705 30.3458 30.4716 29.7673 30.4716 29.1891L30.4718 29.1893Z" fill="#518518"/>
<path d="M33.2773 32.6066C33.275 32.5559 33.272 32.5196 33.272 32.4833C33.2717 30.4805 33.2724 28.4779 33.2695 26.475C33.2695 26.3847 33.2936 26.3473 33.3823 26.3243C34.2644 26.0968 35.1581 25.9466 36.07 25.9666C36.4047 25.974 36.7461 26.018 37.0704 26.1013C37.8749 26.3076 38.3383 26.8572 38.4879 27.6703C38.5391 27.949 38.5598 28.2368 38.5616 28.5206C38.5691 29.8372 38.5638 31.1538 38.5671 32.4704C38.5673 32.5737 38.5457 32.6113 38.4347 32.6091C38.0671 32.6017 37.6995 32.6069 37.3319 32.606C37.1737 32.6055 37.0951 32.533 37.0815 32.3756C37.0773 32.3277 37.0779 32.2792 37.0779 32.2311C37.0779 31.0294 37.079 29.8279 37.0764 28.6261C37.0759 28.4411 37.0702 28.2548 37.0462 28.0719C36.972 27.5078 36.7 27.255 36.1402 27.2198C35.7004 27.1922 35.2686 27.2559 34.839 27.3436C34.7697 27.3578 34.7613 27.3923 34.762 27.4504C34.7638 27.6692 34.7627 27.888 34.7627 28.1068C34.7627 29.5013 34.7627 30.8958 34.7627 32.2903C34.7627 32.5138 34.6713 32.6058 34.4482 32.606C34.0623 32.6064 33.6766 32.606 33.2773 32.606V32.6066Z" fill="#518518"/>
<path d="M10.6927 26.0687C10.9016 26.0687 11.0921 26.0687 11.2825 26.0687C11.4994 26.0687 11.7165 26.0678 11.9334 26.0691C12.0806 26.07 12.1637 26.1492 12.1759 26.2986C12.1798 26.3464 12.179 26.395 12.179 26.443C12.179 27.6412 12.1763 28.8394 12.1816 30.0378C12.1825 30.2626 12.1968 30.491 12.2377 30.7116C12.3175 31.1428 12.5836 31.362 13.0192 31.4121C13.498 31.4671 13.9636 31.3836 14.4291 31.2941C14.4554 31.289 14.4817 31.2447 14.4936 31.2131C14.5046 31.1839 14.4962 31.1472 14.4962 31.1138C14.4962 29.5408 14.4962 27.968 14.4962 26.395C14.4962 26.1452 14.5715 26.0691 14.817 26.0689C15.1628 26.0689 15.5083 26.0689 15.8541 26.0689H15.9869V26.1973C15.9869 28.1857 15.9863 30.1741 15.9889 32.1624C15.9889 32.2559 15.9651 32.2944 15.8711 32.3187C14.9124 32.5644 13.9428 32.7145 12.9506 32.6684C12.5856 32.6515 12.2279 32.5874 11.8895 32.4422C11.2445 32.1656 10.8946 31.6523 10.7708 30.976C10.7205 30.7007 10.6978 30.4169 10.696 30.1367C10.6885 28.8234 10.6925 27.5101 10.6925 26.1969C10.6925 26.1601 10.6925 26.1236 10.6925 26.0687H10.6927Z" fill="#518518"/>
</g>
<defs>
<clipPath id="clip0_879_301">
<rect width="42" height="8.71698" fill="white" transform="translate(3 24)"/>
</clipPath>
</defs>
</svg>
