<svg width="49" height="49" viewBox="0 0 49 49" fill="none" xmlns="http://www.w3.org/2000/svg">
<g clip-path="url(#clip0_879_839)">
<rect width="49" height="49" rx="5" fill="white"/>
<path d="M31.9549 12.9044C32.1754 12.9699 32.3404 13.0867 32.4445 13.2799C32.5794 13.5312 32.5815 13.7926 32.4843 14.0555C32.4123 14.2508 32.2856 14.4119 32.1439 14.5621C31.9179 14.8004 31.6659 15.01 31.4186 15.2244C31.2789 15.3452 31.1399 15.4674 31.0009 15.5896C30.803 15.7651 30.6064 15.9426 30.4078 16.1174C30.2284 16.2751 30.0462 16.4308 29.8654 16.5878C29.6373 16.7851 29.4093 16.9825 29.1812 17.1805C28.9422 17.3873 28.7039 17.5956 28.4635 17.8011C28.2389 17.9936 28.0115 18.1834 27.7855 18.3746C27.6376 18.4995 27.4897 18.6245 27.3438 18.7521C27.1493 18.9235 27.0288 19.1434 26.9616 19.3878C26.9021 19.6035 26.8637 19.8254 26.8212 20.0453C26.7897 20.2071 26.763 20.3696 26.7404 20.5327C26.7185 20.6932 26.7021 20.8543 26.6898 21.0155C26.6603 21.3998 26.5096 21.7282 26.2446 22.0068C26.1076 22.1502 25.9529 22.269 25.7721 22.355C25.6488 22.413 25.5187 22.4438 25.3865 22.4629C25.1351 22.5004 24.8811 22.5086 24.627 22.5045C24.3243 22.4997 24.0223 22.4895 23.7196 22.4875C23.6086 22.4868 23.4977 22.4997 23.3867 22.5086C23.2046 22.5236 23.0546 22.6022 22.932 22.7367C22.9039 22.7681 22.8662 22.7913 22.8313 22.8159C22.819 22.8247 22.8005 22.8254 22.7765 22.8316C22.7663 22.7735 22.7532 22.7216 22.7478 22.6691C22.732 22.5155 22.7327 22.3625 22.7745 22.2123C22.8471 21.9529 23.0197 21.7883 23.271 21.7009C23.3984 21.6566 23.5312 21.634 23.6655 21.6313C23.8422 21.6279 24.0188 21.6286 24.1955 21.6313C24.4263 21.6354 24.6571 21.6484 24.8886 21.649C25.0338 21.649 25.1797 21.647 25.3221 21.6135C25.3413 21.6088 25.3611 21.6047 25.3803 21.6013C25.5399 21.5698 25.6419 21.477 25.6728 21.3172C25.7077 21.1363 25.744 20.9547 25.7673 20.7724C25.8221 20.3388 25.8727 19.9046 25.9748 19.4779C26.0282 19.2533 26.0953 19.0327 26.1919 18.8225C26.2556 18.6845 26.3432 18.5603 26.4439 18.4476C26.5863 18.2886 26.7274 18.1267 26.8856 17.984C27.1472 17.7471 27.4205 17.5232 27.691 17.2965C28.1499 16.9128 28.6121 16.5339 29.0703 16.1495C29.334 15.9283 29.5942 15.7023 29.8531 15.4743C30.0578 15.2933 30.2558 15.1042 30.4592 14.9219C30.6475 14.7526 30.8406 14.5881 31.0303 14.4201C31.2351 14.2385 31.4337 14.05 31.5946 13.8268C31.7782 13.5721 31.8864 13.2874 31.9391 12.9802C31.9425 12.9583 31.9473 12.9365 31.9535 12.9023L31.9549 12.9044Z" fill="#193686"/>
<path d="M28.7512 22.9841C28.7225 23.0517 28.6499 23.0339 28.6115 23.0804C28.6225 23.0933 28.6328 23.1097 28.6471 23.1213C28.6992 23.1643 28.7184 23.2197 28.7225 23.2859C28.728 23.3705 28.7362 23.4559 28.754 23.5385C28.7759 23.6416 28.8485 23.7071 28.9457 23.7392C29.0019 23.7577 29.0622 23.7665 29.1217 23.7693C29.3272 23.7781 29.5313 23.7536 29.736 23.7379C29.9114 23.7242 30.0894 23.7085 30.2627 23.7672C30.4305 23.8239 30.5318 23.9522 30.538 24.1291C30.5469 24.396 30.4435 24.6125 30.225 24.7668C30.0805 24.8685 29.9278 24.9579 29.7799 25.0549C29.6895 25.1143 29.595 25.1703 29.5142 25.2413C29.1779 25.5349 29.2724 26.0326 29.6251 26.2326C29.8169 26.3419 30.0168 26.3405 30.2202 26.2729C30.2798 26.2531 30.3367 26.2265 30.4004 26.2012C30.4038 26.247 30.3819 26.2825 30.3613 26.3173C30.2812 26.4538 30.1634 26.5528 30.0292 26.6307C29.7997 26.7638 29.5491 26.8287 29.2854 26.8328C29.0923 26.8355 28.9033 26.8054 28.7362 26.6996C28.5348 26.5719 28.4396 26.3849 28.4321 26.1493C28.4273 26.0019 28.4444 25.8598 28.5191 25.7288C28.5821 25.6181 28.6677 25.5253 28.767 25.4481C28.8909 25.3519 29.0231 25.2672 29.1471 25.1716C29.2443 25.0972 29.3423 25.0221 29.4265 24.934C29.5552 24.7995 29.608 24.6398 29.5368 24.4554C29.4929 24.3435 29.4107 24.267 29.3073 24.2124C29.1978 24.155 29.0813 24.1209 28.9553 24.1181C28.8033 24.1154 28.654 24.1304 28.504 24.153C28.3951 24.1694 28.2849 24.1892 28.1725 24.1714C27.9979 24.1441 27.9109 24.0369 27.928 23.8628C27.9335 23.8095 27.9411 23.7556 27.9506 23.703C27.963 23.6334 27.9397 23.5801 27.8808 23.5426C27.8397 23.5166 27.7966 23.4948 27.7562 23.4675C27.6863 23.4197 27.6808 23.3808 27.7322 23.3125C27.7404 23.3016 27.7493 23.2907 27.7616 23.2743C27.7164 23.2592 27.6753 23.2483 27.6363 23.2326C27.5514 23.1978 27.5384 23.1698 27.5685 23.0831C27.5795 23.051 27.5959 23.021 27.6103 22.9902C27.6199 22.9698 27.6329 22.9506 27.6404 22.9288C27.6479 22.9076 27.6514 22.8851 27.6569 22.8612C27.6212 22.8291 27.5795 22.825 27.5363 22.825C27.4795 22.825 27.4219 22.825 27.3651 22.825C27.3425 22.825 27.3192 22.825 27.2966 22.8223C27.1603 22.8018 27.0919 22.7008 27.1329 22.569C27.1514 22.5103 27.1809 22.4529 27.2151 22.401C27.2891 22.2897 27.3665 22.1805 27.4473 22.0733C27.5432 21.9463 27.5521 21.8146 27.4637 21.6848C27.361 21.5346 27.3555 21.3708 27.3809 21.2014C27.4309 20.8648 27.4822 20.5276 27.5719 20.1985C27.6281 19.9937 27.7041 19.7957 27.8575 19.642C27.9616 19.5376 28.0808 19.4481 28.1931 19.3512C28.3848 19.186 28.5766 19.0201 28.7677 18.8542C28.967 18.6801 29.1663 18.5053 29.3649 18.3298C29.5484 18.168 29.7313 18.0048 29.9155 17.843C30.1271 17.6566 30.3394 17.4709 30.5517 17.2852C30.764 17.0995 30.9749 16.9131 31.1886 16.7294C31.3585 16.5826 31.5317 16.4386 31.7029 16.2932C31.9009 16.1252 32.0878 15.9456 32.2611 15.7524C32.4193 15.5763 32.52 15.3728 32.559 15.1386C32.5652 15.1004 32.5795 15.0635 32.5891 15.0273C32.8165 15.0451 33.0117 15.2158 33.0658 15.4397C33.1206 15.6664 33.0781 15.8808 32.9699 16.0829C32.8802 16.2501 32.7583 16.3949 32.6145 16.5178C32.3892 16.7103 32.1556 16.8919 31.9296 17.0831C31.7406 17.2435 31.5577 17.4108 31.3728 17.5754C31.2263 17.7058 31.0797 17.8375 30.9332 17.9686C30.7441 18.1379 30.5551 18.3066 30.3661 18.4752C30.1661 18.6534 29.9662 18.8316 29.7648 19.0078C29.469 19.2659 29.1717 19.5232 28.8731 19.7793C28.7601 19.8755 28.6519 19.9752 28.5574 20.0906C28.4129 20.2674 28.3321 20.4723 28.2855 20.6914C28.2465 20.8744 28.2184 21.0601 28.1842 21.2445C28.1616 21.3674 28.1794 21.4766 28.278 21.5633C28.3746 21.6486 28.3766 21.7572 28.3479 21.8699C28.3177 21.9873 28.2609 22.0897 28.1787 22.1812C28.1246 22.242 28.0739 22.3095 28.039 22.3826C27.9979 22.4686 28.0554 22.5492 28.1506 22.5553C28.1992 22.5587 28.2479 22.5526 28.2965 22.5574C28.3294 22.5601 28.3629 22.5704 28.3937 22.5833C28.4417 22.6038 28.4609 22.6434 28.4533 22.6946C28.4485 22.7253 28.4396 22.7561 28.4355 22.7868C28.4225 22.8824 28.4691 22.9479 28.5656 22.9643C28.6239 22.9739 28.6834 22.9766 28.754 22.9834L28.7512 22.9841Z" fill="#193686"/>
<path d="M29.6992 22.5224V22.2684C29.6403 22.2684 29.5876 22.2684 29.5342 22.2684C29.5054 22.2684 29.4766 22.2691 29.4486 22.2636C29.3602 22.2465 29.315 22.1837 29.3315 22.0963C29.341 22.0465 29.3575 21.9973 29.378 21.9502C29.4143 21.8669 29.4554 21.785 29.4958 21.7031C29.5403 21.6109 29.5616 21.5167 29.4945 21.4286C29.402 21.3078 29.3931 21.1726 29.4143 21.0312C29.4438 20.8339 29.4883 20.6407 29.5472 20.4502C29.617 20.2256 29.7499 20.0433 29.9286 19.8945C30.1238 19.7327 30.3265 19.5804 30.521 19.4179C30.7642 19.2158 31.0032 19.0089 31.2422 18.8027C31.5805 18.5105 31.9216 18.221 32.2544 17.9227C32.5386 17.6673 32.8084 17.3977 33.0529 17.1027C33.0598 17.0945 33.0694 17.089 33.0837 17.0781C33.181 17.2085 33.2474 17.3471 33.27 17.5055C33.2995 17.7049 33.2419 17.8804 33.1317 18.0442C33.0091 18.2258 32.8475 18.3699 32.6845 18.5133C32.4304 18.7372 32.1729 18.9577 31.9174 19.1803C31.7476 19.3278 31.5791 19.4759 31.41 19.6241C31.2922 19.7272 31.1764 19.833 31.0573 19.9347C30.9402 20.0344 30.8176 20.128 30.7025 20.229C30.6066 20.313 30.5128 20.4011 30.4252 20.4939C30.2752 20.6523 30.2457 20.8469 30.2594 21.0572C30.2697 21.2122 30.3005 21.3685 30.267 21.5242C30.2519 21.5931 30.2259 21.6594 30.204 21.727C30.1841 21.7891 30.1635 21.8505 30.1396 21.9229C30.1923 21.9489 30.2403 21.9721 30.2875 21.9953C30.3156 22.0096 30.345 22.0219 30.3697 22.0403C30.4395 22.0929 30.4519 22.1387 30.4279 22.2267C30.4245 22.2397 30.4245 22.254 30.4224 22.2752H30.6019C30.5984 22.2991 30.5971 22.3148 30.5936 22.3291C30.5765 22.3961 30.5854 22.4295 30.6416 22.4671C30.6861 22.4964 30.7464 22.5101 30.7792 22.5476C30.8121 22.5859 30.8155 22.648 30.8402 22.6958C30.9011 22.8153 30.9984 22.8596 31.1388 22.8398C31.2935 22.818 31.4319 22.749 31.573 22.6876C31.7038 22.6309 31.8332 22.5702 31.9668 22.5203C32.2099 22.4288 32.4619 22.4193 32.7173 22.4473C32.9824 22.4766 33.2365 22.5531 33.4933 22.6166C33.7385 22.6774 33.9857 22.7176 34.2384 22.6985C34.3343 22.6917 34.4295 22.6671 34.5247 22.65C34.5493 22.6459 34.5733 22.6391 34.6157 22.6289C34.6021 22.6651 34.5986 22.6903 34.5849 22.7074C34.4582 22.8685 34.3391 23.0358 34.1898 23.1778C34.0008 23.3574 33.783 23.4823 33.52 23.5076C33.294 23.5294 33.068 23.5151 32.855 23.4277C32.6441 23.341 32.4379 23.2434 32.2284 23.1525C32.0654 23.0815 31.8969 23.0283 31.7161 23.0303C31.5915 23.0317 31.4737 23.0658 31.3572 23.1048C31.2189 23.1505 31.0833 23.2031 30.9456 23.2509C30.808 23.2987 30.6669 23.3335 30.521 23.3451C30.4265 23.3526 30.3327 23.3471 30.2423 23.315C30.0649 23.2509 29.9745 23.1013 29.9985 22.9143C30.0026 22.8835 30.0081 22.8528 30.0149 22.8119C29.9951 22.8009 29.9711 22.788 29.9471 22.775C29.8314 22.7129 29.8184 22.678 29.8636 22.5531C29.8348 22.5504 29.8061 22.549 29.7787 22.5442C29.754 22.5394 29.73 22.5306 29.6972 22.521L29.6992 22.5224Z" fill="#193686"/>
<path d="M28.3517 27.4284C28.3045 27.4756 28.2613 27.5288 28.2086 27.5698C27.9168 27.7965 27.5902 27.9514 27.2224 27.9951C26.7779 28.0484 26.3554 27.7726 26.2725 27.3001C26.2314 27.0666 26.2876 26.8467 26.4191 26.6494C26.5088 26.5142 26.6026 26.3804 26.7245 26.2719C26.8012 26.2043 26.8848 26.1442 26.967 26.0828C27.058 26.0138 27.1471 25.9435 27.2046 25.8411C27.2957 25.6779 27.2765 25.4778 27.1149 25.3406C26.9779 25.2239 26.8136 25.1576 26.6499 25.0907C26.367 24.9753 26.0842 24.8613 25.8034 24.7411C25.2494 24.5042 24.685 24.2974 24.1057 24.1294C23.8482 24.0543 23.5941 23.9676 23.3386 23.887C23.0668 23.801 22.7914 23.7239 22.5079 23.6883C22.3929 23.674 22.2737 23.6795 22.1573 23.6863C22.073 23.6911 21.9991 23.7327 21.9374 23.7914C21.8895 23.8372 21.8368 23.8741 21.7662 23.8945C21.7258 23.8338 21.7395 23.7662 21.745 23.7047C21.7614 23.5224 21.8244 23.3579 21.9477 23.2173C22.0559 23.0944 22.1929 23.0466 22.3511 23.0438C22.7757 23.0356 23.1921 23.0855 23.6016 23.1995C24.2118 23.3695 24.8179 23.5532 25.4178 23.7559C25.8609 23.9061 26.3006 24.0652 26.741 24.2229C27.1567 24.3725 27.5477 24.5705 27.9086 24.8258C27.9456 24.8518 27.9819 24.8804 28.0141 24.9118C28.1805 25.075 28.1524 25.2792 28.0579 25.4533C27.9915 25.5755 27.8881 25.6656 27.7847 25.7557C27.6388 25.8827 27.495 26.0124 27.3498 26.1408C27.0985 26.3627 27.0786 26.633 27.1909 26.9266C27.3005 27.2141 27.5306 27.3506 27.821 27.4039C27.9846 27.4339 28.1497 27.4305 28.3147 27.4107C28.323 27.41 28.3312 27.4114 28.3394 27.4121C28.3435 27.4175 28.3483 27.4237 28.3524 27.4291L28.3517 27.4284Z" fill="#193686"/>
<path d="M18.5635 13.1984C18.5745 13.1758 18.5786 13.1656 18.584 13.1567C18.6286 13.0809 18.6286 13.0577 18.571 12.9908C18.4539 12.8549 18.3354 12.7204 18.217 12.5859C18.1677 12.5295 18.1005 12.5179 18.0156 12.5511C18.0225 12.5313 18.0232 12.5136 18.0321 12.5047C18.0827 12.4589 18.1355 12.4159 18.1868 12.3709C18.2108 12.3497 18.2341 12.3579 18.2581 12.3688C18.367 12.418 18.4765 12.4671 18.5854 12.5163C18.671 12.5545 18.7559 12.5934 18.8498 12.6351C18.8498 12.6126 18.8532 12.5969 18.8498 12.5832C18.7957 12.4043 18.7422 12.2248 18.6861 12.0466C18.6662 11.9837 18.6662 11.9332 18.732 11.895C18.7683 11.8738 18.7964 11.839 18.8299 11.8131C18.845 11.8014 18.8655 11.7967 18.8861 11.7871C18.8888 11.8028 18.8909 11.8062 18.8902 11.8083C18.8361 11.9066 18.834 11.9086 18.9094 11.9974C19.0306 12.1408 19.1538 12.2821 19.2778 12.4234C19.2963 12.4439 19.3216 12.4583 19.3435 12.4753C19.3785 12.4589 19.4079 12.4446 19.4504 12.4241C19.4449 12.4494 19.4463 12.4678 19.4381 12.4753C19.3579 12.5477 19.2764 12.6187 19.1936 12.6883C19.1833 12.6965 19.1634 12.6931 19.1374 12.6965C19.2121 12.5771 19.2114 12.5777 19.121 12.476C19.0134 12.3552 18.908 12.2323 18.797 12.1128C18.8559 12.362 18.9463 12.6016 19.0039 12.8501C18.9984 12.8549 18.9936 12.8597 18.9881 12.8645C18.769 12.7662 18.5498 12.6679 18.3313 12.5695C18.3279 12.573 18.3245 12.5764 18.3211 12.5798C18.3533 12.6201 18.3841 12.661 18.4169 12.6999C18.4793 12.7737 18.543 12.8467 18.6066 12.9198C18.6217 12.9369 18.6382 12.9532 18.6553 12.9683C18.6902 12.999 18.7272 13.0133 18.7724 12.9874C18.7861 12.9799 18.8025 12.9778 18.8217 12.9724C18.8025 13.0331 18.6477 13.171 18.5649 13.1977L18.5635 13.1984Z" fill="#193686"/>
<path d="M20.1115 25.5847C20.0834 25.8277 20.0554 26.0701 20.0266 26.3132C20.0307 26.3145 20.0348 26.3159 20.0389 26.3173C20.1053 26.2094 20.1725 26.1008 20.2382 25.9923C20.2635 25.9513 20.2875 25.909 20.3122 25.8673C20.3382 25.8223 20.3361 25.7813 20.2944 25.7465C20.2841 25.7376 20.2759 25.7267 20.2656 25.7158C20.3081 25.6987 20.3074 25.6987 20.4122 25.767C20.4594 25.7977 20.5074 25.8264 20.5512 25.8721C20.5313 25.8721 20.5087 25.879 20.493 25.8708C20.4416 25.8441 20.4115 25.8721 20.3834 25.9069C20.3676 25.9267 20.3539 25.9493 20.3409 25.9711C20.2526 26.1138 20.1649 26.2572 20.0766 26.4006C20.0369 26.4652 20.0433 26.5251 20.0958 26.5801C20.0992 26.5835 20.0985 26.5911 20.1026 26.6088C20.0033 26.5917 19.9389 26.5214 19.8526 26.4798C19.8807 26.2476 19.9088 26.0155 19.9389 25.7656C19.7348 25.9028 19.5417 26.0326 19.3465 26.1637C19.3048 26.1391 19.2623 26.1159 19.2212 26.0906C19.1842 26.0674 19.1431 26.049 19.1055 26.0005C19.1342 26.0018 19.1507 25.9991 19.163 26.0039C19.215 26.0244 19.2507 26.0073 19.2781 25.9616C19.3041 25.9179 19.3335 25.8755 19.3602 25.8318C19.4404 25.7008 19.5212 25.5697 19.5992 25.4379C19.6417 25.3662 19.6397 25.3655 19.5766 25.3054C19.5705 25.3 19.5677 25.2918 19.5595 25.2788C19.5732 25.2734 19.589 25.2624 19.5951 25.2665C19.6972 25.3287 19.7985 25.3928 19.8992 25.457C19.9019 25.4591 19.9006 25.4673 19.9019 25.4864C19.8793 25.4816 19.8581 25.4809 19.8417 25.4727C19.8074 25.455 19.78 25.4618 19.7588 25.4905C19.7301 25.5294 19.7027 25.569 19.6773 25.6093C19.602 25.7294 19.528 25.851 19.4582 25.9779C19.5732 25.9254 19.6712 25.8462 19.7753 25.7779C19.8787 25.7096 19.9814 25.64 20.0848 25.571C20.093 25.5758 20.1012 25.5813 20.1088 25.5861L20.1115 25.5847Z" fill="#193686"/>
<path d="M16.9228 13.9114C16.9146 13.9285 16.9091 13.9415 16.9023 13.9538C16.881 13.9927 16.8886 14.0255 16.9235 14.0507C16.9975 14.1033 17.0728 14.1552 17.1557 14.2132C17.2289 14.1074 17.2995 14.0063 17.3755 13.8971C17.294 13.8418 17.218 13.7892 17.1406 13.738C17.105 13.7141 17.0721 13.7162 17.0433 13.753C17.0338 13.7653 17.0187 13.7728 16.9988 13.7879C16.994 13.7694 16.9865 13.7565 16.9906 13.7503C17.057 13.6493 17.1255 13.5496 17.1933 13.4492C17.1988 13.4513 17.2043 13.4526 17.2098 13.4547C17.2111 13.469 17.2166 13.484 17.2132 13.497C17.1913 13.5748 17.1899 13.5783 17.2536 13.6247C17.3549 13.6984 17.459 13.7681 17.5625 13.8391C17.6234 13.8807 17.685 13.9217 17.7467 13.9633C17.8172 14.0104 17.822 14.0098 17.8864 13.9558C17.8946 13.949 17.9035 13.9435 17.9138 13.9367C17.9213 13.9476 17.9309 13.9565 17.9289 13.9606C17.9015 14.0268 17.7412 14.2378 17.6878 14.2692C17.7015 14.2269 17.7118 14.1961 17.7234 14.1606C17.696 14.1088 17.6433 14.0801 17.594 14.0473C17.544 14.0139 17.4947 13.9804 17.4392 13.9422C17.368 14.0453 17.2967 14.147 17.2187 14.2596C17.3104 14.3197 17.3967 14.3778 17.4864 14.4317C17.5001 14.4399 17.5289 14.4303 17.5474 14.4221C17.5686 14.4126 17.5864 14.3955 17.6131 14.3764C17.6083 14.4344 17.507 14.6037 17.4275 14.6952C17.4207 14.7034 17.4049 14.7041 17.3775 14.7144C17.394 14.672 17.4049 14.644 17.4193 14.6065C17.396 14.5826 17.3721 14.5498 17.3413 14.528C17.192 14.4235 17.0413 14.3211 16.8899 14.2187C16.7982 14.1565 16.7975 14.1579 16.7078 14.2207C16.7043 14.2235 16.6975 14.2207 16.6797 14.2207C16.718 14.1122 16.7982 14.0343 16.8543 13.9442C16.866 13.9251 16.8762 13.8944 16.9228 13.9135V13.9114Z" fill="#193686"/>
<path d="M16.1373 16.4031C16.0346 16.3764 15.9394 16.3498 15.8428 16.3293C15.8264 16.3259 15.8024 16.3443 15.786 16.3587C15.7682 16.3744 15.7559 16.3962 15.7374 16.4194C15.7244 16.358 15.7942 16.0938 15.8374 16.0371C15.8435 16.0528 15.8524 16.0644 15.8524 16.076C15.8524 16.1539 15.8613 16.1682 15.9319 16.19C15.9894 16.2078 16.0462 16.2242 16.1045 16.2399C16.2229 16.272 16.3414 16.302 16.4592 16.3341C16.5859 16.3682 16.5852 16.3689 16.6592 16.2631C16.6667 16.2768 16.6797 16.289 16.677 16.2979C16.6469 16.4072 16.6154 16.5157 16.5832 16.6243C16.5818 16.6284 16.5743 16.6297 16.5695 16.6331C16.566 16.6297 16.5585 16.6263 16.5592 16.6236C16.5681 16.5417 16.5222 16.5055 16.4496 16.4884C16.3702 16.4693 16.2921 16.4474 16.2092 16.4256C16.1729 16.5546 16.1401 16.6741 16.1058 16.797C16.1969 16.8223 16.2811 16.8475 16.3661 16.8694C16.4407 16.8892 16.4435 16.8864 16.4893 16.8182C16.4955 16.8093 16.503 16.8011 16.5119 16.7943C16.5154 16.7915 16.5222 16.7943 16.5387 16.7956C16.5092 16.9206 16.4798 17.0428 16.4291 17.1787C16.4133 17.1514 16.4044 17.1432 16.4044 17.1343C16.4024 17.0455 16.3969 17.0339 16.312 17.01C16.1668 16.9691 16.0209 16.9315 15.8757 16.8926C15.8374 16.8824 15.799 16.8714 15.7607 16.8598C15.6792 16.8366 15.6607 16.8441 15.6162 16.9185C15.6121 16.9254 15.6066 16.9308 15.5949 16.9458C15.5675 16.8673 15.61 16.8079 15.6257 16.7465C15.6415 16.6864 15.6422 16.6195 15.6956 16.5499C15.7025 16.5874 15.71 16.6079 15.7086 16.6277C15.7066 16.6693 15.7278 16.6925 15.7641 16.7028C15.8517 16.7274 15.9394 16.7499 16.0339 16.7752C16.0675 16.6536 16.099 16.5376 16.1366 16.4031H16.1373Z" fill="#193686"/>
<path d="M15.6769 21.0416C15.6263 20.9255 15.6044 20.8012 15.5742 20.679C15.5797 20.6756 15.5852 20.6722 15.5907 20.6688C15.6016 20.6804 15.6153 20.6906 15.6235 20.7036C15.6591 20.7603 15.6783 20.7698 15.742 20.7521C15.9091 20.707 16.0762 20.6606 16.2433 20.6148C16.2488 20.6135 16.2536 20.6094 16.2591 20.6087C16.3488 20.5971 16.4227 20.5711 16.4036 20.4551C16.4447 20.4735 16.444 20.4735 16.4864 20.6271C16.5029 20.6879 16.5296 20.7466 16.5234 20.8176C16.5097 20.8115 16.4981 20.8094 16.496 20.804C16.4659 20.7268 16.4145 20.7159 16.3399 20.7432C16.2632 20.7712 16.1824 20.7869 16.1022 20.8087C16.1378 20.9357 16.17 21.0525 16.2056 21.1802C16.3084 21.1556 16.4097 21.1344 16.507 21.0969C16.5446 21.0825 16.5494 21.0484 16.5474 21.0122C16.5474 20.9979 16.5515 20.9835 16.5549 20.963C16.6042 21.0238 16.6748 21.2819 16.659 21.3454C16.6453 21.331 16.6337 21.3208 16.6255 21.3085C16.5844 21.2471 16.5707 21.2416 16.4981 21.2614C16.3166 21.3106 16.1358 21.3597 15.955 21.4089C15.9386 21.4137 15.9221 21.4191 15.9057 21.4239C15.8625 21.4362 15.8358 21.4601 15.8406 21.5092C15.842 21.5249 15.8365 21.542 15.8338 21.5611C15.7941 21.5229 15.718 21.2587 15.7256 21.1924C15.7598 21.1911 15.7646 21.2211 15.7756 21.2416C15.7934 21.2744 15.8201 21.2867 15.8536 21.2778C15.944 21.2546 16.0344 21.2293 16.1296 21.2041C16.1002 21.088 16.0721 20.976 16.042 20.8647C16.0351 20.8388 16.0159 20.8299 15.9886 20.8381C15.918 20.8599 15.8461 20.8784 15.7762 20.9016C15.705 20.9248 15.7057 20.9262 15.7057 21.004C15.7057 21.0163 15.6989 21.0279 15.6954 21.0402C15.6893 21.0402 15.6831 21.0416 15.6769 21.0422V21.0416Z" fill="#193686"/>
<path d="M22.0664 26.4608C22.0493 26.4656 22.0369 26.471 22.0246 26.471C21.9452 26.4717 21.9424 26.471 21.9143 26.5461C21.8671 26.6738 21.8233 26.8028 21.7787 26.9312C21.7582 26.9899 21.7363 27.0486 21.7178 27.1087C21.6945 27.1831 21.6972 27.1845 21.7603 27.2357C21.7705 27.2439 21.7753 27.2596 21.7904 27.2842C21.765 27.2801 21.7548 27.2794 21.7452 27.276C21.613 27.2309 21.4808 27.1872 21.35 27.1387C21.311 27.1244 21.2747 27.0985 21.2418 27.0718C21.1569 27.0022 21.137 26.9237 21.174 26.8213C21.2048 26.7339 21.2754 26.6861 21.3774 26.6813C21.4021 26.6799 21.4274 26.6779 21.4617 26.6758C21.4096 26.5352 21.363 26.4014 21.3103 26.2703C21.2966 26.2368 21.2637 26.2109 21.2295 26.1699C21.3165 26.1754 21.3808 26.202 21.4418 26.2314C21.4603 26.2402 21.4712 26.2717 21.4801 26.2949C21.5267 26.4164 21.5712 26.5393 21.6171 26.6615C21.6267 26.6868 21.6418 26.7093 21.6541 26.7346C21.6712 26.727 21.6835 26.7257 21.6856 26.7202C21.7157 26.6376 21.7472 26.5557 21.7726 26.4724C21.7842 26.4328 21.776 26.3932 21.7287 26.3741C21.7151 26.3686 21.7061 26.3536 21.6918 26.3406C21.7507 26.3235 21.9931 26.4021 22.0671 26.4608H22.0664ZM21.6637 26.7981C21.5973 26.7851 21.5397 26.7653 21.4822 26.7639C21.3562 26.7612 21.2658 26.9168 21.3322 27.0206C21.3706 27.0807 21.4363 27.106 21.5041 27.1217C21.537 27.1292 21.5569 27.1128 21.5671 27.0807C21.5959 26.9926 21.6267 26.9046 21.663 26.7981H21.6637Z" fill="#193686"/>
<path d="M23.3388 10.9401C23.295 10.9476 23.2505 10.9646 23.2074 10.9612C23.1265 10.9544 23.0485 10.9981 22.9553 10.9715C22.9725 10.9551 22.9807 10.9408 22.9903 10.9394C23.0505 10.9305 23.0601 10.8916 23.056 10.8404C23.045 10.7134 23.0361 10.5864 23.0238 10.4594C23.017 10.3864 23.0019 10.314 22.9964 10.2403C22.9916 10.174 22.9683 10.1317 22.8951 10.1296C22.8889 10.1296 22.8827 10.1208 22.8711 10.1126C22.8827 10.1037 22.8896 10.0928 22.8985 10.0921C22.969 10.0839 23.0396 10.0771 23.1108 10.0696C23.1478 10.0655 23.1848 10.0641 23.2204 10.0566C23.3094 10.0382 23.3984 10.0464 23.4813 10.0778C23.5614 10.1085 23.6046 10.1754 23.6142 10.2614C23.6237 10.3495 23.5881 10.4164 23.5135 10.4621C23.4847 10.4799 23.4532 10.4929 23.4224 10.5079C23.4669 10.596 23.7025 10.8138 23.8292 10.8827C23.8114 10.8909 23.7991 10.8991 23.7854 10.9032C23.7744 10.9059 23.7614 10.9012 23.7511 10.9046C23.6361 10.9455 23.5614 10.8889 23.4895 10.8069C23.4183 10.7257 23.3375 10.6526 23.2594 10.5775C23.243 10.5618 23.2211 10.5523 23.1923 10.5454C23.2032 10.6526 23.1895 10.7571 23.2217 10.8575C23.232 10.8889 23.2505 10.9039 23.2841 10.9046C23.3019 10.9046 23.3197 10.9121 23.3375 10.9155V10.9394L23.3388 10.9401ZM23.1909 10.5004C23.2649 10.4724 23.3299 10.4526 23.3902 10.4232C23.4429 10.3966 23.4649 10.3454 23.4573 10.2867C23.4498 10.2266 23.432 10.1727 23.3669 10.144C23.2971 10.1133 23.2293 10.1208 23.1519 10.1433C23.1567 10.2573 23.1553 10.3713 23.1909 10.5004Z" fill="#193686"/>
<path d="M16.9641 15.3809C16.9703 15.4881 16.9888 15.5898 16.9449 15.6874C16.9107 15.7632 16.8621 15.8226 16.7744 15.8397C16.695 15.8554 16.5874 15.8117 16.5443 15.742C16.5018 15.6731 16.4738 15.5993 16.4758 15.5167C16.4758 15.4997 16.4738 15.4833 16.4724 15.458C16.4299 15.4519 16.3888 15.4471 16.3478 15.4389C16.2574 15.4205 16.1896 15.3706 16.1601 15.2826C16.1348 15.2074 16.1512 15.1364 16.2046 15.0764C16.2443 15.0313 16.295 15.004 16.356 15.0163C16.4272 15.0306 16.484 15.0695 16.5046 15.1419C16.519 15.1931 16.5244 15.247 16.5361 15.3126C16.6292 15.2962 16.7272 15.301 16.8347 15.2621C16.7936 15.204 16.7621 15.1501 16.7217 15.105C16.6751 15.0538 16.6587 15.0572 16.6005 15.1016C16.5922 15.1078 16.582 15.1105 16.571 15.116C16.5669 15.0525 16.6374 14.8968 16.6977 14.834C16.7032 14.8449 16.7135 14.8565 16.7114 14.862C16.6881 14.9139 16.7114 14.9541 16.7395 14.9958C16.7936 15.0757 16.8456 15.1569 16.8984 15.2368C17.049 15.2238 17.1141 15.1317 17.0778 14.9815C17.1045 14.963 17.1216 14.9815 17.1326 14.9999C17.2079 15.1194 17.1887 15.2587 17.062 15.3303C17.0299 15.3481 16.997 15.3638 16.9655 15.3795L16.9641 15.3809ZM16.5327 15.4567C16.547 15.5638 16.5779 15.6546 16.6888 15.6826C16.7525 15.6983 16.8189 15.6949 16.8662 15.6335C16.9141 15.5714 16.9217 15.4833 16.8833 15.4136C16.7689 15.428 16.6546 15.4416 16.5327 15.4567ZM16.4566 15.314C16.4614 15.2006 16.4203 15.1255 16.3443 15.1037C16.2957 15.09 16.2498 15.1084 16.2279 15.1508C16.2053 15.1945 16.2156 15.2423 16.2621 15.2689C16.3217 15.303 16.3868 15.3208 16.4566 15.314Z" fill="#193686"/>
<path d="M25.3963 26.6692C25.3675 26.6862 25.3572 26.6938 25.3463 26.6992C25.2723 26.7375 25.2682 26.7497 25.2771 26.8337C25.2949 27.003 25.3106 27.1717 25.3271 27.341C25.3285 27.3553 25.3298 27.369 25.3312 27.3833C25.3367 27.4537 25.3545 27.5124 25.4428 27.5117C25.4469 27.5117 25.451 27.5185 25.4593 27.526C25.4517 27.5329 25.4449 27.5438 25.4373 27.5445C25.2956 27.5568 25.1545 27.5718 25.0127 27.5779C24.9484 27.5806 24.8826 27.569 24.8196 27.554C24.6778 27.5206 24.5861 27.4304 24.5416 27.2925C24.4738 27.0843 24.5416 26.8774 24.7135 26.7682C24.7902 26.7197 24.8765 26.6999 24.9641 26.689C25.0826 26.6746 25.2018 26.6699 25.3209 26.6623C25.3387 26.661 25.3572 26.6658 25.3963 26.6692ZM25.1819 27.4905C25.1819 27.4598 25.184 27.4311 25.1819 27.4031C25.1648 27.2024 25.1483 27.0024 25.1292 26.8016C25.1251 26.7538 25.1031 26.7381 25.0531 26.7456C25.0052 26.7525 24.958 26.7634 24.9121 26.7771C24.7826 26.816 24.7066 26.9061 24.6806 27.0358C24.6642 27.1177 24.6772 27.1997 24.7052 27.2789C24.7696 27.4612 24.9853 27.5615 25.1819 27.4905Z" fill="#193686"/>
<path d="M18.3192 25.3437C18.2479 25.3335 18.1295 25.216 18.1253 25.1642C18.124 25.1471 18.124 25.13 18.1253 25.113C18.1521 24.8822 18.1794 24.6521 18.2 24.4166C18.0664 24.5367 17.9322 24.6535 17.8247 24.7941C17.8452 24.8351 17.861 24.8672 17.8822 24.9088C17.8048 24.9068 17.7816 24.8515 17.7459 24.8125C17.7083 24.7716 17.6692 24.7313 17.6172 24.676C17.6528 24.6787 17.6686 24.676 17.6809 24.6821C17.7596 24.717 17.7672 24.7183 17.8302 24.6576C17.9185 24.5729 18.0034 24.4841 18.0911 24.3988C18.1705 24.321 18.2514 24.2445 18.3322 24.1687C18.3418 24.1598 18.3541 24.1544 18.3794 24.1387C18.3794 24.3046 18.35 24.4541 18.3376 24.6043C18.3253 24.7531 18.3027 24.902 18.2849 25.0508C18.2904 25.0536 18.2959 25.0563 18.3014 25.0583C18.3294 25.029 18.3561 24.9989 18.3849 24.9703C18.4691 24.8856 18.5547 24.8009 18.639 24.7163C18.7205 24.635 18.7212 24.6309 18.6766 24.5258C18.6753 24.5217 18.6794 24.5155 18.6814 24.5108C18.7349 24.5203 18.8828 24.6623 18.9177 24.7443C18.8944 24.7374 18.8739 24.7374 18.8616 24.7272C18.817 24.6917 18.7766 24.706 18.7362 24.7333C18.7294 24.7381 18.7225 24.7443 18.7171 24.7497C18.5773 24.8883 18.4376 25.0269 18.2986 25.1662C18.2623 25.2024 18.2596 25.2358 18.2829 25.2823C18.2918 25.2993 18.3027 25.3157 18.3192 25.3437Z" fill="#193686"/>
<path d="M20.1776 11.2303C20.2392 11.3546 20.3008 11.4788 20.3625 11.6031C20.3714 11.6209 20.3817 11.6379 20.3899 11.6564C20.4207 11.728 20.4625 11.7806 20.5529 11.7499C20.5584 11.7478 20.5666 11.7554 20.5871 11.7642C20.4947 11.8393 20.3878 11.8639 20.2913 11.9219C20.2769 11.8769 20.3043 11.8653 20.3214 11.8503C20.357 11.8202 20.3639 11.7874 20.3433 11.7451C20.2721 11.5997 20.2022 11.4529 20.1317 11.3068C20.1159 11.2733 20.0981 11.2406 20.0831 11.2071C20.0577 11.1504 20.0173 11.1245 19.9536 11.1375C19.9392 11.1402 19.9228 11.1354 19.8906 11.132C19.9612 11.0747 20.0296 11.0487 20.0961 11.0214C20.1146 11.0139 20.1447 11.0282 20.1673 11.0385C20.3639 11.1286 20.5604 11.2208 20.757 11.3116C20.7748 11.3198 20.7926 11.3266 20.8227 11.3389C20.8138 11.3102 20.8111 11.2918 20.8028 11.2754C20.7535 11.1757 20.7035 11.0767 20.6535 10.9784C20.6433 10.9579 20.6309 10.9388 20.6186 10.9197C20.5755 10.8541 20.5734 10.8534 20.4933 10.8698C20.483 10.8719 20.4721 10.8712 20.4597 10.8719C20.4837 10.8145 20.6337 10.734 20.7522 10.7148C20.7433 10.7326 20.7392 10.7476 20.7302 10.7585C20.6672 10.8282 20.6659 10.8302 20.7063 10.9142C20.7686 11.0419 20.8323 11.1696 20.8953 11.2972C20.933 11.3737 20.972 11.4502 21.009 11.5266C21.0158 11.5403 21.0172 11.5574 21.0247 11.5881C20.8672 11.5437 20.7385 11.4652 20.6022 11.4065C20.4638 11.3471 20.3282 11.2808 20.1913 11.2173C20.1865 11.2214 20.1824 11.2255 20.1776 11.2303Z" fill="#193686"/>
<path d="M17.4148 22.9612C17.4251 23.166 17.2457 23.3544 17.058 23.409C16.919 23.4493 16.7868 23.4377 16.6677 23.3517C16.4657 23.2063 16.3979 22.9031 16.5923 22.6935C16.7211 22.5549 16.882 22.4867 17.0779 22.531C17.2683 22.5747 17.421 22.7727 17.4155 22.9612H17.4148ZM16.5643 23.0513C16.5643 23.1994 16.6875 23.3128 16.8409 23.2978C17.0101 23.2814 17.1457 23.194 17.2601 23.0731C17.2813 23.0506 17.2957 23.0219 17.3087 22.9933C17.3525 22.9004 17.3334 22.8157 17.2697 22.74C17.2067 22.6655 17.1258 22.6307 17.0279 22.6491C16.8896 22.6758 16.7718 22.7427 16.6677 22.8342C16.604 22.8902 16.5656 22.9632 16.5643 23.0506V23.0513Z" fill="#193686"/>
<path d="M18.9895 24.7683C19.1854 24.926 19.373 25.0775 19.5607 25.2284C19.5408 25.2646 19.5196 25.2544 19.5004 25.2407C19.4552 25.2093 19.4209 25.2243 19.3894 25.2626C19.3244 25.3418 19.2579 25.4196 19.1936 25.4995C19.1306 25.5766 19.0703 25.6558 19.008 25.7337C18.9518 25.8047 18.9518 25.804 19.0025 25.8784C19.0093 25.888 19.0107 25.9009 19.0162 25.9173C18.9573 25.9023 18.5375 25.576 18.4375 25.4701C18.4772 25.4189 18.5183 25.367 18.5567 25.3179C18.6005 25.3322 18.5916 25.3588 18.5799 25.3759C18.5382 25.4415 18.5656 25.4899 18.6156 25.5323C18.6827 25.5889 18.7512 25.6435 18.8265 25.7043C18.8662 25.6579 18.9011 25.6183 18.9354 25.5773C18.9676 25.5384 18.9991 25.4981 19.0333 25.4551C18.971 25.4059 18.9135 25.3595 18.8559 25.3138C18.8155 25.2817 18.7758 25.2749 18.732 25.3097C18.7169 25.322 18.6957 25.3261 18.669 25.337C18.6861 25.266 18.8073 25.113 18.8717 25.0721C18.9032 25.0987 18.8785 25.1247 18.8683 25.1479C18.8511 25.1888 18.8621 25.2237 18.8916 25.2489C18.9511 25.3001 19.0155 25.3465 19.0826 25.3984C19.1573 25.3029 19.2264 25.2141 19.2984 25.1226C19.2169 25.0339 19.1306 24.9663 19.0306 24.9171C18.982 24.8925 18.9313 24.9082 18.882 24.9267C18.8395 24.943 18.8388 24.9417 18.7916 24.9157C18.8573 24.8659 18.9203 24.8188 18.9881 24.7676L18.9895 24.7683Z" fill="#193686"/>
<path d="M26.3882 10.748C26.356 10.8579 26.3265 10.9583 26.2978 11.0586C26.2902 11.0853 26.3046 11.1023 26.33 11.1105C26.43 11.1419 26.5299 11.1836 26.6375 11.1686C26.6744 11.1638 26.7094 11.1392 26.7429 11.1187C26.7662 11.1044 26.7854 11.0825 26.8066 11.0634C26.8361 11.1051 26.8073 11.172 26.7162 11.286C26.4635 11.2355 26.0745 11.118 26.0156 11.0702C26.0362 11.0662 26.0519 11.0586 26.0663 11.0614C26.117 11.0716 26.1403 11.0477 26.1533 11.0027C26.1862 10.888 26.2218 10.7746 26.2546 10.6599C26.28 10.5725 26.3053 10.4851 26.3259 10.3971C26.343 10.3233 26.3402 10.3226 26.2772 10.281C26.2683 10.2755 26.2615 10.2673 26.2361 10.2441C26.2759 10.2441 26.2964 10.2393 26.3149 10.2448C26.5258 10.3042 26.7361 10.3657 26.9456 10.4264C26.9244 10.5841 26.9148 10.6067 26.8642 10.6128C26.8457 10.4749 26.8416 10.4687 26.6998 10.4257C26.6375 10.4066 26.5738 10.3909 26.4991 10.3697C26.4683 10.4715 26.4382 10.5705 26.406 10.6784C26.4889 10.7016 26.5662 10.7282 26.6457 10.7439C26.6703 10.7487 26.7039 10.7296 26.7279 10.7132C26.7477 10.6995 26.7594 10.6743 26.7847 10.6401C26.7936 10.6674 26.8053 10.6838 26.8018 10.6968C26.7827 10.7739 26.7601 10.8504 26.7388 10.9269C26.732 10.9535 26.7183 10.9672 26.684 10.9535C26.6813 10.9228 26.6786 10.8893 26.6751 10.8511C26.5971 10.789 26.495 10.7828 26.3896 10.7473L26.3882 10.748Z" fill="#193686"/>
<path d="M22.7335 10.318C22.7013 10.3474 22.6794 10.3351 22.6698 10.3071C22.6452 10.2388 22.5931 10.2265 22.5322 10.2368C22.4431 10.2511 22.3548 10.2702 22.2562 10.2887C22.2781 10.3986 22.2973 10.4969 22.3171 10.5986C22.4096 10.5986 22.4918 10.5754 22.5705 10.5461C22.5979 10.5358 22.613 10.4908 22.6301 10.4594C22.6383 10.4443 22.6383 10.4239 22.6513 10.4061C22.7061 10.5037 22.7096 10.6123 22.7363 10.7147C22.7315 10.7188 22.7267 10.7222 22.7219 10.7263C22.7082 10.7174 22.687 10.7113 22.6815 10.699C22.6493 10.6266 22.5959 10.6164 22.5267 10.6348C22.4671 10.6505 22.4062 10.6621 22.3363 10.6778C22.3617 10.7932 22.3849 10.9004 22.4103 11.0158C22.539 11.0158 22.6609 10.9987 22.7657 10.9243C22.7952 10.9031 22.8082 10.8588 22.8273 10.8246C22.8404 10.8021 22.8397 10.768 22.8828 10.7625V10.998C22.6493 11.0622 22.4075 11.1039 22.1692 11.1551C22.1521 11.1141 22.1815 11.1114 22.1993 11.1005C22.2637 11.0615 22.2644 11.0588 22.2487 10.9844C22.2082 10.7994 22.1678 10.6137 22.1288 10.428C22.1096 10.3344 22.1048 10.329 22.0131 10.316C22.0035 10.3146 21.9939 10.3078 21.9727 10.2982C22.0494 10.2463 22.1315 10.2525 22.2041 10.2306C22.2822 10.2067 22.3658 10.2006 22.4466 10.1842C22.524 10.1678 22.6007 10.1487 22.6842 10.1289C22.7027 10.1979 22.7185 10.2593 22.7342 10.318H22.7335Z" fill="#193686"/>
<path d="M15.9607 20.2173C16.0874 20.1982 16.1991 20.1811 16.3175 20.1634C16.3127 20.0336 16.3031 19.9155 16.2429 19.8104C16.2251 19.7797 16.1819 19.7626 16.1491 19.7407C16.1251 19.725 16.0867 19.7257 16.0806 19.6738C16.1628 19.6793 16.2395 19.6841 16.3237 19.6902C16.3614 19.9346 16.3977 20.1722 16.4346 20.4105C16.4278 20.4132 16.4209 20.416 16.4141 20.4194C16.4025 20.403 16.3874 20.388 16.3799 20.3702C16.3634 20.3286 16.336 20.317 16.2922 20.3245C16.2278 20.3354 16.1621 20.3381 16.0977 20.3484C15.9628 20.3695 15.8279 20.3921 15.6936 20.416C15.5971 20.433 15.5971 20.4344 15.582 20.5307C15.5806 20.5375 15.5745 20.5437 15.5621 20.5628C15.519 20.4378 15.5142 20.3177 15.495 20.2002C15.4752 20.0828 15.458 19.9654 15.4375 19.8397C15.5067 19.8281 15.5717 19.8172 15.6361 19.8063C15.6402 19.8124 15.6436 19.8193 15.6477 19.8254C15.6382 19.8384 15.6306 19.8589 15.6183 19.8623C15.5389 19.8862 15.5217 19.9428 15.5327 20.0159C15.5437 20.0855 15.5539 20.1558 15.5663 20.2255C15.5731 20.2665 15.595 20.2801 15.6395 20.2699C15.7197 20.2521 15.8018 20.2426 15.8916 20.2289C15.8833 20.1347 15.8799 20.0446 15.8422 19.9619C15.8327 19.9415 15.7977 19.9312 15.7731 19.9196C15.7546 19.9114 15.7327 19.9087 15.706 19.9019C15.7683 19.8479 15.9477 19.822 16.0484 19.852C16.0162 19.8711 15.9936 19.8841 15.9717 19.8978C15.9436 19.9148 15.9224 19.9374 15.9272 19.9736C15.9381 20.0514 15.9491 20.1292 15.9614 20.218L15.9607 20.2173Z" fill="#193686"/>
<path d="M23.7997 27.0108C23.8127 27.0319 23.8216 27.0401 23.823 27.0497C23.8367 27.1371 23.8983 27.1548 23.973 27.1548C24.0319 27.1548 24.0908 27.1548 24.1551 27.1548C24.1565 27.1432 24.1606 27.1268 24.1606 27.1104C24.1606 27.0114 24.1606 26.9118 24.1606 26.8039C24.0312 26.7773 23.9072 26.7636 23.7894 26.8216C23.7525 26.8401 23.7278 26.8858 23.6997 26.9213C23.6847 26.9404 23.6744 26.9602 23.6367 26.9377C23.6566 26.866 23.6778 26.7909 23.7011 26.709C23.7874 26.7144 23.8696 26.7206 23.9517 26.7233C24.0319 26.7261 24.112 26.7213 24.1914 26.7247C24.2716 26.7281 24.3531 26.7124 24.4489 26.7397C24.4229 26.7581 24.4127 26.7718 24.4017 26.7725C24.3332 26.7745 24.3181 26.821 24.3106 26.8749C24.3072 26.8974 24.3044 26.92 24.3044 26.9425C24.3044 27.122 24.3044 27.3016 24.3044 27.4805C24.3044 27.5549 24.3051 27.5549 24.3791 27.5809C24.3894 27.5843 24.3996 27.5897 24.4113 27.5952C24.3558 27.6259 23.8559 27.6273 23.7004 27.5972V27.4143C23.736 27.4006 23.7449 27.4245 23.7483 27.4464C23.7614 27.5201 23.8141 27.5426 23.8785 27.5447C23.9634 27.5467 24.0483 27.5447 24.1456 27.5447C24.1517 27.4361 24.1572 27.3364 24.1634 27.2272C24.0812 27.2238 24.0106 27.2197 23.9401 27.2176C23.8833 27.2163 23.8415 27.2388 23.8257 27.2975C23.8216 27.3132 23.8134 27.3276 23.8045 27.3487C23.7901 27.3392 23.7709 27.3317 23.7716 27.3248C23.773 27.2231 23.7436 27.1186 23.7997 27.0094V27.0108Z" fill="#193686"/>
<path d="M23.307 27.0544C23.32 26.9629 23.3324 26.8816 23.344 26.8004C23.3502 26.7553 23.3235 26.7321 23.2865 26.7164C23.268 26.7082 23.2502 26.7 23.2344 26.683C23.2995 26.6509 23.3604 26.6884 23.4228 26.6857C23.4837 26.683 23.5453 26.7021 23.6097 26.7267C23.594 26.7328 23.5789 26.741 23.5632 26.7451C23.5193 26.7553 23.4947 26.7765 23.4892 26.825C23.4755 26.952 23.4563 27.0783 23.4406 27.2053C23.4317 27.2783 23.4262 27.3521 23.4166 27.4251C23.4084 27.4866 23.4111 27.5391 23.4865 27.5562C23.496 27.5583 23.5022 27.576 23.5207 27.5992C23.4495 27.5917 23.3947 27.5876 23.3399 27.5801C23.2413 27.5664 23.142 27.5555 23.0447 27.5337C22.9694 27.5173 22.9002 27.4859 22.8584 27.4108C22.7749 27.2619 22.8502 27.0865 23.0201 27.0564C23.0865 27.0448 23.1557 27.051 23.2235 27.0503C23.2488 27.0503 23.2735 27.053 23.3077 27.0551L23.307 27.0544ZM23.2995 27.1343C23.168 27.0994 23.0728 27.1158 23.0276 27.1752C22.979 27.238 22.968 27.335 23.0029 27.3903C23.0509 27.4668 23.1502 27.5057 23.2536 27.4845C23.2687 27.3705 23.2837 27.2544 23.3002 27.1343H23.2995Z" fill="#193686"/>
<path d="M17.2891 13.3387C17.3089 13.3114 17.326 13.2813 17.3493 13.2574C17.4171 13.1892 17.4685 13.1038 17.5609 13.0553C17.5568 13.0704 17.5548 13.0854 17.5479 13.099C17.5185 13.1618 17.5185 13.181 17.5678 13.2247C17.6883 13.3325 17.8102 13.4397 17.9349 13.5435C17.9958 13.5947 18.0712 13.6254 18.1485 13.5886C18.2369 13.5462 18.2985 13.4732 18.3163 13.3749C18.3259 13.3202 18.3006 13.267 18.2602 13.2281C18.1616 13.1339 18.0602 13.043 17.9595 12.9502C17.9342 12.927 17.9102 12.9024 17.8828 12.8826C17.8411 12.8532 17.7972 12.8369 17.75 12.8744C17.739 12.8833 17.7226 12.886 17.7034 12.8935C17.7246 12.8239 17.8369 12.6914 17.9212 12.6348C17.9212 12.6552 17.9267 12.6737 17.9205 12.6832C17.8787 12.7433 17.8999 12.7877 17.9493 12.8307C18.0431 12.9133 18.1355 12.998 18.2273 13.0833C18.2581 13.112 18.2855 13.1455 18.3163 13.1748C18.4177 13.2738 18.4006 13.4582 18.3061 13.564C18.2869 13.5852 18.265 13.6036 18.2458 13.6248C18.1301 13.7558 17.9486 13.7572 17.8102 13.6384C17.7 13.5435 17.5925 13.4472 17.4822 13.3523C17.4096 13.2902 17.4089 13.2909 17.3308 13.3435C17.3247 13.3476 17.3158 13.3482 17.3082 13.351C17.3021 13.3462 17.2959 13.3414 17.2904 13.3373L17.2891 13.3387Z" fill="#193686"/>
<path d="M29.0055 11.3965C29.1178 11.4648 29.2171 11.5446 29.3205 11.6197L29.3089 11.6409C29.2945 11.6389 29.2787 11.6389 29.265 11.6341C29.1959 11.6095 29.1849 11.6102 29.1424 11.6682C29.0514 11.7918 28.963 11.9174 28.8719 12.0417C28.7432 12.2178 28.8329 12.3284 28.9918 12.4042C29.0829 12.4472 29.1404 12.4308 29.2171 12.34C29.3253 12.2124 29.4171 12.071 29.5157 11.9359C29.5431 11.8976 29.5499 11.8594 29.5143 11.8205C29.502 11.8068 29.4944 11.7884 29.4828 11.7693C29.5506 11.7706 29.7355 11.9031 29.7526 11.9638C29.7341 11.9591 29.7184 11.957 29.704 11.9522C29.6376 11.9304 29.6239 11.9311 29.5807 11.9871C29.5075 12.082 29.4383 12.1789 29.3684 12.2759C29.3232 12.3387 29.2794 12.4001 29.2123 12.4431C29.1219 12.5005 29.0267 12.5032 28.9356 12.4588C28.8726 12.4281 28.8137 12.3851 28.7623 12.3373C28.6665 12.2472 28.6617 12.0861 28.7288 11.983C28.7986 11.8758 28.876 11.7734 28.95 11.6689C28.9746 11.6341 28.9993 11.5993 29.0233 11.5644C29.0493 11.5269 29.052 11.4921 29.0137 11.4593C28.9979 11.4456 28.974 11.4306 29.0048 11.3972L29.0055 11.3965Z" fill="#193686"/>
<path d="M27.5916 10.6964C27.621 10.6861 27.645 10.6779 27.6737 10.6677C27.6662 10.7749 27.6196 10.9265 27.5724 10.9783C27.5696 10.9347 27.5683 10.9026 27.5662 10.8712C27.5601 10.7872 27.5224 10.7189 27.4525 10.6718C27.3882 10.6288 27.3046 10.6397 27.269 10.695C27.2443 10.7326 27.2347 10.7728 27.2635 10.8145C27.3135 10.8869 27.3635 10.9592 27.4108 11.033C27.4409 11.0808 27.4744 11.1286 27.4923 11.1811C27.5416 11.3266 27.4409 11.4754 27.2875 11.489C27.1895 11.4979 27.0991 11.4713 27.0259 11.4064C26.9807 11.3662 26.9403 11.3341 26.8711 11.375C26.8738 11.2644 26.9163 11.1736 26.9327 11.076C26.98 11.0739 26.9786 11.1053 26.9772 11.1327C26.9745 11.1948 26.9964 11.2487 27.0245 11.3027C27.0601 11.3696 27.1217 11.3996 27.1882 11.416C27.2676 11.4358 27.3676 11.3245 27.3368 11.2453C27.3087 11.1722 27.2621 11.106 27.2204 11.0391C27.1978 11.0029 27.1683 10.9715 27.1443 10.9367C27.0635 10.8186 27.0964 10.695 27.1704 10.6254C27.2539 10.5469 27.3957 10.5441 27.495 10.6179C27.5292 10.6431 27.5607 10.6718 27.5916 10.6971V10.6964Z" fill="#193686"/>
<path d="M21.5459 11.3702C21.5028 11.2828 21.4596 11.1947 21.4165 11.108C21.4596 11.0759 21.4747 11.108 21.4987 11.1285C21.5418 11.1647 21.5857 11.2016 21.635 11.2275C21.6911 11.2576 21.7541 11.2487 21.8082 11.218C21.8589 11.1893 21.8979 11.149 21.8904 11.0807C21.8829 11.0131 21.8438 10.9694 21.7849 10.9483C21.7076 10.9203 21.6267 10.9025 21.5473 10.88C21.5254 10.8738 21.5028 10.8691 21.4816 10.8616C21.3617 10.8185 21.3062 10.7264 21.3234 10.6021C21.3384 10.4936 21.4309 10.4096 21.5452 10.4C21.5596 10.3987 21.574 10.4 21.5884 10.4C21.6514 10.4 21.7014 10.3793 21.7384 10.3379C21.7774 10.3754 21.85 10.5359 21.8596 10.6096C21.8274 10.6267 21.8137 10.6014 21.8 10.5809C21.7603 10.5202 21.7055 10.4806 21.635 10.471C21.5973 10.4662 21.5562 10.471 21.5192 10.482C21.4679 10.497 21.4411 10.5407 21.4364 10.5912C21.4322 10.6383 21.4665 10.6718 21.5035 10.6929C21.537 10.7127 21.5767 10.7236 21.6144 10.7353C21.6911 10.7578 21.7692 10.7749 21.8445 10.8001C21.9835 10.8472 22.0418 10.9435 22.0212 11.0814C22.0048 11.1906 21.8842 11.2903 21.7644 11.2951C21.7356 11.2958 21.7069 11.2931 21.6788 11.2972C21.6322 11.304 21.5795 11.304 21.5699 11.375C21.5617 11.3736 21.5535 11.3723 21.5452 11.3709L21.5459 11.3702Z" fill="#193686"/>
<path d="M16.2775 22.6827C16.172 22.4704 16.0823 22.2512 15.9844 22.0307C16.0392 21.9897 16.0974 21.9583 16.1659 21.9481C16.1713 21.9474 16.1796 21.9631 16.185 21.9692C16.1823 21.9788 16.183 21.9863 16.1796 21.989C16.1156 22.0441 16.0997 22.1112 16.1316 22.1904C16.1542 22.2457 16.1775 22.301 16.2015 22.355C16.2248 22.4069 16.2357 22.4116 16.2857 22.3898C16.3638 22.3563 16.4412 22.3208 16.5247 22.2826C16.496 22.2177 16.4692 22.1583 16.4432 22.0989C16.4165 22.0389 16.3741 22.0109 16.3069 22.0273C16.2967 22.03 16.2857 22.0273 16.2665 22.0273C16.2734 22.0095 16.2748 21.9911 16.2823 21.9877C16.3754 21.9467 16.4631 21.89 16.5651 21.875L16.5754 21.8907C16.5638 21.9044 16.5549 21.9214 16.5405 21.9317C16.4946 21.9651 16.4829 22.0068 16.5049 22.0587C16.5316 22.1208 16.5583 22.1836 16.5891 22.256C16.6891 22.2102 16.785 22.1686 16.8788 22.1222C16.9171 22.103 16.9384 22.0703 16.9137 22.0232C16.9076 22.0115 16.9144 21.9938 16.9158 21.974C16.9706 22.0197 17.0747 22.2478 17.0815 22.34C17.0616 22.3242 17.0459 22.3154 17.0342 22.3031C16.9856 22.2539 16.9795 22.2512 16.9158 22.2785C16.7589 22.3468 16.6028 22.4157 16.446 22.4847C16.4145 22.4983 16.383 22.512 16.3515 22.525C16.3083 22.5427 16.2905 22.5728 16.298 22.6192C16.3015 22.6383 16.298 22.6588 16.298 22.6786C16.2912 22.68 16.2843 22.6813 16.2768 22.682L16.2775 22.6827Z" fill="#193686"/>
<path d="M30.2255 12.3828H30.3029C30.2591 12.4846 30.1872 12.5542 30.1276 12.6361C30.0872 12.5979 30.1159 12.5672 30.1262 12.5385C30.1639 12.4354 30.1365 12.3507 30.0598 12.2756C30.0249 12.2415 29.9845 12.2333 29.942 12.247C29.8975 12.2613 29.8708 12.2988 29.8687 12.3432C29.8667 12.3876 29.8735 12.434 29.8838 12.4777C29.9036 12.5665 29.931 12.6532 29.9502 12.7413C29.9817 12.886 29.8804 13.0048 29.7331 13.013C29.5968 13.0205 29.5044 12.9632 29.4373 12.8505C29.4188 12.8191 29.3975 12.7891 29.3763 12.7563C29.3558 12.7611 29.3373 12.7652 29.3147 12.7699C29.3126 12.7549 29.3058 12.7413 29.3099 12.7344C29.3599 12.6559 29.4119 12.5781 29.4626 12.5016C29.4955 12.5187 29.4962 12.5358 29.4879 12.5617C29.4681 12.6238 29.4496 12.688 29.4736 12.7529C29.4866 12.7897 29.5023 12.8273 29.5256 12.8573C29.5708 12.9167 29.6503 12.9338 29.7098 12.9044C29.7708 12.8737 29.805 12.8027 29.7879 12.731C29.7674 12.6457 29.7365 12.5631 29.7215 12.477C29.7105 12.417 29.7037 12.3494 29.7215 12.2934C29.7708 12.1377 29.9776 12.0961 30.1009 12.2156C30.1468 12.2599 30.1796 12.3186 30.2255 12.3815V12.3828Z" fill="#193686"/>
<path d="M20.0164 12.0276C19.9644 11.9572 19.9295 11.9293 19.8274 11.8781C19.7377 11.9361 19.6453 11.9955 19.5494 12.0569C19.561 12.1129 19.5692 12.1655 19.5829 12.2174C19.5966 12.2679 19.6186 12.2788 19.6706 12.2699C19.6816 12.2679 19.6918 12.2672 19.7028 12.2665C19.7048 12.2665 19.7076 12.2699 19.7096 12.2713C19.6891 12.315 19.5631 12.4017 19.4768 12.4297C19.4782 12.4147 19.4747 12.399 19.4816 12.3915C19.5199 12.3471 19.5158 12.2979 19.5069 12.2461C19.459 11.9839 19.411 11.7217 19.3638 11.4595C19.3617 11.4493 19.3665 11.4384 19.3672 11.4302C19.4042 11.4083 19.4241 11.4349 19.4467 11.4493C19.6555 11.5831 19.8644 11.7169 20.0719 11.8535C20.1301 11.8917 20.1842 11.9313 20.2609 11.8978C20.2705 11.9484 20.2308 11.9559 20.2096 11.9709C20.0603 12.0788 20.0075 12.1061 19.9555 12.1034C19.9767 12.0767 19.9945 12.0542 20.0158 12.0283L20.0164 12.0276ZM19.7665 11.8296C19.6658 11.7606 19.574 11.6978 19.4686 11.6254C19.4925 11.7524 19.5131 11.8617 19.5357 11.9818C19.6165 11.9286 19.6857 11.8828 19.7665 11.8296Z" fill="#193686"/>
<path d="M30.7766 12.8945C30.8135 12.9198 30.8005 12.9416 30.7889 12.9662C30.693 13.1758 30.5985 13.3854 30.5033 13.595C30.4882 13.6285 30.4732 13.6626 30.4574 13.6961C30.4376 13.7384 30.4239 13.7807 30.4492 13.8265C30.4533 13.834 30.4465 13.847 30.4417 13.8709C30.3485 13.7821 30.2698 13.6954 30.1958 13.6019C30.2444 13.5698 30.2574 13.621 30.2972 13.6237C30.3732 13.5855 30.3725 13.4919 30.4225 13.4271C30.3437 13.3397 30.2698 13.2578 30.1903 13.1704C30.1397 13.1915 30.0876 13.212 30.0369 13.2366C29.9835 13.2625 29.9828 13.27 30.0068 13.3288C30.0109 13.3383 30.013 13.3492 30.0184 13.3663C29.9479 13.3711 29.9356 13.309 29.9013 13.2789C29.8671 13.2482 29.8417 13.2079 29.8164 13.1629C29.95 13.2093 30.0575 13.1383 30.1698 13.1014C30.3746 13.0345 30.5773 12.9628 30.7759 12.8945H30.7766ZM30.6108 13.0263C30.4882 13.07 30.3855 13.1062 30.2711 13.1458C30.3355 13.2188 30.3903 13.2817 30.4533 13.354C30.5054 13.2455 30.554 13.1451 30.6108 13.0263Z" fill="#193686"/>
<path d="M22.0781 26.4512C22.2048 26.4703 22.3171 26.4956 22.4295 26.5242V26.5481C22.4021 26.5536 22.3747 26.5597 22.3418 26.5666C22.3219 26.6355 22.3315 26.7045 22.3555 26.7721C22.361 26.7878 22.3795 26.8069 22.3952 26.8103C22.4918 26.8321 22.589 26.8492 22.689 26.869C22.7171 26.8281 22.7431 26.7912 22.7671 26.7529C22.8068 26.6895 22.8034 26.6765 22.7417 26.6294C22.7356 26.6246 22.7328 26.6164 22.7274 26.6096C22.7787 26.5898 22.9041 26.6123 23.0081 26.6628C22.8575 26.7079 22.8061 26.8417 22.7274 26.9475C22.6185 27.093 22.5171 27.2445 22.4123 27.3927C22.3993 27.4104 22.3829 27.4255 22.3644 27.4459C22.3137 27.392 22.3185 27.3258 22.3062 27.2677C22.2569 27.0411 22.2165 26.8117 22.1658 26.5857C22.1562 26.5433 22.1165 26.5078 22.0788 26.4512H22.0781ZM22.4363 27.2357C22.5096 27.1285 22.5733 27.0363 22.6438 26.9339C22.5486 26.9141 22.4664 26.897 22.3726 26.8772C22.3938 26.9981 22.413 27.1059 22.4363 27.235V27.2357Z" fill="#193686"/>
<path d="M16.2586 18.6836C16.2627 18.6897 16.2764 18.7 16.2771 18.7102C16.2785 18.8154 16.2778 18.9205 16.2778 19.0366C16.2308 18.9656 16.1696 18.9469 16.0943 18.9806C16.0634 18.9942 16.034 19.0106 15.9963 19.0297C16.0025 19.1383 16.008 19.2448 16.0141 19.3616C16.0634 19.3793 16.1134 19.3984 16.1641 19.4141C16.2216 19.4319 16.234 19.4237 16.2572 19.3643C16.262 19.3527 16.2696 19.3418 16.2853 19.3322C16.3018 19.4244 16.3066 19.5159 16.2963 19.6121C16.249 19.5118 16.1504 19.4974 16.0662 19.4647C15.8594 19.3841 15.6505 19.3069 15.443 19.2284C15.4347 19.2257 15.4252 19.2257 15.419 19.2202C15.4067 19.2107 15.3882 19.1991 15.3868 19.1868C15.3854 19.1752 15.4005 19.1567 15.4128 19.1499C15.4882 19.1103 15.5649 19.0728 15.6416 19.0352C15.8107 18.9526 15.9813 18.8734 16.1477 18.7874C16.1894 18.7655 16.2189 18.7218 16.2586 18.6843V18.6836ZM15.934 19.0571C15.8189 19.1076 15.7176 19.152 15.621 19.2134C15.7279 19.2482 15.8231 19.3042 15.934 19.3295V19.0577V19.0571Z" fill="#193686"/>
<path d="M25.9975 10.933C25.855 11.0579 25.6934 11.0736 25.5229 11.0217C25.3565 10.9719 25.2592 10.851 25.2305 10.6865C25.1866 10.4359 25.3291 10.1601 25.6181 10.1198C25.7167 10.1061 25.8105 10.1239 25.9002 10.1628C25.9591 10.1888 26.0146 10.2331 26.0762 10.171C26.0961 10.2229 26.0721 10.4298 26.0427 10.4844C26.0023 10.4803 26.0071 10.4434 26.0002 10.4202C25.9523 10.2563 25.8619 10.1881 25.6962 10.1935C25.616 10.1963 25.5475 10.2331 25.5051 10.2925C25.4003 10.4393 25.3476 10.6018 25.4154 10.7807C25.4619 10.9043 25.5886 10.978 25.6996 10.978C25.7866 10.978 25.8619 10.9562 25.9338 10.9118C25.9571 10.8974 25.9804 10.8865 25.9975 10.9323V10.933Z" fill="#193686"/>
<path d="M17.4118 24.2988C17.4453 24.363 17.4844 24.4101 17.5392 24.4442C17.6035 24.4845 17.6501 24.4183 17.7124 24.4183C17.7165 24.4272 17.7261 24.4436 17.7234 24.4456C17.6665 24.4948 17.6083 24.5426 17.5433 24.5965C17.3789 24.3896 17.2228 24.193 17.0625 23.9916C17.1289 23.9356 17.1885 23.8851 17.2481 23.8352C17.2536 23.8387 17.2591 23.8421 17.2645 23.8455C17.2611 23.8625 17.2645 23.8844 17.2543 23.896C17.1734 23.9882 17.2097 24.0687 17.2769 24.1466C17.2878 24.1589 17.2988 24.1705 17.3138 24.1862C17.4309 24.094 17.5446 24.0039 17.6576 23.9144C17.7227 23.8632 17.7884 23.8134 17.8514 23.7601C17.9055 23.7144 17.9042 23.7117 17.8747 23.6454C17.8672 23.6277 17.8638 23.6079 17.8686 23.584C17.9665 23.6796 18.0494 23.7833 18.1261 23.8926C18.1226 23.8974 18.1185 23.9021 18.1151 23.9069C18.0994 23.9001 18.0822 23.8953 18.0685 23.8851C18.0117 23.8434 17.9973 23.8407 17.9418 23.8837C17.7665 24.0196 17.5926 24.1575 17.4125 24.2995L17.4118 24.2988Z" fill="#193686"/>
<path d="M24.3698 10.0127C24.4608 9.99425 24.5512 9.99903 24.6464 10.0161C24.6348 10.025 24.6238 10.0345 24.6115 10.042C24.5684 10.0693 24.5444 10.111 24.5273 10.1567C24.4389 10.3902 24.3506 10.6244 24.2622 10.8579C24.2547 10.8777 24.2437 10.8962 24.2246 10.9351C24.191 10.8695 24.1643 10.8217 24.141 10.7719C24.054 10.5869 23.9684 10.4005 23.8808 10.2155C23.8459 10.1424 23.8191 10.0612 23.7109 10.0352C23.739 10.0175 23.752 10.0024 23.765 10.0024C23.8739 10.0018 23.9828 9.99152 24.0931 10.0188C24.0595 10.04 24.0253 10.0618 23.9862 10.0864C24.076 10.2783 24.1629 10.4626 24.2581 10.6654C24.2944 10.5691 24.3252 10.4879 24.3547 10.4066C24.3807 10.3343 24.4061 10.2619 24.4314 10.1895C24.4718 10.0748 24.4704 10.0714 24.3704 10.0127H24.3698Z" fill="#193686"/>
<path d="M20.6756 26.8041C20.7023 26.8163 20.7249 26.8273 20.7489 26.8368C20.8557 26.8798 20.8797 26.8751 20.9591 26.7918C20.9776 26.7726 20.9906 26.7487 21.0283 26.7856C20.9941 26.8512 20.9585 26.9201 20.9201 26.9945C20.6845 26.888 20.4572 26.7849 20.2305 26.6825C20.2449 26.5958 20.2839 26.5077 20.3277 26.4593C20.3606 26.4729 20.351 26.5016 20.3489 26.5248C20.3414 26.6272 20.3551 26.6532 20.4462 26.6989C20.4715 26.7112 20.4976 26.7214 20.5263 26.7344C20.5387 26.7146 20.551 26.6989 20.5592 26.6818C20.6407 26.5036 20.7229 26.3254 20.8023 26.1459C20.8468 26.0448 20.8448 26.0442 20.7592 25.98C20.7551 25.9766 20.753 25.9711 20.7462 25.9609C20.7592 25.9561 20.7729 25.9445 20.7811 25.9479C20.8879 25.995 20.9941 26.0435 21.1002 26.0933C21.1084 26.0974 21.1132 26.1097 21.1235 26.124C21.1057 26.1261 21.0947 26.1295 21.0845 26.1281C20.9865 26.1131 20.9845 26.1131 20.9427 26.2039C20.855 26.3924 20.7688 26.5808 20.6825 26.7692C20.679 26.7767 20.6797 26.7856 20.677 26.8041H20.6756Z" fill="#193686"/>
<path d="M16.4063 17.3926C16.3769 17.5202 16.3789 17.65 16.3193 17.7708C16.3152 17.7599 16.307 17.749 16.3063 17.738C16.3029 17.6588 16.3043 17.6561 16.2317 17.6418C16.1146 17.6192 15.9975 17.5994 15.8797 17.5803C15.7735 17.5633 15.6667 17.5482 15.5585 17.5319C15.5222 17.5933 15.5119 17.665 15.5386 17.721C15.5633 17.7715 15.6242 17.805 15.6742 17.8507C15.6585 17.8568 15.6461 17.8664 15.6352 17.865C15.579 17.8568 15.5235 17.8452 15.4674 17.8357C15.4359 17.8302 15.4256 17.8138 15.4311 17.7817C15.4708 17.5476 15.5092 17.3134 15.5489 17.0703C15.6283 17.0806 15.705 17.0901 15.7817 17.0997C15.7831 17.1065 15.7838 17.1133 15.7852 17.1208C15.7673 17.1297 15.7495 17.1468 15.7311 17.1475C15.6359 17.1509 15.5948 17.2048 15.5838 17.2922C15.5804 17.3195 15.5749 17.3461 15.5687 17.3837C15.666 17.3987 15.755 17.4124 15.8441 17.4267C15.9755 17.4479 16.1077 17.4684 16.2392 17.4916C16.3104 17.5039 16.3214 17.5004 16.3508 17.4342C16.3597 17.4144 16.3584 17.3864 16.4049 17.3939L16.4063 17.3926Z" fill="#193686"/>
<path d="M16.2444 18.6537C16.2355 18.6223 16.2266 18.5902 16.215 18.5507C16.1766 18.5452 16.1355 18.5363 16.0938 18.5336C15.9205 18.5206 15.7479 18.5111 15.5746 18.4967C15.4904 18.4899 15.4212 18.5008 15.4089 18.6114C15.3582 18.5636 15.398 18.5186 15.3925 18.4769C15.3863 18.4353 15.3897 18.3916 15.3938 18.3492C15.398 18.3042 15.4069 18.2605 15.4171 18.1963C15.4308 18.225 15.439 18.2352 15.4411 18.2461C15.4555 18.3199 15.4658 18.3342 15.5377 18.341C15.6733 18.3533 15.8095 18.3615 15.9458 18.3704C16.0171 18.3752 16.0876 18.3779 16.1588 18.382C16.204 18.3847 16.2266 18.369 16.228 18.3199C16.23 18.2468 16.2458 18.1758 16.2369 18.1014C16.228 18.0229 16.1896 17.971 16.1287 17.928C16.1081 17.9136 16.0924 17.8925 16.0794 17.8672C16.1698 17.8659 16.2417 17.9102 16.3239 17.9369C16.3026 18.1792 16.2951 18.4175 16.2691 18.6537C16.2609 18.6537 16.252 18.6544 16.2437 18.6551L16.2444 18.6537Z" fill="#193686"/>
<path d="M25.1905 10.0737C25.1823 10.0812 25.1809 10.0846 25.1782 10.0853C25.0632 10.1106 25.0597 10.1099 25.0467 10.2253C25.0289 10.3851 25.0166 10.5455 25.0022 10.7059C25.0008 10.7203 25.0008 10.7339 24.9988 10.7483C24.9896 10.8234 25.0216 10.8766 25.0947 10.908C25.1008 10.9108 25.1049 10.919 25.1104 10.9258C25.0467 10.9497 24.7728 10.9258 24.707 10.891C24.7139 10.8855 24.7187 10.8766 24.7248 10.8759C24.8324 10.8582 24.8419 10.8445 24.8495 10.7339C24.857 10.6151 24.87 10.497 24.8796 10.3789C24.8858 10.3059 24.8926 10.2321 24.8967 10.1591C24.8988 10.1181 24.8817 10.0881 24.8413 10.073C24.8228 10.0662 24.8056 10.0587 24.7714 10.0444C24.8002 10.0362 24.8146 10.0287 24.8282 10.0293C24.9412 10.0362 25.0542 10.045 25.1679 10.0539C25.1741 10.0539 25.1796 10.0642 25.1905 10.0737Z" fill="#193686"/>
<path d="M28.1821 11.6423C28.078 11.6423 27.9883 11.5501 27.9883 11.4429C27.9883 11.3371 28.0814 11.2443 28.1917 11.2422C28.2903 11.2402 28.3958 11.3467 28.3875 11.4505C28.3793 11.557 28.2903 11.6409 28.1821 11.6423Z" fill="#193686"/>
<path d="M12.0704 39.4203H10.5699C10.7897 37.5988 11.0671 35.7936 11.3588 33.9856C11.28 34.172 11.204 34.3591 11.1218 34.5441C10.6411 35.6277 10.1138 36.6887 9.57272 37.7435C9.33439 38.2078 9.10428 38.6755 8.87007 39.1418C8.84541 39.1902 8.81596 39.2367 8.78925 39.2838C8.41327 39.3439 8.03455 39.2305 7.66953 39.3596C7.63734 39.3302 7.60378 39.2995 7.55653 39.2558C7.5353 38.9315 7.5442 38.5908 7.48188 38.2644C7.43052 37.9948 7.48256 37.7162 7.41134 37.4649C7.31752 37.1352 7.43531 36.7897 7.29149 36.4736C7.28259 36.4545 7.29012 36.4285 7.28944 36.406C7.26547 35.741 7.24218 35.0753 7.21684 34.4103C7.21273 34.3038 7.25519 34.1782 7.10932 34.1208C6.98399 34.622 6.92236 35.1361 6.77169 35.6324C6.66006 35.9991 6.61965 36.3869 6.53679 36.7631C6.4731 37.0526 6.38886 37.3373 6.32243 37.6261C6.23066 38.0221 6.15259 38.4208 6.05739 38.8161C6.00877 39.0175 5.93686 39.2128 5.87249 39.4183H4.47266C5.0178 37.0403 5.6458 34.7019 6.22244 32.3389H8.29959C8.30849 32.3812 8.32082 32.4126 8.32082 32.444C8.31808 32.8694 8.37013 33.2892 8.45368 33.7057C8.45573 33.7166 8.45368 33.7283 8.45436 33.7399C8.47833 34.1666 8.47765 34.596 8.53244 35.018C8.59133 35.4679 8.55572 35.9206 8.60983 36.365C8.64201 36.6293 8.63927 36.8969 8.67968 37.2007C8.98512 36.2729 9.40493 35.4392 9.79256 34.5933C10.1446 33.8252 10.5507 33.0817 10.9308 32.332H12.9518C12.9922 32.4706 13.0038 32.6072 12.9394 32.7485C12.9175 32.797 12.9155 32.8564 12.9107 32.911C12.886 33.2005 12.8826 33.4934 12.8347 33.7788C12.7716 34.1522 12.7381 34.5271 12.6922 34.9019C12.6525 35.231 12.5696 35.5553 12.558 35.8905C12.5525 36.0428 12.5025 36.193 12.471 36.3439C12.4621 36.3862 12.4361 36.4265 12.4326 36.4695C12.4066 36.7474 12.3874 37.0266 12.3587 37.3038C12.345 37.4349 12.3087 37.5639 12.2936 37.695C12.2799 37.8159 12.269 37.9326 12.2381 38.0542C12.1875 38.2556 12.2155 38.4713 12.1614 38.683C12.1019 38.9171 12.0991 39.1657 12.0697 39.4203H12.0704Z" fill="#193686"/>
<path d="M22.6087 34.3063C22.7614 33.5396 22.9128 32.7756 23.0675 32H24.5975C24.6893 32.2656 24.5023 32.5073 24.5461 32.7626C24.4564 32.8562 24.4934 32.9756 24.4783 33.0849C24.4646 33.1825 24.4331 33.2767 24.4133 33.3737C24.3352 33.7506 24.2592 34.1274 24.1825 34.5043C24.1455 34.6873 24.1017 34.8689 24.0736 35.0533C24.0003 35.5319 23.9133 36.0071 23.8051 36.4802C23.714 36.8776 23.6709 37.2852 23.5894 37.6853C23.5134 38.0567 23.4572 38.4274 23.4476 38.807C23.4421 39.0043 23.3908 39.2003 23.3572 39.4167H21.954C21.9766 39.188 22.0005 38.9518 22.0314 38.6411C21.9129 38.7565 21.843 38.82 21.778 38.8883C21.3712 39.317 20.8835 39.5341 20.2809 39.5075C20.0063 39.4952 19.7474 39.4645 19.5186 39.3075C19.2207 39.1033 18.966 38.876 18.8386 38.5093C18.7194 38.1666 18.6304 37.8307 18.6571 37.4681C18.6804 37.1466 18.7557 36.7069 18.9071 36.3437C19.0666 35.9606 19.2837 35.6138 19.5515 35.2984C19.7871 35.0205 20.0967 34.8348 20.4083 34.6593C20.863 34.4033 21.3547 34.2838 21.8807 34.3043C22.119 34.3138 22.3573 34.3056 22.6087 34.3056V34.3063ZM21.552 35.4752C21.3335 35.6145 21.0472 35.7189 20.8788 35.9217C20.4802 36.3996 20.2158 36.9547 20.3117 37.6054C20.3432 37.8191 20.3911 38.0642 20.6062 38.1775C20.8219 38.2909 21.0568 38.4404 21.3034 38.2123C21.3376 38.1809 21.4081 38.1891 21.4376 38.1837C21.843 37.8498 22.0903 37.4572 22.1553 36.954C22.1772 36.7827 22.245 36.6167 22.2827 36.4467C22.3341 36.2105 22.3772 35.9722 22.421 35.734C22.4265 35.7032 22.4149 35.6691 22.4128 35.6466C22.321 35.5858 22.2389 35.5305 22.1574 35.4766H21.5513L21.552 35.4752Z" fill="#193686"/>
<path d="M37.244 34.5651C37.1892 34.871 37.1639 35.1946 37.0687 35.4964C36.9742 35.7941 36.9536 36.1013 36.881 36.4004C36.8112 36.6878 36.7516 36.9787 36.6927 37.2688C36.6592 37.4306 36.6256 37.5938 36.6092 37.7577C36.5783 38.0581 36.564 38.3599 36.5352 38.6603C36.5119 38.904 36.4777 39.1464 36.4441 39.4263C36.2339 39.4448 35.9976 39.4318 35.7634 39.4338C35.5264 39.4359 35.2888 39.4338 35.0504 39.4338C35.0669 39.2488 35.1025 39.0849 35.0888 38.9252C35.0765 38.7818 35.1751 38.635 35.0806 38.4739C34.8464 38.8876 34.5491 39.1983 34.1156 39.371C33.7396 39.5212 33.3575 39.5513 32.9678 39.4632C32.3843 39.3314 32.0782 38.9081 31.8817 38.3879C31.8317 38.2561 31.8248 38.1073 31.807 37.9652C31.7502 37.5126 31.8358 37.0661 31.9604 36.6421C32.0583 36.3089 32.2645 36.0037 32.4439 35.6985C32.5336 35.5463 32.6603 35.4118 32.787 35.2854C32.9137 35.1598 33.0521 35.0424 33.2 34.942C33.5219 34.7242 33.8704 34.557 34.2437 34.4457C34.8813 34.2552 35.5394 34.2763 36.188 34.3228C36.5297 34.3474 36.8968 34.359 37.2447 34.5651H37.244ZM34.8121 35.4814C33.9204 35.8631 33.5047 36.5649 33.4048 37.4853C33.4904 37.6409 33.4363 37.8499 33.563 38.0083C33.6903 38.168 33.8657 38.2206 34.0574 38.2793C34.204 38.2124 34.3745 38.1707 34.4978 38.0711C34.7423 37.8744 34.9395 37.6409 35.0374 37.3214C35.1114 37.0811 35.2128 36.853 35.2532 36.5977C35.3121 36.2263 35.4189 35.8624 35.5086 35.4821H34.8121V35.4814Z" fill="#193686"/>
<path d="M18.2515 35.4757C18.2392 35.7372 18.2961 36.0117 18.181 36.2691C18.0673 36.5244 17.9249 36.7456 17.6824 36.9184C17.2982 37.1915 16.8695 37.2986 16.4209 37.3929C16.0039 37.4803 15.5882 37.4379 15.1718 37.4557C15.0834 37.4591 14.9855 37.4291 14.9225 37.5328C14.9759 37.8728 15.1547 38.1296 15.4971 38.219C15.7108 38.275 15.9272 38.4047 16.1696 38.2839C16.2244 38.2565 16.3155 38.3009 16.425 38.318C16.7435 38.2245 17.1003 38.1193 17.4838 38.006C17.5181 38.3747 17.553 38.7481 17.5879 39.1216C17.2373 39.2814 16.901 39.366 16.5545 39.4438C16.0792 39.5517 15.6053 39.5101 15.1355 39.4875C14.802 39.4718 14.4746 39.3326 14.1966 39.1154C13.9575 38.9284 13.7959 38.6969 13.6466 38.43C13.3604 37.9186 13.4857 37.3806 13.4549 36.8521C13.6137 36.3237 13.7774 35.8048 14.1363 35.3576C14.4986 34.9063 14.941 34.6011 15.4854 34.4304C15.6964 34.3642 15.91 34.3034 16.1354 34.3062C16.3066 34.3082 16.4778 34.3103 16.649 34.3055C17.1085 34.2911 17.5009 34.4734 17.829 34.765C17.9482 34.8708 18.0899 35.006 18.1214 35.1999C18.1365 35.2941 18.2043 35.3794 18.2509 35.475L18.2515 35.4757ZM16.7894 35.7645C16.5928 35.4225 16.3579 35.3453 15.9826 35.4395C15.6142 35.5324 15.4074 35.8103 15.1786 36.0656C15.1225 36.1284 15.119 36.2377 15.0855 36.3462C15.1677 36.3503 15.2122 36.3476 15.2546 36.3558C15.4711 36.3967 15.671 36.2902 15.882 36.2868C16.1888 36.2814 16.4668 36.1919 16.7106 36.0178C16.7367 35.9345 16.7593 35.8621 16.7901 35.7645H16.7894Z" fill="#193686"/>
<path d="M43.9221 38.3386C44.1234 38.2205 44.3357 38.4328 44.5076 38.273C44.7001 38.286 44.885 38.2519 45.0672 38.1897C45.2507 38.1269 45.4384 38.0744 45.6356 38.0136C45.6685 38.3843 45.7013 38.7503 45.7342 39.1101C45.4116 39.2965 45.0809 39.3634 44.7467 39.4412C44.3077 39.5436 43.8666 39.5177 43.4311 39.4938C42.7462 39.4562 42.1833 39.1422 41.8477 38.5325C41.6977 38.2601 41.5559 37.9583 41.597 37.6162C41.6162 37.4592 41.6053 37.2981 41.5991 37.1397C41.5895 36.9028 41.6409 36.6836 41.7203 36.4576C41.8806 36.0022 42.0894 35.5932 42.412 35.2212C42.762 34.817 43.2003 34.5882 43.6762 34.4087C43.8687 34.3363 44.0885 34.3165 44.2967 34.3117C44.6097 34.3042 44.9206 34.2947 45.2363 34.367C45.5801 34.4455 45.8342 34.6237 46.0616 34.8764C46.3239 35.1679 46.4115 35.5093 46.4006 35.8889C46.3882 36.3081 46.1999 36.6467 45.8794 36.8925C45.4877 37.1929 45.0261 37.3186 44.535 37.3984C44.1495 37.4606 43.7708 37.4346 43.3893 37.4551C43.2783 37.4606 43.1674 37.4558 43.0325 37.4558C43.1195 37.6941 43.1427 37.9296 43.3537 38.0539C43.5324 38.1597 43.7262 38.2403 43.9235 38.3372L43.9221 38.3386ZM44.9569 35.8083C44.8795 35.6765 44.8412 35.5304 44.6837 35.4745C44.5234 35.4164 44.3556 35.372 44.1933 35.4144C43.8344 35.5086 43.5667 35.7298 43.3749 36.0486C43.3187 36.1415 43.2708 36.2303 43.2468 36.3402C43.4064 36.3709 43.5358 36.3668 43.6577 36.2958C43.9214 36.3723 44.168 36.2692 44.4179 36.22C44.6508 36.1743 44.8597 36.08 44.9569 35.809V35.8083Z" fill="#193686"/>
<path d="M31.4605 35.6903C31.2914 35.5571 31.1291 35.5332 30.9558 35.5407C30.688 35.5523 30.4223 35.5285 30.1607 35.6404C29.8176 35.7872 29.5526 36.0057 29.3553 36.3184C29.1992 36.5655 29.1019 36.8366 29.078 37.1199C29.0403 37.5651 29.1533 37.9604 29.5053 38.1393C30.1045 38.3584 30.5956 38.2253 31.1085 38.0587C31.1462 38.2676 31.1202 38.4697 31.125 38.6698C31.1298 38.863 31.1257 39.0562 31.1257 39.2597C30.6949 39.4222 30.2538 39.5089 29.7929 39.5041C29.4231 39.5007 29.0554 39.5143 28.7027 39.3655C28.4041 39.2392 28.1541 39.0637 27.9315 38.822C27.5405 38.398 27.411 37.8887 27.4419 37.3487C27.4576 37.0715 27.4775 36.7799 27.5836 36.5027C27.7103 36.1709 27.8487 35.8459 28.061 35.5653C28.4568 35.0423 28.9889 34.675 29.6005 34.4606C29.9053 34.3534 30.2422 34.2804 30.5833 34.3029C30.788 34.3166 30.9942 34.3138 31.1989 34.3029C31.4421 34.2906 31.6557 34.3746 31.8947 34.4757C31.7639 34.8792 31.6633 35.2799 31.4612 35.6889L31.4605 35.6903Z" fill="#193686"/>
<path d="M39.1157 39.4266H37.5906C37.5002 39.273 37.6282 39.1324 37.6474 38.9897C37.6741 38.7855 37.7399 38.5841 37.7631 38.3759C37.7803 38.2222 37.7946 38.0652 37.8378 37.9184C37.9104 37.6733 37.9398 37.4227 37.9748 37.1715C38.009 36.923 38.0624 36.6724 38.1453 36.4362C38.198 36.2846 38.1672 36.1324 38.2199 35.9774C38.2966 35.7514 38.2843 35.4953 38.3103 35.2523C38.3398 34.9751 38.3685 34.6979 38.398 34.4159C38.624 34.3634 39.3219 34.3545 39.765 34.4057C39.7369 34.7095 39.7095 35.0133 39.6746 35.3888C40.1293 34.6187 40.7121 34.2227 41.5846 34.3162C41.6284 34.5682 41.4867 34.7989 41.4737 35.0427C41.46 35.3021 41.3675 35.537 41.3072 35.8149C41.2127 35.8149 41.1134 35.8128 41.0141 35.8149C40.5176 35.8272 40.1526 36.0415 39.8869 36.4717C39.7026 36.7694 39.617 37.0978 39.5006 37.4159C39.441 37.5791 39.4369 37.7628 39.4129 37.9382C39.3458 38.4394 39.2465 38.9337 39.1164 39.4273L39.1157 39.4266Z" fill="#193686"/>
<path d="M25.4221 34.3809H26.9295C27.0096 34.6116 26.8624 34.8165 26.8617 35.0343C26.861 35.2452 26.7398 35.4337 26.724 35.6487C26.7103 35.844 26.6453 36.0352 26.6097 36.2297C26.5124 36.7596 26.4611 37.2989 26.2885 37.8144C26.2364 37.9708 26.2474 38.1401 26.2077 38.3039C26.1303 38.6248 26.1063 38.9587 26.0536 39.2864C26.0453 39.3363 26.0008 39.3806 25.9762 39.4216H24.4805C24.4887 39.2673 24.4832 39.1342 24.5284 38.9867C24.6085 38.7252 24.6346 38.4473 24.6866 38.1769C24.7435 37.8854 24.8071 37.5959 24.8626 37.3044C24.9208 37.0013 24.9729 36.6967 25.027 36.3922C25.0564 36.2297 25.0852 36.0666 25.1153 35.9041C25.1776 35.5682 25.2386 35.2322 25.3043 34.897C25.3379 34.727 25.3804 34.5591 25.4208 34.3809H25.4221Z" fill="#193686"/>
<path d="M26.2716 32.041C26.4675 32.067 26.688 32.0963 26.8948 32.1236C27.5215 32.5046 27.4228 33.414 26.6161 33.6974H26.1942C26.0874 33.6455 25.9682 33.5868 25.8347 33.5219C25.7772 33.4147 25.7141 33.2973 25.6498 33.1764C25.6094 32.5722 25.6833 32.422 26.2723 32.041H26.2716Z" fill="#193686"/>
<path d="M21.5523 35.476H22.1583C22.2398 35.5299 22.322 35.5852 22.4138 35.646C22.4165 35.6685 22.4282 35.7026 22.422 35.7334C22.3782 35.971 22.335 36.2092 22.2837 36.4462C22.2467 36.6168 22.1789 36.7821 22.1563 36.9534C22.0912 37.4566 21.844 37.8499 21.4386 38.1831C21.4091 38.1885 21.3379 38.1803 21.3043 38.2118C21.0578 38.4405 20.8229 38.2909 20.6072 38.1769C20.3921 38.0636 20.3442 37.8192 20.3127 37.6048C20.2168 36.9541 20.4811 36.3997 20.8797 35.9211C21.0482 35.719 21.3352 35.6146 21.5529 35.4746L21.5523 35.476Z" fill="white"/>
<path d="M34.8136 35.4812H35.5101C35.4204 35.8621 35.3136 36.226 35.2547 36.5968C35.2142 36.8521 35.1129 37.0795 35.0389 37.3205C34.941 37.64 34.7438 37.8735 34.4993 38.0701C34.3753 38.1698 34.2048 38.2121 34.0589 38.2784C33.8678 38.2197 33.6918 38.1671 33.5644 38.0073C33.4384 37.8489 33.4925 37.64 33.4062 37.4843C33.5069 36.564 33.9219 35.8621 34.8136 35.4805V35.4812Z" fill="white"/>
<path d="M16.7866 35.7645C16.7558 35.8615 16.7332 35.9345 16.7072 36.0178C16.4634 36.1912 16.1853 36.2814 15.8785 36.2868C15.6676 36.2909 15.4676 36.3968 15.2512 36.3558C15.2087 36.3476 15.1642 36.3503 15.082 36.3462C15.1163 36.2377 15.1197 36.1284 15.1752 36.0656C15.4039 35.8103 15.6107 35.5324 15.9792 35.4395C16.3545 35.3453 16.5887 35.4218 16.7859 35.7645H16.7866Z" fill="white"/>
<path d="M44.9562 35.8079C44.8589 36.0789 44.65 36.1732 44.4172 36.2189C44.1672 36.2681 43.92 36.3712 43.657 36.2947C43.5351 36.3657 43.4057 36.3698 43.2461 36.3391C43.2694 36.2291 43.318 36.1404 43.3742 36.0475C43.5659 35.7294 43.8337 35.5075 44.1926 35.4133C44.3549 35.3709 44.5226 35.4153 44.6829 35.4733C44.8404 35.53 44.8788 35.6754 44.9562 35.8072V35.8079Z" fill="white"/>
</g>
<defs>
<clipPath id="clip0_879_839">
<rect width="49" height="49" rx="5" fill="white"/>
</clipPath>
</defs>
</svg>
