<svg width="49" height="49" viewBox="0 0 49 49" fill="none" xmlns="http://www.w3.org/2000/svg">
<rect width="49" height="49" rx="5" fill="white"/>
<g clip-path="url(#clip0_879_672)">
<path d="M10.2265 27.7895C9.97845 27.5863 9.74096 27.3676 9.48125 27.1815C8.21703 26.2771 6.87905 25.5127 5.41929 24.9887C4.63408 24.7067 3.83523 24.4818 3 24.4207V24.3688C3.83826 24.3346 4.63206 24.0905 5.41575 23.8127C6.54556 23.4121 7.61019 22.8648 8.61772 22.2097C9.19021 21.8375 9.7253 21.4053 10.2771 21H10.3276C10.3751 21.3835 10.2372 21.7271 10.0972 22.0677C10.0674 22.1407 9.99714 22.205 9.93095 22.2527C8.73747 23.111 7.42829 23.7168 6.02765 24.1164C5.62494 24.2315 5.21313 24.3113 4.87864 24.3896C5.42687 24.5404 6.05443 24.686 6.6643 24.8855C7.78098 25.2515 8.82539 25.7796 9.80463 26.443C10.0052 26.5788 10.1315 26.7467 10.1972 26.9851C10.27 27.2499 10.3695 27.5065 10.3271 27.7895H10.226H10.2265Z" fill="#6DC6AA"/>
<path d="M9.96191 25.7334C9.34243 25.2509 9.34547 23.1653 9.97454 22.7559C10.0372 22.8486 10.1175 22.9357 10.161 23.0394C10.3616 23.5157 10.4111 24.0184 10.3682 24.5305C10.3404 24.8642 10.2994 25.1996 10.1337 25.4986C10.0867 25.5831 10.0195 25.6556 9.96191 25.7334Z" fill="#009AD6"/>
<path d="M18.71 25.9435V27.6859H18.2734V22.5658H18.6731C18.6903 22.7213 18.7065 22.8726 18.7267 23.0577C18.8015 22.9944 18.856 22.9483 18.9111 22.9022C19.5321 22.3782 20.2248 22.357 20.9226 22.6695C21.5669 22.9576 21.8695 23.5215 21.9125 24.2316C21.9443 24.7566 21.8897 25.2655 21.5962 25.7196C21.2708 26.2228 20.8094 26.4695 20.2243 26.5105C19.6614 26.5498 19.1784 26.3975 18.7908 25.9657C18.7818 25.9554 18.76 25.9569 18.7105 25.944L18.71 25.9435ZM18.6797 24.2974C18.6686 24.8364 18.7671 25.1857 18.9743 25.5055C19.4614 26.256 20.4603 26.2384 20.9696 25.7786C21.5067 25.2941 21.7023 24.2103 21.1783 23.4832C20.6513 22.7519 19.5725 22.7006 19.0192 23.3686C18.761 23.6806 18.6883 24.058 18.6797 24.2974Z" fill="#0399D8"/>
<path d="M23.2738 24.6957C23.3162 25.1342 23.4612 25.4814 23.7513 25.7551C24.0484 26.0354 24.4076 26.1686 24.8093 26.1697C25.2045 26.1707 25.5369 25.9924 25.8634 25.7229C25.9563 25.8447 26.0352 25.9484 26.1185 26.0582C25.9806 26.2505 25.8007 26.3402 25.6158 26.4174C24.9872 26.6802 24.3652 26.6486 23.7654 26.3335C23.2414 26.0582 22.9646 25.5876 22.8559 25.0072C22.7852 24.6299 22.8039 24.2541 22.8903 23.8794C23.0772 23.0678 23.725 22.5002 24.5905 22.4412C25.305 22.3924 25.875 22.6594 26.261 23.2875C26.4535 23.6 26.5419 23.9499 26.5238 24.322C26.5086 24.6335 26.4606 24.6796 26.1605 24.6812C25.832 24.6827 25.5041 24.6801 25.1757 24.6801C24.637 24.6801 24.0984 24.6801 23.5593 24.6817C23.4774 24.6817 23.3951 24.6895 23.2733 24.6957H23.2738ZM23.3076 24.2469C24.2232 24.2577 25.1378 24.2546 26.0503 24.2505C26.0872 23.5311 25.4738 22.8605 24.78 22.8459C23.9822 22.8294 23.3213 23.5104 23.3076 24.2469Z" fill="#0399D8"/>
<path d="M37.9758 26.0729C37.6085 26.4041 37.2341 26.5601 36.8096 26.5782C36.2306 26.6031 35.6869 26.4989 35.2453 26.0698C34.9335 25.7671 34.7526 25.3903 34.6945 24.9612C34.6278 24.4688 34.646 23.9801 34.8592 23.5167C35.1695 22.8424 35.7081 22.5076 36.4104 22.4444C37.4907 22.347 38.2375 23.0643 38.3755 24.1169C38.3821 24.1682 38.3831 24.22 38.3831 24.2718C38.3831 24.6144 38.3204 24.6797 37.9879 24.6803C37.1542 24.6808 36.321 24.6803 35.4873 24.6803C35.3792 24.6803 35.2705 24.6803 35.1265 24.6803C35.1488 25.2239 35.3711 25.6349 35.7879 25.9044C36.4397 26.3253 37.081 26.2563 37.703 25.7204C37.7954 25.8396 37.8778 25.9454 37.9768 26.0724L37.9758 26.0729ZM35.1649 24.234H37.8899C37.9379 23.5146 37.3098 22.8626 36.5999 22.8497C35.7334 22.8336 35.0987 23.6877 35.1654 24.234H35.1649Z" fill="#0399D8"/>
<path d="M45.5776 23.0713C45.5867 22.9117 45.5953 22.7515 45.6059 22.5644C45.7372 22.5582 45.858 22.553 46.001 22.5463V26.4329H45.6094C45.5988 26.2784 45.5882 26.1292 45.5776 25.9711C45.5397 25.9789 45.5073 25.9747 45.4942 25.9892C45.0874 26.4324 44.5791 26.5593 44.0051 26.5153C43.1931 26.4526 42.6424 25.9084 42.4635 25.2056C42.2705 24.4468 42.3377 23.715 42.8283 23.0749C43.1083 22.7096 43.4963 22.5344 43.941 22.4934C44.5584 22.4369 45.1067 22.5919 45.5311 23.0952C45.5462 23.0869 45.5619 23.0791 45.5771 23.0708L45.5776 23.0713ZM42.8233 24.5121C42.797 24.8615 42.9132 25.2222 43.1446 25.5461C43.6388 26.237 44.6191 26.3204 45.1966 25.7063C45.8156 25.0475 45.7969 23.7425 44.9763 23.1397C44.4048 22.7199 43.6348 22.8433 43.2255 23.2978C42.9269 23.6295 42.8218 24.0213 42.8233 24.5121Z" fill="#0399D8"/>
<path d="M14.25 25.555C14.3829 25.4912 14.5001 25.4347 14.632 25.3715C14.678 25.4524 14.7108 25.5099 14.7432 25.5669C15.1368 26.264 15.9215 26.2858 16.4197 26.0271C16.83 25.8141 16.8568 25.2596 16.4869 24.9761C16.2075 24.762 15.8664 24.7273 15.544 24.6356C15.3424 24.578 15.1388 24.5205 14.9483 24.4339C14.6002 24.2759 14.4344 23.9825 14.4122 23.5964C14.3884 23.1849 14.5178 22.8578 14.872 22.6314C15.2995 22.3582 16.3292 22.3183 16.7734 22.7713C16.9472 22.9485 17.1038 23.1331 17.1139 23.4238C17.0033 23.4736 16.8997 23.5197 16.7875 23.57C16.7319 23.4787 16.686 23.4088 16.644 23.3357C16.2898 22.7153 15.5107 22.7573 15.1272 22.9838C14.7543 23.2035 14.7553 23.7472 15.1342 23.9654C15.3283 24.0774 15.5562 24.1287 15.7699 24.2033C16.07 24.3085 16.3944 24.3676 16.6678 24.522C17.2827 24.8703 17.3807 25.7732 16.8638 26.2355C16.7127 26.3708 16.5056 26.4656 16.309 26.5164C15.8341 26.6397 15.3581 26.6232 14.9104 26.3884C14.5901 26.2199 14.3692 25.9592 14.25 25.5545V25.555Z" fill="#0399D8"/>
<path d="M30.8082 25.2368C30.9456 25.314 31.0467 25.3705 31.1437 25.4254C31.172 25.6167 31.0613 25.7343 30.9709 25.8514C30.604 26.3262 30.1144 26.5708 29.5298 26.5838C28.8532 26.5988 28.2494 26.407 27.821 25.8235C27.2768 25.0823 27.2919 23.8918 27.8493 23.1636C28.1747 22.7392 28.6148 22.5189 29.1226 22.4541C29.6162 22.3909 30.0973 22.4531 30.5267 22.7438C30.8132 22.9382 31.0335 23.1864 31.1558 23.556C31.0335 23.6275 30.9214 23.6933 30.7789 23.7768C30.455 23.1543 29.9775 22.8195 29.2863 22.877C28.8906 22.9102 28.5582 23.0802 28.2964 23.3818C27.685 24.0867 27.7659 25.2254 28.4707 25.811C28.8543 26.1292 29.2969 26.2173 29.7764 26.1132C30.2529 26.0095 30.5833 25.712 30.8072 25.2373L30.8082 25.2368Z" fill="#0399D8"/>
<path d="M32.4813 22.9998C32.2918 22.9873 32.1519 22.9785 31.9922 22.9682V22.5634C32.1675 22.5499 32.3151 22.539 32.4944 22.5255V21.5781H32.9098V22.5395H33.7107V22.9811H32.9421C32.9361 23.0874 32.9265 23.1775 32.9259 23.2682C32.9249 24.0099 32.9401 24.7521 32.9199 25.4932C32.9078 25.9317 33.1751 26.1929 33.645 26.0416C33.7238 26.0162 33.8016 25.9892 33.9112 25.9524C33.9481 26.0918 33.981 26.2167 34.0133 26.339C33.7107 26.5267 33.4166 26.5588 33.1109 26.5028C32.788 26.4437 32.5126 26.1214 32.5025 25.7399C32.4823 24.9729 32.4869 24.2053 32.4813 23.4382C32.4803 23.3019 32.4813 23.1656 32.4813 22.9998Z" fill="#0399D8"/>
<path d="M39.4453 22.5568H39.8384C39.8485 22.6817 39.8581 22.7972 39.8708 22.9455C39.9248 22.903 39.9663 22.8807 39.9946 22.8465C40.3432 22.4199 41.1021 22.3945 41.4846 22.6247C41.6832 22.7439 41.8211 22.9071 41.902 23.1227C42.002 23.3907 41.8899 23.5379 41.5776 23.5368C41.564 23.5047 41.5463 23.4674 41.5326 23.429C41.3507 22.9253 40.897 22.748 40.4397 23.0175C40.0486 23.2476 39.8692 23.6187 39.8627 24.0696C39.8526 24.7512 39.8596 25.4327 39.8596 26.1142C39.8596 26.2158 39.8596 26.3174 39.8596 26.4366H39.4463V22.5568H39.4453Z" fill="#0399D8"/>
</g>
<defs>
<clipPath id="clip0_879_672">
<rect width="43" height="6.78947" fill="white" transform="translate(3 21)"/>
</clipPath>
</defs>
</svg>
