<svg width="49" height="49" viewBox="0 0 49 49" fill="none" xmlns="http://www.w3.org/2000/svg">
<rect width="49" height="49" rx="5" fill="white"/>
<g clip-path="url(#clip0_879_731)">
<path d="M16.543 32.1622V30.1855H16.8128V30.9513C16.8389 30.9157 16.8911 30.8711 16.9607 30.8266C17.0303 30.7821 17.1261 30.7643 17.2392 30.7643C17.3784 30.7643 17.4916 30.7999 17.5873 30.8622C17.683 30.9246 17.7527 31.0136 17.7962 31.1204C17.8397 31.2273 17.8658 31.3519 17.8658 31.4944C17.8658 31.6458 17.831 31.7704 17.7701 31.8862C17.7092 32.0019 17.6134 32.0909 17.5003 32.1533C17.3871 32.2156 17.2479 32.2512 17.0912 32.2512C16.9781 32.2512 16.8737 32.2423 16.7779 32.2245C16.6822 32.2067 16.6039 32.1889 16.543 32.1622ZM16.8041 31.4143V31.9752C16.8302 31.9841 16.865 31.993 16.9085 32.0019C16.952 32.0108 17.0042 32.0197 17.0912 32.0197C17.2479 32.0197 17.3697 31.9663 17.4568 31.8773C17.5438 31.7882 17.596 31.6547 17.596 31.5033C17.596 31.4143 17.5873 31.3341 17.5525 31.2629C17.5264 31.1917 17.4829 31.1293 17.422 31.0759C17.361 31.0314 17.2827 31.0047 17.1957 31.0047C17.1087 31.0047 17.039 31.0225 16.9781 31.067C16.9172 31.1026 16.8737 31.1561 16.8476 31.2184C16.8215 31.2807 16.8041 31.343 16.8041 31.4143Z" fill="#2D4245"/>
<path d="M17.9771 32.7507L18.0989 32.5548C18.1164 32.5726 18.1425 32.5904 18.1686 32.6082C18.1947 32.626 18.2295 32.626 18.2643 32.626C18.3252 32.626 18.3774 32.5993 18.4035 32.537C18.4384 32.4747 18.4732 32.3945 18.5167 32.2877L18.5515 32.1987L17.9336 30.8008H18.2382L18.682 31.8692L19.0737 30.8008H19.3696L18.8126 32.1809C18.7865 32.2432 18.7604 32.3144 18.7343 32.3945C18.7081 32.4747 18.6733 32.5459 18.6385 32.6171C18.6037 32.6884 18.5515 32.7507 18.4906 32.7952C18.4297 32.8397 18.36 32.8664 18.273 32.8664C18.2034 32.8664 18.1425 32.8575 18.0989 32.8397C18.0554 32.813 18.0119 32.7863 17.9771 32.7507Z" fill="#2D4245"/>
<path d="M22.3555 30.8801C22.3816 30.889 22.4077 30.8979 22.4251 30.9068L22.6079 30.3192C22.634 30.3281 22.6514 30.337 22.6775 30.3548L22.8515 29.8117C22.8341 29.7939 22.808 29.785 22.7906 29.7672L22.9908 29.1439L22.9212 29.1172L22.7297 29.7226C22.7123 29.7048 22.6862 29.6959 22.6601 29.687L22.4773 30.2658C22.5034 30.2747 22.5295 30.2836 22.5469 30.2925L22.3555 30.8801Z" fill="#08B4BE"/>
<path d="M23.6286 31.2989C23.6286 31.2722 23.6286 31.2455 23.6286 31.2188H23.2631C23.2631 31.2455 23.2631 31.2722 23.2718 31.2989H22.7148C22.7148 31.3078 22.7148 31.3256 22.7148 31.3345C22.7148 31.3434 22.7148 31.3612 22.7148 31.3701H23.2718C23.2718 31.3968 23.2718 31.4235 23.2631 31.4502H23.6286C23.6286 31.4235 23.6286 31.3968 23.6286 31.3701H24.525V31.29H23.6286V31.2989Z" fill="#08B4BE"/>
<path d="M22.2886 31.8145C22.2799 31.8145 22.2625 31.8145 22.2538 31.8145C22.2451 31.8145 22.2277 31.8145 22.219 31.8145V32.4555C22.2015 32.4555 22.1928 32.4555 22.1754 32.4555C22.1667 32.4555 22.1493 32.4555 22.1406 32.4555V33.1856C22.1667 33.1767 22.1928 33.1767 22.219 33.1678V33.6664H22.2973V33.15C22.3234 33.1411 22.3495 33.1322 22.3756 33.1322V32.4466C22.3495 32.4555 22.3234 32.4555 22.2973 32.4555L22.2886 31.8145Z" fill="#08B4BE"/>
<path d="M22.1383 31.7962C22.1122 31.7873 22.0861 31.7784 22.0687 31.7695L21.8685 32.4106C21.8424 32.4017 21.8163 32.3928 21.7989 32.3839L21.5378 33.1941C21.5639 33.1941 21.59 33.203 21.6162 33.203L21.5117 33.5325L21.5813 33.5592L21.6945 33.2119C21.7206 33.2119 21.7467 33.2119 21.7728 33.2119L22.0165 32.4373C21.9904 32.4373 21.9643 32.4284 21.9382 32.4195L22.1383 31.7962Z" fill="#08B4BE"/>
<path d="M23.3596 30.3718L23.0115 30.63C23.0289 30.6478 23.0463 30.6657 23.055 30.6924L22.5938 31.0307C22.6112 31.0485 22.6286 31.0663 22.6373 31.093L23.0898 30.7547C23.0985 30.7725 23.1159 30.7992 23.1246 30.8259L23.4553 30.5766C23.4466 30.5499 23.4379 30.5321 23.4205 30.5054L24.0993 29.9979L24.0558 29.9355L23.3857 30.4342C23.3857 30.4163 23.377 30.3896 23.3596 30.3718Z" fill="#08B4BE"/>
<path d="M22.7746 30.4071C22.792 30.425 22.8181 30.4339 22.8355 30.4517L22.4961 30.9325C22.5135 30.9503 22.5396 30.9592 22.557 30.977L22.8964 30.4962C22.9138 30.514 22.9312 30.5318 22.9486 30.5496L23.2271 30.1578C23.2097 30.14 23.1923 30.1222 23.1749 30.0955L23.6188 29.4723L23.5578 29.4277L23.1227 30.0421C23.1053 30.0243 23.0879 30.0065 23.0705 29.9887L22.7746 30.4071Z" fill="#08B4BE"/>
<path d="M23.55 30.7896L23.1845 30.9143C23.1932 30.941 23.2019 30.9588 23.2106 30.9855L22.6797 31.1636C22.6884 31.1903 22.6971 31.2081 22.7058 31.2348L23.2367 31.0567C23.2454 31.0835 23.2454 31.1102 23.2541 31.128L23.6109 31.0122C23.6022 30.9855 23.6022 30.9588 23.5935 30.941L24.4377 30.665L24.4116 30.5938L23.5761 30.8698C23.5587 30.8342 23.55 30.8163 23.55 30.7896Z" fill="#08B4BE"/>
<path d="M22.2081 30.2207V30.8617C22.2168 30.8617 22.2342 30.8617 22.2429 30.8617C22.2516 30.8617 22.269 30.8617 22.2777 30.8617V30.2207C22.3039 30.2207 22.33 30.2296 22.3561 30.2296V29.544C22.33 29.5351 22.3039 29.5262 22.2777 29.5262V29.0098H22.1994V29.5084C22.1733 29.4995 22.1472 29.4995 22.1211 29.4906V30.2207C22.1298 30.2207 22.1472 30.2207 22.1559 30.2207C22.182 30.2207 22.1994 30.2207 22.2081 30.2207Z" fill="#08B4BE"/>
<path d="M21.5378 29.4814L21.7989 30.2916C21.825 30.2827 21.8424 30.2738 21.8685 30.2649L22.0687 30.906C22.0948 30.8971 22.1122 30.8882 22.1383 30.8793L21.9382 30.2471C21.9643 30.2382 21.9904 30.2382 22.0165 30.2293L21.7728 29.4547C21.7467 29.4547 21.7206 29.4547 21.6945 29.4547L21.5813 29.1074L21.5117 29.1341L21.6162 29.4636C21.59 29.4725 21.5639 29.4725 21.5378 29.4814Z" fill="#08B4BE"/>
<path d="M20.4002 30.1047L21.2444 30.7369C21.2531 30.7191 21.2705 30.6924 21.2879 30.6746L21.8449 31.093C21.8536 31.0752 21.871 31.0485 21.8884 31.0307L21.3314 30.6122C21.3488 30.5944 21.3662 30.5766 21.3836 30.5499L20.5569 29.9355C20.5395 29.9534 20.5221 29.9712 20.5047 29.989L20.4263 29.9355L20.3828 29.9979L20.4524 30.0513C20.435 30.0691 20.4176 30.0958 20.4002 30.1047Z" fill="#08B4BE"/>
<path d="M23.2193 32.5184L22.9408 32.1266C22.9234 32.1444 22.906 32.1622 22.8886 32.18L22.5492 31.6992C22.5318 31.717 22.5144 31.7259 22.4883 31.7437L22.8277 32.2245C22.8103 32.2423 22.7929 32.2513 22.7668 32.2691L23.0627 32.6875C23.0801 32.6697 23.0975 32.6519 23.1149 32.6341L23.55 33.2485L23.611 33.2039L23.1671 32.5807C23.1845 32.554 23.2019 32.5362 23.2193 32.5184Z" fill="#08B4BE"/>
<path d="M21.3915 32.1173C21.374 32.0995 21.3566 32.0817 21.3392 32.055L21.8962 31.6365C21.8788 31.6187 21.8614 31.6009 21.8527 31.5742L21.2957 31.9927C21.2783 31.9749 21.2696 31.9482 21.2522 31.9304L20.408 32.5625C20.4254 32.5803 20.4428 32.5981 20.4602 32.616L20.3906 32.6694L20.4341 32.7317L20.5125 32.6783C20.5299 32.6961 20.5473 32.7139 20.5647 32.7317L21.3915 32.1173Z" fill="#08B4BE"/>
<path d="M22.8515 32.8745L22.6775 32.3313C22.6601 32.3402 22.634 32.358 22.6079 32.3669L22.4251 31.7793C22.399 31.7882 22.3816 31.7971 22.3555 31.806L22.5382 32.3937C22.5121 32.4026 22.4947 32.4115 22.4686 32.4204L22.6514 32.9991C22.6775 32.9902 22.6949 32.9724 22.721 32.9635L22.9125 33.5689L22.9821 33.5422L22.7819 32.919C22.808 32.9012 22.8254 32.8923 22.8515 32.8745Z" fill="#08B4BE"/>
<path d="M23.4631 32.1082L23.1324 31.8589C23.1237 31.8856 23.1063 31.9034 23.0976 31.9301L22.6451 31.5918C22.6364 31.6096 22.619 31.6363 22.6016 31.6541L23.0628 31.9925C23.0454 32.0103 23.0367 32.037 23.0193 32.0548L23.3674 32.313C23.3761 32.2952 23.3935 32.2685 23.4022 32.2418L24.0723 32.7404L24.1159 32.6781L23.437 32.1705C23.4457 32.1527 23.4544 32.126 23.4631 32.1082Z" fill="#08B4BE"/>
<path d="M23.5914 31.664L23.2345 31.5483C23.2258 31.575 23.2258 31.6017 23.2171 31.6195L22.6863 31.4414C22.6776 31.4681 22.6776 31.4948 22.6602 31.5126L23.191 31.6907C23.1823 31.7174 23.1736 31.7352 23.1649 31.7619L23.5304 31.8866C23.5391 31.8599 23.5391 31.8332 23.5478 31.8154L24.3833 32.0914L24.4094 32.0201L23.5653 31.7441C23.5827 31.7174 23.5914 31.6996 23.5914 31.664Z" fill="#08B4BE"/>
<path d="M20.9293 29.6779L21.4863 30.4614C21.5037 30.4436 21.5298 30.4347 21.5472 30.4169L21.9476 30.9778C21.965 30.96 21.9824 30.9511 22.0085 30.9333L21.6169 30.3813C21.6343 30.3635 21.6604 30.3546 21.6865 30.3457L21.1469 29.5889C21.1208 29.5978 21.0947 29.6067 21.0773 29.6156L20.9555 29.4375L20.8945 29.482L21.0164 29.6423C20.9729 29.6601 20.9555 29.669 20.9293 29.6779Z" fill="#08B4BE"/>
<path d="M21.0779 31.3779H21.7829C21.7829 31.369 21.7829 31.3512 21.7829 31.3423C21.7829 31.3334 21.7829 31.3156 21.7829 31.3067H21.0779C21.0779 31.28 21.0779 31.2533 21.0866 31.2266H19.9727V31.4581H21.0779C21.0779 31.4313 21.0779 31.4046 21.0779 31.3779Z" fill="#08B4BE"/>
<path d="M21.1221 31.0034L21.7922 31.226C21.8009 31.1993 21.8009 31.1725 21.8184 31.1547L21.1482 30.9321C21.1569 30.9054 21.1656 30.8876 21.1743 30.8609L20.13 30.5137C20.0952 30.5849 20.0691 30.6561 20.043 30.7274L21.096 31.0746C21.1134 31.0568 21.1221 31.0301 21.1221 31.0034Z" fill="#08B4BE"/>
<path d="M21.6766 32.3403C21.6504 32.3314 21.633 32.3136 21.6069 32.3047L21.9986 31.7437C21.9812 31.7259 21.955 31.717 21.9376 31.6992L21.5373 32.2602C21.5199 32.2423 21.4938 32.2334 21.4764 32.2156L20.9194 32.9992C20.9455 33.0081 20.9629 33.0259 20.989 33.0348L20.8672 33.195L20.9281 33.2396L21.0499 33.0615C21.0761 33.0704 21.0935 33.0793 21.1196 33.0882L21.6766 32.3403Z" fill="#08B4BE"/>
<path d="M21.1473 31.743L21.8175 31.5204C21.8088 31.4937 21.8001 31.4759 21.7914 31.4492L21.1212 31.6718C21.1125 31.6451 21.1038 31.6184 21.1038 31.6006L20.0508 31.9478C20.0769 32.0191 20.103 32.0903 20.1378 32.1615L21.1822 31.8143C21.1735 31.7965 21.156 31.7698 21.1473 31.743Z" fill="#08B4BE"/>
<path d="M36.1328 30.1855H36.42V31.0314H37.5079V30.1855H37.7951V32.2156H37.5079V31.2985H36.42V32.2156H36.1328V30.1855Z" fill="#2D4245"/>
<path d="M39.4556 32.0113C39.4382 32.0291 39.4121 32.0558 39.386 32.0825C39.3512 32.1092 39.3164 32.1359 39.2642 32.1626C39.212 32.1894 39.151 32.2161 39.0901 32.2339C39.0205 32.2517 38.9422 32.2606 38.8551 32.2606C38.7507 32.2606 38.6463 32.2428 38.5593 32.2072C38.4722 32.1716 38.3939 32.1181 38.333 32.0558C38.2721 31.9935 38.2198 31.9044 38.185 31.8154C38.1502 31.7175 38.1328 31.6195 38.1328 31.5038C38.1328 31.3969 38.1502 31.3079 38.185 31.2099C38.2198 31.1209 38.2634 31.0408 38.3243 30.9785C38.3852 30.9161 38.4548 30.8627 38.5418 30.8182C38.6289 30.7737 38.7159 30.7559 38.8203 30.7559C38.9422 30.7559 39.0379 30.7826 39.1249 30.8271C39.212 30.8716 39.2816 30.9339 39.3338 31.0141C39.386 31.0942 39.4295 31.1743 39.4556 31.2812C39.4818 31.3791 39.4905 31.486 39.4905 31.5928H38.4026C38.4026 31.6551 38.42 31.7086 38.4461 31.762C38.4722 31.8154 38.507 31.8599 38.5418 31.8955C38.5854 31.9312 38.6289 31.9668 38.6811 31.9846C38.7333 32.0024 38.7942 32.0202 38.8551 32.0202C38.9683 32.0202 39.0727 32.0024 39.1423 31.9579C39.2207 31.9133 39.2729 31.8777 39.3077 31.8421L39.4556 32.0113ZM39.2207 31.388C39.212 31.2812 39.1772 31.1832 39.1075 31.112C39.0379 31.0319 38.9422 30.9963 38.8203 30.9963C38.7594 30.9963 38.6985 31.0052 38.6463 31.0319C38.5941 31.0586 38.5505 31.0853 38.5157 31.1209C38.4809 31.1565 38.4548 31.201 38.4287 31.2456C38.4113 31.2901 38.3939 31.3435 38.3939 31.3969L39.2207 31.388Z" fill="#2D4245"/>
<path d="M40.6596 32.0469C40.6073 32.1181 40.5377 32.1716 40.4594 32.2072C40.3811 32.2428 40.2853 32.2606 40.1983 32.2606C40.1374 32.2606 40.0852 32.2517 40.0242 32.2339C39.972 32.2161 39.9198 32.1894 39.8676 32.1626C39.8241 32.127 39.7806 32.0825 39.7545 32.0291C39.7283 31.9757 39.7109 31.9044 39.7109 31.8243C39.7109 31.6729 39.7632 31.5483 39.8676 31.4593C39.972 31.3702 40.12 31.3257 40.3201 31.3257C40.3549 31.3257 40.3898 31.3257 40.4246 31.3257C40.4594 31.3257 40.4942 31.3346 40.529 31.3346C40.5638 31.3346 40.5899 31.3435 40.616 31.3435C40.6421 31.3435 40.6595 31.3524 40.6683 31.3524V31.2812C40.6683 31.1743 40.6334 31.1031 40.5725 31.0586C40.5116 31.0141 40.4246 30.9874 40.3201 30.9874C40.2157 30.9874 40.1287 31.0052 40.0678 31.0319C40.0068 31.0586 39.9546 31.0942 39.9111 31.1209L39.7893 30.9339C39.8154 30.9161 39.8415 30.8894 39.8763 30.8716C39.9111 30.8538 39.9459 30.836 39.9981 30.8182C40.0416 30.8004 40.0939 30.7915 40.1548 30.7737C40.2157 30.7648 40.2766 30.7559 40.355 30.7559C40.529 30.7559 40.677 30.8004 40.7727 30.8894C40.8771 30.9785 40.9293 31.1031 40.9293 31.2634V32.0825C40.9293 32.1359 40.9293 32.1716 40.9293 32.2072H40.677L40.6596 32.0469ZM40.6596 31.5483C40.6508 31.5483 40.6334 31.5394 40.616 31.5394C40.5899 31.5394 40.5638 31.5305 40.5377 31.5305C40.5116 31.5305 40.4768 31.5216 40.442 31.5216C40.4072 31.5216 40.3724 31.5216 40.3462 31.5216C40.2679 31.5216 40.207 31.5305 40.1635 31.5483C40.12 31.5661 40.0765 31.5928 40.0504 31.6195C40.0242 31.6462 40.0068 31.6818 39.9981 31.7086C39.9894 31.7442 39.9807 31.7709 39.9807 31.8065C39.9807 31.8866 40.0068 31.9401 40.0591 31.9846C40.1113 32.0202 40.1809 32.0469 40.2766 32.0469C40.3288 32.0469 40.3724 32.038 40.4246 32.0202C40.4681 32.0024 40.5116 31.9757 40.5464 31.949C40.5812 31.9222 40.6073 31.8866 40.6334 31.8421C40.6508 31.7976 40.6683 31.762 40.6683 31.7175L40.6596 31.5483Z" fill="#2D4245"/>
<path d="M41.2773 30.1855H41.5471V32.2156H41.2773V30.1855Z" fill="#2D4245"/>
<path d="M42.0336 31.0304H41.7812V30.7989H42.0336V30.3359H42.3034V30.7989H42.7038V31.0304H42.3034V31.7249C42.3034 31.8407 42.3208 31.9208 42.3556 31.9564C42.3905 32.0009 42.4427 32.0187 42.5036 32.0187C42.5558 32.0187 42.5993 32.0098 42.6341 31.992C42.6689 31.9742 42.7038 31.9475 42.7386 31.9208L42.8604 32.09C42.7995 32.1434 42.7473 32.1879 42.6863 32.2146C42.6254 32.2413 42.5558 32.2502 42.4688 32.2502C42.3208 32.2502 42.2164 32.2057 42.1468 32.1256C42.0771 32.0455 42.0423 31.9208 42.0423 31.7427L42.0336 31.0304Z" fill="#2D4245"/>
<path d="M43.0508 30.1855H43.3119V31.0136C43.3293 30.9869 43.3554 30.9602 43.3815 30.9335C43.4076 30.9067 43.4424 30.88 43.4772 30.8533C43.512 30.8266 43.5555 30.8088 43.6078 30.791C43.66 30.7732 43.7122 30.7643 43.7818 30.7643C43.9646 30.7643 44.0951 30.8177 44.1822 30.9246C44.2692 31.0314 44.3127 31.1739 44.3127 31.3608V32.2067H44.0429V31.3786C44.0429 31.2451 44.0168 31.1471 43.9559 31.0848C43.9037 31.0225 43.8253 30.9958 43.7209 30.9958C43.6426 30.9958 43.5817 31.0136 43.5294 31.0492C43.4772 31.0848 43.4337 31.1204 43.4076 31.1739C43.3728 31.2273 43.3554 31.2807 43.338 31.3519C43.3206 31.4143 43.3206 31.4855 43.3206 31.5567V32.2156H43.0508V30.1855Z" fill="#2D4245"/>
<path d="M31.4947 32.1794C31.5382 32.2061 31.5817 32.2328 31.634 32.2417C31.6862 32.2595 31.7297 32.2595 31.7732 32.2595C31.8689 32.2595 31.9473 32.2417 32.0082 32.2239C32.0691 32.1972 32.13 32.1527 32.1909 32.0814L32.2345 32.0369L32.2606 32.215H32.687V31.3602C32.687 31.2623 32.6696 31.1732 32.6435 31.102C32.6087 31.0308 32.5652 30.9685 32.5129 30.915C32.4607 30.8616 32.3911 30.826 32.3128 30.7993C32.2345 30.7726 32.1474 30.7637 32.0517 30.7637C31.8863 30.7637 31.7471 30.7815 31.6427 30.826C31.5469 30.8616 31.4686 30.8972 31.4164 30.9417L31.5817 31.1911C31.6253 31.1643 31.6688 31.1376 31.7297 31.1198C31.7993 31.0931 31.8863 31.0842 31.9821 31.0842C32.0082 31.0842 32.043 31.0842 32.0691 31.0931C32.1039 31.102 32.13 31.1109 32.1561 31.1287C32.1822 31.1465 32.2083 31.1643 32.2258 31.2C32.2432 31.2267 32.2519 31.2623 32.2519 31.3068V31.3691L32.2171 31.3602C32.1822 31.3513 32.1474 31.3513 32.1213 31.3513C32.0952 31.3513 32.0604 31.3513 32.0082 31.3513C31.9212 31.3513 31.8341 31.3602 31.7558 31.3869C31.6775 31.4047 31.6079 31.4404 31.5469 31.4849C31.486 31.5294 31.4425 31.5828 31.4077 31.6451C31.3729 31.7075 31.3555 31.7787 31.3555 31.8588C31.3555 31.939 31.3642 32.0102 31.399 32.0636C31.4164 32.1081 31.4512 32.1527 31.4947 32.1794ZM31.8689 31.6273C31.9125 31.5917 31.9821 31.565 32.0778 31.565C32.1387 31.565 32.1909 31.5739 32.2258 31.5828L32.2519 31.5917V31.7164C32.2519 31.7609 32.2432 31.8054 32.2258 31.841C32.2083 31.8766 32.1909 31.9033 32.1648 31.9212C32.1387 31.939 32.1126 31.9568 32.0778 31.9657C32.0517 31.9746 32.0169 31.9746 31.9908 31.9746C31.8602 31.9746 31.7906 31.9033 31.7906 31.7787C31.7906 31.7164 31.8167 31.6629 31.8689 31.6273Z" fill="#2D4245"/>
<path d="M30.4743 32.2697C30.5439 32.2697 30.6222 32.2608 30.7005 32.243C30.7789 32.2252 30.8398 32.1985 30.9007 32.1629C30.9616 32.1273 31.0051 32.0827 31.0487 32.0204C31.0835 31.967 31.1009 31.8958 31.1009 31.8156C31.1009 31.7711 31.0922 31.7177 31.0835 31.6821C31.0748 31.6376 31.0574 31.6019 31.0312 31.5663C31.0051 31.5307 30.9703 31.4951 30.9268 31.4684C30.8833 31.4417 30.8224 31.415 30.7528 31.3883C30.7005 31.3704 30.657 31.3615 30.6135 31.3437C30.57 31.3348 30.5352 31.317 30.5004 31.3081C30.4656 31.2992 30.4307 31.2814 30.4133 31.2636C30.3872 31.2458 30.3698 31.2102 30.3698 31.1746C30.3698 31.0944 30.4307 31.0588 30.5613 31.0588C30.6309 31.0588 30.7005 31.0766 30.7615 31.0944C30.8137 31.1122 30.8659 31.1389 30.9094 31.1657L31.0574 30.8896C30.979 30.8451 30.9007 30.8095 30.8224 30.7828C30.7353 30.7561 30.6222 30.7383 30.5091 30.7383C30.422 30.7383 30.335 30.7472 30.2654 30.7739C30.1958 30.8006 30.1261 30.8273 30.0826 30.8718C30.0304 30.9075 29.9956 30.952 29.9608 31.0054C29.9347 31.0588 29.9173 31.1122 29.9173 31.1657C29.9173 31.2191 29.926 31.2725 29.9434 31.317C29.9608 31.3615 29.9869 31.3972 30.0304 31.4328C30.0652 31.4684 30.1087 31.4951 30.161 31.5218C30.2132 31.5485 30.2654 31.5663 30.335 31.5841C30.4482 31.6198 30.5265 31.6465 30.57 31.6643C30.6222 31.691 30.657 31.7266 30.657 31.7711C30.657 31.8512 30.6048 31.878 30.5787 31.8869C30.5352 31.9047 30.4917 31.9047 30.4307 31.9047C30.3959 31.9047 30.3611 31.9047 30.3263 31.8958C30.2915 31.8869 30.248 31.878 30.2132 31.8691C30.1697 31.8512 30.1349 31.8423 30.1 31.8245C30.0739 31.8156 30.0565 31.7978 30.0304 31.78L29.8477 32.0649C29.9173 32.1184 30.0043 32.1629 30.1087 32.1896C30.2306 32.2519 30.3524 32.2697 30.4743 32.2697Z" fill="#2D4245"/>
<path d="M34.9234 31.8943C34.9408 31.9744 34.9756 32.0456 35.0191 32.099C35.0626 32.1525 35.1235 32.197 35.1932 32.2326C35.2715 32.2682 35.3585 32.2771 35.4716 32.2771C35.55 32.2771 35.6283 32.2593 35.7066 32.2326C35.7762 32.2059 35.8372 32.1703 35.8894 32.1347L35.7153 31.8586C35.6979 31.8676 35.6718 31.8854 35.6457 31.8943C35.6109 31.9121 35.5761 31.921 35.5413 31.921C35.4107 31.921 35.3411 31.8497 35.3411 31.7073V31.1553H35.6979V30.808H35.3411V30.3984H34.8886V30.808H34.6797V31.1553H34.8886V31.6272C34.8973 31.7251 34.906 31.8141 34.9234 31.8943Z" fill="#2D4245"/>
<path d="M33.6426 31.2008C33.6774 31.183 33.7209 31.1741 33.7731 31.1741C33.8514 31.1741 33.9037 31.2008 33.9385 31.2542C33.9733 31.3077 33.9907 31.37 33.9907 31.4501V32.2247H34.4432V31.3166C34.4432 31.2186 34.4345 31.1296 34.4084 31.0673C34.3823 30.996 34.3475 30.9426 34.304 30.8981C34.2605 30.8536 34.2083 30.8269 34.1473 30.8001C34.0864 30.7823 34.0168 30.7734 33.9472 30.7734C33.9211 30.7734 33.895 30.7734 33.8601 30.7823C33.8253 30.7912 33.7905 30.8001 33.7557 30.8091C33.7209 30.818 33.6861 30.8447 33.6513 30.8625C33.6165 30.8892 33.5817 30.9159 33.5643 30.9426L33.5207 30.996L33.4946 30.8001H33.0508V32.2069H33.5033V31.459C33.5033 31.4234 33.5033 31.3878 33.512 31.3611C33.5207 31.3255 33.5381 31.2988 33.5555 31.2631C33.5817 31.2364 33.6078 31.2097 33.6426 31.2008Z" fill="#2D4245"/>
<path d="M28.4294 31.5652C28.4294 31.4228 28.412 31.307 28.3772 31.2002C28.3424 31.1022 28.2901 31.0132 28.2292 30.9509C28.1683 30.8886 28.0987 30.8351 28.0117 30.7995C27.9246 30.7639 27.8376 30.7461 27.7419 30.7461C27.62 30.7461 27.5156 30.7639 27.4199 30.8084C27.3241 30.8529 27.2545 30.9064 27.1936 30.9776C27.1327 31.0488 27.0892 31.129 27.063 31.218C27.0369 31.307 27.0195 31.405 27.0195 31.5029C27.0195 31.7433 27.0892 31.9214 27.2197 32.0549C27.3502 32.1885 27.5504 32.2508 27.8115 32.2508C27.8811 32.2508 27.9507 32.2419 28.0117 32.233C28.0726 32.2241 28.1335 32.2063 28.177 32.1974C28.2292 32.1796 28.2727 32.1618 28.3076 32.144C28.3337 32.1351 28.3511 32.1173 28.3772 32.1084L28.2379 31.8234C28.1944 31.8413 28.1509 31.8591 28.09 31.8858C28.0117 31.9125 27.9333 31.9214 27.8376 31.9214C27.768 31.9214 27.7071 31.9125 27.6548 31.8947C27.6026 31.8769 27.5678 31.8591 27.533 31.8323C27.4982 31.8056 27.4808 31.7789 27.4634 31.7433C27.4547 31.7166 27.446 31.681 27.446 31.6543V31.6187H28.4207C28.4294 31.6365 28.4294 31.5652 28.4294 31.5652ZM28.0291 31.3872H27.4547V31.3605C27.4547 31.3337 27.4634 31.2981 27.4721 31.2714C27.4808 31.2447 27.4982 31.2091 27.5243 31.1913C27.5504 31.1646 27.5765 31.1468 27.6113 31.129C27.6461 31.1111 27.6897 31.1022 27.7419 31.1022C27.7941 31.1022 27.8376 31.1111 27.8724 31.129C27.9072 31.1468 27.9333 31.1646 27.9594 31.1913C27.9855 31.218 28.003 31.2447 28.0117 31.2803C28.0204 31.307 28.0291 31.3426 28.0291 31.3694V31.3872Z" fill="#2D4245"/>
<path d="M26.551 30.1855L26.0985 31.717L25.6198 30.1855H25.0977L25.8113 32.2156H26.3422L27.0645 30.1855H26.551Z" fill="#2D4245"/>
<path d="M29.5446 31.1741C29.5881 31.1741 29.6317 31.183 29.6665 31.183L29.7274 30.7912C29.71 30.7823 29.6926 30.7823 29.6839 30.7823C29.6578 30.7823 29.623 30.7734 29.5794 30.7734C29.5011 30.7734 29.4315 30.7912 29.3793 30.8269C29.3271 30.8625 29.2748 30.9159 29.24 30.9693L29.1965 31.0405L29.1704 30.8001H28.7266V32.2069H29.1791V31.5748C29.1791 31.3166 29.301 31.1741 29.5446 31.1741Z" fill="#2D4245"/>
<path d="M44.7059 30.5939C44.671 30.5939 44.6449 30.5849 44.6188 30.576C44.5927 30.5671 44.5666 30.5493 44.5492 30.5315C44.5318 30.5137 44.5144 30.487 44.5057 30.4603C44.497 30.4336 44.4883 30.398 44.4883 30.3624C44.4883 30.3267 44.497 30.3 44.5057 30.2644C44.5144 30.2288 44.5318 30.211 44.5492 30.1932C44.5666 30.1754 44.5927 30.1576 44.6188 30.1487C44.6449 30.1398 44.6797 30.1309 44.7059 30.1309C44.732 30.1309 44.7668 30.1398 44.7929 30.1487C44.819 30.1576 44.8451 30.1754 44.8625 30.1932C44.8799 30.211 44.8973 30.2377 44.906 30.2644C44.9147 30.2911 44.9234 30.3267 44.9234 30.3624C44.9234 30.398 44.9147 30.4247 44.906 30.4603C44.8973 30.487 44.8799 30.5137 44.8625 30.5315C44.8451 30.5493 44.819 30.5671 44.7929 30.576C44.7668 30.5849 44.7407 30.5939 44.7059 30.5939ZM44.7059 30.5404C44.732 30.5404 44.7494 30.5315 44.7755 30.5315C44.8016 30.5315 44.8103 30.5137 44.8277 30.4959C44.8451 30.4781 44.8538 30.4603 44.8625 30.4425C44.8712 30.4247 44.8712 30.398 44.8712 30.3713C44.8712 30.3445 44.8712 30.3178 44.8625 30.3C44.8538 30.2822 44.8451 30.2644 44.8277 30.2466C44.8103 30.2288 44.7929 30.2199 44.7755 30.211C44.7581 30.2021 44.732 30.2021 44.7059 30.2021C44.6797 30.2021 44.6623 30.211 44.6362 30.211C44.6101 30.211 44.6014 30.2288 44.584 30.2466C44.5666 30.2644 44.5579 30.2822 44.5492 30.3C44.5405 30.3178 44.5405 30.3445 44.5405 30.3713C44.5405 30.398 44.5405 30.4247 44.5492 30.4425C44.5579 30.4603 44.5666 30.4781 44.584 30.4959C44.6014 30.5137 44.6188 30.5226 44.6362 30.5315C44.6536 30.5404 44.6797 30.5404 44.7059 30.5404ZM44.6275 30.2466H44.7146C44.732 30.2466 44.7581 30.2555 44.7668 30.2644C44.7755 30.2733 44.7842 30.2911 44.7842 30.3178C44.7842 30.3356 44.7842 30.3445 44.7755 30.3624C44.7668 30.3713 44.7581 30.3802 44.7494 30.3891L44.8016 30.4781H44.7494L44.7059 30.398H44.6797V30.4781H44.6362V30.2466H44.6275ZM44.7059 30.3535C44.7146 30.3535 44.732 30.3535 44.732 30.3445C44.732 30.3356 44.7407 30.3267 44.7407 30.3178C44.7407 30.3089 44.7407 30.3 44.732 30.2911C44.7233 30.2822 44.7146 30.2822 44.7059 30.2822H44.671V30.3445H44.7059V30.3535Z" fill="#2D4245"/>
<path d="M20.4375 24.416V27.3899H21.4035V26.82V24.416H20.4375Z" fill="#2D4245"/>
<path d="M20.3945 23.1152V23.8631H21.4476V23.4358V23.1152H20.3945Z" fill="#2D4245"/>
<path d="M19.5531 25.1991C19.6401 25.1991 19.7271 25.208 19.8142 25.2259L19.936 24.3978C19.9012 24.3889 19.8664 24.38 19.8316 24.38C19.7706 24.3711 19.701 24.3711 19.6227 24.3711C19.4573 24.3711 19.3094 24.4067 19.1963 24.4868C19.0744 24.567 18.9787 24.6649 18.8917 24.7807L18.7959 24.9231L18.7437 24.4245H17.8125V27.3984H18.7785V26.0628C18.7785 25.4841 19.0396 25.1991 19.5531 25.1991Z" fill="#2D4245"/>
<path d="M27.5305 25.1991C27.6176 25.1991 27.7046 25.208 27.7916 25.2259L27.9135 24.3978C27.8786 24.3889 27.8438 24.38 27.809 24.38C27.7481 24.3711 27.6785 24.3711 27.5914 24.3711C27.4261 24.3711 27.2781 24.4067 27.165 24.4868C27.0432 24.567 26.9474 24.6649 26.8604 24.7807L26.7647 24.9231L26.7125 24.4245H25.7812V27.3984H26.7386V26.0628C26.756 25.4841 27.0171 25.1991 27.5305 25.1991Z" fill="#2D4245"/>
<path d="M24.7313 24.7716C24.592 24.6291 24.4354 24.5134 24.2439 24.4332C24.0524 24.3531 23.8436 24.3086 23.6086 24.3086C23.3736 24.3086 23.1647 24.3531 22.9733 24.4332C22.7818 24.5134 22.6165 24.6291 22.4859 24.7716C22.3467 24.914 22.2422 25.0832 22.1639 25.2791C22.0856 25.475 22.0508 25.6798 22.0508 25.9024C22.0508 26.125 22.0856 26.3386 22.1639 26.5256C22.2422 26.7215 22.3467 26.8818 22.4859 27.0331C22.6252 27.1756 22.7818 27.2913 22.9733 27.3715C23.1647 27.4516 23.3736 27.4961 23.6086 27.4961C23.8436 27.4961 24.0524 27.4516 24.2439 27.3715C24.4354 27.2913 24.6007 27.1756 24.7313 27.0331C24.8618 26.8907 24.9749 26.7215 25.0533 26.5256C25.1316 26.3297 25.1664 26.125 25.1664 25.9024C25.1664 25.6798 25.1316 25.475 25.0533 25.2791C24.9749 25.0832 24.8705 24.914 24.7313 24.7716ZM24.096 26.4366C23.9741 26.579 23.8175 26.6503 23.6173 26.6503C23.4171 26.6503 23.2605 26.579 23.1386 26.4366C23.0168 26.2941 22.9646 26.116 22.9646 25.9024C22.9646 25.6887 23.0255 25.5106 23.1386 25.3681C23.2605 25.2257 23.4171 25.1544 23.6173 25.1544C23.8175 25.1544 23.9741 25.2257 24.096 25.3681C24.2178 25.5106 24.27 25.6887 24.27 25.9024C24.27 26.116 24.2091 26.2941 24.096 26.4366Z" fill="#2D4245"/>
<path d="M11.9467 27.452C12.0338 27.4698 12.1208 27.4787 12.2078 27.4787C12.4254 27.4787 12.6256 27.4431 12.817 27.3719C12.9998 27.3006 13.1651 27.1938 13.3044 27.0513C13.4436 26.9178 13.5568 26.7397 13.6351 26.5349C13.7134 26.3301 13.7569 26.0986 13.7569 25.8315C13.7569 25.6357 13.7308 25.4487 13.6699 25.2706C13.6177 25.0925 13.5307 24.9323 13.4262 24.7987C13.3218 24.6651 13.1913 24.5583 13.0346 24.4782C12.8779 24.398 12.6952 24.3535 12.495 24.3535C12.4602 24.3535 12.408 24.3624 12.3471 24.3624C12.2862 24.3713 12.2252 24.3891 12.1643 24.4158C12.0947 24.4426 12.0338 24.4782 11.9641 24.5227C11.9032 24.5672 11.8423 24.6295 11.7901 24.7097L11.6944 24.8521L11.6334 24.4158H10.7109V28.7074H11.6683V27.3897L11.7466 27.4164C11.7988 27.4253 11.8597 27.4342 11.9467 27.452ZM11.677 26.6151V25.8493C11.677 25.6624 11.7205 25.511 11.8075 25.3863C11.9032 25.2528 12.0512 25.1905 12.2513 25.1905C12.3471 25.1905 12.4254 25.2172 12.495 25.2617C12.5646 25.3062 12.6169 25.3596 12.6604 25.4309C12.7039 25.5021 12.73 25.5733 12.7561 25.6624C12.7735 25.7425 12.7822 25.8226 12.7822 25.8939C12.7822 26.1788 12.7213 26.3836 12.5995 26.5171C12.4776 26.6507 12.3123 26.713 12.1208 26.713C11.9554 26.713 11.8249 26.6863 11.7118 26.6418L11.677 26.6151Z" fill="#2D4245"/>
<path d="M6.27796 26.695C6.36499 26.5348 6.40851 26.3567 6.40851 26.1697C6.40851 25.9471 6.37369 25.7602 6.29537 25.6088C6.22575 25.4574 6.13001 25.3328 6.01688 25.2259C5.90374 25.128 5.7732 25.039 5.62525 24.9766C5.4773 24.9143 5.32935 24.8609 5.1814 24.8075L4.97253 24.7451C4.8855 24.7095 4.79848 24.6828 4.71145 24.6561C4.62442 24.6294 4.5548 24.5938 4.49388 24.5582C4.43296 24.5136 4.38074 24.4691 4.34593 24.4157C4.31112 24.3534 4.28501 24.291 4.28501 24.2109C4.28501 24.1397 4.30241 24.0684 4.33722 24.015C4.37204 23.9616 4.41555 23.926 4.46777 23.8904C4.51998 23.8637 4.5722 23.837 4.63312 23.828C4.71145 23.8102 4.77237 23.8013 4.83329 23.8013C5.01605 23.8013 5.19011 23.837 5.36416 23.9171C5.51211 23.9794 5.66006 24.0684 5.79931 24.1664L6.30407 23.5075C6.26056 23.4719 6.20834 23.4274 6.14742 23.374C6.06039 23.3116 5.95596 23.2493 5.83412 23.1959C5.71228 23.1425 5.56433 23.0979 5.39027 23.0534C5.22492 23.0178 5.03345 23 4.83329 23C4.5722 23 4.33722 23.0356 4.13706 23.1068C3.93689 23.1781 3.77154 23.276 3.641 23.3918C3.51045 23.5075 3.40602 23.6589 3.3364 23.828C3.26677 23.9972 3.23196 24.1753 3.23196 24.3623C3.23196 24.5314 3.26677 24.6828 3.32769 24.8075C3.38861 24.9321 3.46694 25.0479 3.57137 25.1369C3.67581 25.2348 3.78894 25.315 3.91949 25.3773C4.05003 25.4485 4.18057 25.5019 4.31112 25.5465L4.54609 25.6266C4.77237 25.7067 4.94643 25.778 5.05956 25.8581C5.19011 25.9471 5.25973 26.0629 5.25973 26.1964C5.25973 26.2766 5.24232 26.3478 5.20751 26.4012C5.1727 26.4546 5.12918 26.4992 5.06826 26.5259C5.01605 26.5526 4.95513 26.5793 4.8855 26.5882C4.82458 26.5971 4.75496 26.606 4.70274 26.606C4.45906 26.606 4.23279 26.5526 4.03262 26.4457C3.85857 26.3567 3.71062 26.2588 3.59748 26.143L2.98828 26.8909C3.17974 27.0601 3.40602 27.2026 3.6584 27.3094C3.93689 27.4252 4.29371 27.4786 4.71145 27.4786C4.94643 27.4786 5.164 27.443 5.37286 27.3806C5.58173 27.3183 5.75579 27.2204 5.90374 27.1046C6.06909 26.9978 6.19093 26.8642 6.27796 26.695Z" fill="#2D4245"/>
<path d="M7.31543 27.2029C7.40246 27.2919 7.51559 27.3631 7.63743 27.4077C7.76798 27.4522 7.90722 27.47 8.05517 27.47C8.10739 27.47 8.16831 27.4611 8.23793 27.4522C8.30755 27.4433 8.38588 27.4166 8.46421 27.3899C8.54253 27.3631 8.62086 27.3186 8.69048 27.2741C8.7601 27.2296 8.82973 27.1673 8.88194 27.096L8.97767 26.9803L9.02989 27.3899H9.9611V24.416H8.98638V26.0098C8.98638 26.081 8.97767 26.1522 8.96027 26.2235C8.94286 26.2947 8.91675 26.357 8.87324 26.4194C8.82973 26.4817 8.77751 26.5262 8.70789 26.5618C8.63826 26.5974 8.55994 26.6152 8.46421 26.6152C8.28145 26.6152 8.1509 26.5618 8.08128 26.4461C8.01166 26.3392 7.97685 26.2057 7.97685 26.0365V24.416H7.01953V26.3125C7.01953 26.5262 7.04564 26.7043 7.09786 26.8467C7.15007 26.9981 7.2197 27.1138 7.31543 27.2029Z" fill="#2D4245"/>
<path d="M17.212 26.0181C17.212 25.7243 17.1772 25.475 17.0989 25.2613C17.0205 25.0476 16.9248 24.8695 16.7943 24.7271C16.6637 24.5846 16.5158 24.4778 16.3417 24.4154C16.1676 24.3442 15.9762 24.3086 15.7847 24.3086C15.5323 24.3086 15.3061 24.3531 15.1146 24.4511C14.9231 24.5401 14.7665 24.6647 14.6359 24.8161C14.5141 24.9675 14.4184 25.1366 14.3575 25.3325C14.2965 25.5284 14.2617 25.7243 14.2617 25.9202C14.2617 26.4188 14.401 26.8105 14.6882 27.0866C14.9667 27.3626 15.3844 27.505 15.924 27.505C16.0719 27.505 16.2112 27.4961 16.3417 27.4694C16.4722 27.4427 16.5941 27.416 16.6985 27.3893C16.803 27.3537 16.89 27.3181 16.9683 27.2824C17.0205 27.2557 17.064 27.2379 17.1076 27.2112L16.8204 26.6058C16.742 26.6503 16.6376 26.6948 16.5071 26.7304C16.3504 26.7838 16.1763 26.8016 15.9849 26.8016C15.8369 26.8016 15.7064 26.7838 15.6107 26.7571C15.5062 26.7215 15.4192 26.677 15.3583 26.6236C15.2887 26.5701 15.2451 26.5078 15.219 26.4366C15.1929 26.3743 15.1755 26.3119 15.1755 26.2496L15.1668 26.1784H17.2207L17.212 26.0181ZM16.3678 25.6352H15.1668V25.5729C15.1668 25.5106 15.1755 25.4483 15.2016 25.3859C15.2277 25.3236 15.2625 25.2613 15.3148 25.2079C15.367 25.1544 15.4279 25.1099 15.5062 25.0743C15.5846 25.0387 15.6716 25.0209 15.776 25.0209C15.8805 25.0209 15.9675 25.0387 16.0458 25.0743C16.1154 25.1099 16.1851 25.1544 16.2286 25.2079C16.2721 25.2613 16.3156 25.3236 16.3417 25.3859C16.3678 25.4483 16.3765 25.5106 16.3765 25.5729L16.3678 25.6352Z" fill="#2D4245"/>
<path d="M28.0469 23.1152H28.717L29.9876 26.6233L31.2582 23.1152H31.8935L30.2748 27.389H29.6656L28.0469 23.1152Z" fill="#2D4245"/>
<path d="M32.3281 23.2305H32.9634V23.8804H32.3281V23.2305ZM32.3629 24.4058H32.9286V27.3796H32.3629V24.4058Z" fill="#2D4245"/>
<path d="M33.9223 26.6414C34.0268 26.7482 34.1486 26.8373 34.2966 26.8996C34.4445 26.9619 34.6099 26.9975 34.8013 26.9975C34.9928 26.9975 35.1494 26.9708 35.2713 26.9085C35.3931 26.8462 35.4627 26.7482 35.4627 26.6147C35.4627 26.5434 35.4453 26.49 35.4192 26.4366C35.3931 26.3832 35.3496 26.3475 35.28 26.303C35.2104 26.2585 35.132 26.2318 35.0189 26.1962C34.9145 26.1606 34.7752 26.125 34.6186 26.0893C34.5054 26.0626 34.3923 26.027 34.2792 25.9825C34.166 25.938 34.0703 25.8846 33.9833 25.8133C33.8962 25.7421 33.8266 25.6531 33.7657 25.5551C33.7135 25.4572 33.6874 25.3325 33.6874 25.1901C33.6874 25.0476 33.7222 24.914 33.7831 24.8072C33.844 24.7004 33.931 24.6113 34.0442 24.5312C34.1573 24.4511 34.2704 24.3976 34.4097 24.362C34.5489 24.3264 34.6882 24.3086 34.8361 24.3086C35.0798 24.3086 35.2974 24.3442 35.4714 24.4065C35.6455 24.4689 35.8022 24.5668 35.9414 24.6826L35.6368 25.0832C35.5498 25.0031 35.4366 24.9319 35.3061 24.8784C35.1755 24.825 35.0189 24.7983 34.8448 24.7983C34.6708 24.7983 34.5228 24.825 34.4097 24.8873C34.3053 24.9497 34.2443 25.0476 34.2443 25.1812C34.2443 25.3058 34.314 25.4038 34.4619 25.4661C34.6012 25.5284 34.7926 25.5907 35.0276 25.6442C35.1668 25.6798 35.2974 25.7154 35.4105 25.7599C35.5324 25.8044 35.6368 25.8667 35.7238 25.9291C35.8109 26.0003 35.8892 26.0893 35.9414 26.1873C35.9936 26.2852 36.0197 26.4099 36.0197 26.5612C36.0197 26.7126 35.9849 26.8462 35.924 26.953C35.8544 27.0687 35.7673 27.1578 35.6542 27.2379C35.5411 27.3181 35.4105 27.3715 35.2626 27.4071C35.1146 27.4427 34.9667 27.4694 34.81 27.4694C34.2617 27.4694 33.844 27.3181 33.5742 27.0153L33.9223 26.6414Z" fill="#2D4245"/>
<path d="M36.6719 23.2305H37.3072V23.8804H36.6719V23.2305ZM36.7067 24.4058H37.2724V27.3796H36.7067V24.4058Z" fill="#2D4245"/>
<path d="M39.2084 27.5018C38.9821 27.5018 38.7732 27.4572 38.5905 27.3771C38.399 27.297 38.2424 27.1812 38.1031 27.0388C37.9639 26.8963 37.8594 26.7271 37.7811 26.5313C37.7028 26.3443 37.668 26.1395 37.668 25.9169C37.668 25.6943 37.7028 25.4984 37.7811 25.3025C37.8594 25.1156 37.9639 24.9464 38.1031 24.8039C38.2424 24.6615 38.399 24.5457 38.5905 24.4567C38.7819 24.3765 38.9821 24.332 39.2084 24.332C39.4347 24.332 39.6348 24.3765 39.8176 24.4567C40.009 24.5368 40.1657 24.6526 40.3049 24.8039C40.4442 24.9464 40.5486 25.1156 40.6269 25.3025C40.7053 25.4895 40.7401 25.6943 40.7401 25.9169C40.7401 26.1395 40.7053 26.3354 40.6269 26.5313C40.5486 26.7182 40.4442 26.8874 40.3049 27.0388C40.1657 27.1812 40.0003 27.297 39.8176 27.3771C39.6348 27.4572 39.4347 27.5018 39.2084 27.5018ZM39.2084 27.0032C39.3563 27.0032 39.4956 26.9764 39.6174 26.9141C39.7392 26.8518 39.8437 26.7717 39.922 26.6737C40.009 26.5758 40.07 26.46 40.1135 26.3265C40.157 26.1929 40.1831 26.0594 40.1831 25.9258C40.1831 25.7922 40.1657 25.6587 40.1135 25.534C40.07 25.4005 40.009 25.2847 39.922 25.1868C39.835 25.0888 39.7305 24.9998 39.6174 24.9375C39.4956 24.8752 39.365 24.8484 39.2171 24.8484C39.0691 24.8484 38.9299 24.8841 38.808 24.9375C38.6862 24.9998 38.5818 25.0799 38.5034 25.1779C38.4164 25.2758 38.3555 25.3916 38.312 25.5251C38.2685 25.6587 38.2424 25.7922 38.2424 25.9258C38.2424 26.0594 38.2598 26.1929 38.312 26.3265C38.3555 26.4511 38.4164 26.5669 38.5034 26.6737C38.5905 26.7806 38.6949 26.8607 38.808 26.923C38.9299 26.9675 39.0604 27.0032 39.2084 27.0032Z" fill="#2D4245"/>
<path d="M41.6571 27.3888V24.7177C41.6571 24.6198 41.6571 24.5218 41.6484 24.415H42.188L42.2054 24.8602C42.2402 24.8067 42.2924 24.7533 42.3447 24.691C42.3969 24.6287 42.4665 24.5752 42.5448 24.5218C42.6232 24.4684 42.7189 24.4328 42.8233 24.3972C42.9278 24.3616 43.0496 24.3438 43.1801 24.3438C43.5631 24.3438 43.8416 24.4595 44.0243 24.6821C44.2071 24.9047 44.3028 25.2163 44.3028 25.6081V27.3977H43.7371V25.6437C43.7371 25.3677 43.6762 25.1629 43.5631 25.0293C43.4499 24.8958 43.2846 24.8335 43.067 24.8335C42.9016 24.8335 42.7711 24.8691 42.658 24.9314C42.5448 24.9937 42.4665 25.0917 42.3969 25.1985C42.336 25.3054 42.2837 25.43 42.2576 25.5725C42.2315 25.7149 42.2141 25.8485 42.2141 25.9998V27.3799H41.6571V27.3888Z" fill="#2D4245"/>
<path d="M44.6173 23.9261C44.5651 23.9261 44.5129 23.9172 44.4606 23.8994C44.4171 23.8816 44.3736 23.8549 44.3388 23.8193C44.304 23.7836 44.2779 23.748 44.2605 23.6946C44.2431 23.6501 44.2344 23.5967 44.2344 23.5343C44.2344 23.472 44.2431 23.4275 44.2605 23.3741C44.2779 23.3207 44.304 23.285 44.3388 23.2494C44.3736 23.2138 44.4171 23.1871 44.4606 23.1693C44.5042 23.1515 44.5564 23.1426 44.6173 23.1426C44.6782 23.1426 44.7217 23.1515 44.774 23.1693C44.8262 23.1871 44.861 23.2138 44.8958 23.2494C44.9306 23.285 44.9567 23.3207 44.9741 23.3741C44.9915 23.4275 45.0002 23.472 45.0002 23.5343C45.0002 23.5967 44.9915 23.6412 44.9741 23.6946C44.9567 23.748 44.9306 23.7836 44.8958 23.8193C44.861 23.8549 44.8175 23.8816 44.774 23.8994C44.7304 23.9172 44.6695 23.9261 44.6173 23.9261ZM44.6173 23.8371C44.6608 23.8371 44.7043 23.8282 44.7391 23.8193C44.774 23.8104 44.8088 23.7836 44.8349 23.7569C44.861 23.7302 44.8784 23.6946 44.8958 23.659C44.9132 23.6234 44.9132 23.5789 44.9132 23.5343C44.9132 23.4898 44.9045 23.4453 44.8958 23.4097C44.8784 23.3741 44.861 23.3385 44.8349 23.3117C44.8088 23.285 44.774 23.2672 44.7391 23.2494C44.7043 23.2316 44.6608 23.2316 44.6173 23.2316C44.5738 23.2316 44.5303 23.2405 44.4955 23.2494C44.4606 23.2583 44.4258 23.285 44.3997 23.3117C44.3736 23.3385 44.3562 23.3741 44.3388 23.4097C44.3214 23.4453 44.3214 23.4898 44.3214 23.5343C44.3214 23.5789 44.3301 23.6234 44.3388 23.659C44.3562 23.6946 44.3736 23.7302 44.3997 23.7569C44.4258 23.7836 44.4519 23.8015 44.4955 23.8193C44.539 23.8371 44.5738 23.8371 44.6173 23.8371ZM44.4868 23.3296H44.6434C44.6782 23.3296 44.713 23.3385 44.7304 23.3652C44.7478 23.3919 44.7652 23.4186 44.7652 23.4542C44.7652 23.4809 44.7565 23.5076 44.7478 23.5254C44.7391 23.5432 44.7217 23.5611 44.6956 23.57L44.7914 23.7124H44.7043L44.626 23.57H44.5738V23.7124H44.4955L44.4868 23.3296ZM44.6086 23.5076C44.626 23.5076 44.6434 23.4987 44.6608 23.4987C44.6695 23.4898 44.6782 23.472 44.6782 23.4542C44.6782 23.4364 44.6695 23.4186 44.6608 23.4097C44.6521 23.4008 44.6347 23.3919 44.6173 23.3919H44.5477V23.5076H44.6086Z" fill="white"/>
</g>
<defs>
<clipPath id="clip0_879_731">
<rect width="42" height="10.6667" fill="white" transform="translate(3 23)"/>
</clipPath>
</defs>
</svg>
