<svg width="49" height="49" viewBox="0 0 49 49" fill="none" xmlns="http://www.w3.org/2000/svg">
<rect width="49" height="49" rx="5" fill="white"/>
<g clip-path="url(#clip0_879_912)">
<path d="M5.1604 29.8581C5.58813 30.004 6.03843 30.0826 6.52208 30.0826C8.57037 30.0826 9.99953 28.6004 9.99953 25.7825V17.3843L10.7762 17.0137V25.9284C10.7762 28.8027 9.2906 30.4756 7.18612 30.4756C6.45487 30.4756 5.76825 30.2511 5.1604 29.8581ZM4.27162 29.0046C4.74424 29.1618 5.21686 29.2629 5.6333 29.2629C7.35495 29.2629 8.50289 28.1852 8.50289 25.7487V18.0243L9.26801 17.6649V25.8161C9.26801 28.3647 7.97382 29.6671 6.1734 29.6671C5.50936 29.6671 4.83403 29.4201 4.27162 29.0046ZM3.73125 28.2413C4.14768 28.3647 4.53024 28.4433 4.8679 28.4433C6.20726 28.4433 7.02858 27.7134 7.02858 25.7935V18.6755L7.78267 18.3161V25.6814C7.78267 27.8371 6.79227 28.8139 5.3744 28.8139C4.77784 28.8139 4.21516 28.6117 3.73125 28.2413ZM6.31965 25.9958V18.9674L3 20.4605V26.1642C3 27.2532 3.68635 27.983 4.69907 27.983C5.70078 27.983 6.31965 27.2419 6.31965 25.9958Z" fill="#293682"/>
<path d="M15.0508 18.9562V21.5767C15.0508 22.5444 15.6243 23.3003 16.7217 23.3003C17.6631 23.3003 18.3713 22.608 18.3713 21.5555V19.027C18.3713 18.7516 18.5554 18.5255 18.8667 18.5043L18.9659 18.497V18.25H17.3163V18.497L17.4225 18.5043C17.7269 18.5255 17.918 18.7443 17.918 19.027V21.478C17.918 22.2762 17.5005 22.7633 16.8491 22.7633C16.1907 22.7633 15.8012 22.2478 15.8012 21.4708V18.9562C15.8012 18.6808 15.9498 18.5255 16.2614 18.5043L16.3606 18.497V18.25H14.4844V18.497L14.5906 18.5043C14.8949 18.5255 15.0508 18.6738 15.0508 18.9562Z" fill="#293682"/>
<path d="M17.2772 24.5442L17.3834 24.5511C17.6453 24.5654 17.8437 24.6713 17.8437 24.968V26.5078H15.9887V24.968C15.9887 24.6713 16.1871 24.5726 16.4489 24.5511L16.5481 24.5442V24.2969H14.6719V24.5442L14.7781 24.5511C15.0399 24.5654 15.2383 24.6713 15.2383 24.968V28.5704C15.2383 28.867 15.0399 28.973 14.7781 28.9869L14.6719 28.9942V29.2412H16.5481V28.9942L16.4489 28.9869C16.1871 28.9658 15.9887 28.867 15.9887 28.5704V26.8892H17.8437V28.5704C17.8437 28.867 17.6453 28.973 17.3834 28.9869L17.2772 28.9942V29.2412H19.1534V28.9942L19.0542 28.9869C18.7924 28.9658 18.594 28.867 18.594 28.5704V24.968C18.594 24.6713 18.7924 24.5726 19.0542 24.5511L19.1534 24.5442V24.2969H17.2772" fill="#293682"/>
<path d="M18.957 19.6977V19.9308L19.0987 19.9378C19.3181 19.952 19.4528 20.058 19.4528 20.3546V22.5301C19.4528 22.8268 19.3038 22.9327 19.0632 22.9469L18.957 22.9539V23.194H20.6349V22.9539L20.5359 22.9469C20.295 22.9327 20.1464 22.8268 20.1464 22.5301V21.3717C20.1606 20.5241 20.5287 20.0156 20.9607 20.0156C21.2932 20.0156 21.5129 20.2417 21.5129 20.6794V22.5301C21.5129 22.8268 21.3642 22.9327 21.1233 22.9469L21.0172 22.9539V23.194H22.695V22.9539L22.596 22.9469C22.3554 22.9327 22.2065 22.8268 22.2065 22.5301V20.6019C22.2065 20.051 21.8667 19.5918 21.194 19.5918C20.7198 19.5918 20.3093 19.8742 20.1464 20.3758V19.606" fill="#293682"/>
<path d="M28.6417 23.2636C29.3566 23.2636 29.7604 22.7763 29.923 22.2254L29.6187 22.1406C29.477 22.522 29.2294 22.8187 28.7337 22.8187C28.1602 22.8187 27.7707 22.275 27.7707 21.4129H29.9728V21.2083C29.9728 20.2971 29.4345 19.5625 28.5708 19.5625C27.6435 19.5625 27.0273 20.4452 27.0273 21.4129C27.0273 22.3807 27.6223 23.2636 28.6417 23.2636ZM28.5638 19.9651C28.9531 19.9651 29.2009 20.3253 29.2294 21.0669H27.7849C27.8559 20.3819 28.139 19.9651 28.5638 19.9651Z" fill="#293682"/>
<path d="M25.1592 22.4014C25.1592 22.9523 25.492 23.2632 26.023 23.2632C26.5185 23.2632 26.8443 22.903 26.993 22.3872L26.7381 22.3166C26.6389 22.6133 26.476 22.797 26.2494 22.797C25.952 22.797 25.8531 22.5779 25.8531 22.3236V20.0352H26.8231V19.6677H25.8531V18.5801H25.499C25.3643 19.3995 24.9468 19.6961 24.5078 19.7879V20.0352H25.1592" fill="#293682"/>
<path d="M23.6718 19.0339C23.9124 19.0339 24.1247 18.8292 24.1247 18.5608C24.1247 18.3065 23.9124 18.1016 23.6718 18.1016C23.4241 18.1016 23.2188 18.3065 23.2188 18.5608C23.2188 18.8292 23.4241 19.0339 23.6718 19.0339Z" fill="#293682"/>
<path d="M23.3474 20.3541V22.5296C23.3474 22.8262 23.1987 22.9322 22.9578 22.9464L22.8516 22.9534V23.1934H24.5297V22.9534L24.4305 22.9464C24.1899 22.9322 24.0412 22.8262 24.0412 22.5296V19.6055L22.8164 19.6972V19.9303L22.9933 19.9373C23.2127 19.9445 23.3474 20.0574 23.3474 20.3541Z" fill="#293682"/>
<path d="M31.7793 23.2631C32.2466 23.2631 32.6076 23.0231 32.7635 22.6135V23.1923H33.9459V22.9525L33.8467 22.9453C33.6061 22.9311 33.4574 22.8251 33.4574 22.5285V18.1562L32.2538 18.2622V18.4953L32.4095 18.5025C32.6289 18.5095 32.7635 18.6224 32.7635 18.9191V20.1904C32.6076 19.7951 32.2466 19.562 31.7793 19.562C30.8518 19.562 30.3281 20.4447 30.3281 21.4124C30.3281 22.3801 30.8518 23.2631 31.7793 23.2631ZM31.8998 19.9646C32.4237 19.9646 32.7635 20.5297 32.7635 21.4124C32.7635 22.2954 32.4237 22.8605 31.8998 22.8605C31.4043 22.8605 31.0785 22.3026 31.0785 21.4124C31.0785 20.5225 31.4043 19.9646 31.8998 19.9646Z" fill="#293682"/>
<path d="M42.3169 25.625C41.9064 25.625 41.5523 25.8935 41.3966 26.3736V25.6534L40.207 25.7452V25.9782L40.3487 25.9852C40.5684 25.9994 40.7028 26.1054 40.7028 26.402V28.5776C40.7028 28.8742 40.5538 28.9801 40.3132 28.9944L40.207 29.0013V29.2414H41.8851V29.0013L41.7859 28.9944C41.5453 28.9801 41.3966 28.8742 41.3966 28.5776V27.391C41.4106 26.508 41.7929 25.9571 42.2602 25.9571C42.3664 25.9571 42.4373 25.9852 42.4938 26.0488C42.3736 26.1124 42.2956 26.2325 42.2956 26.3808C42.2956 26.5858 42.4656 26.7553 42.6709 26.7553C42.8764 26.7553 43.0462 26.5858 43.0462 26.3454C43.0462 25.9005 42.7134 25.625 42.3169 25.625Z" fill="#293682"/>
<path d="M44.5981 25.6113C43.6709 25.6113 43.0547 26.494 43.0547 27.4618C43.0547 28.4295 43.6494 29.3125 44.6691 29.3125C45.3839 29.3125 45.7875 28.8251 45.9504 28.2742L45.6461 28.1894C45.5044 28.5708 45.2565 28.8675 44.761 28.8675C44.1876 28.8675 43.798 28.3236 43.798 27.4618H46.0001V27.2571C46.0001 26.346 45.4619 25.6113 44.5981 25.6113ZM43.8123 27.1158C43.8833 26.4307 44.1663 26.0139 44.5911 26.0139C44.9804 26.0139 45.2283 26.3741 45.2565 27.1158" fill="#293682"/>
<path d="M39.606 28.6559V26.8121C39.606 26.0566 39.1315 25.6113 38.3314 25.6113C37.6448 25.6113 37.0359 26.0635 37.0359 26.5791C37.0359 26.7982 37.1988 26.9677 37.4112 26.9677C37.6166 26.9677 37.7865 26.7982 37.7865 26.5933C37.7865 26.4519 37.7085 26.3248 37.5953 26.2612C37.7228 26.0847 37.9491 25.9788 38.2255 25.9788C38.6572 25.9788 38.9191 26.3036 38.9191 26.8475V27.0101L37.8714 27.4408C37.1703 27.7305 36.9297 27.9848 36.9297 28.444C36.9297 28.9737 37.312 29.3127 37.9139 29.3127C38.3669 29.3127 38.7422 29.0373 38.9121 28.6205V28.7264C38.9121 29.0866 39.167 29.3058 39.5917 29.3058C39.7617 29.3058 39.8961 29.2843 40.0377 29.2419V29.0019C39.7404 29.0373 39.606 28.9244 39.606 28.6559ZM38.9121 27.8577C38.8766 28.4791 38.5653 28.8959 38.1333 28.8959C37.8217 28.8959 37.6236 28.684 37.6236 28.359C37.6236 28.0696 37.7792 27.8434 38.0768 27.7163L38.9191 27.3421" fill="#293682"/>
<path d="M29.6678 28.3655C29.5686 28.6621 29.4057 28.8458 29.1793 28.8458C28.882 28.8458 28.7828 28.627 28.7828 28.3727V26.084H29.7528V25.7168H28.7828V24.6289H28.4287C28.2943 25.4483 27.8765 25.745 27.4375 25.837V26.084H28.0889V28.4502C28.0889 29.0014 28.4217 29.312 28.9527 29.312C29.4484 29.312 29.774 28.9518 29.9227 28.4363" fill="#293682"/>
<path d="M25.1802 28.6559V26.8121C25.1802 26.0566 24.7057 25.6113 23.9056 25.6113C23.219 25.6113 22.6101 26.0635 22.6101 26.5791C22.6101 26.7982 22.773 26.9677 22.9854 26.9677C23.1908 26.9677 23.3607 26.7982 23.3607 26.5933C23.3607 26.4519 23.2827 26.3248 23.1696 26.2612C23.297 26.0847 23.5234 25.9788 23.7997 25.9788C24.2315 25.9788 24.4933 26.3036 24.4933 26.8475V27.0101L23.4457 27.4408C22.7445 27.7305 22.5039 27.9848 22.5039 28.444C22.5039 28.9737 22.8862 29.3127 23.4881 29.3127C23.9411 29.3127 24.3164 29.0373 24.4863 28.6205V28.7264C24.4863 29.0866 24.7412 29.3058 25.166 29.3058C25.3359 29.3058 25.4703 29.2843 25.612 29.2419V29.0019C25.3146 29.0373 25.1802 28.9244 25.1802 28.6559ZM24.4863 27.8577C24.4508 28.4791 24.1395 28.8959 23.7075 28.8959C23.3962 28.8959 23.1978 28.684 23.1978 28.359C23.1978 28.0696 23.3534 27.8434 23.651 27.7163L24.4933 27.3421" fill="#293682"/>
<path d="M35.5227 28.8675C34.9493 28.8675 34.5598 28.3236 34.5598 27.4618C34.5598 26.586 34.942 26.0281 35.5158 26.0281C35.7706 26.0281 35.9688 26.1126 36.0889 26.2682C35.983 26.3387 35.912 26.4589 35.912 26.593C35.912 26.7979 36.0819 26.9674 36.2873 26.9674C36.4997 26.9674 36.6626 26.7979 36.6626 26.5576C36.6626 26.1338 36.2379 25.6113 35.4803 25.6113C34.4253 25.6113 33.8164 26.4943 33.8164 27.4618C33.8164 28.4295 34.4111 29.3125 35.4308 29.3125C36.1317 29.3125 36.5279 28.8463 36.6839 28.3166L36.3793 28.2248C36.2448 28.5851 36.004 28.8675 35.5227 28.8675Z" fill="#293682"/>
<path d="M26.9692 28.5773V24.2051L25.7656 24.311V24.5441L25.9213 24.5511C26.1409 24.5583 26.2753 24.6712 26.2753 24.9679V28.5773C26.2753 28.874 26.1267 28.9799 25.8861 28.9941L25.7799 29.0011V29.2411H27.4577V29.0011L27.3585 28.9941C27.1179 28.9799 26.9692 28.874 26.9692 28.5773Z" fill="#293682"/>
<path d="M33.17 28.5773V26.6491C33.17 26.0982 32.8302 25.639 32.1575 25.639C31.6833 25.639 31.2725 25.9214 31.1096 26.423V24.2051L29.9062 24.311V24.5441L30.0619 24.5511C30.2813 24.5583 30.416 24.6712 30.416 24.9679V28.5773C30.416 28.874 30.2673 28.9799 30.0264 28.9941L29.9202 29.0011V29.2411H31.5983V29.0011L31.4991 28.9941C31.2582 28.9799 31.1096 28.874 31.1096 28.5773V27.4189C31.1238 26.5713 31.4921 26.0628 31.9239 26.0628C32.2565 26.0628 32.4761 26.2889 32.4761 26.7269V28.5773C32.4761 28.874 32.3274 28.9799 32.0868 28.9941L31.9806 29.0011V29.2411H33.6584V29.0011L33.5593 28.9941C33.3186 28.9799 33.17 28.874 33.17 28.5773Z" fill="#293682"/>
<path d="M20.8325 25.6113C19.905 25.6113 19.2891 26.494 19.2891 27.4618C19.2891 28.4295 19.8837 29.3125 20.9032 29.3125C21.6183 29.3125 22.0218 28.8251 22.1847 28.2742L21.8801 28.1894C21.7387 28.5708 21.4909 28.8675 20.9954 28.8675C20.422 28.8675 20.0324 28.3236 20.0324 27.4618H22.2342V27.2571C22.2342 26.346 21.6963 25.6113 20.8325 25.6113ZM20.0467 27.1158C20.1176 26.4307 20.4007 26.0139 20.8255 26.0139C21.2148 26.0139 21.4626 26.3741 21.4909 27.1158" fill="#293682"/>
</g>
<defs>
<clipPath id="clip0_879_912">
<rect width="43" height="13.4902" fill="white" transform="translate(3 17)"/>
</clipPath>
</defs>
</svg>
