<svg width="49" height="49" viewBox="0 0 49 49" fill="none" xmlns="http://www.w3.org/2000/svg">
<rect width="49" height="49" rx="5" fill="white"/>
<path d="M37.9553 27.413H38.1557L38.1512 26.8127L38.454 27.1994H38.4945C38.5361 27.1455 38.7601 26.8757 38.8018 26.8228L38.7973 27.413H38.9988V26.5137H38.8131L38.4765 26.9364L38.1455 26.5137H37.9542V27.413H37.9553ZM37.2484 27.413H37.4476V26.6868H37.7819V26.5137H36.9141V26.6868H37.2484V27.413Z" fill="#3A60FF"/>
<path d="M33.399 19.1338C32.4286 19.1338 31.491 19.4991 30.9529 20.3119L30.9236 20.0938C30.8606 19.6183 30.5128 19.3193 29.897 19.3193H27.7414V29.9989H30.1661C30.7705 29.9989 31.1049 29.6099 31.1049 29.0591V26.8164C31.6587 27.3908 32.5694 27.5875 33.2977 27.5875C35.4218 27.5875 37.0439 26.0002 37.0439 23.3663C37.0439 20.7323 35.5231 19.1338 33.399 19.1338ZM32.3397 24.9109C31.4876 24.9109 30.8944 24.2847 30.8944 23.3663C30.8944 22.4478 31.4831 21.8363 32.3397 21.8363C33.1964 21.8363 33.82 22.4343 33.82 23.3663C33.82 24.2982 33.1918 24.9109 32.3397 24.9109ZM23.5112 21.9847C23.4256 21.9746 22.9101 21.9138 22.6669 21.8846C22.4069 21.8531 22.1739 21.8138 22.1739 21.6148C22.1739 21.4158 22.4317 21.3641 22.7592 21.3641C23.3198 21.3641 23.9277 21.435 24.764 21.6238C25.3381 21.7531 25.7569 21.5159 25.8818 21.0392L26.278 19.5003C25.3133 19.1697 24.1269 19 22.9427 19C20.3008 19 18.8847 20.168 18.8847 21.8711C18.8847 23.3798 19.7807 24.2993 21.9172 24.5939C22.0039 24.6062 22.3945 24.6534 22.4812 24.6636C23.1532 24.7355 23.3693 24.7895 23.3671 24.9907C23.3648 25.1661 23.1678 25.2414 22.6534 25.2414C21.9195 25.2414 21.145 25.093 20.3773 24.885C19.7301 24.7097 19.3552 24.9221 19.1751 25.3538L18.6247 26.958C19.7211 27.4133 21.4478 27.6988 22.659 27.6988C25.2638 27.6988 26.7047 26.777 26.7047 24.7704C26.7047 23.237 25.7974 22.2578 23.5134 21.9858L23.5112 21.9847ZM14.5081 22.9897C14.5025 22.9818 14.5025 22.9717 14.5081 22.9649C14.5149 22.956 14.5284 22.9548 14.5374 22.9616C14.9224 23.2696 15.4132 23.454 15.9478 23.454C17.1838 23.454 18.1845 22.4692 18.1845 21.2562C18.1845 20.0432 17.1849 19.0562 15.949 19.0573C14.713 19.0585 13.7123 20.0421 13.7123 21.2551C13.7123 21.4945 13.7517 21.725 13.8237 21.9408C13.8271 21.9521 13.8215 21.9633 13.8102 21.9678C13.8012 21.9712 13.7922 21.9678 13.7866 21.9599L12.4617 20.0702C12.0891 19.5385 11.6039 19.118 10.7259 19.1327C9.68354 19.1506 8.9845 19.9488 9.00026 20.8616C9.00702 21.2821 9.1995 21.7182 9.46066 22.0915L12.9344 27.0457C13.307 27.5774 13.9543 27.5774 14.3269 27.0457L15.8387 24.8884L14.5081 22.9897Z" fill="#3A60FF"/>
</svg>
